<?xml version="1.0" standalone="no"?>
 <!DOCTYPE svg PUBLIC "-//W3C//DTD SVG 1.1//EN" 
 "http://www.w3.org/Graphics/SVG/1.1/DTD/svg11.dtd"> 
<svg
  xmlns:svg="http://www.w3.org/2000/svg"
  xmlns="http://www.w3.org/2000/svg"
  xmlns:xlink="http://www.w3.org/1999/xlink"
  version="1.1"
  width="89.4842mm" height="64.9986mm" viewBox="0.0000 0.0000 89.4842 64.9986">
<title>SVG Image created as LCD.svg date 2024/06/28 11:56:41 </title>
  <desc>Image generated by PCBNEW </desc>
<g style="fill:#000000; fill-opacity:1.0000;stroke:#000000; stroke-opacity:1.0000;
stroke-linecap:round; stroke-linejoin:round;"
 transform="translate(0 0) scale(1 1)">
</g>
<g style="fill:#4D7FC4; fill-opacity:1.0000; stroke:none;">
<circle cx="87.3300" cy="8.3700" r="0.7620" /> 
<circle cx="84.7900" cy="8.3700" r="0.7620" /> 
<circle cx="87.3300" cy="10.9100" r="0.7620" /> 
<circle cx="84.7900" cy="10.9100" r="0.7620" /> 
<circle cx="87.3300" cy="13.4500" r="0.7620" /> 
<circle cx="84.7900" cy="13.4500" r="0.7620" /> 
<circle cx="87.3300" cy="15.9900" r="0.7620" /> 
<circle cx="84.7900" cy="15.9900" r="0.7620" /> 
<circle cx="87.3300" cy="18.5300" r="0.7620" /> 
<circle cx="84.7900" cy="18.5300" r="0.7620" /> 
<circle cx="87.3300" cy="21.0700" r="0.7620" /> 
<circle cx="84.7900" cy="21.0700" r="0.7620" /> 
<circle cx="87.3300" cy="23.6100" r="0.7620" /> 
<circle cx="84.7900" cy="23.6100" r="0.7620" /> 
<circle cx="87.3300" cy="26.1500" r="0.7620" /> 
<circle cx="84.7900" cy="26.1500" r="0.7620" /> 
<circle cx="87.3300" cy="28.6900" r="0.7620" /> 
<circle cx="84.7900" cy="28.6900" r="0.7620" /> 
<circle cx="87.3300" cy="31.2300" r="0.7620" /> 
<circle cx="84.7900" cy="31.2300" r="0.7620" /> 
<circle cx="87.3300" cy="33.7700" r="0.7620" /> 
<circle cx="84.7900" cy="33.7700" r="0.7620" /> 
<circle cx="87.3300" cy="36.3100" r="0.7620" /> 
<circle cx="84.7900" cy="36.3100" r="0.7620" /> 
<circle cx="87.3300" cy="38.8500" r="0.7620" /> 
<circle cx="84.7900" cy="38.8500" r="0.7620" /> 
<circle cx="87.3300" cy="41.3900" r="0.7620" /> 
<circle cx="84.7900" cy="41.3900" r="0.7620" /> 
<circle cx="87.3300" cy="43.9300" r="0.7620" /> 
<circle cx="84.7900" cy="43.9300" r="0.7620" /> 
<circle cx="87.3300" cy="46.4700" r="0.7620" /> 
<circle cx="84.7900" cy="46.4700" r="0.7620" /> 
<circle cx="87.3300" cy="49.0100" r="0.7620" /> 
<circle cx="84.7900" cy="49.0100" r="0.7620" /> 
<circle cx="87.3300" cy="51.5500" r="0.7620" /> 
<circle cx="84.7900" cy="51.5500" r="0.7620" /> 
<circle cx="87.3300" cy="54.0900" r="0.7620" /> 
<circle cx="84.7900" cy="54.0900" r="0.7620" /> 
<circle cx="87.3300" cy="56.6300" r="0.7620" /> 
<circle cx="84.7900" cy="56.6300" r="0.7620" /> 
</g>
<g style="fill:#02FFEE; fill-opacity:0.4000; stroke:none;">
<circle cx="87.3300" cy="8.3700" r="0.7620" /> 
<circle cx="84.7900" cy="8.3700" r="0.7620" /> 
<circle cx="87.3300" cy="10.9100" r="0.7620" /> 
<circle cx="84.7900" cy="10.9100" r="0.7620" /> 
<circle cx="87.3300" cy="13.4500" r="0.7620" /> 
<circle cx="84.7900" cy="13.4500" r="0.7620" /> 
<circle cx="87.3300" cy="15.9900" r="0.7620" /> 
<circle cx="84.7900" cy="15.9900" r="0.7620" /> 
<circle cx="87.3300" cy="18.5300" r="0.7620" /> 
<circle cx="84.7900" cy="18.5300" r="0.7620" /> 
<circle cx="87.3300" cy="21.0700" r="0.7620" /> 
<circle cx="84.7900" cy="21.0700" r="0.7620" /> 
<circle cx="87.3300" cy="23.6100" r="0.7620" /> 
<circle cx="84.7900" cy="23.6100" r="0.7620" /> 
<circle cx="87.3300" cy="26.1500" r="0.7620" /> 
<circle cx="84.7900" cy="26.1500" r="0.7620" /> 
<circle cx="87.3300" cy="28.6900" r="0.7620" /> 
<circle cx="84.7900" cy="28.6900" r="0.7620" /> 
<circle cx="87.3300" cy="31.2300" r="0.7620" /> 
<circle cx="84.7900" cy="31.2300" r="0.7620" /> 
<circle cx="87.3300" cy="33.7700" r="0.7620" /> 
<circle cx="84.7900" cy="33.7700" r="0.7620" /> 
<circle cx="87.3300" cy="36.3100" r="0.7620" /> 
<circle cx="84.7900" cy="36.3100" r="0.7620" /> 
<circle cx="87.3300" cy="38.8500" r="0.7620" /> 
<circle cx="84.7900" cy="38.8500" r="0.7620" /> 
<circle cx="87.3300" cy="41.3900" r="0.7620" /> 
<circle cx="84.7900" cy="41.3900" r="0.7620" /> 
<circle cx="87.3300" cy="43.9300" r="0.7620" /> 
<circle cx="84.7900" cy="43.9300" r="0.7620" /> 
<circle cx="87.3300" cy="46.4700" r="0.7620" /> 
<circle cx="84.7900" cy="46.4700" r="0.7620" /> 
<circle cx="87.3300" cy="49.0100" r="0.7620" /> 
<circle cx="84.7900" cy="49.0100" r="0.7620" /> 
<circle cx="87.3300" cy="51.5500" r="0.7620" /> 
<circle cx="84.7900" cy="51.5500" r="0.7620" /> 
<circle cx="87.3300" cy="54.0900" r="0.7620" /> 
<circle cx="84.7900" cy="54.0900" r="0.7620" /> 
<circle cx="87.3300" cy="56.6300" r="0.7620" /> 
<circle cx="84.7900" cy="56.6300" r="0.7620" /> 
</g>
<g style="fill:#F2EDA1; fill-opacity:1.0000; stroke:none;">
<circle cx="87.3300" cy="8.3700" r="0.7620" /> 
<circle cx="84.7900" cy="8.3700" r="0.7620" /> 
<circle cx="87.3300" cy="10.9100" r="0.7620" /> 
<circle cx="84.7900" cy="10.9100" r="0.7620" /> 
<circle cx="87.3300" cy="13.4500" r="0.7620" /> 
<circle cx="84.7900" cy="13.4500" r="0.7620" /> 
<circle cx="87.3300" cy="15.9900" r="0.7620" /> 
<circle cx="84.7900" cy="15.9900" r="0.7620" /> 
<circle cx="87.3300" cy="18.5300" r="0.7620" /> 
<circle cx="84.7900" cy="18.5300" r="0.7620" /> 
<circle cx="87.3300" cy="21.0700" r="0.7620" /> 
<circle cx="84.7900" cy="21.0700" r="0.7620" /> 
<circle cx="87.3300" cy="23.6100" r="0.7620" /> 
<circle cx="84.7900" cy="23.6100" r="0.7620" /> 
<circle cx="87.3300" cy="26.1500" r="0.7620" /> 
<circle cx="84.7900" cy="26.1500" r="0.7620" /> 
<circle cx="87.3300" cy="28.6900" r="0.7620" /> 
<circle cx="84.7900" cy="28.6900" r="0.7620" /> 
<circle cx="87.3300" cy="31.2300" r="0.7620" /> 
<circle cx="84.7900" cy="31.2300" r="0.7620" /> 
<circle cx="87.3300" cy="33.7700" r="0.7620" /> 
<circle cx="84.7900" cy="33.7700" r="0.7620" /> 
<circle cx="87.3300" cy="36.3100" r="0.7620" /> 
<circle cx="84.7900" cy="36.3100" r="0.7620" /> 
<circle cx="87.3300" cy="38.8500" r="0.7620" /> 
<circle cx="84.7900" cy="38.8500" r="0.7620" /> 
<circle cx="87.3300" cy="41.3900" r="0.7620" /> 
<circle cx="84.7900" cy="41.3900" r="0.7620" /> 
<circle cx="87.3300" cy="43.9300" r="0.7620" /> 
<circle cx="84.7900" cy="43.9300" r="0.7620" /> 
<circle cx="87.3300" cy="46.4700" r="0.7620" /> 
<circle cx="84.7900" cy="46.4700" r="0.7620" /> 
<circle cx="87.3300" cy="49.0100" r="0.7620" /> 
<circle cx="84.7900" cy="49.0100" r="0.7620" /> 
<circle cx="87.3300" cy="51.5500" r="0.7620" /> 
<circle cx="84.7900" cy="51.5500" r="0.7620" /> 
<circle cx="87.3300" cy="54.0900" r="0.7620" /> 
<circle cx="84.7900" cy="54.0900" r="0.7620" /> 
<circle cx="87.3300" cy="56.6300" r="0.7620" /> 
<circle cx="84.7900" cy="56.6300" r="0.7620" /> 
</g>
<g style="fill:#E8B2A7; fill-opacity:1.0000; stroke:none;">
<circle cx="87.3300" cy="8.3700" r="0.7620" /> 
<circle cx="84.7900" cy="8.3700" r="0.7620" /> 
<circle cx="87.3300" cy="10.9100" r="0.7620" /> 
<circle cx="84.7900" cy="10.9100" r="0.7620" /> 
<circle cx="87.3300" cy="13.4500" r="0.7620" /> 
<circle cx="84.7900" cy="13.4500" r="0.7620" /> 
<circle cx="87.3300" cy="15.9900" r="0.7620" /> 
<circle cx="84.7900" cy="15.9900" r="0.7620" /> 
<circle cx="87.3300" cy="18.5300" r="0.7620" /> 
<circle cx="84.7900" cy="18.5300" r="0.7620" /> 
<circle cx="87.3300" cy="21.0700" r="0.7620" /> 
<circle cx="84.7900" cy="21.0700" r="0.7620" /> 
<circle cx="87.3300" cy="23.6100" r="0.7620" /> 
<circle cx="84.7900" cy="23.6100" r="0.7620" /> 
<circle cx="87.3300" cy="26.1500" r="0.7620" /> 
<circle cx="84.7900" cy="26.1500" r="0.7620" /> 
<circle cx="87.3300" cy="28.6900" r="0.7620" /> 
<circle cx="84.7900" cy="28.6900" r="0.7620" /> 
<circle cx="87.3300" cy="31.2300" r="0.7620" /> 
<circle cx="84.7900" cy="31.2300" r="0.7620" /> 
<circle cx="87.3300" cy="33.7700" r="0.7620" /> 
<circle cx="84.7900" cy="33.7700" r="0.7620" /> 
<circle cx="87.3300" cy="36.3100" r="0.7620" /> 
<circle cx="84.7900" cy="36.3100" r="0.7620" /> 
<circle cx="87.3300" cy="38.8500" r="0.7620" /> 
<circle cx="84.7900" cy="38.8500" r="0.7620" /> 
<circle cx="87.3300" cy="41.3900" r="0.7620" /> 
<circle cx="84.7900" cy="41.3900" r="0.7620" /> 
<circle cx="87.3300" cy="43.9300" r="0.7620" /> 
<circle cx="84.7900" cy="43.9300" r="0.7620" /> 
<circle cx="87.3300" cy="46.4700" r="0.7620" /> 
<circle cx="84.7900" cy="46.4700" r="0.7620" /> 
<circle cx="87.3300" cy="49.0100" r="0.7620" /> 
<circle cx="84.7900" cy="49.0100" r="0.7620" /> 
<circle cx="87.3300" cy="51.5500" r="0.7620" /> 
<circle cx="84.7900" cy="51.5500" r="0.7620" /> 
<circle cx="87.3300" cy="54.0900" r="0.7620" /> 
<circle cx="84.7900" cy="54.0900" r="0.7620" /> 
<circle cx="87.3300" cy="56.6300" r="0.7620" /> 
<circle cx="84.7900" cy="56.6300" r="0.7620" /> 
</g>
<g style="fill:#28CCD9; fill-opacity:1.0000; stroke:none;">
<circle cx="87.3300" cy="8.3700" r="0.7620" /> 
<circle cx="84.7900" cy="8.3700" r="0.7620" /> 
<circle cx="87.3300" cy="10.9100" r="0.7620" /> 
<circle cx="84.7900" cy="10.9100" r="0.7620" /> 
<circle cx="87.3300" cy="13.4500" r="0.7620" /> 
<circle cx="84.7900" cy="13.4500" r="0.7620" /> 
<circle cx="87.3300" cy="15.9900" r="0.7620" /> 
<circle cx="84.7900" cy="15.9900" r="0.7620" /> 
<circle cx="87.3300" cy="18.5300" r="0.7620" /> 
<circle cx="84.7900" cy="18.5300" r="0.7620" /> 
<circle cx="87.3300" cy="21.0700" r="0.7620" /> 
<circle cx="84.7900" cy="21.0700" r="0.7620" /> 
<circle cx="87.3300" cy="23.6100" r="0.7620" /> 
<circle cx="84.7900" cy="23.6100" r="0.7620" /> 
<circle cx="87.3300" cy="26.1500" r="0.7620" /> 
<circle cx="84.7900" cy="26.1500" r="0.7620" /> 
<circle cx="87.3300" cy="28.6900" r="0.7620" /> 
<circle cx="84.7900" cy="28.6900" r="0.7620" /> 
<circle cx="87.3300" cy="31.2300" r="0.7620" /> 
<circle cx="84.7900" cy="31.2300" r="0.7620" /> 
<circle cx="87.3300" cy="33.7700" r="0.7620" /> 
<circle cx="84.7900" cy="33.7700" r="0.7620" /> 
<circle cx="87.3300" cy="36.3100" r="0.7620" /> 
<circle cx="84.7900" cy="36.3100" r="0.7620" /> 
<circle cx="87.3300" cy="38.8500" r="0.7620" /> 
<circle cx="84.7900" cy="38.8500" r="0.7620" /> 
<circle cx="87.3300" cy="41.3900" r="0.7620" /> 
<circle cx="84.7900" cy="41.3900" r="0.7620" /> 
<circle cx="87.3300" cy="43.9300" r="0.7620" /> 
<circle cx="84.7900" cy="43.9300" r="0.7620" /> 
<circle cx="87.3300" cy="46.4700" r="0.7620" /> 
<circle cx="84.7900" cy="46.4700" r="0.7620" /> 
<circle cx="87.3300" cy="49.0100" r="0.7620" /> 
<circle cx="84.7900" cy="49.0100" r="0.7620" /> 
<circle cx="87.3300" cy="51.5500" r="0.7620" /> 
<circle cx="84.7900" cy="51.5500" r="0.7620" /> 
<circle cx="87.3300" cy="54.0900" r="0.7620" /> 
<circle cx="84.7900" cy="54.0900" r="0.7620" /> 
<circle cx="87.3300" cy="56.6300" r="0.7620" /> 
<circle cx="84.7900" cy="56.6300" r="0.7620" /> 
</g>
<g style="fill:#A7A5C6; fill-opacity:1.0000; stroke:none;">
<circle cx="87.3300" cy="8.3700" r="0.7620" /> 
<circle cx="84.7900" cy="8.3700" r="0.7620" /> 
<circle cx="87.3300" cy="10.9100" r="0.7620" /> 
<circle cx="84.7900" cy="10.9100" r="0.7620" /> 
<circle cx="87.3300" cy="13.4500" r="0.7620" /> 
<circle cx="84.7900" cy="13.4500" r="0.7620" /> 
<circle cx="87.3300" cy="15.9900" r="0.7620" /> 
<circle cx="84.7900" cy="15.9900" r="0.7620" /> 
<circle cx="87.3300" cy="18.5300" r="0.7620" /> 
<circle cx="84.7900" cy="18.5300" r="0.7620" /> 
<circle cx="87.3300" cy="21.0700" r="0.7620" /> 
<circle cx="84.7900" cy="21.0700" r="0.7620" /> 
<circle cx="87.3300" cy="23.6100" r="0.7620" /> 
<circle cx="84.7900" cy="23.6100" r="0.7620" /> 
<circle cx="87.3300" cy="26.1500" r="0.7620" /> 
<circle cx="84.7900" cy="26.1500" r="0.7620" /> 
<circle cx="87.3300" cy="28.6900" r="0.7620" /> 
<circle cx="84.7900" cy="28.6900" r="0.7620" /> 
<circle cx="87.3300" cy="31.2300" r="0.7620" /> 
<circle cx="84.7900" cy="31.2300" r="0.7620" /> 
<circle cx="87.3300" cy="33.7700" r="0.7620" /> 
<circle cx="84.7900" cy="33.7700" r="0.7620" /> 
<circle cx="87.3300" cy="36.3100" r="0.7620" /> 
<circle cx="84.7900" cy="36.3100" r="0.7620" /> 
<circle cx="87.3300" cy="38.8500" r="0.7620" /> 
<circle cx="84.7900" cy="38.8500" r="0.7620" /> 
<circle cx="87.3300" cy="41.3900" r="0.7620" /> 
<circle cx="84.7900" cy="41.3900" r="0.7620" /> 
<circle cx="87.3300" cy="43.9300" r="0.7620" /> 
<circle cx="84.7900" cy="43.9300" r="0.7620" /> 
<circle cx="87.3300" cy="46.4700" r="0.7620" /> 
<circle cx="84.7900" cy="46.4700" r="0.7620" /> 
<circle cx="87.3300" cy="49.0100" r="0.7620" /> 
<circle cx="84.7900" cy="49.0100" r="0.7620" /> 
<circle cx="87.3300" cy="51.5500" r="0.7620" /> 
<circle cx="84.7900" cy="51.5500" r="0.7620" /> 
<circle cx="87.3300" cy="54.0900" r="0.7620" /> 
<circle cx="84.7900" cy="54.0900" r="0.7620" /> 
<circle cx="87.3300" cy="56.6300" r="0.7620" /> 
<circle cx="84.7900" cy="56.6300" r="0.7620" /> 
</g>
<g style="fill:#F76F8E; fill-opacity:1.0000; stroke:none;">
<circle cx="87.3300" cy="8.3700" r="0.7620" /> 
<circle cx="84.7900" cy="8.3700" r="0.7620" /> 
<circle cx="87.3300" cy="10.9100" r="0.7620" /> 
<circle cx="84.7900" cy="10.9100" r="0.7620" /> 
<circle cx="87.3300" cy="13.4500" r="0.7620" /> 
<circle cx="84.7900" cy="13.4500" r="0.7620" /> 
<circle cx="87.3300" cy="15.9900" r="0.7620" /> 
<circle cx="84.7900" cy="15.9900" r="0.7620" /> 
<circle cx="87.3300" cy="18.5300" r="0.7620" /> 
<circle cx="84.7900" cy="18.5300" r="0.7620" /> 
<circle cx="87.3300" cy="21.0700" r="0.7620" /> 
<circle cx="84.7900" cy="21.0700" r="0.7620" /> 
<circle cx="87.3300" cy="23.6100" r="0.7620" /> 
<circle cx="84.7900" cy="23.6100" r="0.7620" /> 
<circle cx="87.3300" cy="26.1500" r="0.7620" /> 
<circle cx="84.7900" cy="26.1500" r="0.7620" /> 
<circle cx="87.3300" cy="28.6900" r="0.7620" /> 
<circle cx="84.7900" cy="28.6900" r="0.7620" /> 
<circle cx="87.3300" cy="31.2300" r="0.7620" /> 
<circle cx="84.7900" cy="31.2300" r="0.7620" /> 
<circle cx="87.3300" cy="33.7700" r="0.7620" /> 
<circle cx="84.7900" cy="33.7700" r="0.7620" /> 
<circle cx="87.3300" cy="36.3100" r="0.7620" /> 
<circle cx="84.7900" cy="36.3100" r="0.7620" /> 
<circle cx="87.3300" cy="38.8500" r="0.7620" /> 
<circle cx="84.7900" cy="38.8500" r="0.7620" /> 
<circle cx="87.3300" cy="41.3900" r="0.7620" /> 
<circle cx="84.7900" cy="41.3900" r="0.7620" /> 
<circle cx="87.3300" cy="43.9300" r="0.7620" /> 
<circle cx="84.7900" cy="43.9300" r="0.7620" /> 
<circle cx="87.3300" cy="46.4700" r="0.7620" /> 
<circle cx="84.7900" cy="46.4700" r="0.7620" /> 
<circle cx="87.3300" cy="49.0100" r="0.7620" /> 
<circle cx="84.7900" cy="49.0100" r="0.7620" /> 
<circle cx="87.3300" cy="51.5500" r="0.7620" /> 
<circle cx="84.7900" cy="51.5500" r="0.7620" /> 
<circle cx="87.3300" cy="54.0900" r="0.7620" /> 
<circle cx="84.7900" cy="54.0900" r="0.7620" /> 
<circle cx="87.3300" cy="56.6300" r="0.7620" /> 
<circle cx="84.7900" cy="56.6300" r="0.7620" /> 
</g>
<g style="fill:#5BC3EB; fill-opacity:1.0000; stroke:none;">
<circle cx="87.3300" cy="8.3700" r="0.7620" /> 
<circle cx="84.7900" cy="8.3700" r="0.7620" /> 
<circle cx="87.3300" cy="10.9100" r="0.7620" /> 
<circle cx="84.7900" cy="10.9100" r="0.7620" /> 
<circle cx="87.3300" cy="13.4500" r="0.7620" /> 
<circle cx="84.7900" cy="13.4500" r="0.7620" /> 
<circle cx="87.3300" cy="15.9900" r="0.7620" /> 
<circle cx="84.7900" cy="15.9900" r="0.7620" /> 
<circle cx="87.3300" cy="18.5300" r="0.7620" /> 
<circle cx="84.7900" cy="18.5300" r="0.7620" /> 
<circle cx="87.3300" cy="21.0700" r="0.7620" /> 
<circle cx="84.7900" cy="21.0700" r="0.7620" /> 
<circle cx="87.3300" cy="23.6100" r="0.7620" /> 
<circle cx="84.7900" cy="23.6100" r="0.7620" /> 
<circle cx="87.3300" cy="26.1500" r="0.7620" /> 
<circle cx="84.7900" cy="26.1500" r="0.7620" /> 
<circle cx="87.3300" cy="28.6900" r="0.7620" /> 
<circle cx="84.7900" cy="28.6900" r="0.7620" /> 
<circle cx="87.3300" cy="31.2300" r="0.7620" /> 
<circle cx="84.7900" cy="31.2300" r="0.7620" /> 
<circle cx="87.3300" cy="33.7700" r="0.7620" /> 
<circle cx="84.7900" cy="33.7700" r="0.7620" /> 
<circle cx="87.3300" cy="36.3100" r="0.7620" /> 
<circle cx="84.7900" cy="36.3100" r="0.7620" /> 
<circle cx="87.3300" cy="38.8500" r="0.7620" /> 
<circle cx="84.7900" cy="38.8500" r="0.7620" /> 
<circle cx="87.3300" cy="41.3900" r="0.7620" /> 
<circle cx="84.7900" cy="41.3900" r="0.7620" /> 
<circle cx="87.3300" cy="43.9300" r="0.7620" /> 
<circle cx="84.7900" cy="43.9300" r="0.7620" /> 
<circle cx="87.3300" cy="46.4700" r="0.7620" /> 
<circle cx="84.7900" cy="46.4700" r="0.7620" /> 
<circle cx="87.3300" cy="49.0100" r="0.7620" /> 
<circle cx="84.7900" cy="49.0100" r="0.7620" /> 
<circle cx="87.3300" cy="51.5500" r="0.7620" /> 
<circle cx="84.7900" cy="51.5500" r="0.7620" /> 
<circle cx="87.3300" cy="54.0900" r="0.7620" /> 
<circle cx="84.7900" cy="54.0900" r="0.7620" /> 
<circle cx="87.3300" cy="56.6300" r="0.7620" /> 
<circle cx="84.7900" cy="56.6300" r="0.7620" /> 
</g>
<g style="fill:#ED7C33; fill-opacity:1.0000; stroke:none;">
<circle cx="87.3300" cy="8.3700" r="0.7620" /> 
<circle cx="84.7900" cy="8.3700" r="0.7620" /> 
<circle cx="87.3300" cy="10.9100" r="0.7620" /> 
<circle cx="84.7900" cy="10.9100" r="0.7620" /> 
<circle cx="87.3300" cy="13.4500" r="0.7620" /> 
<circle cx="84.7900" cy="13.4500" r="0.7620" /> 
<circle cx="87.3300" cy="15.9900" r="0.7620" /> 
<circle cx="84.7900" cy="15.9900" r="0.7620" /> 
<circle cx="87.3300" cy="18.5300" r="0.7620" /> 
<circle cx="84.7900" cy="18.5300" r="0.7620" /> 
<circle cx="87.3300" cy="21.0700" r="0.7620" /> 
<circle cx="84.7900" cy="21.0700" r="0.7620" /> 
<circle cx="87.3300" cy="23.6100" r="0.7620" /> 
<circle cx="84.7900" cy="23.6100" r="0.7620" /> 
<circle cx="87.3300" cy="26.1500" r="0.7620" /> 
<circle cx="84.7900" cy="26.1500" r="0.7620" /> 
<circle cx="87.3300" cy="28.6900" r="0.7620" /> 
<circle cx="84.7900" cy="28.6900" r="0.7620" /> 
<circle cx="87.3300" cy="31.2300" r="0.7620" /> 
<circle cx="84.7900" cy="31.2300" r="0.7620" /> 
<circle cx="87.3300" cy="33.7700" r="0.7620" /> 
<circle cx="84.7900" cy="33.7700" r="0.7620" /> 
<circle cx="87.3300" cy="36.3100" r="0.7620" /> 
<circle cx="84.7900" cy="36.3100" r="0.7620" /> 
<circle cx="87.3300" cy="38.8500" r="0.7620" /> 
<circle cx="84.7900" cy="38.8500" r="0.7620" /> 
<circle cx="87.3300" cy="41.3900" r="0.7620" /> 
<circle cx="84.7900" cy="41.3900" r="0.7620" /> 
<circle cx="87.3300" cy="43.9300" r="0.7620" /> 
<circle cx="84.7900" cy="43.9300" r="0.7620" /> 
<circle cx="87.3300" cy="46.4700" r="0.7620" /> 
<circle cx="84.7900" cy="46.4700" r="0.7620" /> 
<circle cx="87.3300" cy="49.0100" r="0.7620" /> 
<circle cx="84.7900" cy="49.0100" r="0.7620" /> 
<circle cx="87.3300" cy="51.5500" r="0.7620" /> 
<circle cx="84.7900" cy="51.5500" r="0.7620" /> 
<circle cx="87.3300" cy="54.0900" r="0.7620" /> 
<circle cx="84.7900" cy="54.0900" r="0.7620" /> 
<circle cx="87.3300" cy="56.6300" r="0.7620" /> 
<circle cx="84.7900" cy="56.6300" r="0.7620" /> 
</g>
<g style="fill:#F2EDA1; fill-opacity:1.0000; stroke:none;">
<circle cx="87.3300" cy="8.3700" r="0.7620" /> 
<circle cx="84.7900" cy="8.3700" r="0.7620" /> 
<circle cx="87.3300" cy="10.9100" r="0.7620" /> 
<circle cx="84.7900" cy="10.9100" r="0.7620" /> 
<circle cx="87.3300" cy="13.4500" r="0.7620" /> 
<circle cx="84.7900" cy="13.4500" r="0.7620" /> 
<circle cx="87.3300" cy="15.9900" r="0.7620" /> 
<circle cx="84.7900" cy="15.9900" r="0.7620" /> 
<circle cx="87.3300" cy="18.5300" r="0.7620" /> 
<circle cx="84.7900" cy="18.5300" r="0.7620" /> 
<circle cx="87.3300" cy="21.0700" r="0.7620" /> 
<circle cx="84.7900" cy="21.0700" r="0.7620" /> 
<circle cx="87.3300" cy="23.6100" r="0.7620" /> 
<circle cx="84.7900" cy="23.6100" r="0.7620" /> 
<circle cx="87.3300" cy="26.1500" r="0.7620" /> 
<circle cx="84.7900" cy="26.1500" r="0.7620" /> 
<circle cx="87.3300" cy="28.6900" r="0.7620" /> 
<circle cx="84.7900" cy="28.6900" r="0.7620" /> 
<circle cx="87.3300" cy="31.2300" r="0.7620" /> 
<circle cx="84.7900" cy="31.2300" r="0.7620" /> 
<circle cx="87.3300" cy="33.7700" r="0.7620" /> 
<circle cx="84.7900" cy="33.7700" r="0.7620" /> 
<circle cx="87.3300" cy="36.3100" r="0.7620" /> 
<circle cx="84.7900" cy="36.3100" r="0.7620" /> 
<circle cx="87.3300" cy="38.8500" r="0.7620" /> 
<circle cx="84.7900" cy="38.8500" r="0.7620" /> 
<circle cx="87.3300" cy="41.3900" r="0.7620" /> 
<circle cx="84.7900" cy="41.3900" r="0.7620" /> 
<circle cx="87.3300" cy="43.9300" r="0.7620" /> 
<circle cx="84.7900" cy="43.9300" r="0.7620" /> 
<circle cx="87.3300" cy="46.4700" r="0.7620" /> 
<circle cx="84.7900" cy="46.4700" r="0.7620" /> 
<circle cx="87.3300" cy="49.0100" r="0.7620" /> 
<circle cx="84.7900" cy="49.0100" r="0.7620" /> 
<circle cx="87.3300" cy="51.5500" r="0.7620" /> 
<circle cx="84.7900" cy="51.5500" r="0.7620" /> 
<circle cx="87.3300" cy="54.0900" r="0.7620" /> 
<circle cx="84.7900" cy="54.0900" r="0.7620" /> 
<circle cx="87.3300" cy="56.6300" r="0.7620" /> 
<circle cx="84.7900" cy="56.6300" r="0.7620" /> 
</g>
<g style="fill:#E8B2A7; fill-opacity:1.0000; stroke:none;">
<circle cx="87.3300" cy="8.3700" r="0.7620" /> 
<circle cx="84.7900" cy="8.3700" r="0.7620" /> 
<circle cx="87.3300" cy="10.9100" r="0.7620" /> 
<circle cx="84.7900" cy="10.9100" r="0.7620" /> 
<circle cx="87.3300" cy="13.4500" r="0.7620" /> 
<circle cx="84.7900" cy="13.4500" r="0.7620" /> 
<circle cx="87.3300" cy="15.9900" r="0.7620" /> 
<circle cx="84.7900" cy="15.9900" r="0.7620" /> 
<circle cx="87.3300" cy="18.5300" r="0.7620" /> 
<circle cx="84.7900" cy="18.5300" r="0.7620" /> 
<circle cx="87.3300" cy="21.0700" r="0.7620" /> 
<circle cx="84.7900" cy="21.0700" r="0.7620" /> 
<circle cx="87.3300" cy="23.6100" r="0.7620" /> 
<circle cx="84.7900" cy="23.6100" r="0.7620" /> 
<circle cx="87.3300" cy="26.1500" r="0.7620" /> 
<circle cx="84.7900" cy="26.1500" r="0.7620" /> 
<circle cx="87.3300" cy="28.6900" r="0.7620" /> 
<circle cx="84.7900" cy="28.6900" r="0.7620" /> 
<circle cx="87.3300" cy="31.2300" r="0.7620" /> 
<circle cx="84.7900" cy="31.2300" r="0.7620" /> 
<circle cx="87.3300" cy="33.7700" r="0.7620" /> 
<circle cx="84.7900" cy="33.7700" r="0.7620" /> 
<circle cx="87.3300" cy="36.3100" r="0.7620" /> 
<circle cx="84.7900" cy="36.3100" r="0.7620" /> 
<circle cx="87.3300" cy="38.8500" r="0.7620" /> 
<circle cx="84.7900" cy="38.8500" r="0.7620" /> 
<circle cx="87.3300" cy="41.3900" r="0.7620" /> 
<circle cx="84.7900" cy="41.3900" r="0.7620" /> 
<circle cx="87.3300" cy="43.9300" r="0.7620" /> 
<circle cx="84.7900" cy="43.9300" r="0.7620" /> 
<circle cx="87.3300" cy="46.4700" r="0.7620" /> 
<circle cx="84.7900" cy="46.4700" r="0.7620" /> 
<circle cx="87.3300" cy="49.0100" r="0.7620" /> 
<circle cx="84.7900" cy="49.0100" r="0.7620" /> 
<circle cx="87.3300" cy="51.5500" r="0.7620" /> 
<circle cx="84.7900" cy="51.5500" r="0.7620" /> 
<circle cx="87.3300" cy="54.0900" r="0.7620" /> 
<circle cx="84.7900" cy="54.0900" r="0.7620" /> 
<circle cx="87.3300" cy="56.6300" r="0.7620" /> 
<circle cx="84.7900" cy="56.6300" r="0.7620" /> 
</g>
<g style="fill:#28CCD9; fill-opacity:1.0000; stroke:none;">
<circle cx="87.3300" cy="8.3700" r="0.7620" /> 
<circle cx="84.7900" cy="8.3700" r="0.7620" /> 
<circle cx="87.3300" cy="10.9100" r="0.7620" /> 
<circle cx="84.7900" cy="10.9100" r="0.7620" /> 
<circle cx="87.3300" cy="13.4500" r="0.7620" /> 
<circle cx="84.7900" cy="13.4500" r="0.7620" /> 
<circle cx="87.3300" cy="15.9900" r="0.7620" /> 
<circle cx="84.7900" cy="15.9900" r="0.7620" /> 
<circle cx="87.3300" cy="18.5300" r="0.7620" /> 
<circle cx="84.7900" cy="18.5300" r="0.7620" /> 
<circle cx="87.3300" cy="21.0700" r="0.7620" /> 
<circle cx="84.7900" cy="21.0700" r="0.7620" /> 
<circle cx="87.3300" cy="23.6100" r="0.7620" /> 
<circle cx="84.7900" cy="23.6100" r="0.7620" /> 
<circle cx="87.3300" cy="26.1500" r="0.7620" /> 
<circle cx="84.7900" cy="26.1500" r="0.7620" /> 
<circle cx="87.3300" cy="28.6900" r="0.7620" /> 
<circle cx="84.7900" cy="28.6900" r="0.7620" /> 
<circle cx="87.3300" cy="31.2300" r="0.7620" /> 
<circle cx="84.7900" cy="31.2300" r="0.7620" /> 
<circle cx="87.3300" cy="33.7700" r="0.7620" /> 
<circle cx="84.7900" cy="33.7700" r="0.7620" /> 
<circle cx="87.3300" cy="36.3100" r="0.7620" /> 
<circle cx="84.7900" cy="36.3100" r="0.7620" /> 
<circle cx="87.3300" cy="38.8500" r="0.7620" /> 
<circle cx="84.7900" cy="38.8500" r="0.7620" /> 
<circle cx="87.3300" cy="41.3900" r="0.7620" /> 
<circle cx="84.7900" cy="41.3900" r="0.7620" /> 
<circle cx="87.3300" cy="43.9300" r="0.7620" /> 
<circle cx="84.7900" cy="43.9300" r="0.7620" /> 
<circle cx="87.3300" cy="46.4700" r="0.7620" /> 
<circle cx="84.7900" cy="46.4700" r="0.7620" /> 
<circle cx="87.3300" cy="49.0100" r="0.7620" /> 
<circle cx="84.7900" cy="49.0100" r="0.7620" /> 
<circle cx="87.3300" cy="51.5500" r="0.7620" /> 
<circle cx="84.7900" cy="51.5500" r="0.7620" /> 
<circle cx="87.3300" cy="54.0900" r="0.7620" /> 
<circle cx="84.7900" cy="54.0900" r="0.7620" /> 
<circle cx="87.3300" cy="56.6300" r="0.7620" /> 
<circle cx="84.7900" cy="56.6300" r="0.7620" /> 
</g>
<g style="fill:#A7A5C6; fill-opacity:1.0000; stroke:none;">
<circle cx="87.3300" cy="8.3700" r="0.7620" /> 
<circle cx="84.7900" cy="8.3700" r="0.7620" /> 
<circle cx="87.3300" cy="10.9100" r="0.7620" /> 
<circle cx="84.7900" cy="10.9100" r="0.7620" /> 
<circle cx="87.3300" cy="13.4500" r="0.7620" /> 
<circle cx="84.7900" cy="13.4500" r="0.7620" /> 
<circle cx="87.3300" cy="15.9900" r="0.7620" /> 
<circle cx="84.7900" cy="15.9900" r="0.7620" /> 
<circle cx="87.3300" cy="18.5300" r="0.7620" /> 
<circle cx="84.7900" cy="18.5300" r="0.7620" /> 
<circle cx="87.3300" cy="21.0700" r="0.7620" /> 
<circle cx="84.7900" cy="21.0700" r="0.7620" /> 
<circle cx="87.3300" cy="23.6100" r="0.7620" /> 
<circle cx="84.7900" cy="23.6100" r="0.7620" /> 
<circle cx="87.3300" cy="26.1500" r="0.7620" /> 
<circle cx="84.7900" cy="26.1500" r="0.7620" /> 
<circle cx="87.3300" cy="28.6900" r="0.7620" /> 
<circle cx="84.7900" cy="28.6900" r="0.7620" /> 
<circle cx="87.3300" cy="31.2300" r="0.7620" /> 
<circle cx="84.7900" cy="31.2300" r="0.7620" /> 
<circle cx="87.3300" cy="33.7700" r="0.7620" /> 
<circle cx="84.7900" cy="33.7700" r="0.7620" /> 
<circle cx="87.3300" cy="36.3100" r="0.7620" /> 
<circle cx="84.7900" cy="36.3100" r="0.7620" /> 
<circle cx="87.3300" cy="38.8500" r="0.7620" /> 
<circle cx="84.7900" cy="38.8500" r="0.7620" /> 
<circle cx="87.3300" cy="41.3900" r="0.7620" /> 
<circle cx="84.7900" cy="41.3900" r="0.7620" /> 
<circle cx="87.3300" cy="43.9300" r="0.7620" /> 
<circle cx="84.7900" cy="43.9300" r="0.7620" /> 
<circle cx="87.3300" cy="46.4700" r="0.7620" /> 
<circle cx="84.7900" cy="46.4700" r="0.7620" /> 
<circle cx="87.3300" cy="49.0100" r="0.7620" /> 
<circle cx="84.7900" cy="49.0100" r="0.7620" /> 
<circle cx="87.3300" cy="51.5500" r="0.7620" /> 
<circle cx="84.7900" cy="51.5500" r="0.7620" /> 
<circle cx="87.3300" cy="54.0900" r="0.7620" /> 
<circle cx="84.7900" cy="54.0900" r="0.7620" /> 
<circle cx="87.3300" cy="56.6300" r="0.7620" /> 
<circle cx="84.7900" cy="56.6300" r="0.7620" /> 
</g>
<g style="fill:#F76F8E; fill-opacity:1.0000; stroke:none;">
<circle cx="87.3300" cy="8.3700" r="0.7620" /> 
<circle cx="84.7900" cy="8.3700" r="0.7620" /> 
<circle cx="87.3300" cy="10.9100" r="0.7620" /> 
<circle cx="84.7900" cy="10.9100" r="0.7620" /> 
<circle cx="87.3300" cy="13.4500" r="0.7620" /> 
<circle cx="84.7900" cy="13.4500" r="0.7620" /> 
<circle cx="87.3300" cy="15.9900" r="0.7620" /> 
<circle cx="84.7900" cy="15.9900" r="0.7620" /> 
<circle cx="87.3300" cy="18.5300" r="0.7620" /> 
<circle cx="84.7900" cy="18.5300" r="0.7620" /> 
<circle cx="87.3300" cy="21.0700" r="0.7620" /> 
<circle cx="84.7900" cy="21.0700" r="0.7620" /> 
<circle cx="87.3300" cy="23.6100" r="0.7620" /> 
<circle cx="84.7900" cy="23.6100" r="0.7620" /> 
<circle cx="87.3300" cy="26.1500" r="0.7620" /> 
<circle cx="84.7900" cy="26.1500" r="0.7620" /> 
<circle cx="87.3300" cy="28.6900" r="0.7620" /> 
<circle cx="84.7900" cy="28.6900" r="0.7620" /> 
<circle cx="87.3300" cy="31.2300" r="0.7620" /> 
<circle cx="84.7900" cy="31.2300" r="0.7620" /> 
<circle cx="87.3300" cy="33.7700" r="0.7620" /> 
<circle cx="84.7900" cy="33.7700" r="0.7620" /> 
<circle cx="87.3300" cy="36.3100" r="0.7620" /> 
<circle cx="84.7900" cy="36.3100" r="0.7620" /> 
<circle cx="87.3300" cy="38.8500" r="0.7620" /> 
<circle cx="84.7900" cy="38.8500" r="0.7620" /> 
<circle cx="87.3300" cy="41.3900" r="0.7620" /> 
<circle cx="84.7900" cy="41.3900" r="0.7620" /> 
<circle cx="87.3300" cy="43.9300" r="0.7620" /> 
<circle cx="84.7900" cy="43.9300" r="0.7620" /> 
<circle cx="87.3300" cy="46.4700" r="0.7620" /> 
<circle cx="84.7900" cy="46.4700" r="0.7620" /> 
<circle cx="87.3300" cy="49.0100" r="0.7620" /> 
<circle cx="84.7900" cy="49.0100" r="0.7620" /> 
<circle cx="87.3300" cy="51.5500" r="0.7620" /> 
<circle cx="84.7900" cy="51.5500" r="0.7620" /> 
<circle cx="87.3300" cy="54.0900" r="0.7620" /> 
<circle cx="84.7900" cy="54.0900" r="0.7620" /> 
<circle cx="87.3300" cy="56.6300" r="0.7620" /> 
<circle cx="84.7900" cy="56.6300" r="0.7620" /> 
</g>
<g style="fill:#5BC3EB; fill-opacity:1.0000; stroke:none;">
<circle cx="87.3300" cy="8.3700" r="0.7620" /> 
<circle cx="84.7900" cy="8.3700" r="0.7620" /> 
<circle cx="87.3300" cy="10.9100" r="0.7620" /> 
<circle cx="84.7900" cy="10.9100" r="0.7620" /> 
<circle cx="87.3300" cy="13.4500" r="0.7620" /> 
<circle cx="84.7900" cy="13.4500" r="0.7620" /> 
<circle cx="87.3300" cy="15.9900" r="0.7620" /> 
<circle cx="84.7900" cy="15.9900" r="0.7620" /> 
<circle cx="87.3300" cy="18.5300" r="0.7620" /> 
<circle cx="84.7900" cy="18.5300" r="0.7620" /> 
<circle cx="87.3300" cy="21.0700" r="0.7620" /> 
<circle cx="84.7900" cy="21.0700" r="0.7620" /> 
<circle cx="87.3300" cy="23.6100" r="0.7620" /> 
<circle cx="84.7900" cy="23.6100" r="0.7620" /> 
<circle cx="87.3300" cy="26.1500" r="0.7620" /> 
<circle cx="84.7900" cy="26.1500" r="0.7620" /> 
<circle cx="87.3300" cy="28.6900" r="0.7620" /> 
<circle cx="84.7900" cy="28.6900" r="0.7620" /> 
<circle cx="87.3300" cy="31.2300" r="0.7620" /> 
<circle cx="84.7900" cy="31.2300" r="0.7620" /> 
<circle cx="87.3300" cy="33.7700" r="0.7620" /> 
<circle cx="84.7900" cy="33.7700" r="0.7620" /> 
<circle cx="87.3300" cy="36.3100" r="0.7620" /> 
<circle cx="84.7900" cy="36.3100" r="0.7620" /> 
<circle cx="87.3300" cy="38.8500" r="0.7620" /> 
<circle cx="84.7900" cy="38.8500" r="0.7620" /> 
<circle cx="87.3300" cy="41.3900" r="0.7620" /> 
<circle cx="84.7900" cy="41.3900" r="0.7620" /> 
<circle cx="87.3300" cy="43.9300" r="0.7620" /> 
<circle cx="84.7900" cy="43.9300" r="0.7620" /> 
<circle cx="87.3300" cy="46.4700" r="0.7620" /> 
<circle cx="84.7900" cy="46.4700" r="0.7620" /> 
<circle cx="87.3300" cy="49.0100" r="0.7620" /> 
<circle cx="84.7900" cy="49.0100" r="0.7620" /> 
<circle cx="87.3300" cy="51.5500" r="0.7620" /> 
<circle cx="84.7900" cy="51.5500" r="0.7620" /> 
<circle cx="87.3300" cy="54.0900" r="0.7620" /> 
<circle cx="84.7900" cy="54.0900" r="0.7620" /> 
<circle cx="87.3300" cy="56.6300" r="0.7620" /> 
<circle cx="84.7900" cy="56.6300" r="0.7620" /> 
</g>
<g style="fill:#ED7C33; fill-opacity:1.0000; stroke:none;">
<circle cx="87.3300" cy="8.3700" r="0.7620" /> 
<circle cx="84.7900" cy="8.3700" r="0.7620" /> 
<circle cx="87.3300" cy="10.9100" r="0.7620" /> 
<circle cx="84.7900" cy="10.9100" r="0.7620" /> 
<circle cx="87.3300" cy="13.4500" r="0.7620" /> 
<circle cx="84.7900" cy="13.4500" r="0.7620" /> 
<circle cx="87.3300" cy="15.9900" r="0.7620" /> 
<circle cx="84.7900" cy="15.9900" r="0.7620" /> 
<circle cx="87.3300" cy="18.5300" r="0.7620" /> 
<circle cx="84.7900" cy="18.5300" r="0.7620" /> 
<circle cx="87.3300" cy="21.0700" r="0.7620" /> 
<circle cx="84.7900" cy="21.0700" r="0.7620" /> 
<circle cx="87.3300" cy="23.6100" r="0.7620" /> 
<circle cx="84.7900" cy="23.6100" r="0.7620" /> 
<circle cx="87.3300" cy="26.1500" r="0.7620" /> 
<circle cx="84.7900" cy="26.1500" r="0.7620" /> 
<circle cx="87.3300" cy="28.6900" r="0.7620" /> 
<circle cx="84.7900" cy="28.6900" r="0.7620" /> 
<circle cx="87.3300" cy="31.2300" r="0.7620" /> 
<circle cx="84.7900" cy="31.2300" r="0.7620" /> 
<circle cx="87.3300" cy="33.7700" r="0.7620" /> 
<circle cx="84.7900" cy="33.7700" r="0.7620" /> 
<circle cx="87.3300" cy="36.3100" r="0.7620" /> 
<circle cx="84.7900" cy="36.3100" r="0.7620" /> 
<circle cx="87.3300" cy="38.8500" r="0.7620" /> 
<circle cx="84.7900" cy="38.8500" r="0.7620" /> 
<circle cx="87.3300" cy="41.3900" r="0.7620" /> 
<circle cx="84.7900" cy="41.3900" r="0.7620" /> 
<circle cx="87.3300" cy="43.9300" r="0.7620" /> 
<circle cx="84.7900" cy="43.9300" r="0.7620" /> 
<circle cx="87.3300" cy="46.4700" r="0.7620" /> 
<circle cx="84.7900" cy="46.4700" r="0.7620" /> 
<circle cx="87.3300" cy="49.0100" r="0.7620" /> 
<circle cx="84.7900" cy="49.0100" r="0.7620" /> 
<circle cx="87.3300" cy="51.5500" r="0.7620" /> 
<circle cx="84.7900" cy="51.5500" r="0.7620" /> 
<circle cx="87.3300" cy="54.0900" r="0.7620" /> 
<circle cx="84.7900" cy="54.0900" r="0.7620" /> 
<circle cx="87.3300" cy="56.6300" r="0.7620" /> 
<circle cx="84.7900" cy="56.6300" r="0.7620" /> 
</g>
<g style="fill:#F2EDA1; fill-opacity:1.0000; stroke:none;">
<circle cx="87.3300" cy="8.3700" r="0.7620" /> 
<circle cx="84.7900" cy="8.3700" r="0.7620" /> 
<circle cx="87.3300" cy="10.9100" r="0.7620" /> 
<circle cx="84.7900" cy="10.9100" r="0.7620" /> 
<circle cx="87.3300" cy="13.4500" r="0.7620" /> 
<circle cx="84.7900" cy="13.4500" r="0.7620" /> 
<circle cx="87.3300" cy="15.9900" r="0.7620" /> 
<circle cx="84.7900" cy="15.9900" r="0.7620" /> 
<circle cx="87.3300" cy="18.5300" r="0.7620" /> 
<circle cx="84.7900" cy="18.5300" r="0.7620" /> 
<circle cx="87.3300" cy="21.0700" r="0.7620" /> 
<circle cx="84.7900" cy="21.0700" r="0.7620" /> 
<circle cx="87.3300" cy="23.6100" r="0.7620" /> 
<circle cx="84.7900" cy="23.6100" r="0.7620" /> 
<circle cx="87.3300" cy="26.1500" r="0.7620" /> 
<circle cx="84.7900" cy="26.1500" r="0.7620" /> 
<circle cx="87.3300" cy="28.6900" r="0.7620" /> 
<circle cx="84.7900" cy="28.6900" r="0.7620" /> 
<circle cx="87.3300" cy="31.2300" r="0.7620" /> 
<circle cx="84.7900" cy="31.2300" r="0.7620" /> 
<circle cx="87.3300" cy="33.7700" r="0.7620" /> 
<circle cx="84.7900" cy="33.7700" r="0.7620" /> 
<circle cx="87.3300" cy="36.3100" r="0.7620" /> 
<circle cx="84.7900" cy="36.3100" r="0.7620" /> 
<circle cx="87.3300" cy="38.8500" r="0.7620" /> 
<circle cx="84.7900" cy="38.8500" r="0.7620" /> 
<circle cx="87.3300" cy="41.3900" r="0.7620" /> 
<circle cx="84.7900" cy="41.3900" r="0.7620" /> 
<circle cx="87.3300" cy="43.9300" r="0.7620" /> 
<circle cx="84.7900" cy="43.9300" r="0.7620" /> 
<circle cx="87.3300" cy="46.4700" r="0.7620" /> 
<circle cx="84.7900" cy="46.4700" r="0.7620" /> 
<circle cx="87.3300" cy="49.0100" r="0.7620" /> 
<circle cx="84.7900" cy="49.0100" r="0.7620" /> 
<circle cx="87.3300" cy="51.5500" r="0.7620" /> 
<circle cx="84.7900" cy="51.5500" r="0.7620" /> 
<circle cx="87.3300" cy="54.0900" r="0.7620" /> 
<circle cx="84.7900" cy="54.0900" r="0.7620" /> 
<circle cx="87.3300" cy="56.6300" r="0.7620" /> 
<circle cx="84.7900" cy="56.6300" r="0.7620" /> 
</g>
<g style="fill:#E8B2A7; fill-opacity:1.0000; stroke:none;">
<circle cx="87.3300" cy="8.3700" r="0.7620" /> 
<circle cx="84.7900" cy="8.3700" r="0.7620" /> 
<circle cx="87.3300" cy="10.9100" r="0.7620" /> 
<circle cx="84.7900" cy="10.9100" r="0.7620" /> 
<circle cx="87.3300" cy="13.4500" r="0.7620" /> 
<circle cx="84.7900" cy="13.4500" r="0.7620" /> 
<circle cx="87.3300" cy="15.9900" r="0.7620" /> 
<circle cx="84.7900" cy="15.9900" r="0.7620" /> 
<circle cx="87.3300" cy="18.5300" r="0.7620" /> 
<circle cx="84.7900" cy="18.5300" r="0.7620" /> 
<circle cx="87.3300" cy="21.0700" r="0.7620" /> 
<circle cx="84.7900" cy="21.0700" r="0.7620" /> 
<circle cx="87.3300" cy="23.6100" r="0.7620" /> 
<circle cx="84.7900" cy="23.6100" r="0.7620" /> 
<circle cx="87.3300" cy="26.1500" r="0.7620" /> 
<circle cx="84.7900" cy="26.1500" r="0.7620" /> 
<circle cx="87.3300" cy="28.6900" r="0.7620" /> 
<circle cx="84.7900" cy="28.6900" r="0.7620" /> 
<circle cx="87.3300" cy="31.2300" r="0.7620" /> 
<circle cx="84.7900" cy="31.2300" r="0.7620" /> 
<circle cx="87.3300" cy="33.7700" r="0.7620" /> 
<circle cx="84.7900" cy="33.7700" r="0.7620" /> 
<circle cx="87.3300" cy="36.3100" r="0.7620" /> 
<circle cx="84.7900" cy="36.3100" r="0.7620" /> 
<circle cx="87.3300" cy="38.8500" r="0.7620" /> 
<circle cx="84.7900" cy="38.8500" r="0.7620" /> 
<circle cx="87.3300" cy="41.3900" r="0.7620" /> 
<circle cx="84.7900" cy="41.3900" r="0.7620" /> 
<circle cx="87.3300" cy="43.9300" r="0.7620" /> 
<circle cx="84.7900" cy="43.9300" r="0.7620" /> 
<circle cx="87.3300" cy="46.4700" r="0.7620" /> 
<circle cx="84.7900" cy="46.4700" r="0.7620" /> 
<circle cx="87.3300" cy="49.0100" r="0.7620" /> 
<circle cx="84.7900" cy="49.0100" r="0.7620" /> 
<circle cx="87.3300" cy="51.5500" r="0.7620" /> 
<circle cx="84.7900" cy="51.5500" r="0.7620" /> 
<circle cx="87.3300" cy="54.0900" r="0.7620" /> 
<circle cx="84.7900" cy="54.0900" r="0.7620" /> 
<circle cx="87.3300" cy="56.6300" r="0.7620" /> 
<circle cx="84.7900" cy="56.6300" r="0.7620" /> 
</g>
<g style="fill:#28CCD9; fill-opacity:1.0000; stroke:none;">
<circle cx="87.3300" cy="8.3700" r="0.7620" /> 
<circle cx="84.7900" cy="8.3700" r="0.7620" /> 
<circle cx="87.3300" cy="10.9100" r="0.7620" /> 
<circle cx="84.7900" cy="10.9100" r="0.7620" /> 
<circle cx="87.3300" cy="13.4500" r="0.7620" /> 
<circle cx="84.7900" cy="13.4500" r="0.7620" /> 
<circle cx="87.3300" cy="15.9900" r="0.7620" /> 
<circle cx="84.7900" cy="15.9900" r="0.7620" /> 
<circle cx="87.3300" cy="18.5300" r="0.7620" /> 
<circle cx="84.7900" cy="18.5300" r="0.7620" /> 
<circle cx="87.3300" cy="21.0700" r="0.7620" /> 
<circle cx="84.7900" cy="21.0700" r="0.7620" /> 
<circle cx="87.3300" cy="23.6100" r="0.7620" /> 
<circle cx="84.7900" cy="23.6100" r="0.7620" /> 
<circle cx="87.3300" cy="26.1500" r="0.7620" /> 
<circle cx="84.7900" cy="26.1500" r="0.7620" /> 
<circle cx="87.3300" cy="28.6900" r="0.7620" /> 
<circle cx="84.7900" cy="28.6900" r="0.7620" /> 
<circle cx="87.3300" cy="31.2300" r="0.7620" /> 
<circle cx="84.7900" cy="31.2300" r="0.7620" /> 
<circle cx="87.3300" cy="33.7700" r="0.7620" /> 
<circle cx="84.7900" cy="33.7700" r="0.7620" /> 
<circle cx="87.3300" cy="36.3100" r="0.7620" /> 
<circle cx="84.7900" cy="36.3100" r="0.7620" /> 
<circle cx="87.3300" cy="38.8500" r="0.7620" /> 
<circle cx="84.7900" cy="38.8500" r="0.7620" /> 
<circle cx="87.3300" cy="41.3900" r="0.7620" /> 
<circle cx="84.7900" cy="41.3900" r="0.7620" /> 
<circle cx="87.3300" cy="43.9300" r="0.7620" /> 
<circle cx="84.7900" cy="43.9300" r="0.7620" /> 
<circle cx="87.3300" cy="46.4700" r="0.7620" /> 
<circle cx="84.7900" cy="46.4700" r="0.7620" /> 
<circle cx="87.3300" cy="49.0100" r="0.7620" /> 
<circle cx="84.7900" cy="49.0100" r="0.7620" /> 
<circle cx="87.3300" cy="51.5500" r="0.7620" /> 
<circle cx="84.7900" cy="51.5500" r="0.7620" /> 
<circle cx="87.3300" cy="54.0900" r="0.7620" /> 
<circle cx="84.7900" cy="54.0900" r="0.7620" /> 
<circle cx="87.3300" cy="56.6300" r="0.7620" /> 
<circle cx="84.7900" cy="56.6300" r="0.7620" /> 
</g>
<g style="fill:#A7A5C6; fill-opacity:1.0000; stroke:none;">
<circle cx="87.3300" cy="8.3700" r="0.7620" /> 
<circle cx="84.7900" cy="8.3700" r="0.7620" /> 
<circle cx="87.3300" cy="10.9100" r="0.7620" /> 
<circle cx="84.7900" cy="10.9100" r="0.7620" /> 
<circle cx="87.3300" cy="13.4500" r="0.7620" /> 
<circle cx="84.7900" cy="13.4500" r="0.7620" /> 
<circle cx="87.3300" cy="15.9900" r="0.7620" /> 
<circle cx="84.7900" cy="15.9900" r="0.7620" /> 
<circle cx="87.3300" cy="18.5300" r="0.7620" /> 
<circle cx="84.7900" cy="18.5300" r="0.7620" /> 
<circle cx="87.3300" cy="21.0700" r="0.7620" /> 
<circle cx="84.7900" cy="21.0700" r="0.7620" /> 
<circle cx="87.3300" cy="23.6100" r="0.7620" /> 
<circle cx="84.7900" cy="23.6100" r="0.7620" /> 
<circle cx="87.3300" cy="26.1500" r="0.7620" /> 
<circle cx="84.7900" cy="26.1500" r="0.7620" /> 
<circle cx="87.3300" cy="28.6900" r="0.7620" /> 
<circle cx="84.7900" cy="28.6900" r="0.7620" /> 
<circle cx="87.3300" cy="31.2300" r="0.7620" /> 
<circle cx="84.7900" cy="31.2300" r="0.7620" /> 
<circle cx="87.3300" cy="33.7700" r="0.7620" /> 
<circle cx="84.7900" cy="33.7700" r="0.7620" /> 
<circle cx="87.3300" cy="36.3100" r="0.7620" /> 
<circle cx="84.7900" cy="36.3100" r="0.7620" /> 
<circle cx="87.3300" cy="38.8500" r="0.7620" /> 
<circle cx="84.7900" cy="38.8500" r="0.7620" /> 
<circle cx="87.3300" cy="41.3900" r="0.7620" /> 
<circle cx="84.7900" cy="41.3900" r="0.7620" /> 
<circle cx="87.3300" cy="43.9300" r="0.7620" /> 
<circle cx="84.7900" cy="43.9300" r="0.7620" /> 
<circle cx="87.3300" cy="46.4700" r="0.7620" /> 
<circle cx="84.7900" cy="46.4700" r="0.7620" /> 
<circle cx="87.3300" cy="49.0100" r="0.7620" /> 
<circle cx="84.7900" cy="49.0100" r="0.7620" /> 
<circle cx="87.3300" cy="51.5500" r="0.7620" /> 
<circle cx="84.7900" cy="51.5500" r="0.7620" /> 
<circle cx="87.3300" cy="54.0900" r="0.7620" /> 
<circle cx="84.7900" cy="54.0900" r="0.7620" /> 
<circle cx="87.3300" cy="56.6300" r="0.7620" /> 
<circle cx="84.7900" cy="56.6300" r="0.7620" /> 
</g>
<g style="fill:#F76F8E; fill-opacity:1.0000; stroke:none;">
<circle cx="87.3300" cy="8.3700" r="0.7620" /> 
<circle cx="84.7900" cy="8.3700" r="0.7620" /> 
<circle cx="87.3300" cy="10.9100" r="0.7620" /> 
<circle cx="84.7900" cy="10.9100" r="0.7620" /> 
<circle cx="87.3300" cy="13.4500" r="0.7620" /> 
<circle cx="84.7900" cy="13.4500" r="0.7620" /> 
<circle cx="87.3300" cy="15.9900" r="0.7620" /> 
<circle cx="84.7900" cy="15.9900" r="0.7620" /> 
<circle cx="87.3300" cy="18.5300" r="0.7620" /> 
<circle cx="84.7900" cy="18.5300" r="0.7620" /> 
<circle cx="87.3300" cy="21.0700" r="0.7620" /> 
<circle cx="84.7900" cy="21.0700" r="0.7620" /> 
<circle cx="87.3300" cy="23.6100" r="0.7620" /> 
<circle cx="84.7900" cy="23.6100" r="0.7620" /> 
<circle cx="87.3300" cy="26.1500" r="0.7620" /> 
<circle cx="84.7900" cy="26.1500" r="0.7620" /> 
<circle cx="87.3300" cy="28.6900" r="0.7620" /> 
<circle cx="84.7900" cy="28.6900" r="0.7620" /> 
<circle cx="87.3300" cy="31.2300" r="0.7620" /> 
<circle cx="84.7900" cy="31.2300" r="0.7620" /> 
<circle cx="87.3300" cy="33.7700" r="0.7620" /> 
<circle cx="84.7900" cy="33.7700" r="0.7620" /> 
<circle cx="87.3300" cy="36.3100" r="0.7620" /> 
<circle cx="84.7900" cy="36.3100" r="0.7620" /> 
<circle cx="87.3300" cy="38.8500" r="0.7620" /> 
<circle cx="84.7900" cy="38.8500" r="0.7620" /> 
<circle cx="87.3300" cy="41.3900" r="0.7620" /> 
<circle cx="84.7900" cy="41.3900" r="0.7620" /> 
<circle cx="87.3300" cy="43.9300" r="0.7620" /> 
<circle cx="84.7900" cy="43.9300" r="0.7620" /> 
<circle cx="87.3300" cy="46.4700" r="0.7620" /> 
<circle cx="84.7900" cy="46.4700" r="0.7620" /> 
<circle cx="87.3300" cy="49.0100" r="0.7620" /> 
<circle cx="84.7900" cy="49.0100" r="0.7620" /> 
<circle cx="87.3300" cy="51.5500" r="0.7620" /> 
<circle cx="84.7900" cy="51.5500" r="0.7620" /> 
<circle cx="87.3300" cy="54.0900" r="0.7620" /> 
<circle cx="84.7900" cy="54.0900" r="0.7620" /> 
<circle cx="87.3300" cy="56.6300" r="0.7620" /> 
<circle cx="84.7900" cy="56.6300" r="0.7620" /> 
</g>
<g style="fill:#5BC3EB; fill-opacity:1.0000; stroke:none;">
<circle cx="87.3300" cy="8.3700" r="0.7620" /> 
<circle cx="84.7900" cy="8.3700" r="0.7620" /> 
<circle cx="87.3300" cy="10.9100" r="0.7620" /> 
<circle cx="84.7900" cy="10.9100" r="0.7620" /> 
<circle cx="87.3300" cy="13.4500" r="0.7620" /> 
<circle cx="84.7900" cy="13.4500" r="0.7620" /> 
<circle cx="87.3300" cy="15.9900" r="0.7620" /> 
<circle cx="84.7900" cy="15.9900" r="0.7620" /> 
<circle cx="87.3300" cy="18.5300" r="0.7620" /> 
<circle cx="84.7900" cy="18.5300" r="0.7620" /> 
<circle cx="87.3300" cy="21.0700" r="0.7620" /> 
<circle cx="84.7900" cy="21.0700" r="0.7620" /> 
<circle cx="87.3300" cy="23.6100" r="0.7620" /> 
<circle cx="84.7900" cy="23.6100" r="0.7620" /> 
<circle cx="87.3300" cy="26.1500" r="0.7620" /> 
<circle cx="84.7900" cy="26.1500" r="0.7620" /> 
<circle cx="87.3300" cy="28.6900" r="0.7620" /> 
<circle cx="84.7900" cy="28.6900" r="0.7620" /> 
<circle cx="87.3300" cy="31.2300" r="0.7620" /> 
<circle cx="84.7900" cy="31.2300" r="0.7620" /> 
<circle cx="87.3300" cy="33.7700" r="0.7620" /> 
<circle cx="84.7900" cy="33.7700" r="0.7620" /> 
<circle cx="87.3300" cy="36.3100" r="0.7620" /> 
<circle cx="84.7900" cy="36.3100" r="0.7620" /> 
<circle cx="87.3300" cy="38.8500" r="0.7620" /> 
<circle cx="84.7900" cy="38.8500" r="0.7620" /> 
<circle cx="87.3300" cy="41.3900" r="0.7620" /> 
<circle cx="84.7900" cy="41.3900" r="0.7620" /> 
<circle cx="87.3300" cy="43.9300" r="0.7620" /> 
<circle cx="84.7900" cy="43.9300" r="0.7620" /> 
<circle cx="87.3300" cy="46.4700" r="0.7620" /> 
<circle cx="84.7900" cy="46.4700" r="0.7620" /> 
<circle cx="87.3300" cy="49.0100" r="0.7620" /> 
<circle cx="84.7900" cy="49.0100" r="0.7620" /> 
<circle cx="87.3300" cy="51.5500" r="0.7620" /> 
<circle cx="84.7900" cy="51.5500" r="0.7620" /> 
<circle cx="87.3300" cy="54.0900" r="0.7620" /> 
<circle cx="84.7900" cy="54.0900" r="0.7620" /> 
<circle cx="87.3300" cy="56.6300" r="0.7620" /> 
<circle cx="84.7900" cy="56.6300" r="0.7620" /> 
</g>
<g style="fill:#ED7C33; fill-opacity:1.0000; stroke:none;">
<circle cx="87.3300" cy="8.3700" r="0.7620" /> 
<circle cx="84.7900" cy="8.3700" r="0.7620" /> 
<circle cx="87.3300" cy="10.9100" r="0.7620" /> 
<circle cx="84.7900" cy="10.9100" r="0.7620" /> 
<circle cx="87.3300" cy="13.4500" r="0.7620" /> 
<circle cx="84.7900" cy="13.4500" r="0.7620" /> 
<circle cx="87.3300" cy="15.9900" r="0.7620" /> 
<circle cx="84.7900" cy="15.9900" r="0.7620" /> 
<circle cx="87.3300" cy="18.5300" r="0.7620" /> 
<circle cx="84.7900" cy="18.5300" r="0.7620" /> 
<circle cx="87.3300" cy="21.0700" r="0.7620" /> 
<circle cx="84.7900" cy="21.0700" r="0.7620" /> 
<circle cx="87.3300" cy="23.6100" r="0.7620" /> 
<circle cx="84.7900" cy="23.6100" r="0.7620" /> 
<circle cx="87.3300" cy="26.1500" r="0.7620" /> 
<circle cx="84.7900" cy="26.1500" r="0.7620" /> 
<circle cx="87.3300" cy="28.6900" r="0.7620" /> 
<circle cx="84.7900" cy="28.6900" r="0.7620" /> 
<circle cx="87.3300" cy="31.2300" r="0.7620" /> 
<circle cx="84.7900" cy="31.2300" r="0.7620" /> 
<circle cx="87.3300" cy="33.7700" r="0.7620" /> 
<circle cx="84.7900" cy="33.7700" r="0.7620" /> 
<circle cx="87.3300" cy="36.3100" r="0.7620" /> 
<circle cx="84.7900" cy="36.3100" r="0.7620" /> 
<circle cx="87.3300" cy="38.8500" r="0.7620" /> 
<circle cx="84.7900" cy="38.8500" r="0.7620" /> 
<circle cx="87.3300" cy="41.3900" r="0.7620" /> 
<circle cx="84.7900" cy="41.3900" r="0.7620" /> 
<circle cx="87.3300" cy="43.9300" r="0.7620" /> 
<circle cx="84.7900" cy="43.9300" r="0.7620" /> 
<circle cx="87.3300" cy="46.4700" r="0.7620" /> 
<circle cx="84.7900" cy="46.4700" r="0.7620" /> 
<circle cx="87.3300" cy="49.0100" r="0.7620" /> 
<circle cx="84.7900" cy="49.0100" r="0.7620" /> 
<circle cx="87.3300" cy="51.5500" r="0.7620" /> 
<circle cx="84.7900" cy="51.5500" r="0.7620" /> 
<circle cx="87.3300" cy="54.0900" r="0.7620" /> 
<circle cx="84.7900" cy="54.0900" r="0.7620" /> 
<circle cx="87.3300" cy="56.6300" r="0.7620" /> 
<circle cx="84.7900" cy="56.6300" r="0.7620" /> 
</g>
<g style="fill:#8DCB81; fill-opacity:1.0000; stroke:none;">
<circle cx="87.3300" cy="8.3700" r="0.7620" /> 
<circle cx="84.7900" cy="8.3700" r="0.7620" /> 
<circle cx="87.3300" cy="10.9100" r="0.7620" /> 
<circle cx="84.7900" cy="10.9100" r="0.7620" /> 
<circle cx="87.3300" cy="13.4500" r="0.7620" /> 
<circle cx="84.7900" cy="13.4500" r="0.7620" /> 
<circle cx="87.3300" cy="15.9900" r="0.7620" /> 
<circle cx="84.7900" cy="15.9900" r="0.7620" /> 
<circle cx="87.3300" cy="18.5300" r="0.7620" /> 
<circle cx="84.7900" cy="18.5300" r="0.7620" /> 
<circle cx="87.3300" cy="21.0700" r="0.7620" /> 
<circle cx="84.7900" cy="21.0700" r="0.7620" /> 
<circle cx="87.3300" cy="23.6100" r="0.7620" /> 
<circle cx="84.7900" cy="23.6100" r="0.7620" /> 
<circle cx="87.3300" cy="26.1500" r="0.7620" /> 
<circle cx="84.7900" cy="26.1500" r="0.7620" /> 
<circle cx="87.3300" cy="28.6900" r="0.7620" /> 
<circle cx="84.7900" cy="28.6900" r="0.7620" /> 
<circle cx="87.3300" cy="31.2300" r="0.7620" /> 
<circle cx="84.7900" cy="31.2300" r="0.7620" /> 
<circle cx="87.3300" cy="33.7700" r="0.7620" /> 
<circle cx="84.7900" cy="33.7700" r="0.7620" /> 
<circle cx="87.3300" cy="36.3100" r="0.7620" /> 
<circle cx="84.7900" cy="36.3100" r="0.7620" /> 
<circle cx="87.3300" cy="38.8500" r="0.7620" /> 
<circle cx="84.7900" cy="38.8500" r="0.7620" /> 
<circle cx="87.3300" cy="41.3900" r="0.7620" /> 
<circle cx="84.7900" cy="41.3900" r="0.7620" /> 
<circle cx="87.3300" cy="43.9300" r="0.7620" /> 
<circle cx="84.7900" cy="43.9300" r="0.7620" /> 
<circle cx="87.3300" cy="46.4700" r="0.7620" /> 
<circle cx="84.7900" cy="46.4700" r="0.7620" /> 
<circle cx="87.3300" cy="49.0100" r="0.7620" /> 
<circle cx="84.7900" cy="49.0100" r="0.7620" /> 
<circle cx="87.3300" cy="51.5500" r="0.7620" /> 
<circle cx="84.7900" cy="51.5500" r="0.7620" /> 
<circle cx="87.3300" cy="54.0900" r="0.7620" /> 
<circle cx="84.7900" cy="54.0900" r="0.7620" /> 
<circle cx="87.3300" cy="56.6300" r="0.7620" /> 
<circle cx="84.7900" cy="56.6300" r="0.7620" /> 
</g>
<g style="fill:#F2EDA1; fill-opacity:1.0000; stroke:none;">
<circle cx="87.3300" cy="8.3700" r="0.7620" /> 
<circle cx="84.7900" cy="8.3700" r="0.7620" /> 
<circle cx="87.3300" cy="10.9100" r="0.7620" /> 
<circle cx="84.7900" cy="10.9100" r="0.7620" /> 
<circle cx="87.3300" cy="13.4500" r="0.7620" /> 
<circle cx="84.7900" cy="13.4500" r="0.7620" /> 
<circle cx="87.3300" cy="15.9900" r="0.7620" /> 
<circle cx="84.7900" cy="15.9900" r="0.7620" /> 
<circle cx="87.3300" cy="18.5300" r="0.7620" /> 
<circle cx="84.7900" cy="18.5300" r="0.7620" /> 
<circle cx="87.3300" cy="21.0700" r="0.7620" /> 
<circle cx="84.7900" cy="21.0700" r="0.7620" /> 
<circle cx="87.3300" cy="23.6100" r="0.7620" /> 
<circle cx="84.7900" cy="23.6100" r="0.7620" /> 
<circle cx="87.3300" cy="26.1500" r="0.7620" /> 
<circle cx="84.7900" cy="26.1500" r="0.7620" /> 
<circle cx="87.3300" cy="28.6900" r="0.7620" /> 
<circle cx="84.7900" cy="28.6900" r="0.7620" /> 
<circle cx="87.3300" cy="31.2300" r="0.7620" /> 
<circle cx="84.7900" cy="31.2300" r="0.7620" /> 
<circle cx="87.3300" cy="33.7700" r="0.7620" /> 
<circle cx="84.7900" cy="33.7700" r="0.7620" /> 
<circle cx="87.3300" cy="36.3100" r="0.7620" /> 
<circle cx="84.7900" cy="36.3100" r="0.7620" /> 
<circle cx="87.3300" cy="38.8500" r="0.7620" /> 
<circle cx="84.7900" cy="38.8500" r="0.7620" /> 
<circle cx="87.3300" cy="41.3900" r="0.7620" /> 
<circle cx="84.7900" cy="41.3900" r="0.7620" /> 
<circle cx="87.3300" cy="43.9300" r="0.7620" /> 
<circle cx="84.7900" cy="43.9300" r="0.7620" /> 
<circle cx="87.3300" cy="46.4700" r="0.7620" /> 
<circle cx="84.7900" cy="46.4700" r="0.7620" /> 
<circle cx="87.3300" cy="49.0100" r="0.7620" /> 
<circle cx="84.7900" cy="49.0100" r="0.7620" /> 
<circle cx="87.3300" cy="51.5500" r="0.7620" /> 
<circle cx="84.7900" cy="51.5500" r="0.7620" /> 
<circle cx="87.3300" cy="54.0900" r="0.7620" /> 
<circle cx="84.7900" cy="54.0900" r="0.7620" /> 
<circle cx="87.3300" cy="56.6300" r="0.7620" /> 
<circle cx="84.7900" cy="56.6300" r="0.7620" /> 
</g>
<g style="fill:#E8B2A7; fill-opacity:1.0000; stroke:none;">
<circle cx="87.3300" cy="8.3700" r="0.7620" /> 
<circle cx="84.7900" cy="8.3700" r="0.7620" /> 
<circle cx="87.3300" cy="10.9100" r="0.7620" /> 
<circle cx="84.7900" cy="10.9100" r="0.7620" /> 
<circle cx="87.3300" cy="13.4500" r="0.7620" /> 
<circle cx="84.7900" cy="13.4500" r="0.7620" /> 
<circle cx="87.3300" cy="15.9900" r="0.7620" /> 
<circle cx="84.7900" cy="15.9900" r="0.7620" /> 
<circle cx="87.3300" cy="18.5300" r="0.7620" /> 
<circle cx="84.7900" cy="18.5300" r="0.7620" /> 
<circle cx="87.3300" cy="21.0700" r="0.7620" /> 
<circle cx="84.7900" cy="21.0700" r="0.7620" /> 
<circle cx="87.3300" cy="23.6100" r="0.7620" /> 
<circle cx="84.7900" cy="23.6100" r="0.7620" /> 
<circle cx="87.3300" cy="26.1500" r="0.7620" /> 
<circle cx="84.7900" cy="26.1500" r="0.7620" /> 
<circle cx="87.3300" cy="28.6900" r="0.7620" /> 
<circle cx="84.7900" cy="28.6900" r="0.7620" /> 
<circle cx="87.3300" cy="31.2300" r="0.7620" /> 
<circle cx="84.7900" cy="31.2300" r="0.7620" /> 
<circle cx="87.3300" cy="33.7700" r="0.7620" /> 
<circle cx="84.7900" cy="33.7700" r="0.7620" /> 
<circle cx="87.3300" cy="36.3100" r="0.7620" /> 
<circle cx="84.7900" cy="36.3100" r="0.7620" /> 
<circle cx="87.3300" cy="38.8500" r="0.7620" /> 
<circle cx="84.7900" cy="38.8500" r="0.7620" /> 
<circle cx="87.3300" cy="41.3900" r="0.7620" /> 
<circle cx="84.7900" cy="41.3900" r="0.7620" /> 
<circle cx="87.3300" cy="43.9300" r="0.7620" /> 
<circle cx="84.7900" cy="43.9300" r="0.7620" /> 
<circle cx="87.3300" cy="46.4700" r="0.7620" /> 
<circle cx="84.7900" cy="46.4700" r="0.7620" /> 
<circle cx="87.3300" cy="49.0100" r="0.7620" /> 
<circle cx="84.7900" cy="49.0100" r="0.7620" /> 
<circle cx="87.3300" cy="51.5500" r="0.7620" /> 
<circle cx="84.7900" cy="51.5500" r="0.7620" /> 
<circle cx="87.3300" cy="54.0900" r="0.7620" /> 
<circle cx="84.7900" cy="54.0900" r="0.7620" /> 
<circle cx="87.3300" cy="56.6300" r="0.7620" /> 
<circle cx="84.7900" cy="56.6300" r="0.7620" /> 
</g>
<g style="fill:#28CCD9; fill-opacity:1.0000; stroke:none;">
<circle cx="87.3300" cy="8.3700" r="0.7620" /> 
<circle cx="84.7900" cy="8.3700" r="0.7620" /> 
<circle cx="87.3300" cy="10.9100" r="0.7620" /> 
<circle cx="84.7900" cy="10.9100" r="0.7620" /> 
<circle cx="87.3300" cy="13.4500" r="0.7620" /> 
<circle cx="84.7900" cy="13.4500" r="0.7620" /> 
<circle cx="87.3300" cy="15.9900" r="0.7620" /> 
<circle cx="84.7900" cy="15.9900" r="0.7620" /> 
<circle cx="87.3300" cy="18.5300" r="0.7620" /> 
<circle cx="84.7900" cy="18.5300" r="0.7620" /> 
<circle cx="87.3300" cy="21.0700" r="0.7620" /> 
<circle cx="84.7900" cy="21.0700" r="0.7620" /> 
<circle cx="87.3300" cy="23.6100" r="0.7620" /> 
<circle cx="84.7900" cy="23.6100" r="0.7620" /> 
<circle cx="87.3300" cy="26.1500" r="0.7620" /> 
<circle cx="84.7900" cy="26.1500" r="0.7620" /> 
<circle cx="87.3300" cy="28.6900" r="0.7620" /> 
<circle cx="84.7900" cy="28.6900" r="0.7620" /> 
<circle cx="87.3300" cy="31.2300" r="0.7620" /> 
<circle cx="84.7900" cy="31.2300" r="0.7620" /> 
<circle cx="87.3300" cy="33.7700" r="0.7620" /> 
<circle cx="84.7900" cy="33.7700" r="0.7620" /> 
<circle cx="87.3300" cy="36.3100" r="0.7620" /> 
<circle cx="84.7900" cy="36.3100" r="0.7620" /> 
<circle cx="87.3300" cy="38.8500" r="0.7620" /> 
<circle cx="84.7900" cy="38.8500" r="0.7620" /> 
<circle cx="87.3300" cy="41.3900" r="0.7620" /> 
<circle cx="84.7900" cy="41.3900" r="0.7620" /> 
<circle cx="87.3300" cy="43.9300" r="0.7620" /> 
<circle cx="84.7900" cy="43.9300" r="0.7620" /> 
<circle cx="87.3300" cy="46.4700" r="0.7620" /> 
<circle cx="84.7900" cy="46.4700" r="0.7620" /> 
<circle cx="87.3300" cy="49.0100" r="0.7620" /> 
<circle cx="84.7900" cy="49.0100" r="0.7620" /> 
<circle cx="87.3300" cy="51.5500" r="0.7620" /> 
<circle cx="84.7900" cy="51.5500" r="0.7620" /> 
<circle cx="87.3300" cy="54.0900" r="0.7620" /> 
<circle cx="84.7900" cy="54.0900" r="0.7620" /> 
<circle cx="87.3300" cy="56.6300" r="0.7620" /> 
<circle cx="84.7900" cy="56.6300" r="0.7620" /> 
</g>
<g style="fill:#A7A5C6; fill-opacity:1.0000; stroke:none;">
<circle cx="87.3300" cy="8.3700" r="0.7620" /> 
<circle cx="84.7900" cy="8.3700" r="0.7620" /> 
<circle cx="87.3300" cy="10.9100" r="0.7620" /> 
<circle cx="84.7900" cy="10.9100" r="0.7620" /> 
<circle cx="87.3300" cy="13.4500" r="0.7620" /> 
<circle cx="84.7900" cy="13.4500" r="0.7620" /> 
<circle cx="87.3300" cy="15.9900" r="0.7620" /> 
<circle cx="84.7900" cy="15.9900" r="0.7620" /> 
<circle cx="87.3300" cy="18.5300" r="0.7620" /> 
<circle cx="84.7900" cy="18.5300" r="0.7620" /> 
<circle cx="87.3300" cy="21.0700" r="0.7620" /> 
<circle cx="84.7900" cy="21.0700" r="0.7620" /> 
<circle cx="87.3300" cy="23.6100" r="0.7620" /> 
<circle cx="84.7900" cy="23.6100" r="0.7620" /> 
<circle cx="87.3300" cy="26.1500" r="0.7620" /> 
<circle cx="84.7900" cy="26.1500" r="0.7620" /> 
<circle cx="87.3300" cy="28.6900" r="0.7620" /> 
<circle cx="84.7900" cy="28.6900" r="0.7620" /> 
<circle cx="87.3300" cy="31.2300" r="0.7620" /> 
<circle cx="84.7900" cy="31.2300" r="0.7620" /> 
<circle cx="87.3300" cy="33.7700" r="0.7620" /> 
<circle cx="84.7900" cy="33.7700" r="0.7620" /> 
<circle cx="87.3300" cy="36.3100" r="0.7620" /> 
<circle cx="84.7900" cy="36.3100" r="0.7620" /> 
<circle cx="87.3300" cy="38.8500" r="0.7620" /> 
<circle cx="84.7900" cy="38.8500" r="0.7620" /> 
<circle cx="87.3300" cy="41.3900" r="0.7620" /> 
<circle cx="84.7900" cy="41.3900" r="0.7620" /> 
<circle cx="87.3300" cy="43.9300" r="0.7620" /> 
<circle cx="84.7900" cy="43.9300" r="0.7620" /> 
<circle cx="87.3300" cy="46.4700" r="0.7620" /> 
<circle cx="84.7900" cy="46.4700" r="0.7620" /> 
<circle cx="87.3300" cy="49.0100" r="0.7620" /> 
<circle cx="84.7900" cy="49.0100" r="0.7620" /> 
<circle cx="87.3300" cy="51.5500" r="0.7620" /> 
<circle cx="84.7900" cy="51.5500" r="0.7620" /> 
<circle cx="87.3300" cy="54.0900" r="0.7620" /> 
<circle cx="84.7900" cy="54.0900" r="0.7620" /> 
<circle cx="87.3300" cy="56.6300" r="0.7620" /> 
<circle cx="84.7900" cy="56.6300" r="0.7620" /> 
</g>
<g style="fill:#DB628B; fill-opacity:1.0000; stroke:none;">
<circle cx="87.3300" cy="8.3700" r="0.7620" /> 
<circle cx="84.7900" cy="8.3700" r="0.7620" /> 
<circle cx="87.3300" cy="10.9100" r="0.7620" /> 
<circle cx="84.7900" cy="10.9100" r="0.7620" /> 
<circle cx="87.3300" cy="13.4500" r="0.7620" /> 
<circle cx="84.7900" cy="13.4500" r="0.7620" /> 
<circle cx="87.3300" cy="15.9900" r="0.7620" /> 
<circle cx="84.7900" cy="15.9900" r="0.7620" /> 
<circle cx="87.3300" cy="18.5300" r="0.7620" /> 
<circle cx="84.7900" cy="18.5300" r="0.7620" /> 
<circle cx="87.3300" cy="21.0700" r="0.7620" /> 
<circle cx="84.7900" cy="21.0700" r="0.7620" /> 
<circle cx="87.3300" cy="23.6100" r="0.7620" /> 
<circle cx="84.7900" cy="23.6100" r="0.7620" /> 
<circle cx="87.3300" cy="26.1500" r="0.7620" /> 
<circle cx="84.7900" cy="26.1500" r="0.7620" /> 
<circle cx="87.3300" cy="28.6900" r="0.7620" /> 
<circle cx="84.7900" cy="28.6900" r="0.7620" /> 
<circle cx="87.3300" cy="31.2300" r="0.7620" /> 
<circle cx="84.7900" cy="31.2300" r="0.7620" /> 
<circle cx="87.3300" cy="33.7700" r="0.7620" /> 
<circle cx="84.7900" cy="33.7700" r="0.7620" /> 
<circle cx="87.3300" cy="36.3100" r="0.7620" /> 
<circle cx="84.7900" cy="36.3100" r="0.7620" /> 
<circle cx="87.3300" cy="38.8500" r="0.7620" /> 
<circle cx="84.7900" cy="38.8500" r="0.7620" /> 
<circle cx="87.3300" cy="41.3900" r="0.7620" /> 
<circle cx="84.7900" cy="41.3900" r="0.7620" /> 
<circle cx="87.3300" cy="43.9300" r="0.7620" /> 
<circle cx="84.7900" cy="43.9300" r="0.7620" /> 
<circle cx="87.3300" cy="46.4700" r="0.7620" /> 
<circle cx="84.7900" cy="46.4700" r="0.7620" /> 
<circle cx="87.3300" cy="49.0100" r="0.7620" /> 
<circle cx="84.7900" cy="49.0100" r="0.7620" /> 
<circle cx="87.3300" cy="51.5500" r="0.7620" /> 
<circle cx="84.7900" cy="51.5500" r="0.7620" /> 
<circle cx="87.3300" cy="54.0900" r="0.7620" /> 
<circle cx="84.7900" cy="54.0900" r="0.7620" /> 
<circle cx="87.3300" cy="56.6300" r="0.7620" /> 
<circle cx="84.7900" cy="56.6300" r="0.7620" /> 
</g>
<g style="fill:#4FCBCB; fill-opacity:1.0000; stroke:none;">
<circle cx="87.3300" cy="8.3700" r="0.7620" /> 
<circle cx="84.7900" cy="8.3700" r="0.7620" /> 
<circle cx="87.3300" cy="10.9100" r="0.7620" /> 
<circle cx="84.7900" cy="10.9100" r="0.7620" /> 
<circle cx="87.3300" cy="13.4500" r="0.7620" /> 
<circle cx="84.7900" cy="13.4500" r="0.7620" /> 
<circle cx="87.3300" cy="15.9900" r="0.7620" /> 
<circle cx="84.7900" cy="15.9900" r="0.7620" /> 
<circle cx="87.3300" cy="18.5300" r="0.7620" /> 
<circle cx="84.7900" cy="18.5300" r="0.7620" /> 
<circle cx="87.3300" cy="21.0700" r="0.7620" /> 
<circle cx="84.7900" cy="21.0700" r="0.7620" /> 
<circle cx="87.3300" cy="23.6100" r="0.7620" /> 
<circle cx="84.7900" cy="23.6100" r="0.7620" /> 
<circle cx="87.3300" cy="26.1500" r="0.7620" /> 
<circle cx="84.7900" cy="26.1500" r="0.7620" /> 
<circle cx="87.3300" cy="28.6900" r="0.7620" /> 
<circle cx="84.7900" cy="28.6900" r="0.7620" /> 
<circle cx="87.3300" cy="31.2300" r="0.7620" /> 
<circle cx="84.7900" cy="31.2300" r="0.7620" /> 
<circle cx="87.3300" cy="33.7700" r="0.7620" /> 
<circle cx="84.7900" cy="33.7700" r="0.7620" /> 
<circle cx="87.3300" cy="36.3100" r="0.7620" /> 
<circle cx="84.7900" cy="36.3100" r="0.7620" /> 
<circle cx="87.3300" cy="38.8500" r="0.7620" /> 
<circle cx="84.7900" cy="38.8500" r="0.7620" /> 
<circle cx="87.3300" cy="41.3900" r="0.7620" /> 
<circle cx="84.7900" cy="41.3900" r="0.7620" /> 
<circle cx="87.3300" cy="43.9300" r="0.7620" /> 
<circle cx="84.7900" cy="43.9300" r="0.7620" /> 
<circle cx="87.3300" cy="46.4700" r="0.7620" /> 
<circle cx="84.7900" cy="46.4700" r="0.7620" /> 
<circle cx="87.3300" cy="49.0100" r="0.7620" /> 
<circle cx="84.7900" cy="49.0100" r="0.7620" /> 
<circle cx="87.3300" cy="51.5500" r="0.7620" /> 
<circle cx="84.7900" cy="51.5500" r="0.7620" /> 
<circle cx="87.3300" cy="54.0900" r="0.7620" /> 
<circle cx="84.7900" cy="54.0900" r="0.7620" /> 
<circle cx="87.3300" cy="56.6300" r="0.7620" /> 
<circle cx="84.7900" cy="56.6300" r="0.7620" /> 
</g>
<g style="fill:#CE7D2C; fill-opacity:1.0000; stroke:none;">
<circle cx="87.3300" cy="8.3700" r="0.7620" /> 
<circle cx="84.7900" cy="8.3700" r="0.7620" /> 
<circle cx="87.3300" cy="10.9100" r="0.7620" /> 
<circle cx="84.7900" cy="10.9100" r="0.7620" /> 
<circle cx="87.3300" cy="13.4500" r="0.7620" /> 
<circle cx="84.7900" cy="13.4500" r="0.7620" /> 
<circle cx="87.3300" cy="15.9900" r="0.7620" /> 
<circle cx="84.7900" cy="15.9900" r="0.7620" /> 
<circle cx="87.3300" cy="18.5300" r="0.7620" /> 
<circle cx="84.7900" cy="18.5300" r="0.7620" /> 
<circle cx="87.3300" cy="21.0700" r="0.7620" /> 
<circle cx="84.7900" cy="21.0700" r="0.7620" /> 
<circle cx="87.3300" cy="23.6100" r="0.7620" /> 
<circle cx="84.7900" cy="23.6100" r="0.7620" /> 
<circle cx="87.3300" cy="26.1500" r="0.7620" /> 
<circle cx="84.7900" cy="26.1500" r="0.7620" /> 
<circle cx="87.3300" cy="28.6900" r="0.7620" /> 
<circle cx="84.7900" cy="28.6900" r="0.7620" /> 
<circle cx="87.3300" cy="31.2300" r="0.7620" /> 
<circle cx="84.7900" cy="31.2300" r="0.7620" /> 
<circle cx="87.3300" cy="33.7700" r="0.7620" /> 
<circle cx="84.7900" cy="33.7700" r="0.7620" /> 
<circle cx="87.3300" cy="36.3100" r="0.7620" /> 
<circle cx="84.7900" cy="36.3100" r="0.7620" /> 
<circle cx="87.3300" cy="38.8500" r="0.7620" /> 
<circle cx="84.7900" cy="38.8500" r="0.7620" /> 
<circle cx="87.3300" cy="41.3900" r="0.7620" /> 
<circle cx="84.7900" cy="41.3900" r="0.7620" /> 
<circle cx="87.3300" cy="43.9300" r="0.7620" /> 
<circle cx="84.7900" cy="43.9300" r="0.7620" /> 
<circle cx="87.3300" cy="46.4700" r="0.7620" /> 
<circle cx="84.7900" cy="46.4700" r="0.7620" /> 
<circle cx="87.3300" cy="49.0100" r="0.7620" /> 
<circle cx="84.7900" cy="49.0100" r="0.7620" /> 
<circle cx="87.3300" cy="51.5500" r="0.7620" /> 
<circle cx="84.7900" cy="51.5500" r="0.7620" /> 
<circle cx="87.3300" cy="54.0900" r="0.7620" /> 
<circle cx="84.7900" cy="54.0900" r="0.7620" /> 
<circle cx="87.3300" cy="56.6300" r="0.7620" /> 
<circle cx="84.7900" cy="56.6300" r="0.7620" /> 
</g>
<g style="fill:#7FC87F; fill-opacity:1.0000; stroke:none;">
<circle cx="87.3300" cy="8.3700" r="0.7620" /> 
<circle cx="84.7900" cy="8.3700" r="0.7620" /> 
<circle cx="87.3300" cy="10.9100" r="0.7620" /> 
<circle cx="84.7900" cy="10.9100" r="0.7620" /> 
<circle cx="87.3300" cy="13.4500" r="0.7620" /> 
<circle cx="84.7900" cy="13.4500" r="0.7620" /> 
<circle cx="87.3300" cy="15.9900" r="0.7620" /> 
<circle cx="84.7900" cy="15.9900" r="0.7620" /> 
<circle cx="87.3300" cy="18.5300" r="0.7620" /> 
<circle cx="84.7900" cy="18.5300" r="0.7620" /> 
<circle cx="87.3300" cy="21.0700" r="0.7620" /> 
<circle cx="84.7900" cy="21.0700" r="0.7620" /> 
<circle cx="87.3300" cy="23.6100" r="0.7620" /> 
<circle cx="84.7900" cy="23.6100" r="0.7620" /> 
<circle cx="87.3300" cy="26.1500" r="0.7620" /> 
<circle cx="84.7900" cy="26.1500" r="0.7620" /> 
<circle cx="87.3300" cy="28.6900" r="0.7620" /> 
<circle cx="84.7900" cy="28.6900" r="0.7620" /> 
<circle cx="87.3300" cy="31.2300" r="0.7620" /> 
<circle cx="84.7900" cy="31.2300" r="0.7620" /> 
<circle cx="87.3300" cy="33.7700" r="0.7620" /> 
<circle cx="84.7900" cy="33.7700" r="0.7620" /> 
<circle cx="87.3300" cy="36.3100" r="0.7620" /> 
<circle cx="84.7900" cy="36.3100" r="0.7620" /> 
<circle cx="87.3300" cy="38.8500" r="0.7620" /> 
<circle cx="84.7900" cy="38.8500" r="0.7620" /> 
<circle cx="87.3300" cy="41.3900" r="0.7620" /> 
<circle cx="84.7900" cy="41.3900" r="0.7620" /> 
<circle cx="87.3300" cy="43.9300" r="0.7620" /> 
<circle cx="84.7900" cy="43.9300" r="0.7620" /> 
<circle cx="87.3300" cy="46.4700" r="0.7620" /> 
<circle cx="84.7900" cy="46.4700" r="0.7620" /> 
<circle cx="87.3300" cy="49.0100" r="0.7620" /> 
<circle cx="84.7900" cy="49.0100" r="0.7620" /> 
<circle cx="87.3300" cy="51.5500" r="0.7620" /> 
<circle cx="84.7900" cy="51.5500" r="0.7620" /> 
<circle cx="87.3300" cy="54.0900" r="0.7620" /> 
<circle cx="84.7900" cy="54.0900" r="0.7620" /> 
<circle cx="87.3300" cy="56.6300" r="0.7620" /> 
<circle cx="84.7900" cy="56.6300" r="0.7620" /> 
</g>
<g style="fill:#C83434; fill-opacity:1.0000; stroke:none;">
<circle cx="87.3300" cy="8.3700" r="0.7620" /> 
<circle cx="84.7900" cy="8.3700" r="0.7620" /> 
<circle cx="87.3300" cy="10.9100" r="0.7620" /> 
<circle cx="84.7900" cy="10.9100" r="0.7620" /> 
<circle cx="87.3300" cy="13.4500" r="0.7620" /> 
<circle cx="84.7900" cy="13.4500" r="0.7620" /> 
<circle cx="87.3300" cy="15.9900" r="0.7620" /> 
<circle cx="84.7900" cy="15.9900" r="0.7620" /> 
<circle cx="87.3300" cy="18.5300" r="0.7620" /> 
<circle cx="84.7900" cy="18.5300" r="0.7620" /> 
<circle cx="87.3300" cy="21.0700" r="0.7620" /> 
<circle cx="84.7900" cy="21.0700" r="0.7620" /> 
<circle cx="87.3300" cy="23.6100" r="0.7620" /> 
<circle cx="84.7900" cy="23.6100" r="0.7620" /> 
<circle cx="87.3300" cy="26.1500" r="0.7620" /> 
<circle cx="84.7900" cy="26.1500" r="0.7620" /> 
<circle cx="87.3300" cy="28.6900" r="0.7620" /> 
<circle cx="84.7900" cy="28.6900" r="0.7620" /> 
<circle cx="87.3300" cy="31.2300" r="0.7620" /> 
<circle cx="84.7900" cy="31.2300" r="0.7620" /> 
<circle cx="87.3300" cy="33.7700" r="0.7620" /> 
<circle cx="84.7900" cy="33.7700" r="0.7620" /> 
<circle cx="87.3300" cy="36.3100" r="0.7620" /> 
<circle cx="84.7900" cy="36.3100" r="0.7620" /> 
<circle cx="87.3300" cy="38.8500" r="0.7620" /> 
<circle cx="84.7900" cy="38.8500" r="0.7620" /> 
<circle cx="87.3300" cy="41.3900" r="0.7620" /> 
<circle cx="84.7900" cy="41.3900" r="0.7620" /> 
<circle cx="87.3300" cy="43.9300" r="0.7620" /> 
<circle cx="84.7900" cy="43.9300" r="0.7620" /> 
<circle cx="87.3300" cy="46.4700" r="0.7620" /> 
<circle cx="84.7900" cy="46.4700" r="0.7620" /> 
<circle cx="87.3300" cy="49.0100" r="0.7620" /> 
<circle cx="84.7900" cy="49.0100" r="0.7620" /> 
<circle cx="87.3300" cy="51.5500" r="0.7620" /> 
<circle cx="84.7900" cy="51.5500" r="0.7620" /> 
<circle cx="87.3300" cy="54.0900" r="0.7620" /> 
<circle cx="84.7900" cy="54.0900" r="0.7620" /> 
<circle cx="87.3300" cy="56.6300" r="0.7620" /> 
<circle cx="84.7900" cy="56.6300" r="0.7620" /> 
</g>
<g style="fill:#D864FF; fill-opacity:0.4000; stroke:none;">
<circle cx="87.3300" cy="8.3700" r="0.7620" /> 
<circle cx="84.7900" cy="8.3700" r="0.7620" /> 
<circle cx="87.3300" cy="10.9100" r="0.7620" /> 
<circle cx="84.7900" cy="10.9100" r="0.7620" /> 
<circle cx="87.3300" cy="13.4500" r="0.7620" /> 
<circle cx="84.7900" cy="13.4500" r="0.7620" /> 
<circle cx="87.3300" cy="15.9900" r="0.7620" /> 
<circle cx="84.7900" cy="15.9900" r="0.7620" /> 
<circle cx="87.3300" cy="18.5300" r="0.7620" /> 
<circle cx="84.7900" cy="18.5300" r="0.7620" /> 
<circle cx="87.3300" cy="21.0700" r="0.7620" /> 
<circle cx="84.7900" cy="21.0700" r="0.7620" /> 
<circle cx="87.3300" cy="23.6100" r="0.7620" /> 
<circle cx="84.7900" cy="23.6100" r="0.7620" /> 
<circle cx="87.3300" cy="26.1500" r="0.7620" /> 
<circle cx="84.7900" cy="26.1500" r="0.7620" /> 
<circle cx="87.3300" cy="28.6900" r="0.7620" /> 
<circle cx="84.7900" cy="28.6900" r="0.7620" /> 
<circle cx="87.3300" cy="31.2300" r="0.7620" /> 
<circle cx="84.7900" cy="31.2300" r="0.7620" /> 
<circle cx="87.3300" cy="33.7700" r="0.7620" /> 
<circle cx="84.7900" cy="33.7700" r="0.7620" /> 
<circle cx="87.3300" cy="36.3100" r="0.7620" /> 
<circle cx="84.7900" cy="36.3100" r="0.7620" /> 
<circle cx="87.3300" cy="38.8500" r="0.7620" /> 
<circle cx="84.7900" cy="38.8500" r="0.7620" /> 
<circle cx="87.3300" cy="41.3900" r="0.7620" /> 
<circle cx="84.7900" cy="41.3900" r="0.7620" /> 
<circle cx="87.3300" cy="43.9300" r="0.7620" /> 
<circle cx="84.7900" cy="43.9300" r="0.7620" /> 
<circle cx="87.3300" cy="46.4700" r="0.7620" /> 
<circle cx="84.7900" cy="46.4700" r="0.7620" /> 
<circle cx="87.3300" cy="49.0100" r="0.7620" /> 
<circle cx="84.7900" cy="49.0100" r="0.7620" /> 
<circle cx="87.3300" cy="51.5500" r="0.7620" /> 
<circle cx="84.7900" cy="51.5500" r="0.7620" /> 
<circle cx="87.3300" cy="54.0900" r="0.7620" /> 
<circle cx="84.7900" cy="54.0900" r="0.7620" /> 
<circle cx="87.3300" cy="56.6300" r="0.7620" /> 
<circle cx="84.7900" cy="56.6300" r="0.7620" /> 
</g>
<g style="fill:none; 
stroke:#F2EDA1; stroke-width:0.1000; stroke-opacity:1; 
stroke-linecap:round; stroke-linejoin:round;">
<text x="69.5500" y="32.5000"
textLength="4.3857" font-size="1.3333" lengthAdjust="spacingAndGlyphs"
text-anchor="middle" opacity="0">REF**</text>
<g class="stroked-text"><desc>REF**</desc>
<path d="M68.2167 32.4574
L67.8833 31.9812
" />
<path d="M67.6452 32.4574
L67.6452 31.4574
" />
<path d="M67.6452 31.4574
L68.0262 31.4574
" />
<path d="M68.0262 31.4574
L68.1214 31.5050
" />
<path d="M68.1214 31.5050
L68.1690 31.5527
" />
<path d="M68.1690 31.5527
L68.2167 31.6479
" />
<path d="M68.2167 31.6479
L68.2167 31.7908
" />
<path d="M68.2167 31.7908
L68.1690 31.8860
" />
<path d="M68.1690 31.8860
L68.1214 31.9336
" />
<path d="M68.1214 31.9336
L68.0262 31.9812
" />
<path d="M68.0262 31.9812
L67.6452 31.9812
" />
<path d="M68.6452 31.9336
L68.9786 31.9336
" />
<path d="M69.1214 32.4574
L68.6452 32.4574
" />
<path d="M68.6452 32.4574
L68.6452 31.4574
" />
<path d="M68.6452 31.4574
L69.1214 31.4574
" />
<path d="M69.8833 31.9336
L69.5500 31.9336
" />
<path d="M69.5500 32.4574
L69.5500 31.4574
" />
<path d="M69.5500 31.4574
L70.0262 31.4574
" />
<path d="M70.5500 31.4574
L70.5500 31.6955
" />
<path d="M70.3119 31.6003
L70.5500 31.6955
" />
<path d="M70.5500 31.6955
L70.7881 31.6003
" />
<path d="M70.4071 31.8860
L70.5500 31.6955
" />
<path d="M70.5500 31.6955
L70.6929 31.8860
" />
<path d="M71.3119 31.4574
L71.3119 31.6955
" />
<path d="M71.0738 31.6003
L71.3119 31.6955
" />
<path d="M71.3119 31.6955
L71.5500 31.6003
" />
<path d="M71.1690 31.8860
L71.3119 31.6955
" />
<path d="M71.3119 31.6955
L71.4548 31.8860
" />
</g></g>
<g style="fill:none; 
stroke:#AFAFAF; stroke-width:0.1500; stroke-opacity:1; 
stroke-linecap:round; stroke-linejoin:round;">
<text x="69.5500" y="34.0000"
textLength="3.0595" font-size="1.3333" lengthAdjust="spacingAndGlyphs"
text-anchor="middle" opacity="0">LCD</text>
<g class="stroked-text"><desc>LCD</desc>
<path d="M68.8595 33.9548
L68.3833 33.9548
" />
<path d="M68.3833 33.9548
L68.3833 32.9548
" />
<path d="M69.7643 33.8596
L69.7167 33.9072
" />
<path d="M69.7167 33.9072
L69.5738 33.9548
" />
<path d="M69.5738 33.9548
L69.4786 33.9548
" />
<path d="M69.4786 33.9548
L69.3357 33.9072
" />
<path d="M69.3357 33.9072
L69.2405 33.8120
" />
<path d="M69.2405 33.8120
L69.1929 33.7167
" />
<path d="M69.1929 33.7167
L69.1452 33.5262
" />
<path d="M69.1452 33.5262
L69.1452 33.3834
" />
<path d="M69.1452 33.3834
L69.1929 33.1929
" />
<path d="M69.1929 33.1929
L69.2405 33.0977
" />
<path d="M69.2405 33.0977
L69.3357 33.0024
" />
<path d="M69.3357 33.0024
L69.4786 32.9548
" />
<path d="M69.4786 32.9548
L69.5738 32.9548
" />
<path d="M69.5738 32.9548
L69.7167 33.0024
" />
<path d="M69.7167 33.0024
L69.7643 33.0501
" />
<path d="M70.1929 33.9548
L70.1929 32.9548
" />
<path d="M70.1929 32.9548
L70.4310 32.9548
" />
<path d="M70.4310 32.9548
L70.5738 33.0024
" />
<path d="M70.5738 33.0024
L70.6690 33.0977
" />
<path d="M70.6690 33.0977
L70.7167 33.1929
" />
<path d="M70.7167 33.1929
L70.7643 33.3834
" />
<path d="M70.7643 33.3834
L70.7643 33.5262
" />
<path d="M70.7643 33.5262
L70.7167 33.7167
" />
<path d="M70.7167 33.7167
L70.6690 33.8120
" />
<path d="M70.6690 33.8120
L70.5738 33.9072
" />
<path d="M70.5738 33.9072
L70.4310 33.9548
" />
<path d="M70.4310 33.9548
L70.1929 33.9548
" />
</g><text x="69.5500" y="35.5000"
textLength="4.5357" font-size="1.3333" lengthAdjust="spacingAndGlyphs"
text-anchor="middle" opacity="0">REF**</text>
<g class="stroked-text"><desc>REF**</desc>
<path d="M68.2167 35.4548
L67.8833 34.9786
" />
<path d="M67.6452 35.4548
L67.6452 34.4548
" />
<path d="M67.6452 34.4548
L68.0262 34.4548
" />
<path d="M68.0262 34.4548
L68.1214 34.5024
" />
<path d="M68.1214 34.5024
L68.1690 34.5501
" />
<path d="M68.1690 34.5501
L68.2167 34.6453
" />
<path d="M68.2167 34.6453
L68.2167 34.7882
" />
<path d="M68.2167 34.7882
L68.1690 34.8834
" />
<path d="M68.1690 34.8834
L68.1214 34.9310
" />
<path d="M68.1214 34.9310
L68.0262 34.9786
" />
<path d="M68.0262 34.9786
L67.6452 34.9786
" />
<path d="M68.6452 34.9310
L68.9786 34.9310
" />
<path d="M69.1214 35.4548
L68.6452 35.4548
" />
<path d="M68.6452 35.4548
L68.6452 34.4548
" />
<path d="M68.6452 34.4548
L69.1214 34.4548
" />
<path d="M69.8833 34.9310
L69.5500 34.9310
" />
<path d="M69.5500 35.4548
L69.5500 34.4548
" />
<path d="M69.5500 34.4548
L70.0262 34.4548
" />
<path d="M70.5500 34.4548
L70.5500 34.6929
" />
<path d="M70.3119 34.5977
L70.5500 34.6929
" />
<path d="M70.5500 34.6929
L70.7881 34.5977
" />
<path d="M70.4071 34.8834
L70.5500 34.6929
" />
<path d="M70.5500 34.6929
L70.6929 34.8834
" />
<path d="M71.3119 34.4548
L71.3119 34.6929
" />
<path d="M71.0738 34.5977
L71.3119 34.6929
" />
<path d="M71.3119 34.6929
L71.5500 34.5977
" />
<path d="M71.1690 34.8834
L71.3119 34.6929
" />
<path d="M71.3119 34.6929
L71.4548 34.8834
" />
</g><path style="fill:none; 
stroke:#C2C2C2; stroke-width:0.1000; stroke-opacity:1; 
stroke-linecap:round; stroke-linejoin:round;fill:none"
d="M 0.0500,0.0500
89.4500,0.0500
89.4500,64.9500
0.0500,64.9500
Z" /> 
<path style="fill:#C2C2C2; fill-opacity:1.0000; 
stroke:#C2C2C2; stroke-width:0.1000; stroke-opacity:1; 
stroke-linecap:round; stroke-linejoin:round;fill-rule:evenodd;"
d="M 2.2400,3.9250
82.2500,3.9250
82.2500,61.7100
2.2400,61.7100
Z" /> 
</g> 
</svg>
