<?xml version="1.0" standalone="no"?>
 <!DOCTYPE svg PUBLIC "-//W3C//DTD SVG 1.1//EN" 
 "http://www.w3.org/Graphics/SVG/1.1/DTD/svg11.dtd"> 
<svg
  xmlns:svg="http://www.w3.org/2000/svg"
  xmlns="http://www.w3.org/2000/svg"
  xmlns:xlink="http://www.w3.org/1999/xlink"
  version="1.1"
  width="26.0858mm" height="36.7284mm" viewBox="0.0000 0.0000 26.0858 36.7284">
<title>SVG Image created as NodeMCU_D1_Mini.svg date 2024/06/28 11:56:41 </title>
  <desc>Image generated by PCBNEW </desc>
<g style="fill:#000000; fill-opacity:1.0000;stroke:#000000; stroke-opacity:1.0000;
stroke-linecap:round; stroke-linejoin:round;"
 transform="translate(0 0) scale(1 1)">
</g>
<g style="fill:none; 
stroke:#4D7FC4; stroke-width:1.5240; stroke-opacity:1; 
stroke-linecap:round; stroke-linejoin:round;">
<path d="M1.0780 23.4430
L1.6540 23.4430
" />
<path d="M1.0780 8.2030
L1.6540 8.2030
" />
<path d="M1.0780 10.7430
L1.6540 10.7430
" />
<path d="M24.4280 23.4430
L25.0040 23.4430
" />
<path d="M24.4280 20.9030
L25.0040 20.9030
" />
<path d="M24.4280 18.3630
L25.0040 18.3630
" />
<path d="M24.4280 15.8230
L25.0040 15.8230
" />
<path d="M1.0780 20.9030
L1.6540 20.9030
" />
<path d="M1.0780 18.3630
L1.6540 18.3630
" />
<path d="M1.0780 15.8230
L1.6540 15.8230
" />
<path d="M1.0780 13.2830
L1.6540 13.2830
" />
<path d="M24.4280 13.2830
L25.0040 13.2830
" />
<path d="M24.4280 10.7430
L25.0040 10.7430
" />
<path d="M24.4280 25.9830
L25.0040 25.9830
" />
<path d="M24.4280 8.2030
L25.0040 8.2030
" />
<path d="M1.0780 25.9830
L1.6540 25.9830
" />
</g>
<g style="fill:none; 
stroke:#02FFEE; stroke-width:1.5240; stroke-opacity:1; 
stroke-linecap:round; stroke-linejoin:round;">
<path d="M1.0780 23.4430
L1.6540 23.4430
" />
<path d="M1.0780 8.2030
L1.6540 8.2030
" />
<path d="M1.0780 10.7430
L1.6540 10.7430
" />
<path d="M24.4280 23.4430
L25.0040 23.4430
" />
<path d="M24.4280 20.9030
L25.0040 20.9030
" />
<path d="M24.4280 18.3630
L25.0040 18.3630
" />
<path d="M24.4280 15.8230
L25.0040 15.8230
" />
<path d="M1.0780 20.9030
L1.6540 20.9030
" />
<path d="M1.0780 18.3630
L1.6540 18.3630
" />
<path d="M1.0780 15.8230
L1.6540 15.8230
" />
<path d="M1.0780 13.2830
L1.6540 13.2830
" />
<path d="M24.4280 13.2830
L25.0040 13.2830
" />
<path d="M24.4280 10.7430
L25.0040 10.7430
" />
<path d="M24.4280 25.9830
L25.0040 25.9830
" />
<path d="M24.4280 8.2030
L25.0040 8.2030
" />
<path d="M1.0780 25.9830
L1.6540 25.9830
" />
</g>
<g style="fill:none; 
stroke:#F2EDA1; stroke-width:1.5240; stroke-opacity:1; 
stroke-linecap:round; stroke-linejoin:round;">
<path d="M1.0780 23.4430
L1.6540 23.4430
" />
<path d="M1.0780 8.2030
L1.6540 8.2030
" />
<path d="M1.0780 10.7430
L1.6540 10.7430
" />
<path d="M24.4280 23.4430
L25.0040 23.4430
" />
<path d="M24.4280 20.9030
L25.0040 20.9030
" />
<path d="M24.4280 18.3630
L25.0040 18.3630
" />
<path d="M24.4280 15.8230
L25.0040 15.8230
" />
<path d="M1.0780 20.9030
L1.6540 20.9030
" />
<path d="M1.0780 18.3630
L1.6540 18.3630
" />
<path d="M1.0780 15.8230
L1.6540 15.8230
" />
<path d="M1.0780 13.2830
L1.6540 13.2830
" />
<path d="M24.4280 13.2830
L25.0040 13.2830
" />
<path d="M24.4280 10.7430
L25.0040 10.7430
" />
<path d="M24.4280 25.9830
L25.0040 25.9830
" />
<path d="M24.4280 8.2030
L25.0040 8.2030
" />
<path d="M1.0780 25.9830
L1.6540 25.9830
" />
</g>
<g style="fill:none; 
stroke:#E8B2A7; stroke-width:1.5240; stroke-opacity:1; 
stroke-linecap:round; stroke-linejoin:round;">
<path d="M1.0780 23.4430
L1.6540 23.4430
" />
<path d="M1.0780 8.2030
L1.6540 8.2030
" />
<path d="M1.0780 10.7430
L1.6540 10.7430
" />
<path d="M24.4280 23.4430
L25.0040 23.4430
" />
<path d="M24.4280 20.9030
L25.0040 20.9030
" />
<path d="M24.4280 18.3630
L25.0040 18.3630
" />
<path d="M24.4280 15.8230
L25.0040 15.8230
" />
<path d="M1.0780 20.9030
L1.6540 20.9030
" />
<path d="M1.0780 18.3630
L1.6540 18.3630
" />
<path d="M1.0780 15.8230
L1.6540 15.8230
" />
<path d="M1.0780 13.2830
L1.6540 13.2830
" />
<path d="M24.4280 13.2830
L25.0040 13.2830
" />
<path d="M24.4280 10.7430
L25.0040 10.7430
" />
<path d="M24.4280 25.9830
L25.0040 25.9830
" />
<path d="M24.4280 8.2030
L25.0040 8.2030
" />
<path d="M1.0780 25.9830
L1.6540 25.9830
" />
</g>
<g style="fill:none; 
stroke:#28CCD9; stroke-width:1.5240; stroke-opacity:1; 
stroke-linecap:round; stroke-linejoin:round;">
<path d="M1.0780 23.4430
L1.6540 23.4430
" />
<path d="M1.0780 8.2030
L1.6540 8.2030
" />
<path d="M1.0780 10.7430
L1.6540 10.7430
" />
<path d="M24.4280 23.4430
L25.0040 23.4430
" />
<path d="M24.4280 20.9030
L25.0040 20.9030
" />
<path d="M24.4280 18.3630
L25.0040 18.3630
" />
<path d="M24.4280 15.8230
L25.0040 15.8230
" />
<path d="M1.0780 20.9030
L1.6540 20.9030
" />
<path d="M1.0780 18.3630
L1.6540 18.3630
" />
<path d="M1.0780 15.8230
L1.6540 15.8230
" />
<path d="M1.0780 13.2830
L1.6540 13.2830
" />
<path d="M24.4280 13.2830
L25.0040 13.2830
" />
<path d="M24.4280 10.7430
L25.0040 10.7430
" />
<path d="M24.4280 25.9830
L25.0040 25.9830
" />
<path d="M24.4280 8.2030
L25.0040 8.2030
" />
<path d="M1.0780 25.9830
L1.6540 25.9830
" />
</g>
<g style="fill:none; 
stroke:#A7A5C6; stroke-width:1.5240; stroke-opacity:1; 
stroke-linecap:round; stroke-linejoin:round;">
<path d="M1.0780 23.4430
L1.6540 23.4430
" />
<path d="M1.0780 8.2030
L1.6540 8.2030
" />
<path d="M1.0780 10.7430
L1.6540 10.7430
" />
<path d="M24.4280 23.4430
L25.0040 23.4430
" />
<path d="M24.4280 20.9030
L25.0040 20.9030
" />
<path d="M24.4280 18.3630
L25.0040 18.3630
" />
<path d="M24.4280 15.8230
L25.0040 15.8230
" />
<path d="M1.0780 20.9030
L1.6540 20.9030
" />
<path d="M1.0780 18.3630
L1.6540 18.3630
" />
<path d="M1.0780 15.8230
L1.6540 15.8230
" />
<path d="M1.0780 13.2830
L1.6540 13.2830
" />
<path d="M24.4280 13.2830
L25.0040 13.2830
" />
<path d="M24.4280 10.7430
L25.0040 10.7430
" />
<path d="M24.4280 25.9830
L25.0040 25.9830
" />
<path d="M24.4280 8.2030
L25.0040 8.2030
" />
<path d="M1.0780 25.9830
L1.6540 25.9830
" />
</g>
<g style="fill:none; 
stroke:#F76F8E; stroke-width:1.5240; stroke-opacity:1; 
stroke-linecap:round; stroke-linejoin:round;">
<path d="M1.0780 23.4430
L1.6540 23.4430
" />
<path d="M1.0780 8.2030
L1.6540 8.2030
" />
<path d="M1.0780 10.7430
L1.6540 10.7430
" />
<path d="M24.4280 23.4430
L25.0040 23.4430
" />
<path d="M24.4280 20.9030
L25.0040 20.9030
" />
<path d="M24.4280 18.3630
L25.0040 18.3630
" />
<path d="M24.4280 15.8230
L25.0040 15.8230
" />
<path d="M1.0780 20.9030
L1.6540 20.9030
" />
<path d="M1.0780 18.3630
L1.6540 18.3630
" />
<path d="M1.0780 15.8230
L1.6540 15.8230
" />
<path d="M1.0780 13.2830
L1.6540 13.2830
" />
<path d="M24.4280 13.2830
L25.0040 13.2830
" />
<path d="M24.4280 10.7430
L25.0040 10.7430
" />
<path d="M24.4280 25.9830
L25.0040 25.9830
" />
<path d="M24.4280 8.2030
L25.0040 8.2030
" />
<path d="M1.0780 25.9830
L1.6540 25.9830
" />
</g>
<g style="fill:none; 
stroke:#5BC3EB; stroke-width:1.5240; stroke-opacity:1; 
stroke-linecap:round; stroke-linejoin:round;">
<path d="M1.0780 23.4430
L1.6540 23.4430
" />
<path d="M1.0780 8.2030
L1.6540 8.2030
" />
<path d="M1.0780 10.7430
L1.6540 10.7430
" />
<path d="M24.4280 23.4430
L25.0040 23.4430
" />
<path d="M24.4280 20.9030
L25.0040 20.9030
" />
<path d="M24.4280 18.3630
L25.0040 18.3630
" />
<path d="M24.4280 15.8230
L25.0040 15.8230
" />
<path d="M1.0780 20.9030
L1.6540 20.9030
" />
<path d="M1.0780 18.3630
L1.6540 18.3630
" />
<path d="M1.0780 15.8230
L1.6540 15.8230
" />
<path d="M1.0780 13.2830
L1.6540 13.2830
" />
<path d="M24.4280 13.2830
L25.0040 13.2830
" />
<path d="M24.4280 10.7430
L25.0040 10.7430
" />
<path d="M24.4280 25.9830
L25.0040 25.9830
" />
<path d="M24.4280 8.2030
L25.0040 8.2030
" />
<path d="M1.0780 25.9830
L1.6540 25.9830
" />
</g>
<g style="fill:none; 
stroke:#ED7C33; stroke-width:1.5240; stroke-opacity:1; 
stroke-linecap:round; stroke-linejoin:round;">
<path d="M1.0780 23.4430
L1.6540 23.4430
" />
<path d="M1.0780 8.2030
L1.6540 8.2030
" />
<path d="M1.0780 10.7430
L1.6540 10.7430
" />
<path d="M24.4280 23.4430
L25.0040 23.4430
" />
<path d="M24.4280 20.9030
L25.0040 20.9030
" />
<path d="M24.4280 18.3630
L25.0040 18.3630
" />
<path d="M24.4280 15.8230
L25.0040 15.8230
" />
<path d="M1.0780 20.9030
L1.6540 20.9030
" />
<path d="M1.0780 18.3630
L1.6540 18.3630
" />
<path d="M1.0780 15.8230
L1.6540 15.8230
" />
<path d="M1.0780 13.2830
L1.6540 13.2830
" />
<path d="M24.4280 13.2830
L25.0040 13.2830
" />
<path d="M24.4280 10.7430
L25.0040 10.7430
" />
<path d="M24.4280 25.9830
L25.0040 25.9830
" />
<path d="M24.4280 8.2030
L25.0040 8.2030
" />
<path d="M1.0780 25.9830
L1.6540 25.9830
" />
</g>
<g style="fill:none; 
stroke:#F2EDA1; stroke-width:1.5240; stroke-opacity:1; 
stroke-linecap:round; stroke-linejoin:round;">
<path d="M1.0780 23.4430
L1.6540 23.4430
" />
<path d="M1.0780 8.2030
L1.6540 8.2030
" />
<path d="M1.0780 10.7430
L1.6540 10.7430
" />
<path d="M24.4280 23.4430
L25.0040 23.4430
" />
<path d="M24.4280 20.9030
L25.0040 20.9030
" />
<path d="M24.4280 18.3630
L25.0040 18.3630
" />
<path d="M24.4280 15.8230
L25.0040 15.8230
" />
<path d="M1.0780 20.9030
L1.6540 20.9030
" />
<path d="M1.0780 18.3630
L1.6540 18.3630
" />
<path d="M1.0780 15.8230
L1.6540 15.8230
" />
<path d="M1.0780 13.2830
L1.6540 13.2830
" />
<path d="M24.4280 13.2830
L25.0040 13.2830
" />
<path d="M24.4280 10.7430
L25.0040 10.7430
" />
<path d="M24.4280 25.9830
L25.0040 25.9830
" />
<path d="M24.4280 8.2030
L25.0040 8.2030
" />
<path d="M1.0780 25.9830
L1.6540 25.9830
" />
</g>
<g style="fill:none; 
stroke:#E8B2A7; stroke-width:1.5240; stroke-opacity:1; 
stroke-linecap:round; stroke-linejoin:round;">
<path d="M1.0780 23.4430
L1.6540 23.4430
" />
<path d="M1.0780 8.2030
L1.6540 8.2030
" />
<path d="M1.0780 10.7430
L1.6540 10.7430
" />
<path d="M24.4280 23.4430
L25.0040 23.4430
" />
<path d="M24.4280 20.9030
L25.0040 20.9030
" />
<path d="M24.4280 18.3630
L25.0040 18.3630
" />
<path d="M24.4280 15.8230
L25.0040 15.8230
" />
<path d="M1.0780 20.9030
L1.6540 20.9030
" />
<path d="M1.0780 18.3630
L1.6540 18.3630
" />
<path d="M1.0780 15.8230
L1.6540 15.8230
" />
<path d="M1.0780 13.2830
L1.6540 13.2830
" />
<path d="M24.4280 13.2830
L25.0040 13.2830
" />
<path d="M24.4280 10.7430
L25.0040 10.7430
" />
<path d="M24.4280 25.9830
L25.0040 25.9830
" />
<path d="M24.4280 8.2030
L25.0040 8.2030
" />
<path d="M1.0780 25.9830
L1.6540 25.9830
" />
</g>
<g style="fill:none; 
stroke:#28CCD9; stroke-width:1.5240; stroke-opacity:1; 
stroke-linecap:round; stroke-linejoin:round;">
<path d="M1.0780 23.4430
L1.6540 23.4430
" />
<path d="M1.0780 8.2030
L1.6540 8.2030
" />
<path d="M1.0780 10.7430
L1.6540 10.7430
" />
<path d="M24.4280 23.4430
L25.0040 23.4430
" />
<path d="M24.4280 20.9030
L25.0040 20.9030
" />
<path d="M24.4280 18.3630
L25.0040 18.3630
" />
<path d="M24.4280 15.8230
L25.0040 15.8230
" />
<path d="M1.0780 20.9030
L1.6540 20.9030
" />
<path d="M1.0780 18.3630
L1.6540 18.3630
" />
<path d="M1.0780 15.8230
L1.6540 15.8230
" />
<path d="M1.0780 13.2830
L1.6540 13.2830
" />
<path d="M24.4280 13.2830
L25.0040 13.2830
" />
<path d="M24.4280 10.7430
L25.0040 10.7430
" />
<path d="M24.4280 25.9830
L25.0040 25.9830
" />
<path d="M24.4280 8.2030
L25.0040 8.2030
" />
<path d="M1.0780 25.9830
L1.6540 25.9830
" />
</g>
<g style="fill:none; 
stroke:#A7A5C6; stroke-width:1.5240; stroke-opacity:1; 
stroke-linecap:round; stroke-linejoin:round;">
<path d="M1.0780 23.4430
L1.6540 23.4430
" />
<path d="M1.0780 8.2030
L1.6540 8.2030
" />
<path d="M1.0780 10.7430
L1.6540 10.7430
" />
<path d="M24.4280 23.4430
L25.0040 23.4430
" />
<path d="M24.4280 20.9030
L25.0040 20.9030
" />
<path d="M24.4280 18.3630
L25.0040 18.3630
" />
<path d="M24.4280 15.8230
L25.0040 15.8230
" />
<path d="M1.0780 20.9030
L1.6540 20.9030
" />
<path d="M1.0780 18.3630
L1.6540 18.3630
" />
<path d="M1.0780 15.8230
L1.6540 15.8230
" />
<path d="M1.0780 13.2830
L1.6540 13.2830
" />
<path d="M24.4280 13.2830
L25.0040 13.2830
" />
<path d="M24.4280 10.7430
L25.0040 10.7430
" />
<path d="M24.4280 25.9830
L25.0040 25.9830
" />
<path d="M24.4280 8.2030
L25.0040 8.2030
" />
<path d="M1.0780 25.9830
L1.6540 25.9830
" />
</g>
<g style="fill:none; 
stroke:#F76F8E; stroke-width:1.5240; stroke-opacity:1; 
stroke-linecap:round; stroke-linejoin:round;">
<path d="M1.0780 23.4430
L1.6540 23.4430
" />
<path d="M1.0780 8.2030
L1.6540 8.2030
" />
<path d="M1.0780 10.7430
L1.6540 10.7430
" />
<path d="M24.4280 23.4430
L25.0040 23.4430
" />
<path d="M24.4280 20.9030
L25.0040 20.9030
" />
<path d="M24.4280 18.3630
L25.0040 18.3630
" />
<path d="M24.4280 15.8230
L25.0040 15.8230
" />
<path d="M1.0780 20.9030
L1.6540 20.9030
" />
<path d="M1.0780 18.3630
L1.6540 18.3630
" />
<path d="M1.0780 15.8230
L1.6540 15.8230
" />
<path d="M1.0780 13.2830
L1.6540 13.2830
" />
<path d="M24.4280 13.2830
L25.0040 13.2830
" />
<path d="M24.4280 10.7430
L25.0040 10.7430
" />
<path d="M24.4280 25.9830
L25.0040 25.9830
" />
<path d="M24.4280 8.2030
L25.0040 8.2030
" />
<path d="M1.0780 25.9830
L1.6540 25.9830
" />
</g>
<g style="fill:none; 
stroke:#5BC3EB; stroke-width:1.5240; stroke-opacity:1; 
stroke-linecap:round; stroke-linejoin:round;">
<path d="M1.0780 23.4430
L1.6540 23.4430
" />
<path d="M1.0780 8.2030
L1.6540 8.2030
" />
<path d="M1.0780 10.7430
L1.6540 10.7430
" />
<path d="M24.4280 23.4430
L25.0040 23.4430
" />
<path d="M24.4280 20.9030
L25.0040 20.9030
" />
<path d="M24.4280 18.3630
L25.0040 18.3630
" />
<path d="M24.4280 15.8230
L25.0040 15.8230
" />
<path d="M1.0780 20.9030
L1.6540 20.9030
" />
<path d="M1.0780 18.3630
L1.6540 18.3630
" />
<path d="M1.0780 15.8230
L1.6540 15.8230
" />
<path d="M1.0780 13.2830
L1.6540 13.2830
" />
<path d="M24.4280 13.2830
L25.0040 13.2830
" />
<path d="M24.4280 10.7430
L25.0040 10.7430
" />
<path d="M24.4280 25.9830
L25.0040 25.9830
" />
<path d="M24.4280 8.2030
L25.0040 8.2030
" />
<path d="M1.0780 25.9830
L1.6540 25.9830
" />
</g>
<g style="fill:none; 
stroke:#ED7C33; stroke-width:1.5240; stroke-opacity:1; 
stroke-linecap:round; stroke-linejoin:round;">
<path d="M1.0780 23.4430
L1.6540 23.4430
" />
<path d="M1.0780 8.2030
L1.6540 8.2030
" />
<path d="M1.0780 10.7430
L1.6540 10.7430
" />
<path d="M24.4280 23.4430
L25.0040 23.4430
" />
<path d="M24.4280 20.9030
L25.0040 20.9030
" />
<path d="M24.4280 18.3630
L25.0040 18.3630
" />
<path d="M24.4280 15.8230
L25.0040 15.8230
" />
<path d="M1.0780 20.9030
L1.6540 20.9030
" />
<path d="M1.0780 18.3630
L1.6540 18.3630
" />
<path d="M1.0780 15.8230
L1.6540 15.8230
" />
<path d="M1.0780 13.2830
L1.6540 13.2830
" />
<path d="M24.4280 13.2830
L25.0040 13.2830
" />
<path d="M24.4280 10.7430
L25.0040 10.7430
" />
<path d="M24.4280 25.9830
L25.0040 25.9830
" />
<path d="M24.4280 8.2030
L25.0040 8.2030
" />
<path d="M1.0780 25.9830
L1.6540 25.9830
" />
</g>
<g style="fill:none; 
stroke:#F2EDA1; stroke-width:1.5240; stroke-opacity:1; 
stroke-linecap:round; stroke-linejoin:round;">
<path d="M1.0780 23.4430
L1.6540 23.4430
" />
<path d="M1.0780 8.2030
L1.6540 8.2030
" />
<path d="M1.0780 10.7430
L1.6540 10.7430
" />
<path d="M24.4280 23.4430
L25.0040 23.4430
" />
<path d="M24.4280 20.9030
L25.0040 20.9030
" />
<path d="M24.4280 18.3630
L25.0040 18.3630
" />
<path d="M24.4280 15.8230
L25.0040 15.8230
" />
<path d="M1.0780 20.9030
L1.6540 20.9030
" />
<path d="M1.0780 18.3630
L1.6540 18.3630
" />
<path d="M1.0780 15.8230
L1.6540 15.8230
" />
<path d="M1.0780 13.2830
L1.6540 13.2830
" />
<path d="M24.4280 13.2830
L25.0040 13.2830
" />
<path d="M24.4280 10.7430
L25.0040 10.7430
" />
<path d="M24.4280 25.9830
L25.0040 25.9830
" />
<path d="M24.4280 8.2030
L25.0040 8.2030
" />
<path d="M1.0780 25.9830
L1.6540 25.9830
" />
</g>
<g style="fill:none; 
stroke:#E8B2A7; stroke-width:1.5240; stroke-opacity:1; 
stroke-linecap:round; stroke-linejoin:round;">
<path d="M1.0780 23.4430
L1.6540 23.4430
" />
<path d="M1.0780 8.2030
L1.6540 8.2030
" />
<path d="M1.0780 10.7430
L1.6540 10.7430
" />
<path d="M24.4280 23.4430
L25.0040 23.4430
" />
<path d="M24.4280 20.9030
L25.0040 20.9030
" />
<path d="M24.4280 18.3630
L25.0040 18.3630
" />
<path d="M24.4280 15.8230
L25.0040 15.8230
" />
<path d="M1.0780 20.9030
L1.6540 20.9030
" />
<path d="M1.0780 18.3630
L1.6540 18.3630
" />
<path d="M1.0780 15.8230
L1.6540 15.8230
" />
<path d="M1.0780 13.2830
L1.6540 13.2830
" />
<path d="M24.4280 13.2830
L25.0040 13.2830
" />
<path d="M24.4280 10.7430
L25.0040 10.7430
" />
<path d="M24.4280 25.9830
L25.0040 25.9830
" />
<path d="M24.4280 8.2030
L25.0040 8.2030
" />
<path d="M1.0780 25.9830
L1.6540 25.9830
" />
</g>
<g style="fill:none; 
stroke:#28CCD9; stroke-width:1.5240; stroke-opacity:1; 
stroke-linecap:round; stroke-linejoin:round;">
<path d="M1.0780 23.4430
L1.6540 23.4430
" />
<path d="M1.0780 8.2030
L1.6540 8.2030
" />
<path d="M1.0780 10.7430
L1.6540 10.7430
" />
<path d="M24.4280 23.4430
L25.0040 23.4430
" />
<path d="M24.4280 20.9030
L25.0040 20.9030
" />
<path d="M24.4280 18.3630
L25.0040 18.3630
" />
<path d="M24.4280 15.8230
L25.0040 15.8230
" />
<path d="M1.0780 20.9030
L1.6540 20.9030
" />
<path d="M1.0780 18.3630
L1.6540 18.3630
" />
<path d="M1.0780 15.8230
L1.6540 15.8230
" />
<path d="M1.0780 13.2830
L1.6540 13.2830
" />
<path d="M24.4280 13.2830
L25.0040 13.2830
" />
<path d="M24.4280 10.7430
L25.0040 10.7430
" />
<path d="M24.4280 25.9830
L25.0040 25.9830
" />
<path d="M24.4280 8.2030
L25.0040 8.2030
" />
<path d="M1.0780 25.9830
L1.6540 25.9830
" />
</g>
<g style="fill:none; 
stroke:#A7A5C6; stroke-width:1.5240; stroke-opacity:1; 
stroke-linecap:round; stroke-linejoin:round;">
<path d="M1.0780 23.4430
L1.6540 23.4430
" />
<path d="M1.0780 8.2030
L1.6540 8.2030
" />
<path d="M1.0780 10.7430
L1.6540 10.7430
" />
<path d="M24.4280 23.4430
L25.0040 23.4430
" />
<path d="M24.4280 20.9030
L25.0040 20.9030
" />
<path d="M24.4280 18.3630
L25.0040 18.3630
" />
<path d="M24.4280 15.8230
L25.0040 15.8230
" />
<path d="M1.0780 20.9030
L1.6540 20.9030
" />
<path d="M1.0780 18.3630
L1.6540 18.3630
" />
<path d="M1.0780 15.8230
L1.6540 15.8230
" />
<path d="M1.0780 13.2830
L1.6540 13.2830
" />
<path d="M24.4280 13.2830
L25.0040 13.2830
" />
<path d="M24.4280 10.7430
L25.0040 10.7430
" />
<path d="M24.4280 25.9830
L25.0040 25.9830
" />
<path d="M24.4280 8.2030
L25.0040 8.2030
" />
<path d="M1.0780 25.9830
L1.6540 25.9830
" />
</g>
<g style="fill:none; 
stroke:#F76F8E; stroke-width:1.5240; stroke-opacity:1; 
stroke-linecap:round; stroke-linejoin:round;">
<path d="M1.0780 23.4430
L1.6540 23.4430
" />
<path d="M1.0780 8.2030
L1.6540 8.2030
" />
<path d="M1.0780 10.7430
L1.6540 10.7430
" />
<path d="M24.4280 23.4430
L25.0040 23.4430
" />
<path d="M24.4280 20.9030
L25.0040 20.9030
" />
<path d="M24.4280 18.3630
L25.0040 18.3630
" />
<path d="M24.4280 15.8230
L25.0040 15.8230
" />
<path d="M1.0780 20.9030
L1.6540 20.9030
" />
<path d="M1.0780 18.3630
L1.6540 18.3630
" />
<path d="M1.0780 15.8230
L1.6540 15.8230
" />
<path d="M1.0780 13.2830
L1.6540 13.2830
" />
<path d="M24.4280 13.2830
L25.0040 13.2830
" />
<path d="M24.4280 10.7430
L25.0040 10.7430
" />
<path d="M24.4280 25.9830
L25.0040 25.9830
" />
<path d="M24.4280 8.2030
L25.0040 8.2030
" />
<path d="M1.0780 25.9830
L1.6540 25.9830
" />
</g>
<g style="fill:none; 
stroke:#5BC3EB; stroke-width:1.5240; stroke-opacity:1; 
stroke-linecap:round; stroke-linejoin:round;">
<path d="M1.0780 23.4430
L1.6540 23.4430
" />
<path d="M1.0780 8.2030
L1.6540 8.2030
" />
<path d="M1.0780 10.7430
L1.6540 10.7430
" />
<path d="M24.4280 23.4430
L25.0040 23.4430
" />
<path d="M24.4280 20.9030
L25.0040 20.9030
" />
<path d="M24.4280 18.3630
L25.0040 18.3630
" />
<path d="M24.4280 15.8230
L25.0040 15.8230
" />
<path d="M1.0780 20.9030
L1.6540 20.9030
" />
<path d="M1.0780 18.3630
L1.6540 18.3630
" />
<path d="M1.0780 15.8230
L1.6540 15.8230
" />
<path d="M1.0780 13.2830
L1.6540 13.2830
" />
<path d="M24.4280 13.2830
L25.0040 13.2830
" />
<path d="M24.4280 10.7430
L25.0040 10.7430
" />
<path d="M24.4280 25.9830
L25.0040 25.9830
" />
<path d="M24.4280 8.2030
L25.0040 8.2030
" />
<path d="M1.0780 25.9830
L1.6540 25.9830
" />
</g>
<g style="fill:none; 
stroke:#ED7C33; stroke-width:1.5240; stroke-opacity:1; 
stroke-linecap:round; stroke-linejoin:round;">
<path d="M1.0780 23.4430
L1.6540 23.4430
" />
<path d="M1.0780 8.2030
L1.6540 8.2030
" />
<path d="M1.0780 10.7430
L1.6540 10.7430
" />
<path d="M24.4280 23.4430
L25.0040 23.4430
" />
<path d="M24.4280 20.9030
L25.0040 20.9030
" />
<path d="M24.4280 18.3630
L25.0040 18.3630
" />
<path d="M24.4280 15.8230
L25.0040 15.8230
" />
<path d="M1.0780 20.9030
L1.6540 20.9030
" />
<path d="M1.0780 18.3630
L1.6540 18.3630
" />
<path d="M1.0780 15.8230
L1.6540 15.8230
" />
<path d="M1.0780 13.2830
L1.6540 13.2830
" />
<path d="M24.4280 13.2830
L25.0040 13.2830
" />
<path d="M24.4280 10.7430
L25.0040 10.7430
" />
<path d="M24.4280 25.9830
L25.0040 25.9830
" />
<path d="M24.4280 8.2030
L25.0040 8.2030
" />
<path d="M1.0780 25.9830
L1.6540 25.9830
" />
</g>
<g style="fill:none; 
stroke:#8DCB81; stroke-width:1.5240; stroke-opacity:1; 
stroke-linecap:round; stroke-linejoin:round;">
<path d="M1.0780 23.4430
L1.6540 23.4430
" />
<path d="M1.0780 8.2030
L1.6540 8.2030
" />
<path d="M1.0780 10.7430
L1.6540 10.7430
" />
<path d="M24.4280 23.4430
L25.0040 23.4430
" />
<path d="M24.4280 20.9030
L25.0040 20.9030
" />
<path d="M24.4280 18.3630
L25.0040 18.3630
" />
<path d="M24.4280 15.8230
L25.0040 15.8230
" />
<path d="M1.0780 20.9030
L1.6540 20.9030
" />
<path d="M1.0780 18.3630
L1.6540 18.3630
" />
<path d="M1.0780 15.8230
L1.6540 15.8230
" />
<path d="M1.0780 13.2830
L1.6540 13.2830
" />
<path d="M24.4280 13.2830
L25.0040 13.2830
" />
<path d="M24.4280 10.7430
L25.0040 10.7430
" />
<path d="M24.4280 25.9830
L25.0040 25.9830
" />
<path d="M24.4280 8.2030
L25.0040 8.2030
" />
<path d="M1.0780 25.9830
L1.6540 25.9830
" />
</g>
<g style="fill:none; 
stroke:#F2EDA1; stroke-width:1.5240; stroke-opacity:1; 
stroke-linecap:round; stroke-linejoin:round;">
<path d="M1.0780 23.4430
L1.6540 23.4430
" />
<path d="M1.0780 8.2030
L1.6540 8.2030
" />
<path d="M1.0780 10.7430
L1.6540 10.7430
" />
<path d="M24.4280 23.4430
L25.0040 23.4430
" />
<path d="M24.4280 20.9030
L25.0040 20.9030
" />
<path d="M24.4280 18.3630
L25.0040 18.3630
" />
<path d="M24.4280 15.8230
L25.0040 15.8230
" />
<path d="M1.0780 20.9030
L1.6540 20.9030
" />
<path d="M1.0780 18.3630
L1.6540 18.3630
" />
<path d="M1.0780 15.8230
L1.6540 15.8230
" />
<path d="M1.0780 13.2830
L1.6540 13.2830
" />
<path d="M24.4280 13.2830
L25.0040 13.2830
" />
<path d="M24.4280 10.7430
L25.0040 10.7430
" />
<path d="M24.4280 25.9830
L25.0040 25.9830
" />
<path d="M24.4280 8.2030
L25.0040 8.2030
" />
<path d="M1.0780 25.9830
L1.6540 25.9830
" />
</g>
<g style="fill:none; 
stroke:#E8B2A7; stroke-width:1.5240; stroke-opacity:1; 
stroke-linecap:round; stroke-linejoin:round;">
<path d="M1.0780 23.4430
L1.6540 23.4430
" />
<path d="M1.0780 8.2030
L1.6540 8.2030
" />
<path d="M1.0780 10.7430
L1.6540 10.7430
" />
<path d="M24.4280 23.4430
L25.0040 23.4430
" />
<path d="M24.4280 20.9030
L25.0040 20.9030
" />
<path d="M24.4280 18.3630
L25.0040 18.3630
" />
<path d="M24.4280 15.8230
L25.0040 15.8230
" />
<path d="M1.0780 20.9030
L1.6540 20.9030
" />
<path d="M1.0780 18.3630
L1.6540 18.3630
" />
<path d="M1.0780 15.8230
L1.6540 15.8230
" />
<path d="M1.0780 13.2830
L1.6540 13.2830
" />
<path d="M24.4280 13.2830
L25.0040 13.2830
" />
<path d="M24.4280 10.7430
L25.0040 10.7430
" />
<path d="M24.4280 25.9830
L25.0040 25.9830
" />
<path d="M24.4280 8.2030
L25.0040 8.2030
" />
<path d="M1.0780 25.9830
L1.6540 25.9830
" />
</g>
<g style="fill:none; 
stroke:#28CCD9; stroke-width:1.5240; stroke-opacity:1; 
stroke-linecap:round; stroke-linejoin:round;">
<path d="M1.0780 23.4430
L1.6540 23.4430
" />
<path d="M1.0780 8.2030
L1.6540 8.2030
" />
<path d="M1.0780 10.7430
L1.6540 10.7430
" />
<path d="M24.4280 23.4430
L25.0040 23.4430
" />
<path d="M24.4280 20.9030
L25.0040 20.9030
" />
<path d="M24.4280 18.3630
L25.0040 18.3630
" />
<path d="M24.4280 15.8230
L25.0040 15.8230
" />
<path d="M1.0780 20.9030
L1.6540 20.9030
" />
<path d="M1.0780 18.3630
L1.6540 18.3630
" />
<path d="M1.0780 15.8230
L1.6540 15.8230
" />
<path d="M1.0780 13.2830
L1.6540 13.2830
" />
<path d="M24.4280 13.2830
L25.0040 13.2830
" />
<path d="M24.4280 10.7430
L25.0040 10.7430
" />
<path d="M24.4280 25.9830
L25.0040 25.9830
" />
<path d="M24.4280 8.2030
L25.0040 8.2030
" />
<path d="M1.0780 25.9830
L1.6540 25.9830
" />
</g>
<g style="fill:none; 
stroke:#A7A5C6; stroke-width:1.5240; stroke-opacity:1; 
stroke-linecap:round; stroke-linejoin:round;">
<path d="M1.0780 23.4430
L1.6540 23.4430
" />
<path d="M1.0780 8.2030
L1.6540 8.2030
" />
<path d="M1.0780 10.7430
L1.6540 10.7430
" />
<path d="M24.4280 23.4430
L25.0040 23.4430
" />
<path d="M24.4280 20.9030
L25.0040 20.9030
" />
<path d="M24.4280 18.3630
L25.0040 18.3630
" />
<path d="M24.4280 15.8230
L25.0040 15.8230
" />
<path d="M1.0780 20.9030
L1.6540 20.9030
" />
<path d="M1.0780 18.3630
L1.6540 18.3630
" />
<path d="M1.0780 15.8230
L1.6540 15.8230
" />
<path d="M1.0780 13.2830
L1.6540 13.2830
" />
<path d="M24.4280 13.2830
L25.0040 13.2830
" />
<path d="M24.4280 10.7430
L25.0040 10.7430
" />
<path d="M24.4280 25.9830
L25.0040 25.9830
" />
<path d="M24.4280 8.2030
L25.0040 8.2030
" />
<path d="M1.0780 25.9830
L1.6540 25.9830
" />
</g>
<g style="fill:none; 
stroke:#DB628B; stroke-width:1.5240; stroke-opacity:1; 
stroke-linecap:round; stroke-linejoin:round;">
<path d="M1.0780 23.4430
L1.6540 23.4430
" />
<path d="M1.0780 8.2030
L1.6540 8.2030
" />
<path d="M1.0780 10.7430
L1.6540 10.7430
" />
<path d="M24.4280 23.4430
L25.0040 23.4430
" />
<path d="M24.4280 20.9030
L25.0040 20.9030
" />
<path d="M24.4280 18.3630
L25.0040 18.3630
" />
<path d="M24.4280 15.8230
L25.0040 15.8230
" />
<path d="M1.0780 20.9030
L1.6540 20.9030
" />
<path d="M1.0780 18.3630
L1.6540 18.3630
" />
<path d="M1.0780 15.8230
L1.6540 15.8230
" />
<path d="M1.0780 13.2830
L1.6540 13.2830
" />
<path d="M24.4280 13.2830
L25.0040 13.2830
" />
<path d="M24.4280 10.7430
L25.0040 10.7430
" />
<path d="M24.4280 25.9830
L25.0040 25.9830
" />
<path d="M24.4280 8.2030
L25.0040 8.2030
" />
<path d="M1.0780 25.9830
L1.6540 25.9830
" />
</g>
<g style="fill:none; 
stroke:#4FCBCB; stroke-width:1.5240; stroke-opacity:1; 
stroke-linecap:round; stroke-linejoin:round;">
<path d="M1.0780 23.4430
L1.6540 23.4430
" />
<path d="M1.0780 8.2030
L1.6540 8.2030
" />
<path d="M1.0780 10.7430
L1.6540 10.7430
" />
<path d="M24.4280 23.4430
L25.0040 23.4430
" />
<path d="M24.4280 20.9030
L25.0040 20.9030
" />
<path d="M24.4280 18.3630
L25.0040 18.3630
" />
<path d="M24.4280 15.8230
L25.0040 15.8230
" />
<path d="M1.0780 20.9030
L1.6540 20.9030
" />
<path d="M1.0780 18.3630
L1.6540 18.3630
" />
<path d="M1.0780 15.8230
L1.6540 15.8230
" />
<path d="M1.0780 13.2830
L1.6540 13.2830
" />
<path d="M24.4280 13.2830
L25.0040 13.2830
" />
<path d="M24.4280 10.7430
L25.0040 10.7430
" />
<path d="M24.4280 25.9830
L25.0040 25.9830
" />
<path d="M24.4280 8.2030
L25.0040 8.2030
" />
<path d="M1.0780 25.9830
L1.6540 25.9830
" />
</g>
<g style="fill:none; 
stroke:#CE7D2C; stroke-width:1.5240; stroke-opacity:1; 
stroke-linecap:round; stroke-linejoin:round;">
<path d="M1.0780 23.4430
L1.6540 23.4430
" />
<path d="M1.0780 8.2030
L1.6540 8.2030
" />
<path d="M1.0780 10.7430
L1.6540 10.7430
" />
<path d="M24.4280 23.4430
L25.0040 23.4430
" />
<path d="M24.4280 20.9030
L25.0040 20.9030
" />
<path d="M24.4280 18.3630
L25.0040 18.3630
" />
<path d="M24.4280 15.8230
L25.0040 15.8230
" />
<path d="M1.0780 20.9030
L1.6540 20.9030
" />
<path d="M1.0780 18.3630
L1.6540 18.3630
" />
<path d="M1.0780 15.8230
L1.6540 15.8230
" />
<path d="M1.0780 13.2830
L1.6540 13.2830
" />
<path d="M24.4280 13.2830
L25.0040 13.2830
" />
<path d="M24.4280 10.7430
L25.0040 10.7430
" />
<path d="M24.4280 25.9830
L25.0040 25.9830
" />
<path d="M24.4280 8.2030
L25.0040 8.2030
" />
<path d="M1.0780 25.9830
L1.6540 25.9830
" />
</g>
<g style="fill:none; 
stroke:#7FC87F; stroke-width:1.5240; stroke-opacity:1; 
stroke-linecap:round; stroke-linejoin:round;">
<path d="M1.0780 23.4430
L1.6540 23.4430
" />
<path d="M1.0780 8.2030
L1.6540 8.2030
" />
<path d="M1.0780 10.7430
L1.6540 10.7430
" />
<path d="M24.4280 23.4430
L25.0040 23.4430
" />
<path d="M24.4280 20.9030
L25.0040 20.9030
" />
<path d="M24.4280 18.3630
L25.0040 18.3630
" />
<path d="M24.4280 15.8230
L25.0040 15.8230
" />
<path d="M1.0780 20.9030
L1.6540 20.9030
" />
<path d="M1.0780 18.3630
L1.6540 18.3630
" />
<path d="M1.0780 15.8230
L1.6540 15.8230
" />
<path d="M1.0780 13.2830
L1.6540 13.2830
" />
<path d="M24.4280 13.2830
L25.0040 13.2830
" />
<path d="M24.4280 10.7430
L25.0040 10.7430
" />
<path d="M24.4280 25.9830
L25.0040 25.9830
" />
<path d="M24.4280 8.2030
L25.0040 8.2030
" />
<path d="M1.0780 25.9830
L1.6540 25.9830
" />
</g>
<g style="fill:none; 
stroke:#C83434; stroke-width:1.5240; stroke-opacity:1; 
stroke-linecap:round; stroke-linejoin:round;">
<path d="M1.0780 23.4430
L1.6540 23.4430
" />
<path d="M1.0780 8.2030
L1.6540 8.2030
" />
<path d="M1.0780 10.7430
L1.6540 10.7430
" />
<path d="M24.4280 23.4430
L25.0040 23.4430
" />
<path d="M24.4280 20.9030
L25.0040 20.9030
" />
<path d="M24.4280 18.3630
L25.0040 18.3630
" />
<path d="M24.4280 15.8230
L25.0040 15.8230
" />
<path d="M1.0780 20.9030
L1.6540 20.9030
" />
<path d="M1.0780 18.3630
L1.6540 18.3630
" />
<path d="M1.0780 15.8230
L1.6540 15.8230
" />
<path d="M1.0780 13.2830
L1.6540 13.2830
" />
<path d="M24.4280 13.2830
L25.0040 13.2830
" />
<path d="M24.4280 10.7430
L25.0040 10.7430
" />
<path d="M24.4280 25.9830
L25.0040 25.9830
" />
<path d="M24.4280 8.2030
L25.0040 8.2030
" />
<path d="M1.0780 25.9830
L1.6540 25.9830
" />
</g>
<g style="fill:none; 
stroke:#D864FF; stroke-width:1.5240; stroke-opacity:1; 
stroke-linecap:round; stroke-linejoin:round;">
<path d="M1.0780 23.4430
L1.6540 23.4430
" />
<path d="M1.0780 8.2030
L1.6540 8.2030
" />
<path d="M1.0780 10.7430
L1.6540 10.7430
" />
<path d="M24.4280 23.4430
L25.0040 23.4430
" />
<path d="M24.4280 20.9030
L25.0040 20.9030
" />
<path d="M24.4280 18.3630
L25.0040 18.3630
" />
<path d="M24.4280 15.8230
L25.0040 15.8230
" />
<path d="M1.0780 20.9030
L1.6540 20.9030
" />
<path d="M1.0780 18.3630
L1.6540 18.3630
" />
<path d="M1.0780 15.8230
L1.6540 15.8230
" />
<path d="M1.0780 13.2830
L1.6540 13.2830
" />
<path d="M24.4280 13.2830
L25.0040 13.2830
" />
<path d="M24.4280 10.7430
L25.0040 10.7430
" />
<path d="M24.4280 25.9830
L25.0040 25.9830
" />
<path d="M24.4280 8.2030
L25.0040 8.2030
" />
<path d="M1.0780 25.9830
L1.6540 25.9830
" />
</g>
<g style="fill:none; 
stroke:#F2EDA1; stroke-width:0.1500; stroke-opacity:1; 
stroke-linecap:round; stroke-linejoin:round;">
<text x="1.3660" y="36.3890"
textLength="2.2500" font-size="1.3333" lengthAdjust="spacingAndGlyphs"
text-anchor="middle" opacity="0">U2</text>
<g class="stroked-text"><desc>U2</desc>
<path d="M0.6041 35.3438
L0.6041 36.1533
" />
<path d="M0.6041 36.1533
L0.6517 36.2486
" />
<path d="M0.6517 36.2486
L0.6993 36.2962
" />
<path d="M0.6993 36.2962
L0.7946 36.3438
" />
<path d="M0.7946 36.3438
L0.9850 36.3438
" />
<path d="M0.9850 36.3438
L1.0803 36.2962
" />
<path d="M1.0803 36.2962
L1.1279 36.2486
" />
<path d="M1.1279 36.2486
L1.1755 36.1533
" />
<path d="M1.1755 36.1533
L1.1755 35.3438
" />
<path d="M1.6041 35.4391
L1.6517 35.3914
" />
<path d="M1.6517 35.3914
L1.7470 35.3438
" />
<path d="M1.7470 35.3438
L1.9850 35.3438
" />
<path d="M1.9850 35.3438
L2.0803 35.3914
" />
<path d="M2.0803 35.3914
L2.1279 35.4391
" />
<path d="M2.1279 35.4391
L2.1755 35.5343
" />
<path d="M2.1755 35.5343
L2.1755 35.6295
" />
<path d="M2.1755 35.6295
L2.1279 35.7724
" />
<path d="M2.1279 35.7724
L1.5565 36.3438
" />
<path d="M1.5565 36.3438
L2.1755 36.3438
" />
</g><text x="22.1760" y="18.8630"
textLength="2.2024" font-size="1.3333" lengthAdjust="spacingAndGlyphs"
text-anchor="middle" opacity="0">D6</text>
<g class="stroked-text"><desc>D6</desc>
<path d="M21.4379 18.8178
L21.4379 17.8178
" />
<path d="M21.4379 17.8178
L21.6760 17.8178
" />
<path d="M21.6760 17.8178
L21.8189 17.8654
" />
<path d="M21.8189 17.8654
L21.9141 17.9607
" />
<path d="M21.9141 17.9607
L21.9617 18.0559
" />
<path d="M21.9617 18.0559
L22.0093 18.2464
" />
<path d="M22.0093 18.2464
L22.0093 18.3892
" />
<path d="M22.0093 18.3892
L21.9617 18.5797
" />
<path d="M21.9617 18.5797
L21.9141 18.6750
" />
<path d="M21.9141 18.6750
L21.8189 18.7702
" />
<path d="M21.8189 18.7702
L21.6760 18.8178
" />
<path d="M21.6760 18.8178
L21.4379 18.8178
" />
<path d="M22.8665 17.8178
L22.6760 17.8178
" />
<path d="M22.6760 17.8178
L22.5808 17.8654
" />
<path d="M22.5808 17.8654
L22.5331 17.9131
" />
<path d="M22.5331 17.9131
L22.4379 18.0559
" />
<path d="M22.4379 18.0559
L22.3903 18.2464
" />
<path d="M22.3903 18.2464
L22.3903 18.6273
" />
<path d="M22.3903 18.6273
L22.4379 18.7226
" />
<path d="M22.4379 18.7226
L22.4855 18.7702
" />
<path d="M22.4855 18.7702
L22.5808 18.8178
" />
<path d="M22.5808 18.8178
L22.7712 18.8178
" />
<path d="M22.7712 18.8178
L22.8665 18.7702
" />
<path d="M22.8665 18.7702
L22.9141 18.7226
" />
<path d="M22.9141 18.7226
L22.9617 18.6273
" />
<path d="M22.9617 18.6273
L22.9617 18.3892
" />
<path d="M22.9617 18.3892
L22.9141 18.2940
" />
<path d="M22.9141 18.2940
L22.8665 18.2464
" />
<path d="M22.8665 18.2464
L22.7712 18.1988
" />
<path d="M22.7712 18.1988
L22.5808 18.1988
" />
<path d="M22.5808 18.1988
L22.4855 18.2464
" />
<path d="M22.4855 18.2464
L22.4379 18.2940
" />
<path d="M22.4379 18.2940
L22.3903 18.3892
" />
</g><text x="22.1760" y="13.7830"
textLength="2.2024" font-size="1.3333" lengthAdjust="spacingAndGlyphs"
text-anchor="middle" opacity="0">D0</text>
<g class="stroked-text"><desc>D0</desc>
<path d="M21.4379 13.7378
L21.4379 12.7378
" />
<path d="M21.4379 12.7378
L21.6760 12.7378
" />
<path d="M21.6760 12.7378
L21.8189 12.7854
" />
<path d="M21.8189 12.7854
L21.9141 12.8807
" />
<path d="M21.9141 12.8807
L21.9617 12.9759
" />
<path d="M21.9617 12.9759
L22.0093 13.1664
" />
<path d="M22.0093 13.1664
L22.0093 13.3092
" />
<path d="M22.0093 13.3092
L21.9617 13.4997
" />
<path d="M21.9617 13.4997
L21.9141 13.5950
" />
<path d="M21.9141 13.5950
L21.8189 13.6902
" />
<path d="M21.8189 13.6902
L21.6760 13.7378
" />
<path d="M21.6760 13.7378
L21.4379 13.7378
" />
<path d="M22.6284 12.7378
L22.7236 12.7378
" />
<path d="M22.7236 12.7378
L22.8189 12.7854
" />
<path d="M22.8189 12.7854
L22.8665 12.8331
" />
<path d="M22.8665 12.8331
L22.9141 12.9283
" />
<path d="M22.9141 12.9283
L22.9617 13.1188
" />
<path d="M22.9617 13.1188
L22.9617 13.3569
" />
<path d="M22.9617 13.3569
L22.9141 13.5473
" />
<path d="M22.9141 13.5473
L22.8665 13.6426
" />
<path d="M22.8665 13.6426
L22.8189 13.6902
" />
<path d="M22.8189 13.6902
L22.7236 13.7378
" />
<path d="M22.7236 13.7378
L22.6284 13.7378
" />
<path d="M22.6284 13.7378
L22.5331 13.6902
" />
<path d="M22.5331 13.6902
L22.4855 13.6426
" />
<path d="M22.4855 13.6426
L22.4379 13.5473
" />
<path d="M22.4379 13.5473
L22.3903 13.3569
" />
<path d="M22.3903 13.3569
L22.3903 13.1188
" />
<path d="M22.3903 13.1188
L22.4379 12.9283
" />
<path d="M22.4379 12.9283
L22.4855 12.8331
" />
<path d="M22.4855 12.8331
L22.5331 12.7854
" />
<path d="M22.5331 12.7854
L22.6284 12.7378
" />
</g><text x="12.5420" y="4.6210"
textLength="8.7738" font-size="1.3333" lengthAdjust="spacingAndGlyphs"
text-anchor="middle" opacity="0">RF Antenna</text>
<g class="stroked-text"><desc>RF Antenna</desc>
<path d="M9.0896 4.5758
L8.7563 4.0996
" />
<path d="M8.5182 4.5758
L8.5182 3.5758
" />
<path d="M8.5182 3.5758
L8.8991 3.5758
" />
<path d="M8.8991 3.5758
L8.9944 3.6234
" />
<path d="M8.9944 3.6234
L9.0420 3.6711
" />
<path d="M9.0420 3.6711
L9.0896 3.7663
" />
<path d="M9.0896 3.7663
L9.0896 3.9092
" />
<path d="M9.0896 3.9092
L9.0420 4.0044
" />
<path d="M9.0420 4.0044
L8.9944 4.0520
" />
<path d="M8.9944 4.0520
L8.8991 4.0996
" />
<path d="M8.8991 4.0996
L8.5182 4.0996
" />
<path d="M9.8515 4.0520
L9.5182 4.0520
" />
<path d="M9.5182 4.5758
L9.5182 3.5758
" />
<path d="M9.5182 3.5758
L9.9944 3.5758
" />
<path d="M11.0896 4.2901
L11.5658 4.2901
" />
<path d="M10.9944 4.5758
L11.3277 3.5758
" />
<path d="M11.3277 3.5758
L11.6610 4.5758
" />
<path d="M11.9944 3.9092
L11.9944 4.5758
" />
<path d="M11.9944 4.0044
L12.0420 3.9568
" />
<path d="M12.0420 3.9568
L12.1372 3.9092
" />
<path d="M12.1372 3.9092
L12.2801 3.9092
" />
<path d="M12.2801 3.9092
L12.3753 3.9568
" />
<path d="M12.3753 3.9568
L12.4230 4.0520
" />
<path d="M12.4230 4.0520
L12.4230 4.5758
" />
<path d="M12.7563 3.9092
L13.1372 3.9092
" />
<path d="M12.8991 3.5758
L12.8991 4.4330
" />
<path d="M12.8991 4.4330
L12.9468 4.5282
" />
<path d="M12.9468 4.5282
L13.0420 4.5758
" />
<path d="M13.0420 4.5758
L13.1372 4.5758
" />
<path d="M13.8515 4.5282
L13.7563 4.5758
" />
<path d="M13.7563 4.5758
L13.5658 4.5758
" />
<path d="M13.5658 4.5758
L13.4706 4.5282
" />
<path d="M13.4706 4.5282
L13.4230 4.4330
" />
<path d="M13.4230 4.4330
L13.4230 4.0520
" />
<path d="M13.4230 4.0520
L13.4706 3.9568
" />
<path d="M13.4706 3.9568
L13.5658 3.9092
" />
<path d="M13.5658 3.9092
L13.7563 3.9092
" />
<path d="M13.7563 3.9092
L13.8515 3.9568
" />
<path d="M13.8515 3.9568
L13.8991 4.0520
" />
<path d="M13.8991 4.0520
L13.8991 4.1472
" />
<path d="M13.8991 4.1472
L13.4230 4.2425
" />
<path d="M14.3277 3.9092
L14.3277 4.5758
" />
<path d="M14.3277 4.0044
L14.3753 3.9568
" />
<path d="M14.3753 3.9568
L14.4706 3.9092
" />
<path d="M14.4706 3.9092
L14.6134 3.9092
" />
<path d="M14.6134 3.9092
L14.7087 3.9568
" />
<path d="M14.7087 3.9568
L14.7563 4.0520
" />
<path d="M14.7563 4.0520
L14.7563 4.5758
" />
<path d="M15.2325 3.9092
L15.2325 4.5758
" />
<path d="M15.2325 4.0044
L15.2801 3.9568
" />
<path d="M15.2801 3.9568
L15.3753 3.9092
" />
<path d="M15.3753 3.9092
L15.5182 3.9092
" />
<path d="M15.5182 3.9092
L15.6134 3.9568
" />
<path d="M15.6134 3.9568
L15.6610 4.0520
" />
<path d="M15.6610 4.0520
L15.6610 4.5758
" />
<path d="M16.5658 4.5758
L16.5658 4.0520
" />
<path d="M16.5658 4.0520
L16.5182 3.9568
" />
<path d="M16.5182 3.9568
L16.4230 3.9092
" />
<path d="M16.4230 3.9092
L16.2325 3.9092
" />
<path d="M16.2325 3.9092
L16.1372 3.9568
" />
<path d="M16.5658 4.5282
L16.4706 4.5758
" />
<path d="M16.4706 4.5758
L16.2325 4.5758
" />
<path d="M16.2325 4.5758
L16.1372 4.5282
" />
<path d="M16.1372 4.5282
L16.0896 4.4330
" />
<path d="M16.0896 4.4330
L16.0896 4.3377
" />
<path d="M16.0896 4.3377
L16.1372 4.2425
" />
<path d="M16.1372 4.2425
L16.2325 4.1949
" />
<path d="M16.2325 4.1949
L16.4706 4.1949
" />
<path d="M16.4706 4.1949
L16.5658 4.1472
" />
</g><text x="12.2780" y="31.9750"
textLength="3.2500" font-size="1.3333" lengthAdjust="spacingAndGlyphs"
text-anchor="middle" opacity="0">USB</text>
<g class="stroked-text"><desc>USB</desc>
<path d="M11.0161 30.9298
L11.0161 31.7393
" />
<path d="M11.0161 31.7393
L11.0637 31.8346
" />
<path d="M11.0637 31.8346
L11.1113 31.8822
" />
<path d="M11.1113 31.8822
L11.2066 31.9298
" />
<path d="M11.2066 31.9298
L11.3970 31.9298
" />
<path d="M11.3970 31.9298
L11.4923 31.8822
" />
<path d="M11.4923 31.8822
L11.5399 31.8346
" />
<path d="M11.5399 31.8346
L11.5875 31.7393
" />
<path d="M11.5875 31.7393
L11.5875 30.9298
" />
<path d="M12.0161 31.8822
L12.1590 31.9298
" />
<path d="M12.1590 31.9298
L12.3970 31.9298
" />
<path d="M12.3970 31.9298
L12.4923 31.8822
" />
<path d="M12.4923 31.8822
L12.5399 31.8346
" />
<path d="M12.5399 31.8346
L12.5875 31.7393
" />
<path d="M12.5875 31.7393
L12.5875 31.6441
" />
<path d="M12.5875 31.6441
L12.5399 31.5489
" />
<path d="M12.5399 31.5489
L12.4923 31.5012
" />
<path d="M12.4923 31.5012
L12.3970 31.4536
" />
<path d="M12.3970 31.4536
L12.2066 31.4060
" />
<path d="M12.2066 31.4060
L12.1113 31.3584
" />
<path d="M12.1113 31.3584
L12.0637 31.3108
" />
<path d="M12.0637 31.3108
L12.0161 31.2155
" />
<path d="M12.0161 31.2155
L12.0161 31.1203
" />
<path d="M12.0161 31.1203
L12.0637 31.0251
" />
<path d="M12.0637 31.0251
L12.1113 30.9774
" />
<path d="M12.1113 30.9774
L12.2066 30.9298
" />
<path d="M12.2066 30.9298
L12.4447 30.9298
" />
<path d="M12.4447 30.9298
L12.5875 30.9774
" />
<path d="M13.3494 31.4060
L13.4923 31.4536
" />
<path d="M13.4923 31.4536
L13.5399 31.5012
" />
<path d="M13.5399 31.5012
L13.5875 31.5965
" />
<path d="M13.5875 31.5965
L13.5875 31.7393
" />
<path d="M13.5875 31.7393
L13.5399 31.8346
" />
<path d="M13.5399 31.8346
L13.4923 31.8822
" />
<path d="M13.4923 31.8822
L13.3970 31.9298
" />
<path d="M13.3970 31.9298
L13.0161 31.9298
" />
<path d="M13.0161 31.9298
L13.0161 30.9298
" />
<path d="M13.0161 30.9298
L13.3494 30.9298
" />
<path d="M13.3494 30.9298
L13.4447 30.9774
" />
<path d="M13.4447 30.9774
L13.4923 31.0251
" />
<path d="M13.4923 31.0251
L13.5399 31.1203
" />
<path d="M13.5399 31.1203
L13.5399 31.2155
" />
<path d="M13.5399 31.2155
L13.4923 31.3108
" />
<path d="M13.4923 31.3108
L13.4447 31.3584
" />
<path d="M13.4447 31.3584
L13.3494 31.4060
" />
<path d="M13.3494 31.4060
L13.0161 31.4060
" />
</g><text x="3.9060" y="11.2430"
textLength="2.2024" font-size="1.3333" lengthAdjust="spacingAndGlyphs"
text-anchor="middle" opacity="0">RX</text>
<g class="stroked-text"><desc>RX</desc>
<path d="M3.7393 11.1978
L3.4060 10.7216
" />
<path d="M3.1679 11.1978
L3.1679 10.1978
" />
<path d="M3.1679 10.1978
L3.5489 10.1978
" />
<path d="M3.5489 10.1978
L3.6441 10.2454
" />
<path d="M3.6441 10.2454
L3.6917 10.2931
" />
<path d="M3.6917 10.2931
L3.7393 10.3883
" />
<path d="M3.7393 10.3883
L3.7393 10.5312
" />
<path d="M3.7393 10.5312
L3.6917 10.6264
" />
<path d="M3.6917 10.6264
L3.6441 10.6740
" />
<path d="M3.6441 10.6740
L3.5489 10.7216
" />
<path d="M3.5489 10.7216
L3.1679 10.7216
" />
<path d="M4.0727 10.1978
L4.7393 11.1978
" />
<path d="M4.7393 10.1978
L4.0727 11.1978
" />
</g><text x="3.9060" y="13.7830"
textLength="2.2024" font-size="1.3333" lengthAdjust="spacingAndGlyphs"
text-anchor="middle" opacity="0">D1</text>
<g class="stroked-text"><desc>D1</desc>
<path d="M3.1679 13.7378
L3.1679 12.7378
" />
<path d="M3.1679 12.7378
L3.4060 12.7378
" />
<path d="M3.4060 12.7378
L3.5489 12.7854
" />
<path d="M3.5489 12.7854
L3.6441 12.8807
" />
<path d="M3.6441 12.8807
L3.6917 12.9759
" />
<path d="M3.6917 12.9759
L3.7393 13.1664
" />
<path d="M3.7393 13.1664
L3.7393 13.3092
" />
<path d="M3.7393 13.3092
L3.6917 13.4997
" />
<path d="M3.6917 13.4997
L3.6441 13.5950
" />
<path d="M3.6441 13.5950
L3.5489 13.6902
" />
<path d="M3.5489 13.6902
L3.4060 13.7378
" />
<path d="M3.4060 13.7378
L3.1679 13.7378
" />
<path d="M4.6917 13.7378
L4.1203 13.7378
" />
<path d="M4.4060 13.7378
L4.4060 12.7378
" />
<path d="M4.4060 12.7378
L4.3108 12.8807
" />
<path d="M4.3108 12.8807
L4.2155 12.9759
" />
<path d="M4.2155 12.9759
L4.1203 13.0235
" />
</g><text x="3.9060" y="26.4830"
textLength="2.6310" font-size="1.3333" lengthAdjust="spacingAndGlyphs"
text-anchor="middle" opacity="0">VIN</text>
<g class="stroked-text"><desc>VIN</desc>
<path d="M2.8108 25.4378
L3.1441 26.4378
" />
<path d="M3.1441 26.4378
L3.4774 25.4378
" />
<path d="M3.8108 26.4378
L3.8108 25.4378
" />
<path d="M4.2870 26.4378
L4.2870 25.4378
" />
<path d="M4.2870 25.4378
L4.8584 26.4378
" />
<path d="M4.8584 26.4378
L4.8584 25.4378
" />
</g><text x="3.9060" y="23.9430"
textLength="3.2976" font-size="1.3333" lengthAdjust="spacingAndGlyphs"
text-anchor="middle" opacity="0">GND</text>
<g class="stroked-text"><desc>GND</desc>
<path d="M3.1441 22.9454
L3.0489 22.8978
" />
<path d="M3.0489 22.8978
L2.9060 22.8978
" />
<path d="M2.9060 22.8978
L2.7631 22.9454
" />
<path d="M2.7631 22.9454
L2.6679 23.0407
" />
<path d="M2.6679 23.0407
L2.6203 23.1359
" />
<path d="M2.6203 23.1359
L2.5727 23.3264
" />
<path d="M2.5727 23.3264
L2.5727 23.4692
" />
<path d="M2.5727 23.4692
L2.6203 23.6597
" />
<path d="M2.6203 23.6597
L2.6679 23.7550
" />
<path d="M2.6679 23.7550
L2.7631 23.8502
" />
<path d="M2.7631 23.8502
L2.9060 23.8978
" />
<path d="M2.9060 23.8978
L3.0012 23.8978
" />
<path d="M3.0012 23.8978
L3.1441 23.8502
" />
<path d="M3.1441 23.8502
L3.1917 23.8026
" />
<path d="M3.1917 23.8026
L3.1917 23.4692
" />
<path d="M3.1917 23.4692
L3.0012 23.4692
" />
<path d="M3.6203 23.8978
L3.6203 22.8978
" />
<path d="M3.6203 22.8978
L4.1917 23.8978
" />
<path d="M4.1917 23.8978
L4.1917 22.8978
" />
<path d="M4.6679 23.8978
L4.6679 22.8978
" />
<path d="M4.6679 22.8978
L4.9060 22.8978
" />
<path d="M4.9060 22.8978
L5.0489 22.9454
" />
<path d="M5.0489 22.9454
L5.1441 23.0407
" />
<path d="M5.1441 23.0407
L5.1917 23.1359
" />
<path d="M5.1917 23.1359
L5.2393 23.3264
" />
<path d="M5.2393 23.3264
L5.2393 23.4692
" />
<path d="M5.2393 23.4692
L5.1917 23.6597
" />
<path d="M5.1917 23.6597
L5.1441 23.7550
" />
<path d="M5.1441 23.7550
L5.0489 23.8502
" />
<path d="M5.0489 23.8502
L4.9060 23.8978
" />
<path d="M4.9060 23.8978
L4.6679 23.8978
" />
</g><text x="22.1760" y="11.2430"
textLength="2.0595" font-size="1.3333" lengthAdjust="spacingAndGlyphs"
text-anchor="middle" opacity="0">A0</text>
<g class="stroked-text"><desc>A0</desc>
<path d="M21.4617 10.9121
L21.9379 10.9121
" />
<path d="M21.3665 11.1978
L21.6998 10.1978
" />
<path d="M21.6998 10.1978
L22.0331 11.1978
" />
<path d="M22.5570 10.1978
L22.6522 10.1978
" />
<path d="M22.6522 10.1978
L22.7474 10.2454
" />
<path d="M22.7474 10.2454
L22.7950 10.2931
" />
<path d="M22.7950 10.2931
L22.8427 10.3883
" />
<path d="M22.8427 10.3883
L22.8903 10.5788
" />
<path d="M22.8903 10.5788
L22.8903 10.8169
" />
<path d="M22.8903 10.8169
L22.8427 11.0073
" />
<path d="M22.8427 11.0073
L22.7950 11.1026
" />
<path d="M22.7950 11.1026
L22.7474 11.1502
" />
<path d="M22.7474 11.1502
L22.6522 11.1978
" />
<path d="M22.6522 11.1978
L22.5570 11.1978
" />
<path d="M22.5570 11.1978
L22.4617 11.1502
" />
<path d="M22.4617 11.1502
L22.4141 11.1026
" />
<path d="M22.4141 11.1026
L22.3665 11.0073
" />
<path d="M22.3665 11.0073
L22.3189 10.8169
" />
<path d="M22.3189 10.8169
L22.3189 10.5788
" />
<path d="M22.3189 10.5788
L22.3665 10.3883
" />
<path d="M22.3665 10.3883
L22.4141 10.2931
" />
<path d="M22.4141 10.2931
L22.4617 10.2454
" />
<path d="M22.4617 10.2454
L22.5570 10.1978
" />
</g><text x="3.9060" y="21.4030"
textLength="2.2024" font-size="1.3333" lengthAdjust="spacingAndGlyphs"
text-anchor="middle" opacity="0">D4</text>
<g class="stroked-text"><desc>D4</desc>
<path d="M3.1679 21.3578
L3.1679 20.3578
" />
<path d="M3.1679 20.3578
L3.4060 20.3578
" />
<path d="M3.4060 20.3578
L3.5489 20.4054
" />
<path d="M3.5489 20.4054
L3.6441 20.5007
" />
<path d="M3.6441 20.5007
L3.6917 20.5959
" />
<path d="M3.6917 20.5959
L3.7393 20.7864
" />
<path d="M3.7393 20.7864
L3.7393 20.9292
" />
<path d="M3.7393 20.9292
L3.6917 21.1197
" />
<path d="M3.6917 21.1197
L3.6441 21.2150
" />
<path d="M3.6441 21.2150
L3.5489 21.3102
" />
<path d="M3.5489 21.3102
L3.4060 21.3578
" />
<path d="M3.4060 21.3578
L3.1679 21.3578
" />
<path d="M4.5965 20.6912
L4.5965 21.3578
" />
<path d="M4.3584 20.3102
L4.1203 21.0245
" />
<path d="M4.1203 21.0245
L4.7393 21.0245
" />
</g><text x="22.1760" y="26.4830"
textLength="3.0119" font-size="1.3333" lengthAdjust="spacingAndGlyphs"
text-anchor="middle" opacity="0">3V3</text>
<g class="stroked-text"><desc>3V3</desc>
<path d="M20.9379 25.4378
L21.5570 25.4378
" />
<path d="M21.5570 25.4378
L21.2236 25.8188
" />
<path d="M21.2236 25.8188
L21.3665 25.8188
" />
<path d="M21.3665 25.8188
L21.4617 25.8664
" />
<path d="M21.4617 25.8664
L21.5093 25.9140
" />
<path d="M21.5093 25.9140
L21.5570 26.0092
" />
<path d="M21.5570 26.0092
L21.5570 26.2473
" />
<path d="M21.5570 26.2473
L21.5093 26.3426
" />
<path d="M21.5093 26.3426
L21.4617 26.3902
" />
<path d="M21.4617 26.3902
L21.3665 26.4378
" />
<path d="M21.3665 26.4378
L21.0808 26.4378
" />
<path d="M21.0808 26.4378
L20.9855 26.3902
" />
<path d="M20.9855 26.3902
L20.9379 26.3426
" />
<path d="M21.8427 25.4378
L22.1760 26.4378
" />
<path d="M22.1760 26.4378
L22.5093 25.4378
" />
<path d="M22.7474 25.4378
L23.3665 25.4378
" />
<path d="M23.3665 25.4378
L23.0331 25.8188
" />
<path d="M23.0331 25.8188
L23.1760 25.8188
" />
<path d="M23.1760 25.8188
L23.2712 25.8664
" />
<path d="M23.2712 25.8664
L23.3189 25.9140
" />
<path d="M23.3189 25.9140
L23.3665 26.0092
" />
<path d="M23.3665 26.0092
L23.3665 26.2473
" />
<path d="M23.3665 26.2473
L23.3189 26.3426
" />
<path d="M23.3189 26.3426
L23.2712 26.3902
" />
<path d="M23.2712 26.3902
L23.1760 26.4378
" />
<path d="M23.1760 26.4378
L22.8903 26.4378
" />
<path d="M22.8903 26.4378
L22.7950 26.3902
" />
<path d="M22.7950 26.3902
L22.7474 26.3426
" />
</g><text x="22.1760" y="21.4030"
textLength="2.2024" font-size="1.3333" lengthAdjust="spacingAndGlyphs"
text-anchor="middle" opacity="0">D7</text>
<g class="stroked-text"><desc>D7</desc>
<path d="M21.4379 21.3578
L21.4379 20.3578
" />
<path d="M21.4379 20.3578
L21.6760 20.3578
" />
<path d="M21.6760 20.3578
L21.8189 20.4054
" />
<path d="M21.8189 20.4054
L21.9141 20.5007
" />
<path d="M21.9141 20.5007
L21.9617 20.5959
" />
<path d="M21.9617 20.5959
L22.0093 20.7864
" />
<path d="M22.0093 20.7864
L22.0093 20.9292
" />
<path d="M22.0093 20.9292
L21.9617 21.1197
" />
<path d="M21.9617 21.1197
L21.9141 21.2150
" />
<path d="M21.9141 21.2150
L21.8189 21.3102
" />
<path d="M21.8189 21.3102
L21.6760 21.3578
" />
<path d="M21.6760 21.3578
L21.4379 21.3578
" />
<path d="M22.3427 20.3578
L23.0093 20.3578
" />
<path d="M23.0093 20.3578
L22.5808 21.3578
" />
</g><text x="22.1760" y="23.9430"
textLength="2.2024" font-size="1.3333" lengthAdjust="spacingAndGlyphs"
text-anchor="middle" opacity="0">D8</text>
<g class="stroked-text"><desc>D8</desc>
<path d="M21.4379 23.8978
L21.4379 22.8978
" />
<path d="M21.4379 22.8978
L21.6760 22.8978
" />
<path d="M21.6760 22.8978
L21.8189 22.9454
" />
<path d="M21.8189 22.9454
L21.9141 23.0407
" />
<path d="M21.9141 23.0407
L21.9617 23.1359
" />
<path d="M21.9617 23.1359
L22.0093 23.3264
" />
<path d="M22.0093 23.3264
L22.0093 23.4692
" />
<path d="M22.0093 23.4692
L21.9617 23.6597
" />
<path d="M21.9617 23.6597
L21.9141 23.7550
" />
<path d="M21.9141 23.7550
L21.8189 23.8502
" />
<path d="M21.8189 23.8502
L21.6760 23.8978
" />
<path d="M21.6760 23.8978
L21.4379 23.8978
" />
<path d="M22.5808 23.3264
L22.4855 23.2788
" />
<path d="M22.4855 23.2788
L22.4379 23.2312
" />
<path d="M22.4379 23.2312
L22.3903 23.1359
" />
<path d="M22.3903 23.1359
L22.3903 23.0883
" />
<path d="M22.3903 23.0883
L22.4379 22.9931
" />
<path d="M22.4379 22.9931
L22.4855 22.9454
" />
<path d="M22.4855 22.9454
L22.5808 22.8978
" />
<path d="M22.5808 22.8978
L22.7712 22.8978
" />
<path d="M22.7712 22.8978
L22.8665 22.9454
" />
<path d="M22.8665 22.9454
L22.9141 22.9931
" />
<path d="M22.9141 22.9931
L22.9617 23.0883
" />
<path d="M22.9617 23.0883
L22.9617 23.1359
" />
<path d="M22.9617 23.1359
L22.9141 23.2312
" />
<path d="M22.9141 23.2312
L22.8665 23.2788
" />
<path d="M22.8665 23.2788
L22.7712 23.3264
" />
<path d="M22.7712 23.3264
L22.5808 23.3264
" />
<path d="M22.5808 23.3264
L22.4855 23.3740
" />
<path d="M22.4855 23.3740
L22.4379 23.4216
" />
<path d="M22.4379 23.4216
L22.3903 23.5169
" />
<path d="M22.3903 23.5169
L22.3903 23.7073
" />
<path d="M22.3903 23.7073
L22.4379 23.8026
" />
<path d="M22.4379 23.8026
L22.4855 23.8502
" />
<path d="M22.4855 23.8502
L22.5808 23.8978
" />
<path d="M22.5808 23.8978
L22.7712 23.8978
" />
<path d="M22.7712 23.8978
L22.8665 23.8502
" />
<path d="M22.8665 23.8502
L22.9141 23.8026
" />
<path d="M22.9141 23.8026
L22.9617 23.7073
" />
<path d="M22.9617 23.7073
L22.9617 23.5169
" />
<path d="M22.9617 23.5169
L22.9141 23.4216
" />
<path d="M22.9141 23.4216
L22.8665 23.3740
" />
<path d="M22.8665 23.3740
L22.7712 23.3264
" />
</g><text x="3.9060" y="18.8630"
textLength="2.2024" font-size="1.3333" lengthAdjust="spacingAndGlyphs"
text-anchor="middle" opacity="0">D3</text>
<g class="stroked-text"><desc>D3</desc>
<path d="M3.1679 18.8178
L3.1679 17.8178
" />
<path d="M3.1679 17.8178
L3.4060 17.8178
" />
<path d="M3.4060 17.8178
L3.5489 17.8654
" />
<path d="M3.5489 17.8654
L3.6441 17.9607
" />
<path d="M3.6441 17.9607
L3.6917 18.0559
" />
<path d="M3.6917 18.0559
L3.7393 18.2464
" />
<path d="M3.7393 18.2464
L3.7393 18.3892
" />
<path d="M3.7393 18.3892
L3.6917 18.5797
" />
<path d="M3.6917 18.5797
L3.6441 18.6750
" />
<path d="M3.6441 18.6750
L3.5489 18.7702
" />
<path d="M3.5489 18.7702
L3.4060 18.8178
" />
<path d="M3.4060 18.8178
L3.1679 18.8178
" />
<path d="M4.0727 17.8178
L4.6917 17.8178
" />
<path d="M4.6917 17.8178
L4.3584 18.1988
" />
<path d="M4.3584 18.1988
L4.5012 18.1988
" />
<path d="M4.5012 18.1988
L4.5965 18.2464
" />
<path d="M4.5965 18.2464
L4.6441 18.2940
" />
<path d="M4.6441 18.2940
L4.6917 18.3892
" />
<path d="M4.6917 18.3892
L4.6917 18.6273
" />
<path d="M4.6917 18.6273
L4.6441 18.7226
" />
<path d="M4.6441 18.7226
L4.5965 18.7702
" />
<path d="M4.5965 18.7702
L4.5012 18.8178
" />
<path d="M4.5012 18.8178
L4.2155 18.8178
" />
<path d="M4.2155 18.8178
L4.1203 18.7702
" />
<path d="M4.1203 18.7702
L4.0727 18.7226
" />
</g><text x="22.1760" y="8.7030"
textLength="2.9643" font-size="1.3333" lengthAdjust="spacingAndGlyphs"
text-anchor="middle" opacity="0">RST</text>
<g class="stroked-text"><desc>RST</desc>
<path d="M21.6284 8.6578
L21.2950 8.1816
" />
<path d="M21.0570 8.6578
L21.0570 7.6578
" />
<path d="M21.0570 7.6578
L21.4379 7.6578
" />
<path d="M21.4379 7.6578
L21.5331 7.7054
" />
<path d="M21.5331 7.7054
L21.5808 7.7531
" />
<path d="M21.5808 7.7531
L21.6284 7.8483
" />
<path d="M21.6284 7.8483
L21.6284 7.9912
" />
<path d="M21.6284 7.9912
L21.5808 8.0864
" />
<path d="M21.5808 8.0864
L21.5331 8.1340
" />
<path d="M21.5331 8.1340
L21.4379 8.1816
" />
<path d="M21.4379 8.1816
L21.0570 8.1816
" />
<path d="M22.0093 8.6102
L22.1522 8.6578
" />
<path d="M22.1522 8.6578
L22.3903 8.6578
" />
<path d="M22.3903 8.6578
L22.4855 8.6102
" />
<path d="M22.4855 8.6102
L22.5331 8.5626
" />
<path d="M22.5331 8.5626
L22.5808 8.4673
" />
<path d="M22.5808 8.4673
L22.5808 8.3721
" />
<path d="M22.5808 8.3721
L22.5331 8.2769
" />
<path d="M22.5331 8.2769
L22.4855 8.2292
" />
<path d="M22.4855 8.2292
L22.3903 8.1816
" />
<path d="M22.3903 8.1816
L22.1998 8.1340
" />
<path d="M22.1998 8.1340
L22.1046 8.0864
" />
<path d="M22.1046 8.0864
L22.0570 8.0388
" />
<path d="M22.0570 8.0388
L22.0093 7.9435
" />
<path d="M22.0093 7.9435
L22.0093 7.8483
" />
<path d="M22.0093 7.8483
L22.0570 7.7531
" />
<path d="M22.0570 7.7531
L22.1046 7.7054
" />
<path d="M22.1046 7.7054
L22.1998 7.6578
" />
<path d="M22.1998 7.6578
L22.4379 7.6578
" />
<path d="M22.4379 7.6578
L22.5808 7.7054
" />
<path d="M22.8665 7.6578
L23.4379 7.6578
" />
<path d="M23.1522 8.6578
L23.1522 7.6578
" />
</g><text x="3.9060" y="8.7030"
textLength="1.9643" font-size="1.3333" lengthAdjust="spacingAndGlyphs"
text-anchor="middle" opacity="0">TX</text>
<g class="stroked-text"><desc>TX</desc>
<path d="M3.1441 7.6578
L3.7155 7.6578
" />
<path d="M3.4298 8.6578
L3.4298 7.6578
" />
<path d="M3.9536 7.6578
L4.6203 8.6578
" />
<path d="M4.6203 7.6578
L3.9536 8.6578
" />
</g><text x="3.9060" y="16.3230"
textLength="2.2024" font-size="1.3333" lengthAdjust="spacingAndGlyphs"
text-anchor="middle" opacity="0">D2</text>
<g class="stroked-text"><desc>D2</desc>
<path d="M3.1679 16.2778
L3.1679 15.2778
" />
<path d="M3.1679 15.2778
L3.4060 15.2778
" />
<path d="M3.4060 15.2778
L3.5489 15.3254
" />
<path d="M3.5489 15.3254
L3.6441 15.4207
" />
<path d="M3.6441 15.4207
L3.6917 15.5159
" />
<path d="M3.6917 15.5159
L3.7393 15.7064
" />
<path d="M3.7393 15.7064
L3.7393 15.8492
" />
<path d="M3.7393 15.8492
L3.6917 16.0397
" />
<path d="M3.6917 16.0397
L3.6441 16.1350
" />
<path d="M3.6441 16.1350
L3.5489 16.2302
" />
<path d="M3.5489 16.2302
L3.4060 16.2778
" />
<path d="M3.4060 16.2778
L3.1679 16.2778
" />
<path d="M4.1203 15.3731
L4.1679 15.3254
" />
<path d="M4.1679 15.3254
L4.2631 15.2778
" />
<path d="M4.2631 15.2778
L4.5012 15.2778
" />
<path d="M4.5012 15.2778
L4.5965 15.3254
" />
<path d="M4.5965 15.3254
L4.6441 15.3731
" />
<path d="M4.6441 15.3731
L4.6917 15.4683
" />
<path d="M4.6917 15.4683
L4.6917 15.5635
" />
<path d="M4.6917 15.5635
L4.6441 15.7064
" />
<path d="M4.6441 15.7064
L4.0727 16.2778
" />
<path d="M4.0727 16.2778
L4.6917 16.2778
" />
</g><text x="22.1760" y="16.3230"
textLength="2.2024" font-size="1.3333" lengthAdjust="spacingAndGlyphs"
text-anchor="middle" opacity="0">D5</text>
<g class="stroked-text"><desc>D5</desc>
<path d="M21.4379 16.2778
L21.4379 15.2778
" />
<path d="M21.4379 15.2778
L21.6760 15.2778
" />
<path d="M21.6760 15.2778
L21.8189 15.3254
" />
<path d="M21.8189 15.3254
L21.9141 15.4207
" />
<path d="M21.9141 15.4207
L21.9617 15.5159
" />
<path d="M21.9617 15.5159
L22.0093 15.7064
" />
<path d="M22.0093 15.7064
L22.0093 15.8492
" />
<path d="M22.0093 15.8492
L21.9617 16.0397
" />
<path d="M21.9617 16.0397
L21.9141 16.1350
" />
<path d="M21.9141 16.1350
L21.8189 16.2302
" />
<path d="M21.8189 16.2302
L21.6760 16.2778
" />
<path d="M21.6760 16.2778
L21.4379 16.2778
" />
<path d="M22.9141 15.2778
L22.4379 15.2778
" />
<path d="M22.4379 15.2778
L22.3903 15.7540
" />
<path d="M22.3903 15.7540
L22.4379 15.7064
" />
<path d="M22.4379 15.7064
L22.5331 15.6588
" />
<path d="M22.5331 15.6588
L22.7712 15.6588
" />
<path d="M22.7712 15.6588
L22.8665 15.7064
" />
<path d="M22.8665 15.7064
L22.9141 15.7540
" />
<path d="M22.9141 15.7540
L22.9617 15.8492
" />
<path d="M22.9617 15.8492
L22.9617 16.0873
" />
<path d="M22.9617 16.0873
L22.9141 16.1826
" />
<path d="M22.9141 16.1826
L22.8665 16.2302
" />
<path d="M22.8665 16.2302
L22.7712 16.2778
" />
<path d="M22.7712 16.2778
L22.5331 16.2778
" />
<path d="M22.5331 16.2778
L22.4379 16.2302
" />
<path d="M22.4379 16.2302
L22.3903 16.1826
" />
</g><path d="M0.0960 1.3450
L0.0960 33.0950
" />
<path d="M7.0420 7.4410
L7.0420 0.3110
" />
<path d="M8.4780 28.0150
L16.0780 28.0150
" />
<path d="M8.4780 33.7450
L8.4780 28.0150
" />
<path d="M16.0780 28.0150
L16.0780 33.7450
" />
<path d="M16.0780 33.7450
L8.4780 33.7450
" />
<path d="M18.0420 0.3110
L18.0420 7.4410
" />
<path d="M18.0420 7.4410
L7.0420 7.4410
" />
<path d="M24.7340 0.0750
L1.3660 0.0750
" />
<path d="M24.7340 34.3650
L1.3660 34.3650
" />
<path d="M26.0040 1.3450
L26.0040 33.0950
" />
<path d="M1.3660 0.0750 A1.2700 1.2700 0.0 0 0 0.0960 1.3450" />
<path d="M0.0960 33.0950 A1.2700 1.2700 0.0 0 0 1.3660 34.3650" />
<path d="M26.0040 1.3450 A1.2700 1.2700 0.0 0 0 24.7340 0.0750" />
<path d="M24.7340 34.3650 A1.2700 1.2700 0.0 0 0 26.0040 33.0950" />
</g>
<g style="fill:none; 
stroke:#F2EDA1; stroke-width:1.5240; stroke-opacity:1; 
stroke-linecap:round; stroke-linejoin:round;">
<path d="M1.0780 23.4430
L1.6540 23.4430
" />
<path d="M1.0780 8.2030
L1.6540 8.2030
" />
<path d="M1.0780 10.7430
L1.6540 10.7430
" />
<path d="M24.4280 23.4430
L25.0040 23.4430
" />
<path d="M24.4280 20.9030
L25.0040 20.9030
" />
<path d="M24.4280 18.3630
L25.0040 18.3630
" />
<path d="M24.4280 15.8230
L25.0040 15.8230
" />
<path d="M1.0780 20.9030
L1.6540 20.9030
" />
<path d="M1.0780 18.3630
L1.6540 18.3630
" />
<path d="M1.0780 15.8230
L1.6540 15.8230
" />
<path d="M1.0780 13.2830
L1.6540 13.2830
" />
<path d="M24.4280 13.2830
L25.0040 13.2830
" />
<path d="M24.4280 10.7430
L25.0040 10.7430
" />
<path d="M24.4280 25.9830
L25.0040 25.9830
" />
<path d="M24.4280 8.2030
L25.0040 8.2030
" />
<path d="M1.0780 25.9830
L1.6540 25.9830
" />
</g>
<g style="fill:none; 
stroke:#AFAFAF; stroke-width:0.1500; stroke-opacity:1; 
stroke-linecap:round; stroke-linejoin:round;">
<text x="12.7960" y="18.8630"
textLength="11.0595" font-size="1.3333" lengthAdjust="spacingAndGlyphs"
text-anchor="middle" opacity="0">NodeMCU_v1.0</text>
<g class="stroked-text"><desc>NodeMCU_v1.0</desc>
<path d="M7.6293 18.8178
L7.6293 17.8178
" />
<path d="M7.6293 17.8178
L8.2008 18.8178
" />
<path d="M8.2008 18.8178
L8.2008 17.8178
" />
<path d="M8.8198 18.8178
L8.7246 18.7702
" />
<path d="M8.7246 18.7702
L8.6770 18.7226
" />
<path d="M8.6770 18.7226
L8.6293 18.6273
" />
<path d="M8.6293 18.6273
L8.6293 18.3416
" />
<path d="M8.6293 18.3416
L8.6770 18.2464
" />
<path d="M8.6770 18.2464
L8.7246 18.1988
" />
<path d="M8.7246 18.1988
L8.8198 18.1512
" />
<path d="M8.8198 18.1512
L8.9627 18.1512
" />
<path d="M8.9627 18.1512
L9.0579 18.1988
" />
<path d="M9.0579 18.1988
L9.1055 18.2464
" />
<path d="M9.1055 18.2464
L9.1531 18.3416
" />
<path d="M9.1531 18.3416
L9.1531 18.6273
" />
<path d="M9.1531 18.6273
L9.1055 18.7226
" />
<path d="M9.1055 18.7226
L9.0579 18.7702
" />
<path d="M9.0579 18.7702
L8.9627 18.8178
" />
<path d="M8.9627 18.8178
L8.8198 18.8178
" />
<path d="M10.0103 18.8178
L10.0103 17.8178
" />
<path d="M10.0103 18.7702
L9.9150 18.8178
" />
<path d="M9.9150 18.8178
L9.7246 18.8178
" />
<path d="M9.7246 18.8178
L9.6293 18.7702
" />
<path d="M9.6293 18.7702
L9.5817 18.7226
" />
<path d="M9.5817 18.7226
L9.5341 18.6273
" />
<path d="M9.5341 18.6273
L9.5341 18.3416
" />
<path d="M9.5341 18.3416
L9.5817 18.2464
" />
<path d="M9.5817 18.2464
L9.6293 18.1988
" />
<path d="M9.6293 18.1988
L9.7246 18.1512
" />
<path d="M9.7246 18.1512
L9.9150 18.1512
" />
<path d="M9.9150 18.1512
L10.0103 18.1988
" />
<path d="M10.8674 18.7702
L10.7722 18.8178
" />
<path d="M10.7722 18.8178
L10.5817 18.8178
" />
<path d="M10.5817 18.8178
L10.4865 18.7702
" />
<path d="M10.4865 18.7702
L10.4389 18.6750
" />
<path d="M10.4389 18.6750
L10.4389 18.2940
" />
<path d="M10.4389 18.2940
L10.4865 18.1988
" />
<path d="M10.4865 18.1988
L10.5817 18.1512
" />
<path d="M10.5817 18.1512
L10.7722 18.1512
" />
<path d="M10.7722 18.1512
L10.8674 18.1988
" />
<path d="M10.8674 18.1988
L10.9150 18.2940
" />
<path d="M10.9150 18.2940
L10.9150 18.3892
" />
<path d="M10.9150 18.3892
L10.4389 18.4845
" />
<path d="M11.3436 18.8178
L11.3436 17.8178
" />
<path d="M11.3436 17.8178
L11.6770 18.5321
" />
<path d="M11.6770 18.5321
L12.0103 17.8178
" />
<path d="M12.0103 17.8178
L12.0103 18.8178
" />
<path d="M13.0579 18.7226
L13.0103 18.7702
" />
<path d="M13.0103 18.7702
L12.8674 18.8178
" />
<path d="M12.8674 18.8178
L12.7722 18.8178
" />
<path d="M12.7722 18.8178
L12.6293 18.7702
" />
<path d="M12.6293 18.7702
L12.5341 18.6750
" />
<path d="M12.5341 18.6750
L12.4865 18.5797
" />
<path d="M12.4865 18.5797
L12.4389 18.3892
" />
<path d="M12.4389 18.3892
L12.4389 18.2464
" />
<path d="M12.4389 18.2464
L12.4865 18.0559
" />
<path d="M12.4865 18.0559
L12.5341 17.9607
" />
<path d="M12.5341 17.9607
L12.6293 17.8654
" />
<path d="M12.6293 17.8654
L12.7722 17.8178
" />
<path d="M12.7722 17.8178
L12.8674 17.8178
" />
<path d="M12.8674 17.8178
L13.0103 17.8654
" />
<path d="M13.0103 17.8654
L13.0579 17.9131
" />
<path d="M13.4865 17.8178
L13.4865 18.6273
" />
<path d="M13.4865 18.6273
L13.5341 18.7226
" />
<path d="M13.5341 18.7226
L13.5817 18.7702
" />
<path d="M13.5817 18.7702
L13.6770 18.8178
" />
<path d="M13.6770 18.8178
L13.8674 18.8178
" />
<path d="M13.8674 18.8178
L13.9627 18.7702
" />
<path d="M13.9627 18.7702
L14.0103 18.7226
" />
<path d="M14.0103 18.7226
L14.0579 18.6273
" />
<path d="M14.0579 18.6273
L14.0579 17.8178
" />
<path d="M14.2960 18.9131
L15.0579 18.9131
" />
<path d="M15.2008 18.1512
L15.4389 18.8178
" />
<path d="M15.4389 18.8178
L15.6770 18.1512
" />
<path d="M16.5817 18.8178
L16.0103 18.8178
" />
<path d="M16.2960 18.8178
L16.2960 17.8178
" />
<path d="M16.2960 17.8178
L16.2008 17.9607
" />
<path d="M16.2008 17.9607
L16.1055 18.0559
" />
<path d="M16.1055 18.0559
L16.0103 18.1035
" />
<path d="M17.0103 18.7226
L17.0579 18.7702
" />
<path d="M17.0579 18.7702
L17.0103 18.8178
" />
<path d="M17.0103 18.8178
L16.9627 18.7702
" />
<path d="M16.9627 18.7702
L17.0103 18.7226
" />
<path d="M17.0103 18.7226
L17.0103 18.8178
" />
<path d="M17.6770 17.8178
L17.7722 17.8178
" />
<path d="M17.7722 17.8178
L17.8674 17.8654
" />
<path d="M17.8674 17.8654
L17.9150 17.9131
" />
<path d="M17.9150 17.9131
L17.9627 18.0083
" />
<path d="M17.9627 18.0083
L18.0103 18.1988
" />
<path d="M18.0103 18.1988
L18.0103 18.4369
" />
<path d="M18.0103 18.4369
L17.9627 18.6273
" />
<path d="M17.9627 18.6273
L17.9150 18.7226
" />
<path d="M17.9150 18.7226
L17.8674 18.7702
" />
<path d="M17.8674 18.7702
L17.7722 18.8178
" />
<path d="M17.7722 18.8178
L17.6770 18.8178
" />
<path d="M17.6770 18.8178
L17.5817 18.7702
" />
<path d="M17.5817 18.7702
L17.5341 18.7226
" />
<path d="M17.5341 18.7226
L17.4865 18.6273
" />
<path d="M17.4865 18.6273
L17.4389 18.4369
" />
<path d="M17.4389 18.4369
L17.4389 18.1988
" />
<path d="M17.4389 18.1988
L17.4865 18.0083
" />
<path d="M17.4865 18.0083
L17.5341 17.9131
" />
<path d="M17.5341 17.9131
L17.5817 17.8654
" />
<path d="M17.5817 17.8654
L17.6770 17.8178
" />
</g><path style="fill:none; 
stroke:#FF26E2; stroke-width:0.1000; stroke-opacity:1; 
stroke-linecap:round; stroke-linejoin:round;fill:none"
d="M 0.0500,0.0750
26.0500,0.0750
26.0500,34.3250
0.0500,34.3250
Z" /> 
</g> 
</svg>
