<?xml version="1.0" standalone="no"?>
 <!DOCTYPE svg PUBLIC "-//W3C//DTD SVG 1.1//EN" 
 "http://www.w3.org/Graphics/SVG/1.1/DTD/svg11.dtd"> 
<svg
  xmlns:svg="http://www.w3.org/2000/svg"
  xmlns="http://www.w3.org/2000/svg"
  xmlns:xlink="http://www.w3.org/1999/xlink"
  version="1.1"
  width="9.5758mm" height="10.1346mm" viewBox="0.0000 0.0000 9.5758 10.1346">
<title>SVG Image created as SW_Tactile_SPST_Angled_PTS645Vx39-2LFS.svg date 2024/06/28 11:56:41 </title>
  <desc>Image generated by PCBNEW </desc>
<g style="fill:#000000; fill-opacity:1.0000;stroke:#000000; stroke-opacity:1.0000;
stroke-linecap:round; stroke-linejoin:round;"
 transform="translate(0 0) scale(1 1)">
</g>
<g style="fill:#4D7FC4; fill-opacity:1.0000; stroke:none;">
<circle cx="1.2750" cy="7.0750" r="1.0500" /> 
</g>
<g style="fill:#4D7FC4; fill-opacity:1.0000; stroke:none;">
<circle cx="8.2400" cy="7.0750" r="1.0500" /> 
</g>
<g style="fill:#4D7FC4; fill-opacity:1.0000; stroke:none;">
<circle cx="2.5250" cy="3.2650" r="0.8750" /> 
</g>
<g style="fill:#4D7FC4; fill-opacity:1.0000; stroke:none;">
<circle cx="7.0250" cy="3.2650" r="0.8750" /> 
</g>
<g style="fill:#02FFEE; fill-opacity:0.4000; stroke:none;">
<circle cx="1.2750" cy="7.0750" r="1.0500" /> 
</g>
<g style="fill:#02FFEE; fill-opacity:0.4000; stroke:none;">
<circle cx="8.2400" cy="7.0750" r="1.0500" /> 
</g>
<g style="fill:#02FFEE; fill-opacity:0.4000; stroke:none;">
<circle cx="2.5250" cy="3.2650" r="0.8750" /> 
</g>
<g style="fill:#02FFEE; fill-opacity:0.4000; stroke:none;">
<circle cx="7.0250" cy="3.2650" r="0.8750" /> 
</g>
<g style="fill:#F2EDA1; fill-opacity:1.0000; stroke:none;">
<circle cx="1.2750" cy="7.0750" r="1.0500" /> 
</g>
<g style="fill:#F2EDA1; fill-opacity:1.0000; stroke:none;">
<circle cx="8.2400" cy="7.0750" r="1.0500" /> 
</g>
<g style="fill:#F2EDA1; fill-opacity:1.0000; stroke:none;">
<circle cx="2.5250" cy="3.2650" r="0.8750" /> 
</g>
<g style="fill:#F2EDA1; fill-opacity:1.0000; stroke:none;">
<circle cx="7.0250" cy="3.2650" r="0.8750" /> 
</g>
<g style="fill:#E8B2A7; fill-opacity:1.0000; stroke:none;">
<circle cx="1.2750" cy="7.0750" r="1.0500" /> 
</g>
<g style="fill:#E8B2A7; fill-opacity:1.0000; stroke:none;">
<circle cx="8.2400" cy="7.0750" r="1.0500" /> 
</g>
<g style="fill:#E8B2A7; fill-opacity:1.0000; stroke:none;">
<circle cx="2.5250" cy="3.2650" r="0.8750" /> 
</g>
<g style="fill:#E8B2A7; fill-opacity:1.0000; stroke:none;">
<circle cx="7.0250" cy="3.2650" r="0.8750" /> 
</g>
<g style="fill:#28CCD9; fill-opacity:1.0000; stroke:none;">
<circle cx="1.2750" cy="7.0750" r="1.0500" /> 
</g>
<g style="fill:#28CCD9; fill-opacity:1.0000; stroke:none;">
<circle cx="8.2400" cy="7.0750" r="1.0500" /> 
</g>
<g style="fill:#28CCD9; fill-opacity:1.0000; stroke:none;">
<circle cx="2.5250" cy="3.2650" r="0.8750" /> 
</g>
<g style="fill:#28CCD9; fill-opacity:1.0000; stroke:none;">
<circle cx="7.0250" cy="3.2650" r="0.8750" /> 
</g>
<g style="fill:#A7A5C6; fill-opacity:1.0000; stroke:none;">
<circle cx="1.2750" cy="7.0750" r="1.0500" /> 
</g>
<g style="fill:#A7A5C6; fill-opacity:1.0000; stroke:none;">
<circle cx="8.2400" cy="7.0750" r="1.0500" /> 
</g>
<g style="fill:#A7A5C6; fill-opacity:1.0000; stroke:none;">
<circle cx="2.5250" cy="3.2650" r="0.8750" /> 
</g>
<g style="fill:#A7A5C6; fill-opacity:1.0000; stroke:none;">
<circle cx="7.0250" cy="3.2650" r="0.8750" /> 
</g>
<g style="fill:#F76F8E; fill-opacity:1.0000; stroke:none;">
<circle cx="1.2750" cy="7.0750" r="1.0500" /> 
</g>
<g style="fill:#F76F8E; fill-opacity:1.0000; stroke:none;">
<circle cx="8.2400" cy="7.0750" r="1.0500" /> 
</g>
<g style="fill:#F76F8E; fill-opacity:1.0000; stroke:none;">
<circle cx="2.5250" cy="3.2650" r="0.8750" /> 
</g>
<g style="fill:#F76F8E; fill-opacity:1.0000; stroke:none;">
<circle cx="7.0250" cy="3.2650" r="0.8750" /> 
</g>
<g style="fill:#5BC3EB; fill-opacity:1.0000; stroke:none;">
<circle cx="1.2750" cy="7.0750" r="1.0500" /> 
</g>
<g style="fill:#5BC3EB; fill-opacity:1.0000; stroke:none;">
<circle cx="8.2400" cy="7.0750" r="1.0500" /> 
</g>
<g style="fill:#5BC3EB; fill-opacity:1.0000; stroke:none;">
<circle cx="2.5250" cy="3.2650" r="0.8750" /> 
</g>
<g style="fill:#5BC3EB; fill-opacity:1.0000; stroke:none;">
<circle cx="7.0250" cy="3.2650" r="0.8750" /> 
</g>
<g style="fill:#ED7C33; fill-opacity:1.0000; stroke:none;">
<circle cx="1.2750" cy="7.0750" r="1.0500" /> 
</g>
<g style="fill:#ED7C33; fill-opacity:1.0000; stroke:none;">
<circle cx="8.2400" cy="7.0750" r="1.0500" /> 
</g>
<g style="fill:#ED7C33; fill-opacity:1.0000; stroke:none;">
<circle cx="2.5250" cy="3.2650" r="0.8750" /> 
</g>
<g style="fill:#ED7C33; fill-opacity:1.0000; stroke:none;">
<circle cx="7.0250" cy="3.2650" r="0.8750" /> 
</g>
<g style="fill:#F2EDA1; fill-opacity:1.0000; stroke:none;">
<circle cx="1.2750" cy="7.0750" r="1.0500" /> 
</g>
<g style="fill:#F2EDA1; fill-opacity:1.0000; stroke:none;">
<circle cx="8.2400" cy="7.0750" r="1.0500" /> 
</g>
<g style="fill:#F2EDA1; fill-opacity:1.0000; stroke:none;">
<circle cx="2.5250" cy="3.2650" r="0.8750" /> 
</g>
<g style="fill:#F2EDA1; fill-opacity:1.0000; stroke:none;">
<circle cx="7.0250" cy="3.2650" r="0.8750" /> 
</g>
<g style="fill:#E8B2A7; fill-opacity:1.0000; stroke:none;">
<circle cx="1.2750" cy="7.0750" r="1.0500" /> 
</g>
<g style="fill:#E8B2A7; fill-opacity:1.0000; stroke:none;">
<circle cx="8.2400" cy="7.0750" r="1.0500" /> 
</g>
<g style="fill:#E8B2A7; fill-opacity:1.0000; stroke:none;">
<circle cx="2.5250" cy="3.2650" r="0.8750" /> 
</g>
<g style="fill:#E8B2A7; fill-opacity:1.0000; stroke:none;">
<circle cx="7.0250" cy="3.2650" r="0.8750" /> 
</g>
<g style="fill:#28CCD9; fill-opacity:1.0000; stroke:none;">
<circle cx="1.2750" cy="7.0750" r="1.0500" /> 
</g>
<g style="fill:#28CCD9; fill-opacity:1.0000; stroke:none;">
<circle cx="8.2400" cy="7.0750" r="1.0500" /> 
</g>
<g style="fill:#28CCD9; fill-opacity:1.0000; stroke:none;">
<circle cx="2.5250" cy="3.2650" r="0.8750" /> 
</g>
<g style="fill:#28CCD9; fill-opacity:1.0000; stroke:none;">
<circle cx="7.0250" cy="3.2650" r="0.8750" /> 
</g>
<g style="fill:#A7A5C6; fill-opacity:1.0000; stroke:none;">
<circle cx="1.2750" cy="7.0750" r="1.0500" /> 
</g>
<g style="fill:#A7A5C6; fill-opacity:1.0000; stroke:none;">
<circle cx="8.2400" cy="7.0750" r="1.0500" /> 
</g>
<g style="fill:#A7A5C6; fill-opacity:1.0000; stroke:none;">
<circle cx="2.5250" cy="3.2650" r="0.8750" /> 
</g>
<g style="fill:#A7A5C6; fill-opacity:1.0000; stroke:none;">
<circle cx="7.0250" cy="3.2650" r="0.8750" /> 
</g>
<g style="fill:#F76F8E; fill-opacity:1.0000; stroke:none;">
<circle cx="1.2750" cy="7.0750" r="1.0500" /> 
</g>
<g style="fill:#F76F8E; fill-opacity:1.0000; stroke:none;">
<circle cx="8.2400" cy="7.0750" r="1.0500" /> 
</g>
<g style="fill:#F76F8E; fill-opacity:1.0000; stroke:none;">
<circle cx="2.5250" cy="3.2650" r="0.8750" /> 
</g>
<g style="fill:#F76F8E; fill-opacity:1.0000; stroke:none;">
<circle cx="7.0250" cy="3.2650" r="0.8750" /> 
</g>
<g style="fill:#5BC3EB; fill-opacity:1.0000; stroke:none;">
<circle cx="1.2750" cy="7.0750" r="1.0500" /> 
</g>
<g style="fill:#5BC3EB; fill-opacity:1.0000; stroke:none;">
<circle cx="8.2400" cy="7.0750" r="1.0500" /> 
</g>
<g style="fill:#5BC3EB; fill-opacity:1.0000; stroke:none;">
<circle cx="2.5250" cy="3.2650" r="0.8750" /> 
</g>
<g style="fill:#5BC3EB; fill-opacity:1.0000; stroke:none;">
<circle cx="7.0250" cy="3.2650" r="0.8750" /> 
</g>
<g style="fill:#ED7C33; fill-opacity:1.0000; stroke:none;">
<circle cx="1.2750" cy="7.0750" r="1.0500" /> 
</g>
<g style="fill:#ED7C33; fill-opacity:1.0000; stroke:none;">
<circle cx="8.2400" cy="7.0750" r="1.0500" /> 
</g>
<g style="fill:#ED7C33; fill-opacity:1.0000; stroke:none;">
<circle cx="2.5250" cy="3.2650" r="0.8750" /> 
</g>
<g style="fill:#ED7C33; fill-opacity:1.0000; stroke:none;">
<circle cx="7.0250" cy="3.2650" r="0.8750" /> 
</g>
<g style="fill:#F2EDA1; fill-opacity:1.0000; stroke:none;">
<circle cx="1.2750" cy="7.0750" r="1.0500" /> 
</g>
<g style="fill:#F2EDA1; fill-opacity:1.0000; stroke:none;">
<circle cx="8.2400" cy="7.0750" r="1.0500" /> 
</g>
<g style="fill:#F2EDA1; fill-opacity:1.0000; stroke:none;">
<circle cx="2.5250" cy="3.2650" r="0.8750" /> 
</g>
<g style="fill:#F2EDA1; fill-opacity:1.0000; stroke:none;">
<circle cx="7.0250" cy="3.2650" r="0.8750" /> 
</g>
<g style="fill:#E8B2A7; fill-opacity:1.0000; stroke:none;">
<circle cx="1.2750" cy="7.0750" r="1.0500" /> 
</g>
<g style="fill:#E8B2A7; fill-opacity:1.0000; stroke:none;">
<circle cx="8.2400" cy="7.0750" r="1.0500" /> 
</g>
<g style="fill:#E8B2A7; fill-opacity:1.0000; stroke:none;">
<circle cx="2.5250" cy="3.2650" r="0.8750" /> 
</g>
<g style="fill:#E8B2A7; fill-opacity:1.0000; stroke:none;">
<circle cx="7.0250" cy="3.2650" r="0.8750" /> 
</g>
<g style="fill:#28CCD9; fill-opacity:1.0000; stroke:none;">
<circle cx="1.2750" cy="7.0750" r="1.0500" /> 
</g>
<g style="fill:#28CCD9; fill-opacity:1.0000; stroke:none;">
<circle cx="8.2400" cy="7.0750" r="1.0500" /> 
</g>
<g style="fill:#28CCD9; fill-opacity:1.0000; stroke:none;">
<circle cx="2.5250" cy="3.2650" r="0.8750" /> 
</g>
<g style="fill:#28CCD9; fill-opacity:1.0000; stroke:none;">
<circle cx="7.0250" cy="3.2650" r="0.8750" /> 
</g>
<g style="fill:#A7A5C6; fill-opacity:1.0000; stroke:none;">
<circle cx="1.2750" cy="7.0750" r="1.0500" /> 
</g>
<g style="fill:#A7A5C6; fill-opacity:1.0000; stroke:none;">
<circle cx="8.2400" cy="7.0750" r="1.0500" /> 
</g>
<g style="fill:#A7A5C6; fill-opacity:1.0000; stroke:none;">
<circle cx="2.5250" cy="3.2650" r="0.8750" /> 
</g>
<g style="fill:#A7A5C6; fill-opacity:1.0000; stroke:none;">
<circle cx="7.0250" cy="3.2650" r="0.8750" /> 
</g>
<g style="fill:#F76F8E; fill-opacity:1.0000; stroke:none;">
<circle cx="1.2750" cy="7.0750" r="1.0500" /> 
</g>
<g style="fill:#F76F8E; fill-opacity:1.0000; stroke:none;">
<circle cx="8.2400" cy="7.0750" r="1.0500" /> 
</g>
<g style="fill:#F76F8E; fill-opacity:1.0000; stroke:none;">
<circle cx="2.5250" cy="3.2650" r="0.8750" /> 
</g>
<g style="fill:#F76F8E; fill-opacity:1.0000; stroke:none;">
<circle cx="7.0250" cy="3.2650" r="0.8750" /> 
</g>
<g style="fill:#5BC3EB; fill-opacity:1.0000; stroke:none;">
<circle cx="1.2750" cy="7.0750" r="1.0500" /> 
</g>
<g style="fill:#5BC3EB; fill-opacity:1.0000; stroke:none;">
<circle cx="8.2400" cy="7.0750" r="1.0500" /> 
</g>
<g style="fill:#5BC3EB; fill-opacity:1.0000; stroke:none;">
<circle cx="2.5250" cy="3.2650" r="0.8750" /> 
</g>
<g style="fill:#5BC3EB; fill-opacity:1.0000; stroke:none;">
<circle cx="7.0250" cy="3.2650" r="0.8750" /> 
</g>
<g style="fill:#ED7C33; fill-opacity:1.0000; stroke:none;">
<circle cx="1.2750" cy="7.0750" r="1.0500" /> 
</g>
<g style="fill:#ED7C33; fill-opacity:1.0000; stroke:none;">
<circle cx="8.2400" cy="7.0750" r="1.0500" /> 
</g>
<g style="fill:#ED7C33; fill-opacity:1.0000; stroke:none;">
<circle cx="2.5250" cy="3.2650" r="0.8750" /> 
</g>
<g style="fill:#ED7C33; fill-opacity:1.0000; stroke:none;">
<circle cx="7.0250" cy="3.2650" r="0.8750" /> 
</g>
<g style="fill:#8DCB81; fill-opacity:1.0000; stroke:none;">
<circle cx="1.2750" cy="7.0750" r="1.0500" /> 
</g>
<g style="fill:#8DCB81; fill-opacity:1.0000; stroke:none;">
<circle cx="8.2400" cy="7.0750" r="1.0500" /> 
</g>
<g style="fill:#8DCB81; fill-opacity:1.0000; stroke:none;">
<circle cx="2.5250" cy="3.2650" r="0.8750" /> 
</g>
<g style="fill:#8DCB81; fill-opacity:1.0000; stroke:none;">
<circle cx="7.0250" cy="3.2650" r="0.8750" /> 
</g>
<g style="fill:#F2EDA1; fill-opacity:1.0000; stroke:none;">
<circle cx="1.2750" cy="7.0750" r="1.0500" /> 
</g>
<g style="fill:#F2EDA1; fill-opacity:1.0000; stroke:none;">
<circle cx="8.2400" cy="7.0750" r="1.0500" /> 
</g>
<g style="fill:#F2EDA1; fill-opacity:1.0000; stroke:none;">
<circle cx="2.5250" cy="3.2650" r="0.8750" /> 
</g>
<g style="fill:#F2EDA1; fill-opacity:1.0000; stroke:none;">
<circle cx="7.0250" cy="3.2650" r="0.8750" /> 
</g>
<g style="fill:#E8B2A7; fill-opacity:1.0000; stroke:none;">
<circle cx="1.2750" cy="7.0750" r="1.0500" /> 
</g>
<g style="fill:#E8B2A7; fill-opacity:1.0000; stroke:none;">
<circle cx="8.2400" cy="7.0750" r="1.0500" /> 
</g>
<g style="fill:#E8B2A7; fill-opacity:1.0000; stroke:none;">
<circle cx="2.5250" cy="3.2650" r="0.8750" /> 
</g>
<g style="fill:#E8B2A7; fill-opacity:1.0000; stroke:none;">
<circle cx="7.0250" cy="3.2650" r="0.8750" /> 
</g>
<g style="fill:#28CCD9; fill-opacity:1.0000; stroke:none;">
<circle cx="1.2750" cy="7.0750" r="1.0500" /> 
</g>
<g style="fill:#28CCD9; fill-opacity:1.0000; stroke:none;">
<circle cx="8.2400" cy="7.0750" r="1.0500" /> 
</g>
<g style="fill:#28CCD9; fill-opacity:1.0000; stroke:none;">
<circle cx="2.5250" cy="3.2650" r="0.8750" /> 
</g>
<g style="fill:#28CCD9; fill-opacity:1.0000; stroke:none;">
<circle cx="7.0250" cy="3.2650" r="0.8750" /> 
</g>
<g style="fill:#A7A5C6; fill-opacity:1.0000; stroke:none;">
<circle cx="1.2750" cy="7.0750" r="1.0500" /> 
</g>
<g style="fill:#A7A5C6; fill-opacity:1.0000; stroke:none;">
<circle cx="8.2400" cy="7.0750" r="1.0500" /> 
</g>
<g style="fill:#A7A5C6; fill-opacity:1.0000; stroke:none;">
<circle cx="2.5250" cy="3.2650" r="0.8750" /> 
</g>
<g style="fill:#A7A5C6; fill-opacity:1.0000; stroke:none;">
<circle cx="7.0250" cy="3.2650" r="0.8750" /> 
</g>
<g style="fill:#DB628B; fill-opacity:1.0000; stroke:none;">
<circle cx="1.2750" cy="7.0750" r="1.0500" /> 
</g>
<g style="fill:#DB628B; fill-opacity:1.0000; stroke:none;">
<circle cx="8.2400" cy="7.0750" r="1.0500" /> 
</g>
<g style="fill:#DB628B; fill-opacity:1.0000; stroke:none;">
<circle cx="2.5250" cy="3.2650" r="0.8750" /> 
</g>
<g style="fill:#DB628B; fill-opacity:1.0000; stroke:none;">
<circle cx="7.0250" cy="3.2650" r="0.8750" /> 
</g>
<g style="fill:#4FCBCB; fill-opacity:1.0000; stroke:none;">
<circle cx="1.2750" cy="7.0750" r="1.0500" /> 
</g>
<g style="fill:#4FCBCB; fill-opacity:1.0000; stroke:none;">
<circle cx="8.2400" cy="7.0750" r="1.0500" /> 
</g>
<g style="fill:#4FCBCB; fill-opacity:1.0000; stroke:none;">
<circle cx="2.5250" cy="3.2650" r="0.8750" /> 
</g>
<g style="fill:#4FCBCB; fill-opacity:1.0000; stroke:none;">
<circle cx="7.0250" cy="3.2650" r="0.8750" /> 
</g>
<g style="fill:#CE7D2C; fill-opacity:1.0000; stroke:none;">
<circle cx="1.2750" cy="7.0750" r="1.0500" /> 
</g>
<g style="fill:#CE7D2C; fill-opacity:1.0000; stroke:none;">
<circle cx="8.2400" cy="7.0750" r="1.0500" /> 
</g>
<g style="fill:#CE7D2C; fill-opacity:1.0000; stroke:none;">
<circle cx="2.5250" cy="3.2650" r="0.8750" /> 
</g>
<g style="fill:#CE7D2C; fill-opacity:1.0000; stroke:none;">
<circle cx="7.0250" cy="3.2650" r="0.8750" /> 
</g>
<g style="fill:#7FC87F; fill-opacity:1.0000; stroke:none;">
<circle cx="1.2750" cy="7.0750" r="1.0500" /> 
</g>
<g style="fill:#7FC87F; fill-opacity:1.0000; stroke:none;">
<circle cx="8.2400" cy="7.0750" r="1.0500" /> 
</g>
<g style="fill:#7FC87F; fill-opacity:1.0000; stroke:none;">
<circle cx="2.5250" cy="3.2650" r="0.8750" /> 
</g>
<g style="fill:#7FC87F; fill-opacity:1.0000; stroke:none;">
<circle cx="7.0250" cy="3.2650" r="0.8750" /> 
</g>
<g style="fill:#C83434; fill-opacity:1.0000; stroke:none;">
<circle cx="1.2750" cy="7.0750" r="1.0500" /> 
</g>
<g style="fill:#C83434; fill-opacity:1.0000; stroke:none;">
<circle cx="8.2400" cy="7.0750" r="1.0500" /> 
</g>
<g style="fill:#C83434; fill-opacity:1.0000; stroke:none;">
<circle cx="2.5250" cy="3.2650" r="0.8750" /> 
</g>
<g style="fill:#C83434; fill-opacity:1.0000; stroke:none;">
<circle cx="7.0250" cy="3.2650" r="0.8750" /> 
</g>
<g style="fill:#D864FF; fill-opacity:0.4000; stroke:none;">
<circle cx="1.2750" cy="7.0750" r="1.0500" /> 
</g>
<g style="fill:#D864FF; fill-opacity:0.4000; stroke:none;">
<circle cx="8.2400" cy="7.0750" r="1.0500" /> 
</g>
<g style="fill:#D864FF; fill-opacity:0.4000; stroke:none;">
<circle cx="2.5250" cy="3.2650" r="0.8750" /> 
</g>
<g style="fill:#D864FF; fill-opacity:0.4000; stroke:none;">
<circle cx="7.0250" cy="3.2650" r="0.8750" /> 
</g>
<g style="fill:none; 
stroke:#F2EDA1; stroke-width:0.1500; stroke-opacity:1; 
stroke-linecap:round; stroke-linejoin:round;">
<text x="4.7750" y="6.0800"
textLength="3.2976" font-size="1.3333" lengthAdjust="spacingAndGlyphs"
text-anchor="middle" opacity="0">SW1</text>
<g class="stroked-text"><desc>SW1</desc>
<path d="M3.4417 5.9872
L3.5845 6.0348
" />
<path d="M3.5845 6.0348
L3.8226 6.0348
" />
<path d="M3.8226 6.0348
L3.9179 5.9872
" />
<path d="M3.9179 5.9872
L3.9655 5.9396
" />
<path d="M3.9655 5.9396
L4.0131 5.8443
" />
<path d="M4.0131 5.8443
L4.0131 5.7491
" />
<path d="M4.0131 5.7491
L3.9655 5.6539
" />
<path d="M3.9655 5.6539
L3.9179 5.6062
" />
<path d="M3.9179 5.6062
L3.8226 5.5586
" />
<path d="M3.8226 5.5586
L3.6321 5.5110
" />
<path d="M3.6321 5.5110
L3.5369 5.4634
" />
<path d="M3.5369 5.4634
L3.4893 5.4158
" />
<path d="M3.4893 5.4158
L3.4417 5.3205
" />
<path d="M3.4417 5.3205
L3.4417 5.2253
" />
<path d="M3.4417 5.2253
L3.4893 5.1301
" />
<path d="M3.4893 5.1301
L3.5369 5.0824
" />
<path d="M3.5369 5.0824
L3.6321 5.0348
" />
<path d="M3.6321 5.0348
L3.8702 5.0348
" />
<path d="M3.8702 5.0348
L4.0131 5.0824
" />
<path d="M4.3464 5.0348
L4.5845 6.0348
" />
<path d="M4.5845 6.0348
L4.7750 5.3205
" />
<path d="M4.7750 5.3205
L4.9655 6.0348
" />
<path d="M4.9655 6.0348
L5.2036 5.0348
" />
<path d="M6.1083 6.0348
L5.5369 6.0348
" />
<path d="M5.8226 6.0348
L5.8226 5.0348
" />
<path d="M5.8226 5.0348
L5.7274 5.1777
" />
<path d="M5.7274 5.1777
L5.6321 5.2729
" />
<path d="M5.6321 5.2729
L5.5369 5.3205
" />
</g></g>
<g style="fill:none; 
stroke:#F2EDA1; stroke-width:0.1200; stroke-opacity:1; 
stroke-linecap:round; stroke-linejoin:round;">
<path d="M0.9150 3.0000
L0.9150 5.1000
" />
<path d="M0.9150 7.7000
L0.9150 8.2100
" />
<path d="M0.9150 8.2100
L1.4350 8.2100
" />
<path d="M1.4350 4.8700
L1.4350 5.1000
" />
<path d="M1.4350 4.8700
L1.9750 4.8700
" />
<path d="M1.4350 7.7000
L1.4350 8.2100
" />
<path d="M3.0750 4.8700
L6.4750 4.8700
" />
<path d="M7.5750 4.8700
L8.1150 4.8700
" />
<path d="M8.1150 4.8700
L8.1150 5.1000
" />
<path d="M8.1150 7.7000
L8.1150 8.2100
" />
<path d="M8.1150 8.2100
L8.6350 8.2100
" />
<path d="M8.6350 3.0000
L8.6350 5.1000
" />
<path d="M8.6350 7.7000
L8.6350 8.2100
" />
</g>
<g style="fill:none; 
stroke:#FF26E2; stroke-width:0.0500; stroke-opacity:1; 
stroke-linecap:round; stroke-linejoin:round;">
<path d="M0.0250 1.1000
L9.5750 1.1000
" />
<path d="M0.0250 8.3500
L0.0250 1.1000
" />
<path d="M9.5750 1.1000
L9.5750 8.3500
" />
<path d="M9.5750 8.3500
L0.0250 8.3500
" />
</g>
<g style="fill:none; 
stroke:#AFAFAF; stroke-width:0.1500; stroke-opacity:1; 
stroke-linecap:round; stroke-linejoin:round;">
<text x="4.7750" y="9.7899"
textLength="6.7262" font-size="1.3333" lengthAdjust="spacingAndGlyphs"
text-anchor="middle" opacity="0">SW_Push</text>
<g class="stroked-text"><desc>SW_Push</desc>
<path d="M1.7274 9.6971
L1.8702 9.7447
" />
<path d="M1.8702 9.7447
L2.1083 9.7447
" />
<path d="M2.1083 9.7447
L2.2036 9.6971
" />
<path d="M2.2036 9.6971
L2.2512 9.6495
" />
<path d="M2.2512 9.6495
L2.2988 9.5542
" />
<path d="M2.2988 9.5542
L2.2988 9.4590
" />
<path d="M2.2988 9.4590
L2.2512 9.3637
" />
<path d="M2.2512 9.3637
L2.2036 9.3161
" />
<path d="M2.2036 9.3161
L2.1083 9.2685
" />
<path d="M2.1083 9.2685
L1.9179 9.2209
" />
<path d="M1.9179 9.2209
L1.8226 9.1733
" />
<path d="M1.8226 9.1733
L1.7750 9.1257
" />
<path d="M1.7750 9.1257
L1.7274 9.0304
" />
<path d="M1.7274 9.0304
L1.7274 8.9352
" />
<path d="M1.7274 8.9352
L1.7750 8.8399
" />
<path d="M1.7750 8.8399
L1.8226 8.7923
" />
<path d="M1.8226 8.7923
L1.9179 8.7447
" />
<path d="M1.9179 8.7447
L2.1560 8.7447
" />
<path d="M2.1560 8.7447
L2.2988 8.7923
" />
<path d="M2.6321 8.7447
L2.8702 9.7447
" />
<path d="M2.8702 9.7447
L3.0607 9.0304
" />
<path d="M3.0607 9.0304
L3.2512 9.7447
" />
<path d="M3.2512 9.7447
L3.4893 8.7447
" />
<path d="M3.6321 9.8399
L4.3940 9.8399
" />
<path d="M4.6321 9.7447
L4.6321 8.7447
" />
<path d="M4.6321 8.7447
L5.0131 8.7447
" />
<path d="M5.0131 8.7447
L5.1083 8.7923
" />
<path d="M5.1083 8.7923
L5.1560 8.8399
" />
<path d="M5.1560 8.8399
L5.2036 8.9352
" />
<path d="M5.2036 8.9352
L5.2036 9.0780
" />
<path d="M5.2036 9.0780
L5.1560 9.1733
" />
<path d="M5.1560 9.1733
L5.1083 9.2209
" />
<path d="M5.1083 9.2209
L5.0131 9.2685
" />
<path d="M5.0131 9.2685
L4.6321 9.2685
" />
<path d="M6.0607 9.0780
L6.0607 9.7447
" />
<path d="M5.6321 9.0780
L5.6321 9.6018
" />
<path d="M5.6321 9.6018
L5.6798 9.6971
" />
<path d="M5.6798 9.6971
L5.7750 9.7447
" />
<path d="M5.7750 9.7447
L5.9179 9.7447
" />
<path d="M5.9179 9.7447
L6.0131 9.6971
" />
<path d="M6.0131 9.6971
L6.0607 9.6495
" />
<path d="M6.4893 9.6971
L6.5845 9.7447
" />
<path d="M6.5845 9.7447
L6.7750 9.7447
" />
<path d="M6.7750 9.7447
L6.8702 9.6971
" />
<path d="M6.8702 9.6971
L6.9179 9.6018
" />
<path d="M6.9179 9.6018
L6.9179 9.5542
" />
<path d="M6.9179 9.5542
L6.8702 9.4590
" />
<path d="M6.8702 9.4590
L6.7750 9.4114
" />
<path d="M6.7750 9.4114
L6.6321 9.4114
" />
<path d="M6.6321 9.4114
L6.5369 9.3637
" />
<path d="M6.5369 9.3637
L6.4893 9.2685
" />
<path d="M6.4893 9.2685
L6.4893 9.2209
" />
<path d="M6.4893 9.2209
L6.5369 9.1257
" />
<path d="M6.5369 9.1257
L6.6321 9.0780
" />
<path d="M6.6321 9.0780
L6.7750 9.0780
" />
<path d="M6.7750 9.0780
L6.8702 9.1257
" />
<path d="M7.3464 9.7447
L7.3464 8.7447
" />
<path d="M7.7750 9.7447
L7.7750 9.2209
" />
<path d="M7.7750 9.2209
L7.7274 9.1257
" />
<path d="M7.7274 9.1257
L7.6321 9.0780
" />
<path d="M7.6321 9.0780
L7.4893 9.0780
" />
<path d="M7.4893 9.0780
L7.3940 9.1257
" />
<path d="M7.3940 9.1257
L7.3464 9.1733
" />
</g><text x="4.7750" y="6.0800"
textLength="3.2976" font-size="1.3333" lengthAdjust="spacingAndGlyphs"
text-anchor="middle" opacity="0">SW1</text>
<g class="stroked-text"><desc>SW1</desc>
<path d="M3.4417 5.9872
L3.5845 6.0348
" />
<path d="M3.5845 6.0348
L3.8226 6.0348
" />
<path d="M3.8226 6.0348
L3.9179 5.9872
" />
<path d="M3.9179 5.9872
L3.9655 5.9396
" />
<path d="M3.9655 5.9396
L4.0131 5.8443
" />
<path d="M4.0131 5.8443
L4.0131 5.7491
" />
<path d="M4.0131 5.7491
L3.9655 5.6539
" />
<path d="M3.9655 5.6539
L3.9179 5.6062
" />
<path d="M3.9179 5.6062
L3.8226 5.5586
" />
<path d="M3.8226 5.5586
L3.6321 5.5110
" />
<path d="M3.6321 5.5110
L3.5369 5.4634
" />
<path d="M3.5369 5.4634
L3.4893 5.4158
" />
<path d="M3.4893 5.4158
L3.4417 5.3205
" />
<path d="M3.4417 5.3205
L3.4417 5.2253
" />
<path d="M3.4417 5.2253
L3.4893 5.1301
" />
<path d="M3.4893 5.1301
L3.5369 5.0824
" />
<path d="M3.5369 5.0824
L3.6321 5.0348
" />
<path d="M3.6321 5.0348
L3.8702 5.0348
" />
<path d="M3.8702 5.0348
L4.0131 5.0824
" />
<path d="M4.3464 5.0348
L4.5845 6.0348
" />
<path d="M4.5845 6.0348
L4.7750 5.3205
" />
<path d="M4.7750 5.3205
L4.9655 6.0348
" />
<path d="M4.9655 6.0348
L5.2036 5.0348
" />
<path d="M6.1083 6.0348
L5.5369 6.0348
" />
<path d="M5.8226 6.0348
L5.8226 5.0348
" />
<path d="M5.8226 5.0348
L5.7274 5.1777
" />
<path d="M5.7274 5.1777
L5.6321 5.2729
" />
<path d="M5.6321 5.2729
L5.5369 5.3205
" />
</g></g>
<g style="fill:none; 
stroke:#AFAFAF; stroke-width:0.1000; stroke-opacity:1; 
stroke-linecap:round; stroke-linejoin:round;">
<path d="M1.0250 1.3100
L8.5250 1.3100
" />
<path d="M1.0250 8.1000
L1.0250 1.3100
" />
<path d="M1.0250 8.1000
L1.3250 8.1000
" />
<path d="M1.3250 4.7600
L8.2250 4.7600
" />
<path d="M1.3250 8.1000
L1.3250 4.7600
" />
<path d="M3.0250 0.0500
L3.0250 1.3100
" />
<path d="M3.0250 0.0500
L6.5250 0.0500
" />
<path d="M6.5250 0.0500
L6.5250 1.3100
" />
<path d="M8.2250 8.1000
L8.2250 4.7600
" />
<path d="M8.2250 8.1000
L8.5250 8.1000
" />
<path d="M8.5250 8.1000
L8.5250 1.3100
" />
</g>
<g style="fill:none; 
stroke:#C2C2C2; stroke-width:0.1000; stroke-opacity:1; 
stroke-linecap:round; stroke-linejoin:round;">
<path d="M4.7750 1.3100
L4.7750 8.0020
" />
</g> 
</svg>
