<?xml version="1.0" standalone="no"?>
 <!DOCTYPE svg PUBLIC "-//W3C//DTD SVG 1.1//EN" 
 "http://www.w3.org/Graphics/SVG/1.1/DTD/svg11.dtd"> 
<svg
  xmlns:svg="http://www.w3.org/2000/svg"
  xmlns="http://www.w3.org/2000/svg"
  xmlns:xlink="http://www.w3.org/1999/xlink"
  version="1.1"
  width="94.3610mm" height="65.0748mm" viewBox="0.0000 0.0000 94.3610 65.0748">
<title>SVG Image created as main_v2-B_Cu.svg date 2024/06/28 18:04:07 </title>
  <desc>Image generated by PCBNEW </desc>
<g style="fill:#000000; fill-opacity:1.0000;stroke:#000000; stroke-opacity:1.0000;
stroke-linecap:round; stroke-linejoin:round;"
 transform="translate(0 0) scale(1 1)">
</g>
<g style="fill:#000000; fill-opacity:1.0000; stroke:none;">
<circle cx="49.5649" cy="12.7851" r="1.2500" /> 
</g>
<g style="fill:#000000; fill-opacity:1.0000; stroke:none;">
<circle cx="56.5299" cy="12.7851" r="1.2500" /> 
</g>
<g style="fill:#000000; fill-opacity:1.0000; stroke:none;">
<circle cx="50.8149" cy="8.9751" r="1.0000" /> 
</g>
<g style="fill:#000000; fill-opacity:1.0000; stroke:none;">
<circle cx="55.3149" cy="8.9751" r="1.0000" /> 
</g>
<g style="fill:#000000; fill-opacity:1.0000; stroke:none;">
<circle cx="68.5559" cy="12.7851" r="1.2500" /> 
</g>
<g style="fill:#000000; fill-opacity:1.0000; stroke:none;">
<circle cx="75.5209" cy="12.7851" r="1.2500" /> 
</g>
<g style="fill:#000000; fill-opacity:1.0000; stroke:none;">
<circle cx="69.8059" cy="8.9751" r="1.0000" /> 
</g>
<g style="fill:#000000; fill-opacity:1.0000; stroke:none;">
<circle cx="74.3059" cy="8.9751" r="1.0000" /> 
<path style="fill:#000000; fill-opacity:1.0000; stroke:none;fill-rule:evenodd;"
d="M 43.3910,8.9276
41.7910,8.9276
41.7910,10.5276
43.3910,10.5276
Z" /> 
</g>
<g style="fill:#000000; fill-opacity:1.0000; stroke:none;">
<circle cx="42.5910" cy="12.2276" r="0.8000" /> 
</g>
<g style="fill:#000000; fill-opacity:1.0000; stroke:none;">
<circle cx="9.5710" cy="8.3700" r="0.6500" /> 
<circle cx="9.5710" cy="10.9100" r="0.6500" /> 
<circle cx="9.5710" cy="13.4500" r="0.6500" /> 
<circle cx="9.5710" cy="15.9900" r="0.6500" /> 
<circle cx="9.5710" cy="18.5300" r="0.6500" /> 
<circle cx="9.5710" cy="21.0700" r="0.6500" /> 
<circle cx="9.5710" cy="23.6100" r="0.6500" /> 
<circle cx="9.5710" cy="26.1500" r="0.6500" /> 
<circle cx="9.5710" cy="28.6900" r="0.6500" /> 
<circle cx="9.5710" cy="31.2300" r="0.6500" /> 
<circle cx="9.5710" cy="33.7700" r="0.6500" /> 
<circle cx="9.5710" cy="36.3100" r="0.6500" /> 
<circle cx="9.5710" cy="38.8500" r="0.6500" /> 
<circle cx="9.5710" cy="41.3900" r="0.6500" /> 
<circle cx="9.5710" cy="43.9300" r="0.6500" /> 
<circle cx="9.5710" cy="46.4700" r="0.6500" /> 
<circle cx="9.5710" cy="49.0100" r="0.6500" /> 
<circle cx="9.5710" cy="51.5500" r="0.6500" /> 
<circle cx="9.5710" cy="54.0900" r="0.6500" /> 
<circle cx="9.5710" cy="56.6300" r="0.6500" /> 
<circle cx="7.0310" cy="8.3700" r="0.6500" /> 
<circle cx="7.0310" cy="10.9100" r="0.6500" /> 
<circle cx="7.0310" cy="13.4500" r="0.6500" /> 
<circle cx="7.0310" cy="15.9900" r="0.6500" /> 
<circle cx="7.0310" cy="18.5300" r="0.6500" /> 
<circle cx="7.0310" cy="21.0700" r="0.6500" /> 
<circle cx="7.0310" cy="23.6100" r="0.6500" /> 
<circle cx="7.0310" cy="26.1500" r="0.6500" /> 
<circle cx="7.0310" cy="28.6900" r="0.6500" /> 
<circle cx="7.0310" cy="31.2300" r="0.6500" /> 
<circle cx="7.0310" cy="33.7700" r="0.6500" /> 
<circle cx="7.0310" cy="36.3100" r="0.6500" /> 
<circle cx="7.0310" cy="38.8500" r="0.6500" /> 
<circle cx="7.0310" cy="41.3900" r="0.6500" /> 
<circle cx="7.0310" cy="43.9300" r="0.6500" /> 
<circle cx="7.0310" cy="46.4700" r="0.6500" /> 
<circle cx="7.0310" cy="49.0100" r="0.6500" /> 
<circle cx="7.0310" cy="51.5500" r="0.6500" /> 
<circle cx="7.0310" cy="54.0900" r="0.6500" /> 
<circle cx="7.0310" cy="56.6300" r="0.6500" /> 
</g>
<g style="fill:none; 
stroke:#000000; stroke-width:1.5240; stroke-opacity:1; 
stroke-linecap:round; stroke-linejoin:round;">
<path d="M4.7290 8.3700
L4.2530 8.3700
" />
<path d="M12.3490 8.3700
L11.8730 8.3700
" />
<path d="M4.7290 10.9100
L4.2530 10.9100
" />
<path d="M12.3490 10.9100
L11.8730 10.9100
" />
<path d="M4.7290 33.7700
L4.2530 33.7700
" />
<path d="M12.3490 33.7700
L11.8730 33.7700
" />
<path d="M4.7290 36.3100
L4.2530 36.3100
" />
<path d="M12.3490 36.3100
L11.8730 36.3100
" />
<path d="M4.7290 38.8500
L4.2530 38.8500
" />
<path d="M12.3490 38.8500
L11.8730 38.8500
" />
<path d="M4.7290 41.3900
L4.2530 41.3900
" />
<path d="M12.3490 41.3900
L11.8730 41.3900
" />
<path d="M4.7290 43.9300
L4.2530 43.9300
" />
<path d="M12.3490 43.9300
L11.8730 43.9300
" />
<path d="M4.7290 46.4700
L4.2530 46.4700
" />
<path d="M12.3490 46.4700
L11.8730 46.4700
" />
<path d="M4.7290 54.0900
L4.2530 54.0900
" />
<path d="M12.3490 54.0900
L11.8730 54.0900
" />
<path d="M4.7290 56.6300
L4.2530 56.6300
" />
<path d="M12.3490 56.6300
L11.8730 56.6300
" />
</g>
<g style="fill:none; 
stroke:#000000; stroke-width:1.8000; stroke-opacity:1; 
stroke-linecap:round; stroke-linejoin:round;">
<path d="M45.1660 54.0900
L46.3660 54.0900
" />
<path d="M45.1660 38.8500
L46.3660 38.8500
" />
<path d="M45.1660 41.3900
L46.3660 41.3900
" />
<path d="M68.5160 54.0900
L69.7160 54.0900
" />
<path d="M68.5160 51.5500
L69.7160 51.5500
" />
<path d="M68.5160 49.0100
L69.7160 49.0100
" />
<path d="M68.5160 46.4700
L69.7160 46.4700
" />
<path d="M45.1660 51.5500
L46.3660 51.5500
" />
<path d="M45.1660 49.0100
L46.3660 49.0100
" />
<path d="M45.1660 46.4700
L46.3660 46.4700
" />
<path d="M45.1660 43.9300
L46.3660 43.9300
" />
<path d="M68.5160 43.9300
L69.7160 43.9300
" />
<path d="M68.5160 41.3900
L69.7160 41.3900
" />
<path d="M68.5160 56.6300
L69.7160 56.6300
" />
<path d="M68.5160 38.8500
L69.7160 38.8500
" />
<path d="M45.1660 56.6300
L46.3660 56.6300
" />
<path style="fill:#000000; fill-opacity:1.0000; stroke:none;fill-rule:evenodd;"
d="M 21.1660,8.9276
19.5660,8.9276
19.5660,10.5276
21.1660,10.5276
Z" /> 
</g>
<g style="fill:#000000; fill-opacity:1.0000; stroke:none;">
<circle cx="20.3660" cy="12.2276" r="0.8000" /> 
<path style="fill:#000000; fill-opacity:1.0000; stroke:none;fill-rule:evenodd;"
d="M 34.5010,52.1076
32.9010,52.1076
32.9010,53.7076
34.5010,53.7076
Z" /> 
</g>
<g style="fill:#000000; fill-opacity:1.0000; stroke:none;">
<circle cx="33.7010" cy="55.4076" r="0.8000" /> 
<path style="fill:#000000; fill-opacity:1.0000; stroke:none;fill-rule:evenodd;"
d="M 4.8360,21.9050
4.8152,21.7737
4.7548,21.6552
4.6608,21.5612
4.5423,21.5008
4.4110,21.4800
0.7610,21.4800
0.6297,21.5008
0.5112,21.5612
0.4172,21.6552
0.3568,21.7737
0.3360,21.9050
0.3360,22.7550
0.3568,22.8863
0.4172,23.0048
0.5112,23.0988
0.6297,23.1592
0.7610,23.1800
4.4110,23.1800
4.5423,23.1592
4.6608,23.0988
4.7548,23.0048
4.8152,22.8863
4.8360,22.7550
Z" /> 
<path style="fill:#000000; fill-opacity:1.0000; stroke:none;fill-rule:evenodd;"
d="M 4.8360,19.3650
4.8152,19.2337
4.7548,19.1152
4.6608,19.0212
4.5423,18.9608
4.4110,18.9400
0.7610,18.9400
0.6297,18.9608
0.5112,19.0212
0.4172,19.1152
0.3568,19.2337
0.3360,19.3650
0.3360,20.2150
0.3568,20.3463
0.4172,20.4648
0.5112,20.5588
0.6297,20.6192
0.7610,20.6400
4.4110,20.6400
4.5423,20.6192
4.6608,20.5588
4.7548,20.4648
4.8152,20.3463
4.8360,20.2150
Z" /> 
<path style="fill:#000000; fill-opacity:1.0000; stroke:none;fill-rule:evenodd;"
d="M 4.8360,16.8250
4.8152,16.6937
4.7548,16.5752
4.6608,16.4812
4.5423,16.4208
4.4110,16.4000
0.7610,16.4000
0.6297,16.4208
0.5112,16.4812
0.4172,16.5752
0.3568,16.6937
0.3360,16.8250
0.3360,17.6750
0.3568,17.8063
0.4172,17.9248
0.5112,18.0188
0.6297,18.0792
0.7610,18.1000
4.4110,18.1000
4.5423,18.0792
4.6608,18.0188
4.7548,17.9248
4.8152,17.8063
4.8360,17.6750
Z" /> 
<path style="fill:#000000; fill-opacity:1.0000; stroke:none;fill-rule:evenodd;"
d="M 4.8360,14.2850
4.8152,14.1537
4.7548,14.0352
4.6608,13.9412
4.5423,13.8808
4.4110,13.8600
0.7610,13.8600
0.6297,13.8808
0.5112,13.9412
0.4172,14.0352
0.3568,14.1537
0.3360,14.2850
0.3360,15.1350
0.3568,15.2663
0.4172,15.3848
0.5112,15.4788
0.6297,15.5392
0.7610,15.5600
4.4110,15.5600
4.5423,15.5392
4.6608,15.4788
4.7548,15.3848
4.8152,15.2663
4.8360,15.1350
Z" /> 
<path style="fill:#000000; fill-opacity:1.0000; stroke:none;fill-rule:evenodd;"
d="M 0.3360,27.2050
0.3568,27.3363
0.4172,27.4548
0.5112,27.5488
0.6297,27.6092
0.7610,27.6300
4.4110,27.6300
4.5423,27.6092
4.6608,27.5488
4.7548,27.4548
4.8152,27.3363
4.8360,27.2050
4.8360,26.3550
4.8152,26.2237
4.7548,26.1052
4.6608,26.0112
4.5423,25.9508
4.4110,25.9300
0.7610,25.9300
0.6297,25.9508
0.5112,26.0112
0.4172,26.1052
0.3568,26.2237
0.3360,26.3550
Z" /> 
<path style="fill:#000000; fill-opacity:1.0000; stroke:none;fill-rule:evenodd;"
d="M 0.3360,29.7450
0.3568,29.8763
0.4172,29.9948
0.5112,30.0888
0.6297,30.1492
0.7610,30.1700
4.4110,30.1700
4.5423,30.1492
4.6608,30.0888
4.7548,29.9948
4.8152,29.8763
4.8360,29.7450
4.8360,28.8950
4.8152,28.7637
4.7548,28.6452
4.6608,28.5512
4.5423,28.4908
4.4110,28.4700
0.7610,28.4700
0.6297,28.4908
0.5112,28.5512
0.4172,28.6452
0.3568,28.7637
0.3360,28.8950
Z" /> 
<path style="fill:#000000; fill-opacity:1.0000; stroke:none;fill-rule:evenodd;"
d="M 21.1660,16.5476
19.5660,16.5476
19.5660,18.1476
21.1660,18.1476
Z" /> 
</g>
<g style="fill:#000000; fill-opacity:1.0000; stroke:none;">
<circle cx="20.3660" cy="19.8476" r="0.8000" /> 
</g>
<g style="fill:#000000; fill-opacity:1.0000; stroke:none;">
<circle cx="26.7160" cy="38.8500" r="0.8000" /> 
</g>
<g style="fill:#000000; fill-opacity:1.0000; stroke:none;">
<circle cx="26.7160" cy="33.1350" r="0.8000" /> 
</g>
<g style="fill:#000000; fill-opacity:1.0000; stroke:none;">
<circle cx="34.3360" cy="23.6100" r="0.8000" /> 
</g>
<g style="fill:#000000; fill-opacity:1.0000; stroke:none;">
<circle cx="40.6860" cy="23.6100" r="0.8000" /> 
</g>
<g style="fill:#000000; fill-opacity:1.0000; stroke:none;">
<circle cx="23.5410" cy="30.5950" r="0.8000" /> 
</g>
<g style="fill:#000000; fill-opacity:1.0000; stroke:none;">
<circle cx="34.9710" cy="14.0850" r="0.8001" /> 
</g>
<g style="fill:#000000; fill-opacity:1.0000; stroke:none;">
<circle cx="32.4310" cy="18.5950" r="0.8000" /> 
</g>
<g style="fill:#000000; fill-opacity:1.0000; stroke:none;">
<circle cx="40.6860" cy="52.1850" r="0.8000" /> 
</g>
<g style="fill:#000000; fill-opacity:1.0000; stroke:none;">
<circle cx="15.2860" cy="27.4200" r="0.8000" /> 
</g>
<g style="fill:#000000; fill-opacity:1.0000; stroke:none;">
<circle cx="23.5410" cy="49.0100" r="0.8000" /> 
</g>
<g style="fill:#000000; fill-opacity:1.0000; stroke:none;">
<circle cx="32.4310" cy="22.3400" r="0.8000" /> 
</g>
<g style="fill:#000000; fill-opacity:1.0000; stroke:none;">
<circle cx="15.2860" cy="14.7200" r="0.8000" /> 
</g>
<g style="fill:#000000; fill-opacity:1.0000; stroke:none;">
<circle cx="34.9710" cy="18.5950" r="0.8001" /> 
</g>
<g style="fill:#000000; fill-opacity:1.0000; stroke:none;">
<circle cx="38.1460" cy="40.7550" r="0.8000" /> 
</g>
<g style="fill:#000000; fill-opacity:1.0000; stroke:none;">
<circle cx="38.1460" cy="36.9450" r="0.8000" /> 
</g>
<g style="fill:#000000; fill-opacity:1.0000; stroke:none;">
<circle cx="30.5260" cy="43.2950" r="0.8000" /> 
</g>
<g style="fill:#000000; fill-opacity:1.0000; stroke:none;">
<circle cx="30.5260" cy="35.6750" r="0.8000" /> 
</g>
<g style="fill:#000000; fill-opacity:1.0000; stroke:none;">
<circle cx="28.6210" cy="34.4050" r="0.8000" /> 
</g>
<g style="fill:#000000; fill-opacity:1.0000; stroke:none;">
<circle cx="28.6210" cy="44.5650" r="0.8000" /> 
</g>
<g style="fill:#000000; fill-opacity:1.0000; stroke:none;">
<circle cx="15.9210" cy="50.9150" r="0.8000" /> 
</g>
<g style="fill:#000000; fill-opacity:1.0000; stroke:none;">
<circle cx="15.9210" cy="48.3750" r="0.8000" /> 
</g>
<g style="fill:#000000; fill-opacity:1.0000; stroke:none;">
<circle cx="32.4310" cy="49.0100" r="0.8000" /> 
</g>
<g style="fill:#000000; fill-opacity:1.0000; stroke:none;">
<circle cx="32.4310" cy="24.2450" r="0.8000" /> 
</g>
<g style="fill:#000000; fill-opacity:1.0000; stroke:none;">
<circle cx="36.2410" cy="31.2300" r="0.8000" /> 
</g>
<g style="fill:#000000; fill-opacity:1.0000; stroke:none;">
<circle cx="36.2410" cy="49.0100" r="0.8000" /> 
</g>
<g style="fill:#000000; fill-opacity:1.0000; stroke:none;">
<circle cx="42.5910" cy="56.6300" r="0.8000" /> 
</g>
<g style="fill:#000000; fill-opacity:1.0000; stroke:none;">
<circle cx="42.5910" cy="20.4350" r="0.8000" /> 
</g>
<g style="fill:#000000; fill-opacity:1.0000; stroke:none;">
<circle cx="29.8910" cy="26.1500" r="0.8000" /> 
</g>
<g style="fill:#000000; fill-opacity:1.0000; stroke:none;">
<circle cx="17.1910" cy="46.4700" r="0.9000" /> 
</g>
<g style="fill:#000000; fill-opacity:1.0000; stroke:none;">
<circle cx="17.1910" cy="22.3400" r="0.8000" /> 
</g>
<g style="fill:#000000; fill-opacity:1.0000; stroke:none;">
<circle cx="22.2710" cy="26.1500" r="0.8000" /> 
</g>
<g style="fill:#000000; fill-opacity:1.0000; stroke:none;">
<circle cx="20.3660" cy="27.4200" r="0.8000" /> 
</g>
<g style="fill:#000000; fill-opacity:1.0000; stroke:none;">
<circle cx="21.0010" cy="45.8350" r="0.8000" /> 
</g>
<g style="fill:#000000; fill-opacity:1.0000; stroke:none;">
<circle cx="19.0960" cy="26.1500" r="0.8000" /> 
</g>
<g style="fill:#000000; fill-opacity:1.0000; stroke:none;">
<circle cx="27.9860" cy="27.4200" r="0.8000" /> 
</g>
<g style="fill:#000000; fill-opacity:1.0000; stroke:none;">
<circle cx="19.0960" cy="45.2000" r="0.8000" /> 
</g>
<g style="fill:#000000; fill-opacity:1.0000; stroke:none;">
<circle cx="21.0010" cy="49.0100" r="0.8000" /> 
</g>
<g style="fill:none; 
stroke:#000000; stroke-width:0.6096; stroke-opacity:1; 
stroke-linecap:round; stroke-linejoin:round;">
<path d="M42.5910 20.4350
L42.5910 56.6300
" />
<path d="M40.6860 52.1850
L40.6860 52.1850
" />
<path d="M40.6860 23.6100
L40.6860 52.1850
" />
</g>
<g style="fill:none; 
stroke:#000000; stroke-width:0.4064; stroke-opacity:1; 
stroke-linecap:round; stroke-linejoin:round;">
<path d="M26.7160 33.1350
L26.7160 38.8500
" />
</g>
<g style="fill:none; 
stroke:#000000; stroke-width:0.6096; stroke-opacity:1; 
stroke-linecap:round; stroke-linejoin:round;">
<path d="M23.5410 49.0100
L23.5410 30.5950
" />
<path d="M34.9710 18.5950
L34.9710 14.0850
" />
<path d="M32.4310 18.5950
L32.4310 22.3400
" />
<path d="M15.2860 14.7200
L15.2860 27.4200
" />
<path d="M34.3360 23.6100
L40.6860 23.6100
" />
</g>
<g style="fill:none; 
stroke:#000000; stroke-width:0.4064; stroke-opacity:1; 
stroke-linecap:round; stroke-linejoin:round;">
<path d="M38.1460 36.9450
L38.1460 40.7550
" />
<path d="M30.5260 35.6750
L30.5260 43.2950
" />
<path d="M28.6210 34.4050
L28.6210 44.5650
" />
<path d="M15.9210 50.9150
L15.9210 48.3750
" />
<path d="M32.4310 24.2450
L32.4310 48.3750
" />
</g>
<g style="fill:none; 
stroke:#000000; stroke-width:0.6096; stroke-opacity:1; 
stroke-linecap:round; stroke-linejoin:round;">
<path d="M36.2410 49.0100
L36.2410 31.2300
" />
</g>
<g style="fill:none; 
stroke:#000000; stroke-width:0.4064; stroke-opacity:1; 
stroke-linecap:round; stroke-linejoin:round;">
<path d="M17.1910 22.3400
L17.1910 46.4700
" />
<path d="M29.8910 26.1500
L22.2710 26.1500
" />
<path d="M19.0960 45.2000
L19.0960 26.1500
" />
<path d="M21.0010 45.8350
L21.0010 49.0100
" />
<path d="M27.9860 27.4200
L20.3660 27.4200
" />
</g>
<g style="fill:#FFFFFF; fill-opacity:1.0000; stroke:none;">
<circle cx="26.7160" cy="38.8500" r="0.1270" /> 
</g>
<g style="fill:#FFFFFF; fill-opacity:1.0000; stroke:none;">
<circle cx="26.7160" cy="33.1350" r="0.1270" /> 
</g>
<g style="fill:#FFFFFF; fill-opacity:1.0000; stroke:none;">
<circle cx="34.3360" cy="23.6100" r="0.1270" /> 
</g>
<g style="fill:#FFFFFF; fill-opacity:1.0000; stroke:none;">
<circle cx="40.6860" cy="23.6100" r="0.1270" /> 
</g>
<g style="fill:#FFFFFF; fill-opacity:1.0000; stroke:none;">
<circle cx="23.5410" cy="30.5950" r="0.1270" /> 
</g>
<g style="fill:#FFFFFF; fill-opacity:1.0000; stroke:none;">
<circle cx="34.9710" cy="14.0850" r="0.1270" /> 
</g>
<g style="fill:#FFFFFF; fill-opacity:1.0000; stroke:none;">
<circle cx="32.4310" cy="18.5950" r="0.1270" /> 
</g>
<g style="fill:#FFFFFF; fill-opacity:1.0000; stroke:none;">
<circle cx="40.6860" cy="52.1850" r="0.1270" /> 
</g>
<g style="fill:#FFFFFF; fill-opacity:1.0000; stroke:none;">
<circle cx="15.2860" cy="27.4200" r="0.1270" /> 
</g>
<g style="fill:#FFFFFF; fill-opacity:1.0000; stroke:none;">
<circle cx="23.5410" cy="49.0100" r="0.1270" /> 
</g>
<g style="fill:#FFFFFF; fill-opacity:1.0000; stroke:none;">
<circle cx="32.4310" cy="22.3400" r="0.1270" /> 
</g>
<g style="fill:#FFFFFF; fill-opacity:1.0000; stroke:none;">
<circle cx="15.2860" cy="14.7200" r="0.1270" /> 
</g>
<g style="fill:#FFFFFF; fill-opacity:1.0000; stroke:none;">
<circle cx="34.9710" cy="18.5950" r="0.1270" /> 
</g>
<g style="fill:#FFFFFF; fill-opacity:1.0000; stroke:none;">
<circle cx="38.1460" cy="40.7550" r="0.1270" /> 
</g>
<g style="fill:#FFFFFF; fill-opacity:1.0000; stroke:none;">
<circle cx="38.1460" cy="36.9450" r="0.1270" /> 
</g>
<g style="fill:#FFFFFF; fill-opacity:1.0000; stroke:none;">
<circle cx="30.5260" cy="43.2950" r="0.1270" /> 
</g>
<g style="fill:#FFFFFF; fill-opacity:1.0000; stroke:none;">
<circle cx="30.5260" cy="35.6750" r="0.1270" /> 
</g>
<g style="fill:#FFFFFF; fill-opacity:1.0000; stroke:none;">
<circle cx="28.6210" cy="34.4050" r="0.1270" /> 
</g>
<g style="fill:#FFFFFF; fill-opacity:1.0000; stroke:none;">
<circle cx="28.6210" cy="44.5650" r="0.1270" /> 
</g>
<g style="fill:#FFFFFF; fill-opacity:1.0000; stroke:none;">
<circle cx="15.9210" cy="50.9150" r="0.1270" /> 
</g>
<g style="fill:#FFFFFF; fill-opacity:1.0000; stroke:none;">
<circle cx="15.9210" cy="48.3750" r="0.1270" /> 
</g>
<g style="fill:#FFFFFF; fill-opacity:1.0000; stroke:none;">
<circle cx="32.4310" cy="49.0100" r="0.1270" /> 
</g>
<g style="fill:#FFFFFF; fill-opacity:1.0000; stroke:none;">
<circle cx="32.4310" cy="24.2450" r="0.1270" /> 
</g>
<g style="fill:#FFFFFF; fill-opacity:1.0000; stroke:none;">
<circle cx="36.2410" cy="31.2300" r="0.1270" /> 
</g>
<g style="fill:#FFFFFF; fill-opacity:1.0000; stroke:none;">
<circle cx="36.2410" cy="49.0100" r="0.1270" /> 
</g>
<g style="fill:#FFFFFF; fill-opacity:1.0000; stroke:none;">
<circle cx="42.5910" cy="56.6300" r="0.1270" /> 
</g>
<g style="fill:#FFFFFF; fill-opacity:1.0000; stroke:none;">
<circle cx="42.5910" cy="20.4350" r="0.1270" /> 
</g>
<g style="fill:#FFFFFF; fill-opacity:1.0000; stroke:none;">
<circle cx="29.8910" cy="26.1500" r="0.1270" /> 
</g>
<g style="fill:#FFFFFF; fill-opacity:1.0000; stroke:none;">
<circle cx="17.1910" cy="46.4700" r="0.1270" /> 
</g>
<g style="fill:#FFFFFF; fill-opacity:1.0000; stroke:none;">
<circle cx="17.1910" cy="22.3400" r="0.1270" /> 
</g>
<g style="fill:#FFFFFF; fill-opacity:1.0000; stroke:none;">
<circle cx="22.2710" cy="26.1500" r="0.1270" /> 
</g>
<g style="fill:#FFFFFF; fill-opacity:1.0000; stroke:none;">
<circle cx="20.3660" cy="27.4200" r="0.1270" /> 
</g>
<g style="fill:#FFFFFF; fill-opacity:1.0000; stroke:none;">
<circle cx="21.0010" cy="45.8350" r="0.1270" /> 
</g>
<g style="fill:#FFFFFF; fill-opacity:1.0000; stroke:none;">
<circle cx="19.0960" cy="26.1500" r="0.1270" /> 
</g>
<g style="fill:#FFFFFF; fill-opacity:1.0000; stroke:none;">
<circle cx="27.9860" cy="27.4200" r="0.1270" /> 
</g>
<g style="fill:#FFFFFF; fill-opacity:1.0000; stroke:none;">
<circle cx="19.0960" cy="45.2000" r="0.1270" /> 
</g>
<g style="fill:#FFFFFF; fill-opacity:1.0000; stroke:none;">
<circle cx="21.0010" cy="49.0100" r="0.1270" /> 
</g>
<g style="fill:#FFFFFF; fill-opacity:1.0000; stroke:none;">
<circle cx="49.5649" cy="12.7851" r="0.2500" /> 
</g>
<g style="fill:#FFFFFF; fill-opacity:1.0000; stroke:none;">
<circle cx="56.5299" cy="12.7851" r="0.2500" /> 
</g>
<g style="fill:#FFFFFF; fill-opacity:1.0000; stroke:none;">
<circle cx="50.8149" cy="8.9751" r="0.2500" /> 
</g>
<g style="fill:#FFFFFF; fill-opacity:1.0000; stroke:none;">
<circle cx="55.3149" cy="8.9751" r="0.2500" /> 
</g>
<g style="fill:#FFFFFF; fill-opacity:1.0000; stroke:none;">
<circle cx="68.5559" cy="12.7851" r="0.2500" /> 
</g>
<g style="fill:#FFFFFF; fill-opacity:1.0000; stroke:none;">
<circle cx="75.5209" cy="12.7851" r="0.2500" /> 
</g>
<g style="fill:#FFFFFF; fill-opacity:1.0000; stroke:none;">
<circle cx="69.8059" cy="8.9751" r="0.2500" /> 
</g>
<g style="fill:#FFFFFF; fill-opacity:1.0000; stroke:none;">
<circle cx="74.3059" cy="8.9751" r="0.2500" /> 
</g>
<g style="fill:#FFFFFF; fill-opacity:1.0000; stroke:none;">
<circle cx="42.5910" cy="9.7276" r="0.2500" /> 
</g>
<g style="fill:#FFFFFF; fill-opacity:1.0000; stroke:none;">
<circle cx="42.5910" cy="12.2276" r="0.2500" /> 
</g>
<g style="fill:#FFFFFF; fill-opacity:1.0000; stroke:none;">
<circle cx="9.5710" cy="8.3700" r="0.2500" /> 
</g>
<g style="fill:#FFFFFF; fill-opacity:1.0000; stroke:none;">
<circle cx="9.5710" cy="10.9100" r="0.2500" /> 
</g>
<g style="fill:#FFFFFF; fill-opacity:1.0000; stroke:none;">
<circle cx="9.5710" cy="13.4500" r="0.2500" /> 
</g>
<g style="fill:#FFFFFF; fill-opacity:1.0000; stroke:none;">
<circle cx="9.5710" cy="15.9900" r="0.2500" /> 
</g>
<g style="fill:#FFFFFF; fill-opacity:1.0000; stroke:none;">
<circle cx="9.5710" cy="18.5300" r="0.2500" /> 
</g>
<g style="fill:#FFFFFF; fill-opacity:1.0000; stroke:none;">
<circle cx="9.5710" cy="21.0700" r="0.2500" /> 
</g>
<g style="fill:#FFFFFF; fill-opacity:1.0000; stroke:none;">
<circle cx="9.5710" cy="23.6100" r="0.2500" /> 
</g>
<g style="fill:#FFFFFF; fill-opacity:1.0000; stroke:none;">
<circle cx="9.5710" cy="26.1500" r="0.2500" /> 
</g>
<g style="fill:#FFFFFF; fill-opacity:1.0000; stroke:none;">
<circle cx="9.5710" cy="28.6900" r="0.2500" /> 
</g>
<g style="fill:#FFFFFF; fill-opacity:1.0000; stroke:none;">
<circle cx="9.5710" cy="31.2300" r="0.2500" /> 
</g>
<g style="fill:#FFFFFF; fill-opacity:1.0000; stroke:none;">
<circle cx="9.5710" cy="33.7700" r="0.2500" /> 
</g>
<g style="fill:#FFFFFF; fill-opacity:1.0000; stroke:none;">
<circle cx="9.5710" cy="36.3100" r="0.2500" /> 
</g>
<g style="fill:#FFFFFF; fill-opacity:1.0000; stroke:none;">
<circle cx="9.5710" cy="38.8500" r="0.2500" /> 
</g>
<g style="fill:#FFFFFF; fill-opacity:1.0000; stroke:none;">
<circle cx="9.5710" cy="41.3900" r="0.2500" /> 
</g>
<g style="fill:#FFFFFF; fill-opacity:1.0000; stroke:none;">
<circle cx="9.5710" cy="43.9300" r="0.2500" /> 
</g>
<g style="fill:#FFFFFF; fill-opacity:1.0000; stroke:none;">
<circle cx="9.5710" cy="46.4700" r="0.2500" /> 
</g>
<g style="fill:#FFFFFF; fill-opacity:1.0000; stroke:none;">
<circle cx="9.5710" cy="49.0100" r="0.2500" /> 
</g>
<g style="fill:#FFFFFF; fill-opacity:1.0000; stroke:none;">
<circle cx="9.5710" cy="51.5500" r="0.2500" /> 
</g>
<g style="fill:#FFFFFF; fill-opacity:1.0000; stroke:none;">
<circle cx="9.5710" cy="54.0900" r="0.2500" /> 
</g>
<g style="fill:#FFFFFF; fill-opacity:1.0000; stroke:none;">
<circle cx="9.5710" cy="56.6300" r="0.2500" /> 
</g>
<g style="fill:#FFFFFF; fill-opacity:1.0000; stroke:none;">
<circle cx="7.0310" cy="8.3700" r="0.2500" /> 
</g>
<g style="fill:#FFFFFF; fill-opacity:1.0000; stroke:none;">
<circle cx="7.0310" cy="10.9100" r="0.2500" /> 
</g>
<g style="fill:#FFFFFF; fill-opacity:1.0000; stroke:none;">
<circle cx="7.0310" cy="13.4500" r="0.2500" /> 
</g>
<g style="fill:#FFFFFF; fill-opacity:1.0000; stroke:none;">
<circle cx="7.0310" cy="15.9900" r="0.2500" /> 
</g>
<g style="fill:#FFFFFF; fill-opacity:1.0000; stroke:none;">
<circle cx="7.0310" cy="18.5300" r="0.2500" /> 
</g>
<g style="fill:#FFFFFF; fill-opacity:1.0000; stroke:none;">
<circle cx="7.0310" cy="21.0700" r="0.2500" /> 
</g>
<g style="fill:#FFFFFF; fill-opacity:1.0000; stroke:none;">
<circle cx="7.0310" cy="23.6100" r="0.2500" /> 
</g>
<g style="fill:#FFFFFF; fill-opacity:1.0000; stroke:none;">
<circle cx="7.0310" cy="26.1500" r="0.2500" /> 
</g>
<g style="fill:#FFFFFF; fill-opacity:1.0000; stroke:none;">
<circle cx="7.0310" cy="28.6900" r="0.2500" /> 
</g>
<g style="fill:#FFFFFF; fill-opacity:1.0000; stroke:none;">
<circle cx="7.0310" cy="31.2300" r="0.2500" /> 
</g>
<g style="fill:#FFFFFF; fill-opacity:1.0000; stroke:none;">
<circle cx="7.0310" cy="33.7700" r="0.2500" /> 
</g>
<g style="fill:#FFFFFF; fill-opacity:1.0000; stroke:none;">
<circle cx="7.0310" cy="36.3100" r="0.2500" /> 
</g>
<g style="fill:#FFFFFF; fill-opacity:1.0000; stroke:none;">
<circle cx="7.0310" cy="38.8500" r="0.2500" /> 
</g>
<g style="fill:#FFFFFF; fill-opacity:1.0000; stroke:none;">
<circle cx="7.0310" cy="41.3900" r="0.2500" /> 
</g>
<g style="fill:#FFFFFF; fill-opacity:1.0000; stroke:none;">
<circle cx="7.0310" cy="43.9300" r="0.2500" /> 
</g>
<g style="fill:#FFFFFF; fill-opacity:1.0000; stroke:none;">
<circle cx="7.0310" cy="46.4700" r="0.2500" /> 
</g>
<g style="fill:#FFFFFF; fill-opacity:1.0000; stroke:none;">
<circle cx="7.0310" cy="49.0100" r="0.2500" /> 
</g>
<g style="fill:#FFFFFF; fill-opacity:1.0000; stroke:none;">
<circle cx="7.0310" cy="51.5500" r="0.2500" /> 
</g>
<g style="fill:#FFFFFF; fill-opacity:1.0000; stroke:none;">
<circle cx="7.0310" cy="54.0900" r="0.2500" /> 
</g>
<g style="fill:#FFFFFF; fill-opacity:1.0000; stroke:none;">
<circle cx="7.0310" cy="56.6300" r="0.2500" /> 
</g>
<g style="fill:#FFFFFF; fill-opacity:1.0000; stroke:none;">
<circle cx="4.4910" cy="8.3700" r="0.2500" /> 
</g>
<g style="fill:#FFFFFF; fill-opacity:1.0000; stroke:none;">
<circle cx="12.1110" cy="8.3700" r="0.2500" /> 
</g>
<g style="fill:#FFFFFF; fill-opacity:1.0000; stroke:none;">
<circle cx="4.4910" cy="10.9100" r="0.2500" /> 
</g>
<g style="fill:#FFFFFF; fill-opacity:1.0000; stroke:none;">
<circle cx="12.1110" cy="10.9100" r="0.2500" /> 
</g>
<g style="fill:#FFFFFF; fill-opacity:1.0000; stroke:none;">
<circle cx="4.4910" cy="33.7700" r="0.2500" /> 
</g>
<g style="fill:#FFFFFF; fill-opacity:1.0000; stroke:none;">
<circle cx="12.1110" cy="33.7700" r="0.2500" /> 
</g>
<g style="fill:#FFFFFF; fill-opacity:1.0000; stroke:none;">
<circle cx="4.4910" cy="36.3100" r="0.2500" /> 
</g>
<g style="fill:#FFFFFF; fill-opacity:1.0000; stroke:none;">
<circle cx="12.1110" cy="36.3100" r="0.2500" /> 
</g>
<g style="fill:#FFFFFF; fill-opacity:1.0000; stroke:none;">
<circle cx="4.4910" cy="38.8500" r="0.2500" /> 
</g>
<g style="fill:#FFFFFF; fill-opacity:1.0000; stroke:none;">
<circle cx="12.1110" cy="38.8500" r="0.2500" /> 
</g>
<g style="fill:#FFFFFF; fill-opacity:1.0000; stroke:none;">
<circle cx="4.4910" cy="41.3900" r="0.2500" /> 
</g>
<g style="fill:#FFFFFF; fill-opacity:1.0000; stroke:none;">
<circle cx="12.1110" cy="41.3900" r="0.2500" /> 
</g>
<g style="fill:#FFFFFF; fill-opacity:1.0000; stroke:none;">
<circle cx="4.4910" cy="43.9300" r="0.2500" /> 
</g>
<g style="fill:#FFFFFF; fill-opacity:1.0000; stroke:none;">
<circle cx="12.1110" cy="43.9300" r="0.2500" /> 
</g>
<g style="fill:#FFFFFF; fill-opacity:1.0000; stroke:none;">
<circle cx="4.4910" cy="46.4700" r="0.2500" /> 
</g>
<g style="fill:#FFFFFF; fill-opacity:1.0000; stroke:none;">
<circle cx="12.1110" cy="46.4700" r="0.2500" /> 
</g>
<g style="fill:#FFFFFF; fill-opacity:1.0000; stroke:none;">
<circle cx="4.4910" cy="54.0900" r="0.2500" /> 
</g>
<g style="fill:#FFFFFF; fill-opacity:1.0000; stroke:none;">
<circle cx="12.1110" cy="54.0900" r="0.2500" /> 
</g>
<g style="fill:#FFFFFF; fill-opacity:1.0000; stroke:none;">
<circle cx="4.4910" cy="56.6300" r="0.2500" /> 
</g>
<g style="fill:#FFFFFF; fill-opacity:1.0000; stroke:none;">
<circle cx="12.1110" cy="56.6300" r="0.2500" /> 
</g>
<g style="fill:#FFFFFF; fill-opacity:1.0000; stroke:none;">
<circle cx="45.7660" cy="54.0900" r="0.3810" /> 
</g>
<g style="fill:#FFFFFF; fill-opacity:1.0000; stroke:none;">
<circle cx="45.7660" cy="38.8500" r="0.3810" /> 
</g>
<g style="fill:#FFFFFF; fill-opacity:1.0000; stroke:none;">
<circle cx="45.7660" cy="41.3900" r="0.3810" /> 
</g>
<g style="fill:#FFFFFF; fill-opacity:1.0000; stroke:none;">
<circle cx="69.1160" cy="54.0900" r="0.3810" /> 
</g>
<g style="fill:#FFFFFF; fill-opacity:1.0000; stroke:none;">
<circle cx="69.1160" cy="51.5500" r="0.3810" /> 
</g>
<g style="fill:#FFFFFF; fill-opacity:1.0000; stroke:none;">
<circle cx="69.1160" cy="49.0100" r="0.3810" /> 
</g>
<g style="fill:#FFFFFF; fill-opacity:1.0000; stroke:none;">
<circle cx="69.1160" cy="46.4700" r="0.3810" /> 
</g>
<g style="fill:#FFFFFF; fill-opacity:1.0000; stroke:none;">
<circle cx="45.7660" cy="51.5500" r="0.3810" /> 
</g>
<g style="fill:#FFFFFF; fill-opacity:1.0000; stroke:none;">
<circle cx="45.7660" cy="49.0100" r="0.3810" /> 
</g>
<g style="fill:#FFFFFF; fill-opacity:1.0000; stroke:none;">
<circle cx="45.7660" cy="46.4700" r="0.3810" /> 
</g>
<g style="fill:#FFFFFF; fill-opacity:1.0000; stroke:none;">
<circle cx="45.7660" cy="43.9300" r="0.3810" /> 
</g>
<g style="fill:#FFFFFF; fill-opacity:1.0000; stroke:none;">
<circle cx="69.1160" cy="43.9300" r="0.3810" /> 
</g>
<g style="fill:#FFFFFF; fill-opacity:1.0000; stroke:none;">
<circle cx="69.1160" cy="41.3900" r="0.3810" /> 
</g>
<g style="fill:#FFFFFF; fill-opacity:1.0000; stroke:none;">
<circle cx="69.1160" cy="56.6300" r="0.3810" /> 
</g>
<g style="fill:#FFFFFF; fill-opacity:1.0000; stroke:none;">
<circle cx="69.1160" cy="38.8500" r="0.3810" /> 
</g>
<g style="fill:#FFFFFF; fill-opacity:1.0000; stroke:none;">
<circle cx="45.7660" cy="56.6300" r="0.3810" /> 
</g>
<g style="fill:#FFFFFF; fill-opacity:1.0000; stroke:none;">
<circle cx="81.3260" cy="54.0900" r="1.6000" /> 
</g>
<g style="fill:#FFFFFF; fill-opacity:1.0000; stroke:none;">
<circle cx="81.3260" cy="10.9100" r="1.6000" /> 
</g>
<g style="fill:#FFFFFF; fill-opacity:1.0000; stroke:none;">
<circle cx="20.3660" cy="9.7276" r="0.2500" /> 
</g>
<g style="fill:#FFFFFF; fill-opacity:1.0000; stroke:none;">
<circle cx="20.3660" cy="12.2276" r="0.2500" /> 
</g>
<g style="fill:#FFFFFF; fill-opacity:1.0000; stroke:none;">
<circle cx="33.7010" cy="52.9076" r="0.2500" /> 
</g>
<g style="fill:#FFFFFF; fill-opacity:1.0000; stroke:none;">
<circle cx="33.7010" cy="55.4076" r="0.2500" /> 
</g>
<g style="fill:#FFFFFF; fill-opacity:1.0000; stroke:none;">
<circle cx="2.5860" cy="22.3300" r="0.2500" /> 
</g>
<g style="fill:#FFFFFF; fill-opacity:1.0000; stroke:none;">
<circle cx="2.5860" cy="19.7900" r="0.2500" /> 
</g>
<g style="fill:#FFFFFF; fill-opacity:1.0000; stroke:none;">
<circle cx="2.5860" cy="17.2500" r="0.2500" /> 
</g>
<g style="fill:#FFFFFF; fill-opacity:1.0000; stroke:none;">
<circle cx="2.5860" cy="14.7100" r="0.2500" /> 
</g>
<g style="fill:#FFFFFF; fill-opacity:1.0000; stroke:none;">
<circle cx="2.5860" cy="26.7800" r="0.2500" /> 
</g>
<g style="fill:#FFFFFF; fill-opacity:1.0000; stroke:none;">
<circle cx="2.5860" cy="29.3200" r="0.2500" /> 
</g>
<g style="fill:#FFFFFF; fill-opacity:1.0000; stroke:none;">
<circle cx="20.3660" cy="17.3476" r="0.2500" /> 
</g>
<g style="fill:#FFFFFF; fill-opacity:1.0000; stroke:none;">
<circle cx="20.3660" cy="19.8476" r="0.2500" /> 
<path style="fill:none; 
stroke:#000000; stroke-width:0.0500; stroke-opacity:1; 
stroke-linecap:round; stroke-linejoin:round;fill:none"
d="M 0.0206,59.1700
46.0200,59.1700
46.0200,30.5950
68.8800,30.5950
68.8800,59.1700
79.4210,59.1700
79.4210,5.8300
0.0206,5.8300
Z" /> 
</g> 
</svg>
