<?xml version="1.0" standalone="no"?>
 <!DOCTYPE svg PUBLIC "-//W3C//DTD SVG 1.1//EN" 
 "http://www.w3.org/Graphics/SVG/1.1/DTD/svg11.dtd"> 
<svg
  xmlns:svg="http://www.w3.org/2000/svg"
  xmlns="http://www.w3.org/2000/svg"
  xmlns:xlink="http://www.w3.org/1999/xlink"
  version="1.1"
  width="96.3930mm" height="79.7814mm" viewBox="0.0000 0.0000 96.3930 79.7814">
<title>SVG Image created as main_v2-F_Cu.svg date 2024/08/05 17:30:54 </title>
  <desc>Image generated by PCBNEW </desc>
<g style="fill:#000000; fill-opacity:1.0000;stroke:#000000; stroke-opacity:1.0000;
stroke-linecap:round; stroke-linejoin:round;"
 transform="translate(0 0) scale(1 1)">
</g>
<g style="fill:none; 
stroke:#000000; stroke-width:0.2000; stroke-opacity:1; 
stroke-linecap:round; stroke-linejoin:round;">
<path d="M28.0169 72.4064 A25.8902 25.8902 0.0 0 0 22.1873 70.6843" />
<path d="M22.1873 70.6843 A25.9348 25.9348 0.0 0 0 13.4297 70.6850" />
<path d="M13.4297 70.6850 A25.7971 25.7971 0.0 0 0 7.6032 72.4117" />
<path d="M7.6032 72.4117 A25.8918 25.8918 0.0 0 0 2.6808 75.1974" />
<path d="M11.1906 79.2130
L5.5745 79.2130
" />
<path d="M2.0961 74.3861
L5.5745 79.2130
" />
<path d="M22.9560 79.2130
L12.6606 79.2130
" />
</g>
<g style="fill:none; 
stroke:#000000; stroke-width:0.1000; stroke-opacity:1; 
stroke-linecap:round; stroke-linejoin:round;">
<circle cx="11.2583" cy="75.2202" r="1.3000" /> 
<circle cx="24.3583" cy="75.2202" r="1.3000" /> 
</g>
<g style="fill:none; 
stroke:#000000; stroke-width:0.2000; stroke-opacity:1; 
stroke-linecap:round; stroke-linejoin:round;">
<path d="M24.4261 79.2130 A0.5999 0.5999 0.0 0 0 24.9698 78.8665" />
<path d="M24.4261 79.2130
L22.9560 79.2130
" />
<path d="M11.1906 79.2130
L12.6606 79.2130
" />
<path d="M28.4109 71.4872
L24.9699 78.8665
" />
<path style="fill:none; 
stroke:#000000; stroke-width:0.2000; stroke-opacity:1; 
stroke-linecap:round; stroke-linejoin:round;fill:none"
d="M 0.0966,59.6200
46.0960,59.6200
46.0960,31.0450
68.9560,31.0450
68.9560,59.6200
79.4970,59.6200
79.4970,6.2800
0.0966,6.2800
Z" /> 
</g>
<g style="fill:#000000; fill-opacity:1.0000; stroke:none;">
<circle cx="21.0770" cy="72.9550" r="0.2500" /> 
</g>
<g style="fill:#000000; fill-opacity:1.0000; stroke:none;">
<circle cx="14.5770" cy="72.9550" r="0.2500" /> 
</g>
<g style="fill:#000000; fill-opacity:1.0000; stroke:none;">
<circle cx="21.0770" cy="77.4550" r="0.2500" /> 
</g>
<g style="fill:#000000; fill-opacity:1.0000; stroke:none;">
<circle cx="14.5770" cy="77.4550" r="0.2500" /> 
</g>
<g style="fill:#000000; fill-opacity:1.0000; stroke:none;">
<circle cx="5.4232" cy="75.1725" r="0.2500" /> 
</g>
<g style="fill:#000000; fill-opacity:1.0000; stroke:none;">
<circle cx="6.8801" cy="77.2531" r="0.2500" /> 
</g>
<g style="fill:#000000; fill-opacity:1.0000; stroke:none;">
<circle cx="81.4020" cy="11.3600" r="1.6000" /> 
</g>
<g style="fill:#000000; fill-opacity:1.0000; stroke:none;">
<circle cx="81.4020" cy="54.5400" r="1.6000" /> 
</g>
<g style="fill:#000000; fill-opacity:1.0000; stroke:none;">
<circle cx="38.5070" cy="56.9274" r="0.2500" /> 
</g>
<g style="fill:#000000; fill-opacity:1.0000; stroke:none;">
<circle cx="38.5070" cy="54.4274" r="0.2500" /> 
</g>
<g style="fill:#000000; fill-opacity:1.0000; stroke:none;">
<circle cx="18.5370" cy="12.6300" r="0.2500" /> 
</g>
<g style="fill:#000000; fill-opacity:1.0000; stroke:none;">
<circle cx="18.5370" cy="10.1300" r="0.2500" /> 
</g>
<g style="fill:#000000; fill-opacity:1.0000; stroke:none;">
<circle cx="33.4270" cy="50.0300" r="0.2500" /> 
</g>
<g style="fill:#000000; fill-opacity:1.0000; stroke:none;">
<circle cx="30.9270" cy="50.0300" r="0.2500" /> 
</g>
<g style="fill:#000000; fill-opacity:1.0000; stroke:none;">
<circle cx="45.8420" cy="54.5400" r="0.3810" /> 
</g>
<g style="fill:#000000; fill-opacity:1.0000; stroke:none;">
<circle cx="45.8420" cy="39.3000" r="0.3810" /> 
</g>
<g style="fill:#000000; fill-opacity:1.0000; stroke:none;">
<circle cx="45.8420" cy="41.8400" r="0.3810" /> 
</g>
<g style="fill:#000000; fill-opacity:1.0000; stroke:none;">
<circle cx="69.1920" cy="54.5400" r="0.3810" /> 
</g>
<g style="fill:#000000; fill-opacity:1.0000; stroke:none;">
<circle cx="69.1920" cy="52.0000" r="0.3810" /> 
</g>
<g style="fill:#000000; fill-opacity:1.0000; stroke:none;">
<circle cx="69.1920" cy="49.4600" r="0.3810" /> 
</g>
<g style="fill:#000000; fill-opacity:1.0000; stroke:none;">
<circle cx="69.1920" cy="46.9200" r="0.3810" /> 
</g>
<g style="fill:#000000; fill-opacity:1.0000; stroke:none;">
<circle cx="45.8420" cy="52.0000" r="0.3810" /> 
</g>
<g style="fill:#000000; fill-opacity:1.0000; stroke:none;">
<circle cx="45.8420" cy="49.4600" r="0.3810" /> 
</g>
<g style="fill:#000000; fill-opacity:1.0000; stroke:none;">
<circle cx="45.8420" cy="46.9200" r="0.3810" /> 
</g>
<g style="fill:#000000; fill-opacity:1.0000; stroke:none;">
<circle cx="45.8420" cy="44.3800" r="0.3810" /> 
</g>
<g style="fill:#000000; fill-opacity:1.0000; stroke:none;">
<circle cx="69.1920" cy="44.3800" r="0.3810" /> 
</g>
<g style="fill:#000000; fill-opacity:1.0000; stroke:none;">
<circle cx="69.1920" cy="41.8400" r="0.3810" /> 
</g>
<g style="fill:#000000; fill-opacity:1.0000; stroke:none;">
<circle cx="69.1920" cy="57.0800" r="0.3810" /> 
</g>
<g style="fill:#000000; fill-opacity:1.0000; stroke:none;">
<circle cx="69.1920" cy="39.3000" r="0.3810" /> 
</g>
<g style="fill:#000000; fill-opacity:1.0000; stroke:none;">
<circle cx="45.8420" cy="57.0800" r="0.3810" /> 
</g>
<g style="fill:#000000; fill-opacity:1.0000; stroke:none;">
<circle cx="2.6620" cy="43.0350" r="0.2500" /> 
</g>
<g style="fill:#000000; fill-opacity:1.0000; stroke:none;">
<circle cx="2.6620" cy="40.4950" r="0.2500" /> 
</g>
<g style="fill:#000000; fill-opacity:1.0000; stroke:none;">
<circle cx="2.6620" cy="37.9550" r="0.2500" /> 
</g>
<g style="fill:#000000; fill-opacity:1.0000; stroke:none;">
<circle cx="2.6620" cy="35.4150" r="0.2500" /> 
</g>
<g style="fill:#000000; fill-opacity:1.0000; stroke:none;">
<circle cx="49.6409" cy="13.2351" r="0.2500" /> 
</g>
<g style="fill:#000000; fill-opacity:1.0000; stroke:none;">
<circle cx="56.6059" cy="13.2351" r="0.2500" /> 
</g>
<g style="fill:#000000; fill-opacity:1.0000; stroke:none;">
<circle cx="50.8909" cy="9.4251" r="0.2500" /> 
</g>
<g style="fill:#000000; fill-opacity:1.0000; stroke:none;">
<circle cx="55.3909" cy="9.4251" r="0.2500" /> 
</g>
<g style="fill:#000000; fill-opacity:1.0000; stroke:none;">
<circle cx="68.6320" cy="13.2351" r="0.2500" /> 
</g>
<g style="fill:#000000; fill-opacity:1.0000; stroke:none;">
<circle cx="75.5970" cy="13.2351" r="0.2500" /> 
</g>
<g style="fill:#000000; fill-opacity:1.0000; stroke:none;">
<circle cx="69.8820" cy="9.4251" r="0.2500" /> 
</g>
<g style="fill:#000000; fill-opacity:1.0000; stroke:none;">
<circle cx="74.3820" cy="9.4251" r="0.2500" /> 
</g>
<g style="fill:#000000; fill-opacity:1.0000; stroke:none;">
<circle cx="2.6620" cy="47.4850" r="0.2500" /> 
</g>
<g style="fill:#000000; fill-opacity:1.0000; stroke:none;">
<circle cx="2.6620" cy="50.0250" r="0.2500" /> 
</g>
<g style="fill:#000000; fill-opacity:1.0000; stroke:none;">
<circle cx="18.8220" cy="56.9274" r="0.2500" /> 
</g>
<g style="fill:#000000; fill-opacity:1.0000; stroke:none;">
<circle cx="18.8220" cy="54.4274" r="0.2500" /> 
</g>
<g style="fill:#000000; fill-opacity:1.0000; stroke:none;">
<circle cx="9.6470" cy="8.8200" r="0.2500" /> 
</g>
<g style="fill:#000000; fill-opacity:1.0000; stroke:none;">
<circle cx="9.6470" cy="11.3600" r="0.2500" /> 
</g>
<g style="fill:#000000; fill-opacity:1.0000; stroke:none;">
<circle cx="9.6470" cy="13.9000" r="0.2500" /> 
</g>
<g style="fill:#000000; fill-opacity:1.0000; stroke:none;">
<circle cx="9.6470" cy="16.4400" r="0.2500" /> 
</g>
<g style="fill:#000000; fill-opacity:1.0000; stroke:none;">
<circle cx="9.6470" cy="18.9800" r="0.2500" /> 
</g>
<g style="fill:#000000; fill-opacity:1.0000; stroke:none;">
<circle cx="9.6470" cy="21.5200" r="0.2500" /> 
</g>
<g style="fill:#000000; fill-opacity:1.0000; stroke:none;">
<circle cx="9.6470" cy="24.0600" r="0.2500" /> 
</g>
<g style="fill:#000000; fill-opacity:1.0000; stroke:none;">
<circle cx="9.6470" cy="26.6000" r="0.2500" /> 
</g>
<g style="fill:#000000; fill-opacity:1.0000; stroke:none;">
<circle cx="9.6470" cy="29.1400" r="0.2500" /> 
</g>
<g style="fill:#000000; fill-opacity:1.0000; stroke:none;">
<circle cx="9.6470" cy="31.6800" r="0.2500" /> 
</g>
<g style="fill:#000000; fill-opacity:1.0000; stroke:none;">
<circle cx="9.6470" cy="34.2200" r="0.2500" /> 
</g>
<g style="fill:#000000; fill-opacity:1.0000; stroke:none;">
<circle cx="9.6470" cy="36.7600" r="0.2500" /> 
</g>
<g style="fill:#000000; fill-opacity:1.0000; stroke:none;">
<circle cx="9.6470" cy="39.3000" r="0.2500" /> 
</g>
<g style="fill:#000000; fill-opacity:1.0000; stroke:none;">
<circle cx="9.6470" cy="41.8400" r="0.2500" /> 
</g>
<g style="fill:#000000; fill-opacity:1.0000; stroke:none;">
<circle cx="9.6470" cy="44.3800" r="0.2500" /> 
</g>
<g style="fill:#000000; fill-opacity:1.0000; stroke:none;">
<circle cx="9.6470" cy="46.9200" r="0.2500" /> 
</g>
<g style="fill:#000000; fill-opacity:1.0000; stroke:none;">
<circle cx="9.6470" cy="49.4600" r="0.2500" /> 
</g>
<g style="fill:#000000; fill-opacity:1.0000; stroke:none;">
<circle cx="9.6470" cy="52.0000" r="0.2500" /> 
</g>
<g style="fill:#000000; fill-opacity:1.0000; stroke:none;">
<circle cx="9.6470" cy="54.5400" r="0.2500" /> 
</g>
<g style="fill:#000000; fill-opacity:1.0000; stroke:none;">
<circle cx="9.6470" cy="57.0800" r="0.2500" /> 
</g>
<g style="fill:#000000; fill-opacity:1.0000; stroke:none;">
<circle cx="7.1070" cy="8.8200" r="0.2500" /> 
</g>
<g style="fill:#000000; fill-opacity:1.0000; stroke:none;">
<circle cx="7.1070" cy="11.3600" r="0.2500" /> 
</g>
<g style="fill:#000000; fill-opacity:1.0000; stroke:none;">
<circle cx="7.1070" cy="13.9000" r="0.2500" /> 
</g>
<g style="fill:#000000; fill-opacity:1.0000; stroke:none;">
<circle cx="7.1070" cy="16.4400" r="0.2500" /> 
</g>
<g style="fill:#000000; fill-opacity:1.0000; stroke:none;">
<circle cx="7.1070" cy="18.9800" r="0.2500" /> 
</g>
<g style="fill:#000000; fill-opacity:1.0000; stroke:none;">
<circle cx="7.1070" cy="21.5200" r="0.2500" /> 
</g>
<g style="fill:#000000; fill-opacity:1.0000; stroke:none;">
<circle cx="7.1070" cy="24.0600" r="0.2500" /> 
</g>
<g style="fill:#000000; fill-opacity:1.0000; stroke:none;">
<circle cx="7.1070" cy="26.6000" r="0.2500" /> 
</g>
<g style="fill:#000000; fill-opacity:1.0000; stroke:none;">
<circle cx="7.1070" cy="29.1400" r="0.2500" /> 
</g>
<g style="fill:#000000; fill-opacity:1.0000; stroke:none;">
<circle cx="7.1070" cy="31.6800" r="0.2500" /> 
</g>
<g style="fill:#000000; fill-opacity:1.0000; stroke:none;">
<circle cx="7.1070" cy="34.2200" r="0.2500" /> 
</g>
<g style="fill:#000000; fill-opacity:1.0000; stroke:none;">
<circle cx="7.1070" cy="36.7600" r="0.2500" /> 
</g>
<g style="fill:#000000; fill-opacity:1.0000; stroke:none;">
<circle cx="7.1070" cy="39.3000" r="0.2500" /> 
</g>
<g style="fill:#000000; fill-opacity:1.0000; stroke:none;">
<circle cx="7.1070" cy="41.8400" r="0.2500" /> 
</g>
<g style="fill:#000000; fill-opacity:1.0000; stroke:none;">
<circle cx="7.1070" cy="44.3800" r="0.2500" /> 
</g>
<g style="fill:#000000; fill-opacity:1.0000; stroke:none;">
<circle cx="7.1070" cy="46.9200" r="0.2500" /> 
</g>
<g style="fill:#000000; fill-opacity:1.0000; stroke:none;">
<circle cx="7.1070" cy="49.4600" r="0.2500" /> 
</g>
<g style="fill:#000000; fill-opacity:1.0000; stroke:none;">
<circle cx="7.1070" cy="52.0000" r="0.2500" /> 
</g>
<g style="fill:#000000; fill-opacity:1.0000; stroke:none;">
<circle cx="7.1070" cy="54.5400" r="0.2500" /> 
</g>
<g style="fill:#000000; fill-opacity:1.0000; stroke:none;">
<circle cx="7.1070" cy="57.0800" r="0.2500" /> 
</g>
<g style="fill:#000000; fill-opacity:1.0000; stroke:none;">
<circle cx="4.5670" cy="57.0800" r="0.2500" /> 
</g>
<g style="fill:#000000; fill-opacity:1.0000; stroke:none;">
<circle cx="12.1870" cy="57.0800" r="0.2500" /> 
</g>
<g style="fill:#000000; fill-opacity:1.0000; stroke:none;">
<circle cx="4.5670" cy="54.5400" r="0.2500" /> 
</g>
<g style="fill:#000000; fill-opacity:1.0000; stroke:none;">
<circle cx="12.1870" cy="54.5400" r="0.2500" /> 
</g>
<g style="fill:#000000; fill-opacity:1.0000; stroke:none;">
<circle cx="4.5670" cy="31.6800" r="0.2500" /> 
</g>
<g style="fill:#000000; fill-opacity:1.0000; stroke:none;">
<circle cx="12.1870" cy="31.6800" r="0.2500" /> 
</g>
<g style="fill:#000000; fill-opacity:1.0000; stroke:none;">
<circle cx="4.5670" cy="29.1400" r="0.2500" /> 
</g>
<g style="fill:#000000; fill-opacity:1.0000; stroke:none;">
<circle cx="12.1870" cy="29.1400" r="0.2500" /> 
</g>
<g style="fill:#000000; fill-opacity:1.0000; stroke:none;">
<circle cx="4.5670" cy="26.6000" r="0.2500" /> 
</g>
<g style="fill:#000000; fill-opacity:1.0000; stroke:none;">
<circle cx="12.1870" cy="26.6000" r="0.2500" /> 
</g>
<g style="fill:#000000; fill-opacity:1.0000; stroke:none;">
<circle cx="4.5670" cy="24.0600" r="0.2500" /> 
</g>
<g style="fill:#000000; fill-opacity:1.0000; stroke:none;">
<circle cx="12.1870" cy="24.0600" r="0.2500" /> 
</g>
<g style="fill:#000000; fill-opacity:1.0000; stroke:none;">
<circle cx="4.5670" cy="21.5200" r="0.2500" /> 
</g>
<g style="fill:#000000; fill-opacity:1.0000; stroke:none;">
<circle cx="12.1870" cy="21.5200" r="0.2500" /> 
</g>
<g style="fill:#000000; fill-opacity:1.0000; stroke:none;">
<circle cx="4.5670" cy="18.9800" r="0.2500" /> 
</g>
<g style="fill:#000000; fill-opacity:1.0000; stroke:none;">
<circle cx="12.1870" cy="18.9800" r="0.2500" /> 
</g>
<g style="fill:#000000; fill-opacity:1.0000; stroke:none;">
<circle cx="4.5670" cy="11.3600" r="0.2500" /> 
</g>
<g style="fill:#000000; fill-opacity:1.0000; stroke:none;">
<circle cx="12.1870" cy="11.3600" r="0.2500" /> 
</g>
<g style="fill:#000000; fill-opacity:1.0000; stroke:none;">
<circle cx="4.5670" cy="8.8200" r="0.2500" /> 
</g>
<g style="fill:#000000; fill-opacity:1.0000; stroke:none;">
<circle cx="12.1870" cy="8.8200" r="0.2500" /> 
<path style="fill:#000000; fill-opacity:1.0000; 
stroke:#000000; stroke-width:0.2000; stroke-opacity:1; 
stroke-linecap:round; stroke-linejoin:round;fill-rule:evenodd;"
d="M 10.4065,72.0156
7.5509,73.0949
5.4808,74.3479
6.1833,75.4420
7.2774,74.6588
8.5178,74.9836
9.6870,77.0495
12.2531,77.0578
15.2760,73.4678
15.2299,72.3622
13.4570,71.3675
Z" /> 
</g>
<g style="fill:none; 
stroke:#000000; stroke-width:0.3000; stroke-opacity:1; 
stroke-linecap:round; stroke-linejoin:round;">
<text x="68.7020" y="20.2500"
transform="scale(-1 1) translate(-137.404094 0)"
textLength="10.5286" font-size="2.0000" lengthAdjust="spacingAndGlyphs"
text-anchor="start" opacity="0" stroke-opacity="0">PENDANT</text>
<g class="stroked-text"><desc>PENDANT</desc>
<path d="M68.1475 20.0508
L68.1475 18.5508
" />
<path d="M68.1475 18.5508
L67.5761 18.5508
" />
<path d="M67.5761 18.5508
L67.4333 18.6223
" />
<path d="M67.4333 18.6223
L67.3618 18.6937
" />
<path d="M67.3618 18.6937
L67.2904 18.8365
" />
<path d="M67.2904 18.8365
L67.2904 19.0508
" />
<path d="M67.2904 19.0508
L67.3618 19.1937
" />
<path d="M67.3618 19.1937
L67.4333 19.2651
" />
<path d="M67.4333 19.2651
L67.5761 19.3365
" />
<path d="M67.5761 19.3365
L68.1475 19.3365
" />
<path d="M66.6475 19.2651
L66.1475 19.2651
" />
<path d="M65.9333 20.0508
L66.6475 20.0508
" />
<path d="M66.6475 20.0508
L66.6475 18.5508
" />
<path d="M66.6475 18.5508
L65.9333 18.5508
" />
<path d="M65.2904 20.0508
L65.2904 18.5508
" />
<path d="M65.2904 18.5508
L64.4333 20.0508
" />
<path d="M64.4333 20.0508
L64.4333 18.5508
" />
<path d="M63.7190 20.0508
L63.7190 18.5508
" />
<path d="M63.7190 18.5508
L63.3618 18.5508
" />
<path d="M63.3618 18.5508
L63.1475 18.6223
" />
<path d="M63.1475 18.6223
L63.0047 18.7651
" />
<path d="M63.0047 18.7651
L62.9332 18.9080
" />
<path d="M62.9332 18.9080
L62.8618 19.1937
" />
<path d="M62.8618 19.1937
L62.8618 19.4080
" />
<path d="M62.8618 19.4080
L62.9332 19.6937
" />
<path d="M62.9332 19.6937
L63.0047 19.8365
" />
<path d="M63.0047 19.8365
L63.1475 19.9794
" />
<path d="M63.1475 19.9794
L63.3618 20.0508
" />
<path d="M63.3618 20.0508
L63.7190 20.0508
" />
<path d="M62.2904 19.6223
L61.5761 19.6223
" />
<path d="M62.4332 20.0508
L61.9332 18.5508
" />
<path d="M61.9332 18.5508
L61.4332 20.0508
" />
<path d="M60.9333 20.0508
L60.9333 18.5508
" />
<path d="M60.9333 18.5508
L60.0761 20.0508
" />
<path d="M60.0761 20.0508
L60.0761 18.5508
" />
<path d="M59.5761 18.5508
L58.7190 18.5508
" />
<path d="M59.1475 20.0508
L59.1475 18.5508
" />
</g><text x="68.0670" y="22.7900"
transform="scale(-1 1) translate(-136.134094 0)"
textLength="5.4571" font-size="2.0000" lengthAdjust="spacingAndGlyphs"
text-anchor="start" opacity="0" stroke-opacity="0">V1.1</text>
<g class="stroked-text"><desc>V1.1</desc>
<path d="M67.7268 21.0908
L67.2268 22.5908
" />
<path d="M67.2268 22.5908
L66.7268 21.0908
" />
<path d="M65.4411 22.5908
L66.2983 22.5908
" />
<path d="M65.8697 22.5908
L65.8697 21.0908
" />
<path d="M65.8697 21.0908
L66.0125 21.3051
" />
<path d="M66.0125 21.3051
L66.1554 21.4480
" />
<path d="M66.1554 21.4480
L66.2983 21.5194
" />
<path d="M64.7983 22.4480
L64.7268 22.5194
" />
<path d="M64.7268 22.5194
L64.7983 22.5908
" />
<path d="M64.7983 22.5908
L64.8697 22.5194
" />
<path d="M64.8697 22.5194
L64.7983 22.4480
" />
<path d="M64.7983 22.4480
L64.7983 22.5908
" />
<path d="M63.2983 22.5908
L64.1554 22.5908
" />
<path d="M63.7268 22.5908
L63.7268 21.0908
" />
<path d="M63.7268 21.0908
L63.8697 21.3051
" />
<path d="M63.8697 21.3051
L64.0125 21.4480
" />
<path d="M64.0125 21.4480
L64.1554 21.5194
" />
</g></g>
<g style="fill:#000000; fill-opacity:1.0000; stroke:none;">
<circle cx="21.0770" cy="72.9550" r="1.0000" /> 
</g>
<g style="fill:#000000; fill-opacity:1.0000; stroke:none;">
<circle cx="14.5770" cy="72.9550" r="1.0000" /> 
</g>
<g style="fill:#000000; fill-opacity:1.0000; stroke:none;">
<circle cx="21.0770" cy="77.4550" r="1.0000" /> 
</g>
<g style="fill:#000000; fill-opacity:1.0000; stroke:none;">
<circle cx="14.5770" cy="77.4550" r="1.0000" /> 
<path style="fill:#000000; fill-opacity:1.0000; stroke:none;fill-rule:evenodd;"
d="M 7.5491,74.7216
6.5740,73.3291
3.2974,75.6234
4.2725,77.0159
Z" /> 
</g>
<g style="fill:none; 
stroke:#000000; stroke-width:1.7000; stroke-opacity:1; 
stroke-linecap:round; stroke-linejoin:round;">
<path d="M7.8221 76.5935
L5.9381 77.9128
" />
<path style="fill:#000000; fill-opacity:1.0000; stroke:none;fill-rule:evenodd;"
d="M 24.9020,25.6500
24.9977,25.6310
25.0788,25.5768
25.1330,25.4957
25.1520,25.4000
25.1520,24.5750
25.1330,24.4793
25.0788,24.3982
24.9977,24.3440
24.9020,24.3250
23.6020,24.3250
23.5064,24.3440
23.4253,24.3982
23.3711,24.4793
23.3520,24.5750
23.3520,25.4000
23.3711,25.4957
23.4253,25.5768
23.5064,25.6310
23.6020,25.6500
Z" /> 
<path style="fill:#000000; fill-opacity:1.0000; stroke:none;fill-rule:evenodd;"
d="M 24.9020,22.5250
24.9977,22.5060
25.0788,22.4518
25.1330,22.3707
25.1520,22.2750
25.1520,21.4500
25.1330,21.3543
25.0788,21.2732
24.9977,21.2190
24.9020,21.2000
23.6020,21.2000
23.5064,21.2190
23.4253,21.2732
23.3711,21.3543
23.3520,21.4500
23.3520,22.2750
23.3711,22.3707
23.4253,22.4518
23.5064,22.5060
23.6020,22.5250
Z" /> 
<path style="fill:#000000; fill-opacity:1.0000; stroke:none;fill-rule:evenodd;"
d="M 18.5470,47.2600
18.4514,47.2790
18.3703,47.3332
18.3161,47.4143
18.2970,47.5100
18.2970,48.3100
18.3161,48.4057
18.3703,48.4868
18.4514,48.5410
18.5470,48.5600
19.7970,48.5600
19.8927,48.5410
19.9738,48.4868
20.0280,48.4057
20.0470,48.3100
20.0470,47.5100
20.0280,47.4143
19.9738,47.3332
19.8927,47.2790
19.7970,47.2600
Z" /> 
<path style="fill:#000000; fill-opacity:1.0000; stroke:none;fill-rule:evenodd;"
d="M 18.5470,50.3600
18.4514,50.3790
18.3703,50.4332
18.3161,50.5143
18.2970,50.6100
18.2970,51.4100
18.3161,51.5057
18.3703,51.5868
18.4514,51.6410
18.5470,51.6600
19.7970,51.6600
19.8927,51.6410
19.9738,51.5868
20.0280,51.5057
20.0470,51.4100
20.0470,50.6100
20.0280,50.5143
19.9738,50.4332
19.8927,50.3790
19.7970,50.3600
Z" /> 
<path style="fill:#000000; fill-opacity:1.0000; stroke:none;fill-rule:evenodd;"
d="M 14.7370,18.6850
14.6414,18.7040
14.5603,18.7582
14.5061,18.8393
14.4870,18.9350
14.4870,19.7350
14.5061,19.8307
14.5603,19.9118
14.6414,19.9660
14.7370,19.9850
15.9870,19.9850
16.0827,19.9660
16.1638,19.9118
16.2180,19.8307
16.2370,19.7350
16.2370,18.9350
16.2180,18.8393
16.1638,18.7582
16.0827,18.7040
15.9870,18.6850
Z" /> 
<path style="fill:#000000; fill-opacity:1.0000; stroke:none;fill-rule:evenodd;"
d="M 14.7370,21.7850
14.6414,21.8040
14.5603,21.8582
14.5061,21.9393
14.4870,22.0350
14.4870,22.8350
14.5061,22.9307
14.5603,23.0118
14.6414,23.0660
14.7370,23.0850
15.9870,23.0850
16.0827,23.0660
16.1638,23.0118
16.2180,22.9307
16.2370,22.8350
16.2370,22.0350
16.2180,21.9393
16.1638,21.8582
16.0827,21.8040
15.9870,21.7850
Z" /> 
<path style="fill:#000000; fill-opacity:1.0000; stroke:none;fill-rule:evenodd;"
d="M 26.6420,18.0700
26.5846,18.0814
26.5360,18.1139
26.5035,18.1626
26.4920,18.2200
26.4920,19.8700
26.5035,19.9274
26.5360,19.9761
26.5846,20.0086
26.6420,20.0200
26.9420,20.0200
26.9994,20.0086
27.0481,19.9761
27.0806,19.9274
27.0920,19.8700
27.0920,18.2200
27.0806,18.1626
27.0481,18.1139
26.9994,18.0814
26.9420,18.0700
Z" /> 
<path style="fill:#000000; fill-opacity:1.0000; stroke:none;fill-rule:evenodd;"
d="M 27.9120,18.0700
27.8546,18.0814
27.8060,18.1139
27.7735,18.1626
27.7620,18.2200
27.7620,19.8700
27.7735,19.9274
27.8060,19.9761
27.8546,20.0086
27.9120,20.0200
28.2120,20.0200
28.2694,20.0086
28.3181,19.9761
28.3506,19.9274
28.3620,19.8700
28.3620,18.2200
28.3506,18.1626
28.3181,18.1139
28.2694,18.0814
28.2120,18.0700
Z" /> 
<path style="fill:#000000; fill-opacity:1.0000; stroke:none;fill-rule:evenodd;"
d="M 29.1820,18.0700
29.1246,18.0814
29.0760,18.1139
29.0435,18.1626
29.0320,18.2200
29.0320,19.8700
29.0435,19.9274
29.0760,19.9761
29.1246,20.0086
29.1820,20.0200
29.4820,20.0200
29.5394,20.0086
29.5881,19.9761
29.6206,19.9274
29.6320,19.8700
29.6320,18.2200
29.6206,18.1626
29.5881,18.1139
29.5394,18.0814
29.4820,18.0700
Z" /> 
<path style="fill:#000000; fill-opacity:1.0000; stroke:none;fill-rule:evenodd;"
d="M 30.4520,18.0700
30.3946,18.0814
30.3460,18.1139
30.3135,18.1626
30.3020,18.2200
30.3020,19.8700
30.3135,19.9274
30.3460,19.9761
30.3946,20.0086
30.4520,20.0200
30.7520,20.0200
30.8094,20.0086
30.8581,19.9761
30.8906,19.9274
30.9020,19.8700
30.9020,18.2200
30.8906,18.1626
30.8581,18.1139
30.8094,18.0814
30.7520,18.0700
Z" /> 
<path style="fill:#000000; fill-opacity:1.0000; stroke:none;fill-rule:evenodd;"
d="M 30.4520,23.0200
30.3946,23.0314
30.3460,23.0639
30.3135,23.1126
30.3020,23.1700
30.3020,24.8200
30.3135,24.8774
30.3460,24.9261
30.3946,24.9586
30.4520,24.9700
30.7520,24.9700
30.8094,24.9586
30.8581,24.9261
30.8906,24.8774
30.9020,24.8200
30.9020,23.1700
30.8906,23.1126
30.8581,23.0639
30.8094,23.0314
30.7520,23.0200
Z" /> 
<path style="fill:#000000; fill-opacity:1.0000; stroke:none;fill-rule:evenodd;"
d="M 29.1820,23.0200
29.1246,23.0314
29.0760,23.0639
29.0435,23.1126
29.0320,23.1700
29.0320,24.8200
29.0435,24.8774
29.0760,24.9261
29.1246,24.9586
29.1820,24.9700
29.4820,24.9700
29.5394,24.9586
29.5881,24.9261
29.6206,24.8774
29.6320,24.8200
29.6320,23.1700
29.6206,23.1126
29.5881,23.0639
29.5394,23.0314
29.4820,23.0200
Z" /> 
<path style="fill:#000000; fill-opacity:1.0000; stroke:none;fill-rule:evenodd;"
d="M 27.9120,23.0200
27.8546,23.0314
27.8060,23.0639
27.7735,23.1126
27.7620,23.1700
27.7620,24.8200
27.7735,24.8774
27.8060,24.9261
27.8546,24.9586
27.9120,24.9700
28.2120,24.9700
28.2694,24.9586
28.3181,24.9261
28.3506,24.8774
28.3620,24.8200
28.3620,23.1700
28.3506,23.1126
28.3181,23.0639
28.2694,23.0314
28.2120,23.0200
Z" /> 
<path style="fill:#000000; fill-opacity:1.0000; stroke:none;fill-rule:evenodd;"
d="M 26.6420,23.0200
26.5846,23.0314
26.5360,23.0639
26.5035,23.1126
26.4920,23.1700
26.4920,24.8200
26.5035,24.8774
26.5360,24.9261
26.5846,24.9586
26.6420,24.9700
26.9420,24.9700
26.9994,24.9586
27.0481,24.9261
27.0806,24.8774
27.0920,24.8200
27.0920,23.1700
27.0806,23.1126
27.0481,23.0639
26.9994,23.0314
26.9420,23.0200
Z" /> 
<path style="fill:#000000; fill-opacity:1.0000; stroke:none;fill-rule:evenodd;"
d="M 25.1820,17.7200
25.1630,17.6243
25.1088,17.5432
25.0277,17.4890
24.9320,17.4700
24.1320,17.4700
24.0364,17.4890
23.9553,17.5432
23.9011,17.6243
23.8820,17.7200
23.8820,18.9700
23.9011,19.0657
23.9553,19.1468
24.0364,19.2010
24.1320,19.2200
24.9320,19.2200
25.0277,19.2010
25.1088,19.1468
25.1630,19.0657
25.1820,18.9700
Z" /> 
<path style="fill:#000000; fill-opacity:1.0000; stroke:none;fill-rule:evenodd;"
d="M 22.0820,17.7200
22.0630,17.6243
22.0088,17.5432
21.9277,17.4890
21.8320,17.4700
21.0320,17.4700
20.9364,17.4890
20.8553,17.5432
20.8011,17.6243
20.7820,17.7200
20.7820,18.9700
20.8011,19.0657
20.8553,19.1468
20.9364,19.2010
21.0320,19.2200
21.8320,19.2200
21.9277,19.2010
22.0088,19.1468
22.0630,19.0657
22.0820,18.9700
Z" /> 
<path style="fill:#000000; fill-opacity:1.0000; stroke:none;fill-rule:evenodd;"
d="M 20.4270,49.7750
20.3314,49.7940
20.2503,49.8482
20.1961,49.9293
20.1770,50.0250
20.1770,50.8500
20.1961,50.9457
20.2503,51.0268
20.3314,51.0810
20.4270,51.1000
21.7270,51.1000
21.8227,51.0810
21.9038,51.0268
21.9580,50.9457
21.9770,50.8500
21.9770,50.0250
21.9580,49.9293
21.9038,49.8482
21.8227,49.7940
21.7270,49.7750
Z" /> 
<path style="fill:#000000; fill-opacity:1.0000; stroke:none;fill-rule:evenodd;"
d="M 20.4270,52.9000
20.3314,52.9190
20.2503,52.9732
20.1961,53.0543
20.1770,53.1500
20.1770,53.9750
20.1961,54.0707
20.2503,54.1518
20.3314,54.2060
20.4270,54.2250
21.7270,54.2250
21.8227,54.2060
21.9038,54.1518
21.9580,54.0707
21.9770,53.9750
21.9770,53.1500
21.9580,53.0543
21.9038,52.9732
21.8227,52.9190
21.7270,52.9000
Z" /> 
<path style="fill:#000000; fill-opacity:1.0000; stroke:none;fill-rule:evenodd;"
d="M 53.7060,20.4800
53.8017,20.4610
53.8828,20.4068
53.9370,20.3257
53.9560,20.2300
53.9560,19.4300
53.9370,19.3343
53.8828,19.2532
53.8017,19.1990
53.7060,19.1800
52.4560,19.1800
52.3604,19.1990
52.2793,19.2532
52.2251,19.3343
52.2060,19.4300
52.2060,20.2300
52.2251,20.3257
52.2793,20.4068
52.3604,20.4610
52.4560,20.4800
Z" /> 
<path style="fill:#000000; fill-opacity:1.0000; stroke:none;fill-rule:evenodd;"
d="M 53.7060,17.3800
53.8017,17.3610
53.8828,17.3068
53.9370,17.2257
53.9560,17.1300
53.9560,16.3300
53.9370,16.2343
53.8828,16.1532
53.8017,16.0990
53.7060,16.0800
52.4560,16.0800
52.3604,16.0990
52.2793,16.1532
52.2251,16.2343
52.2060,16.3300
52.2060,17.1300
52.2251,17.2257
52.2793,17.3068
52.3604,17.3610
52.4560,17.3800
Z" /> 
<path style="fill:#000000; fill-opacity:1.0000; stroke:none;fill-rule:evenodd;"
d="M 27.4370,28.2100
27.3414,28.2290
27.2603,28.2832
27.2061,28.3643
27.1870,28.4600
27.1870,29.2600
27.2061,29.3557
27.2603,29.4368
27.3414,29.4910
27.4370,29.5100
28.6870,29.5100
28.7827,29.4910
28.8638,29.4368
28.9180,29.3557
28.9370,29.2600
28.9370,28.4600
28.9180,28.3643
28.8638,28.2832
28.7827,28.2290
28.6870,28.2100
Z" /> 
<path style="fill:#000000; fill-opacity:1.0000; stroke:none;fill-rule:evenodd;"
d="M 27.4370,31.3100
27.3414,31.3290
27.2603,31.3832
27.2061,31.4643
27.1870,31.5600
27.1870,32.3600
27.2061,32.4557
27.2603,32.5368
27.3414,32.5910
27.4370,32.6100
28.6870,32.6100
28.7827,32.5910
28.8638,32.5368
28.9180,32.4557
28.9370,32.3600
28.9370,31.5600
28.9180,31.4643
28.8638,31.3832
28.7827,31.3290
28.6870,31.3100
Z" /> 
<path style="fill:#000000; fill-opacity:1.0000; stroke:none;fill-rule:evenodd;"
d="M 31.2470,26.3050
31.1514,26.3240
31.0703,26.3782
31.0161,26.4593
30.9970,26.5550
30.9970,27.3550
31.0161,27.4507
31.0703,27.5318
31.1514,27.5860
31.2470,27.6050
32.4970,27.6050
32.5927,27.5860
32.6738,27.5318
32.7280,27.4507
32.7470,27.3550
32.7470,26.5550
32.7280,26.4593
32.6738,26.3782
32.5927,26.3240
32.4970,26.3050
Z" /> 
<path style="fill:#000000; fill-opacity:1.0000; stroke:none;fill-rule:evenodd;"
d="M 31.2470,29.4050
31.1514,29.4240
31.0703,29.4782
31.0161,29.5593
30.9970,29.6550
30.9970,30.4550
31.0161,30.5507
31.0703,30.6318
31.1514,30.6860
31.2470,30.7050
32.4970,30.7050
32.5927,30.6860
32.6738,30.6318
32.7280,30.5507
32.7470,30.4550
32.7470,29.6550
32.7280,29.5593
32.6738,29.4782
32.5927,29.4240
32.4970,29.4050
Z" /> 
<path style="fill:#000000; fill-opacity:1.0000; stroke:none;fill-rule:evenodd;"
d="M 72.7870,20.4800
72.8827,20.4610
72.9638,20.4068
73.0180,20.3257
73.0370,20.2300
73.0370,19.4300
73.0180,19.3343
72.9638,19.2532
72.8827,19.1990
72.7870,19.1800
71.5370,19.1800
71.4414,19.1990
71.3603,19.2532
71.3061,19.3343
71.2870,19.4300
71.2870,20.2300
71.3061,20.3257
71.3603,20.4068
71.4414,20.4610
71.5370,20.4800
Z" /> 
<path style="fill:#000000; fill-opacity:1.0000; stroke:none;fill-rule:evenodd;"
d="M 72.7870,17.3800
72.8827,17.3610
72.9638,17.3068
73.0180,17.2257
73.0370,17.1300
73.0370,16.3300
73.0180,16.2343
72.9638,16.1532
72.8827,16.0990
72.7870,16.0800
71.5370,16.0800
71.4414,16.0990
71.3603,16.1532
71.3061,16.2343
71.2870,16.3300
71.2870,17.1300
71.3061,17.2257
71.3603,17.3068
71.4414,17.3610
71.5370,17.3800
Z" /> 
<path style="fill:#000000; fill-opacity:1.0000; stroke:none;fill-rule:evenodd;"
d="M 35.7870,25.7950
35.7985,25.8524
35.8310,25.9011
35.8796,25.9336
35.9370,25.9450
36.9620,25.9450
37.0194,25.9336
37.0681,25.9011
37.1006,25.8524
37.1120,25.7950
37.1120,25.4950
37.1006,25.4376
37.0681,25.3889
37.0194,25.3564
36.9620,25.3450
35.9370,25.3450
35.8796,25.3564
35.8310,25.3889
35.7985,25.4376
35.7870,25.4950
Z" /> 
<path style="fill:#000000; fill-opacity:1.0000; stroke:none;fill-rule:evenodd;"
d="M 35.7870,24.8450
35.7985,24.9024
35.8310,24.9511
35.8796,24.9836
35.9370,24.9950
36.9620,24.9950
37.0194,24.9836
37.0681,24.9511
37.1006,24.9024
37.1120,24.8450
37.1120,24.5450
37.1006,24.4876
37.0681,24.4389
37.0194,24.4064
36.9620,24.3950
35.9370,24.3950
35.8796,24.4064
35.8310,24.4389
35.7985,24.4876
35.7870,24.5450
Z" /> 
<path style="fill:#000000; fill-opacity:1.0000; stroke:none;fill-rule:evenodd;"
d="M 35.7870,23.8950
35.7985,23.9524
35.8310,24.0011
35.8796,24.0336
35.9370,24.0450
36.9620,24.0450
37.0194,24.0336
37.0681,24.0011
37.1006,23.9524
37.1120,23.8950
37.1120,23.5950
37.1006,23.5376
37.0681,23.4889
37.0194,23.4564
36.9620,23.4450
35.9370,23.4450
35.8796,23.4564
35.8310,23.4889
35.7985,23.5376
35.7870,23.5950
Z" /> 
<path style="fill:#000000; fill-opacity:1.0000; stroke:none;fill-rule:evenodd;"
d="M 38.0620,23.8950
38.0735,23.9524
38.1060,24.0011
38.1546,24.0336
38.2120,24.0450
39.2370,24.0450
39.2944,24.0336
39.3431,24.0011
39.3756,23.9524
39.3870,23.8950
39.3870,23.5950
39.3756,23.5376
39.3431,23.4889
39.2944,23.4564
39.2370,23.4450
38.2120,23.4450
38.1546,23.4564
38.1060,23.4889
38.0735,23.5376
38.0620,23.5950
Z" /> 
<path style="fill:#000000; fill-opacity:1.0000; stroke:none;fill-rule:evenodd;"
d="M 38.0620,25.7950
38.0735,25.8524
38.1060,25.9011
38.1546,25.9336
38.2120,25.9450
39.2370,25.9450
39.2944,25.9336
39.3431,25.9011
39.3756,25.8524
39.3870,25.7950
39.3870,25.4950
39.3756,25.4376
39.3431,25.3889
39.2944,25.3564
39.2370,25.3450
38.2120,25.3450
38.1546,25.3564
38.1060,25.3889
38.0735,25.4376
38.0620,25.4950
Z" /> 
<path style="fill:#000000; fill-opacity:1.0000; stroke:none;fill-rule:evenodd;"
d="M 20.2120,18.5150
20.2006,18.4576
20.1681,18.4089
20.1195,18.3764
20.0620,18.3650
18.8870,18.3650
18.8296,18.3764
18.7810,18.4089
18.7485,18.4576
18.7370,18.5150
18.7370,18.8150
18.7485,18.8724
18.7810,18.9211
18.8296,18.9536
18.8870,18.9650
20.0620,18.9650
20.1195,18.9536
20.1681,18.9211
20.2006,18.8724
20.2120,18.8150
Z" /> 
<path style="fill:#000000; fill-opacity:1.0000; stroke:none;fill-rule:evenodd;"
d="M 20.2120,20.4150
20.2006,20.3576
20.1681,20.3089
20.1195,20.2764
20.0620,20.2650
18.8870,20.2650
18.8296,20.2764
18.7810,20.3089
18.7485,20.3576
18.7370,20.4150
18.7370,20.7150
18.7485,20.7724
18.7810,20.8211
18.8296,20.8536
18.8870,20.8650
20.0620,20.8650
20.1195,20.8536
20.1681,20.8211
20.2006,20.7724
20.2120,20.7150
Z" /> 
<path style="fill:#000000; fill-opacity:1.0000; stroke:none;fill-rule:evenodd;"
d="M 18.3370,19.4650
18.3256,19.4076
18.2931,19.3589
18.2445,19.3264
18.1870,19.3150
17.0120,19.3150
16.9546,19.3264
16.9060,19.3589
16.8735,19.4076
16.8620,19.4650
16.8620,19.7650
16.8735,19.8224
16.9060,19.8711
16.9546,19.9036
17.0120,19.9150
18.1870,19.9150
18.2445,19.9036
18.2931,19.8711
18.3256,19.8224
18.3370,19.7650
Z" /> 
<path style="fill:#000000; fill-opacity:1.0000; stroke:none;fill-rule:evenodd;"
d="M 37.7070,57.7274
39.3070,57.7274
39.3070,56.1274
37.7070,56.1274
Z" /> 
</g>
<g style="fill:#000000; fill-opacity:1.0000; stroke:none;">
<circle cx="38.5070" cy="54.4274" r="0.8000" /> 
<path style="fill:#000000; fill-opacity:1.0000; stroke:none;fill-rule:evenodd;"
d="M 17.7370,13.4300
19.3370,13.4300
19.3370,11.8300
17.7370,11.8300
Z" /> 
</g>
<g style="fill:#000000; fill-opacity:1.0000; stroke:none;">
<circle cx="18.5370" cy="10.1300" r="0.8000" /> 
<path style="fill:#000000; fill-opacity:1.0000; stroke:none;fill-rule:evenodd;"
d="M 34.2270,50.8300
34.2270,49.2300
32.6270,49.2300
32.6270,50.8300
Z" /> 
</g>
<g style="fill:#000000; fill-opacity:1.0000; stroke:none;">
<circle cx="30.9270" cy="50.0300" r="0.8000" /> 
</g>
<g style="fill:none; 
stroke:#000000; stroke-width:1.8000; stroke-opacity:1; 
stroke-linecap:round; stroke-linejoin:round;">
<path d="M45.2420 54.5400
L46.4420 54.5400
" />
<path d="M45.2420 39.3000
L46.4420 39.3000
" />
<path d="M45.2420 41.8400
L46.4420 41.8400
" />
<path d="M68.5920 54.5400
L69.7920 54.5400
" />
<path d="M68.5920 52.0000
L69.7920 52.0000
" />
<path d="M68.5920 49.4600
L69.7920 49.4600
" />
<path d="M68.5920 46.9200
L69.7920 46.9200
" />
<path d="M45.2420 52.0000
L46.4420 52.0000
" />
<path d="M45.2420 49.4600
L46.4420 49.4600
" />
<path d="M45.2420 46.9200
L46.4420 46.9200
" />
<path d="M45.2420 44.3800
L46.4420 44.3800
" />
<path d="M68.5920 44.3800
L69.7920 44.3800
" />
<path d="M68.5920 41.8400
L69.7920 41.8400
" />
<path d="M68.5920 57.0800
L69.7920 57.0800
" />
<path d="M68.5920 39.3000
L69.7920 39.3000
" />
<path d="M45.2420 57.0800
L46.4420 57.0800
" />
<path style="fill:#000000; fill-opacity:1.0000; stroke:none;fill-rule:evenodd;"
d="M 4.9120,42.6100
4.8912,42.4787
4.8309,42.3602
4.7369,42.2662
4.6184,42.2058
4.4870,42.1850
0.8370,42.1850
0.7057,42.2058
0.5872,42.2662
0.4932,42.3602
0.4328,42.4787
0.4120,42.6100
0.4120,43.4600
0.4328,43.5913
0.4932,43.7098
0.5872,43.8038
0.7057,43.8642
0.8370,43.8850
4.4870,43.8850
4.6184,43.8642
4.7369,43.8038
4.8309,43.7098
4.8912,43.5913
4.9120,43.4600
Z" /> 
<path style="fill:#000000; fill-opacity:1.0000; stroke:none;fill-rule:evenodd;"
d="M 4.9120,40.0700
4.8912,39.9387
4.8309,39.8202
4.7369,39.7262
4.6184,39.6658
4.4870,39.6450
0.8370,39.6450
0.7057,39.6658
0.5872,39.7262
0.4932,39.8202
0.4328,39.9387
0.4120,40.0700
0.4120,40.9200
0.4328,41.0513
0.4932,41.1698
0.5872,41.2638
0.7057,41.3242
0.8370,41.3450
4.4870,41.3450
4.6184,41.3242
4.7369,41.2638
4.8309,41.1698
4.8912,41.0513
4.9120,40.9200
Z" /> 
<path style="fill:#000000; fill-opacity:1.0000; stroke:none;fill-rule:evenodd;"
d="M 4.9120,37.5300
4.8912,37.3987
4.8309,37.2802
4.7369,37.1862
4.6184,37.1258
4.4870,37.1050
0.8370,37.1050
0.7057,37.1258
0.5872,37.1862
0.4932,37.2802
0.4328,37.3987
0.4120,37.5300
0.4120,38.3800
0.4328,38.5113
0.4932,38.6298
0.5872,38.7238
0.7057,38.7842
0.8370,38.8050
4.4870,38.8050
4.6184,38.7842
4.7369,38.7238
4.8309,38.6298
4.8912,38.5113
4.9120,38.3800
Z" /> 
<path style="fill:#000000; fill-opacity:1.0000; stroke:none;fill-rule:evenodd;"
d="M 4.9120,34.9900
4.8912,34.8587
4.8309,34.7402
4.7369,34.6462
4.6184,34.5858
4.4870,34.5650
0.8370,34.5650
0.7057,34.5858
0.5872,34.6462
0.4932,34.7402
0.4328,34.8587
0.4120,34.9900
0.4120,35.8400
0.4328,35.9713
0.4932,36.0898
0.5872,36.1838
0.7057,36.2442
0.8370,36.2650
4.4870,36.2650
4.6184,36.2442
4.7369,36.1838
4.8309,36.0898
4.8912,35.9713
4.9120,35.8400
Z" /> 
</g>
<g style="fill:#000000; fill-opacity:1.0000; stroke:none;">
<circle cx="49.6409" cy="13.2351" r="1.2500" /> 
</g>
<g style="fill:#000000; fill-opacity:1.0000; stroke:none;">
<circle cx="56.6059" cy="13.2351" r="1.2500" /> 
</g>
<g style="fill:#000000; fill-opacity:1.0000; stroke:none;">
<circle cx="50.8909" cy="9.4251" r="1.0000" /> 
</g>
<g style="fill:#000000; fill-opacity:1.0000; stroke:none;">
<circle cx="55.3909" cy="9.4251" r="1.0000" /> 
</g>
<g style="fill:#000000; fill-opacity:1.0000; stroke:none;">
<circle cx="68.6320" cy="13.2351" r="1.2500" /> 
</g>
<g style="fill:#000000; fill-opacity:1.0000; stroke:none;">
<circle cx="75.5970" cy="13.2351" r="1.2500" /> 
</g>
<g style="fill:#000000; fill-opacity:1.0000; stroke:none;">
<circle cx="69.8820" cy="9.4251" r="1.0000" /> 
</g>
<g style="fill:#000000; fill-opacity:1.0000; stroke:none;">
<circle cx="74.3820" cy="9.4251" r="1.0000" /> 
<path style="fill:#000000; fill-opacity:1.0000; stroke:none;fill-rule:evenodd;"
d="M 0.4120,47.9100
0.4328,48.0413
0.4932,48.1598
0.5872,48.2538
0.7057,48.3142
0.8370,48.3350
4.4870,48.3350
4.6184,48.3142
4.7369,48.2538
4.8309,48.1598
4.8912,48.0413
4.9120,47.9100
4.9120,47.0600
4.8912,46.9287
4.8309,46.8102
4.7369,46.7162
4.6184,46.6558
4.4870,46.6350
0.8370,46.6350
0.7057,46.6558
0.5872,46.7162
0.4932,46.8102
0.4328,46.9287
0.4120,47.0600
Z" /> 
<path style="fill:#000000; fill-opacity:1.0000; stroke:none;fill-rule:evenodd;"
d="M 0.4120,50.4500
0.4328,50.5813
0.4932,50.6998
0.5872,50.7938
0.7057,50.8542
0.8370,50.8750
4.4870,50.8750
4.6184,50.8542
4.7369,50.7938
4.8309,50.6998
4.8912,50.5813
4.9120,50.4500
4.9120,49.6000
4.8912,49.4687
4.8309,49.3502
4.7369,49.2562
4.6184,49.1958
4.4870,49.1750
0.8370,49.1750
0.7057,49.1958
0.5872,49.2562
0.4932,49.3502
0.4328,49.4687
0.4120,49.6000
Z" /> 
<path style="fill:#000000; fill-opacity:1.0000; stroke:none;fill-rule:evenodd;"
d="M 18.0220,57.7274
19.6220,57.7274
19.6220,56.1274
18.0220,56.1274
Z" /> 
</g>
<g style="fill:#000000; fill-opacity:1.0000; stroke:none;">
<circle cx="18.8220" cy="54.4274" r="0.8000" /> 
</g>
<g style="fill:#000000; fill-opacity:1.0000; stroke:none;">
<circle cx="9.6470" cy="8.8200" r="0.6500" /> 
<circle cx="9.6470" cy="11.3600" r="0.6500" /> 
<circle cx="9.6470" cy="13.9000" r="0.6500" /> 
<circle cx="9.6470" cy="16.4400" r="0.6500" /> 
<circle cx="9.6470" cy="18.9800" r="0.6500" /> 
<circle cx="9.6470" cy="21.5200" r="0.6500" /> 
<circle cx="9.6470" cy="24.0600" r="0.6500" /> 
<circle cx="9.6470" cy="26.6000" r="0.6500" /> 
<circle cx="9.6470" cy="29.1400" r="0.6500" /> 
<circle cx="9.6470" cy="31.6800" r="0.6500" /> 
<circle cx="9.6470" cy="34.2200" r="0.6500" /> 
<circle cx="9.6470" cy="36.7600" r="0.6500" /> 
<circle cx="9.6470" cy="39.3000" r="0.6500" /> 
<circle cx="9.6470" cy="41.8400" r="0.6500" /> 
<circle cx="9.6470" cy="44.3800" r="0.6500" /> 
<circle cx="9.6470" cy="46.9200" r="0.6500" /> 
<circle cx="9.6470" cy="49.4600" r="0.6500" /> 
<circle cx="9.6470" cy="52.0000" r="0.6500" /> 
<circle cx="9.6470" cy="54.5400" r="0.6500" /> 
<circle cx="9.6470" cy="57.0800" r="0.6500" /> 
<circle cx="7.1070" cy="8.8200" r="0.6500" /> 
<circle cx="7.1070" cy="11.3600" r="0.6500" /> 
<circle cx="7.1070" cy="13.9000" r="0.6500" /> 
<circle cx="7.1070" cy="16.4400" r="0.6500" /> 
<circle cx="7.1070" cy="18.9800" r="0.6500" /> 
<circle cx="7.1070" cy="21.5200" r="0.6500" /> 
<circle cx="7.1070" cy="24.0600" r="0.6500" /> 
<circle cx="7.1070" cy="26.6000" r="0.6500" /> 
<circle cx="7.1070" cy="29.1400" r="0.6500" /> 
<circle cx="7.1070" cy="31.6800" r="0.6500" /> 
<circle cx="7.1070" cy="34.2200" r="0.6500" /> 
<circle cx="7.1070" cy="36.7600" r="0.6500" /> 
<circle cx="7.1070" cy="39.3000" r="0.6500" /> 
<circle cx="7.1070" cy="41.8400" r="0.6500" /> 
<circle cx="7.1070" cy="44.3800" r="0.6500" /> 
<circle cx="7.1070" cy="46.9200" r="0.6500" /> 
<circle cx="7.1070" cy="49.4600" r="0.6500" /> 
<circle cx="7.1070" cy="52.0000" r="0.6500" /> 
<circle cx="7.1070" cy="54.5400" r="0.6500" /> 
<circle cx="7.1070" cy="57.0800" r="0.6500" /> 
</g>
<g style="fill:none; 
stroke:#000000; stroke-width:1.4000; stroke-opacity:1; 
stroke-linecap:round; stroke-linejoin:round;">
<path d="M5.1170 57.0800
L4.0170 57.0800
" />
<path d="M12.7370 57.0800
L11.6370 57.0800
" />
<path d="M5.1170 54.5400
L4.0170 54.5400
" />
<path d="M12.7370 54.5400
L11.6370 54.5400
" />
<path d="M5.1170 31.6800
L4.0170 31.6800
" />
<path d="M12.7370 31.6800
L11.6370 31.6800
" />
<path d="M5.1170 29.1400
L4.0170 29.1400
" />
<path d="M12.7370 29.1400
L11.6370 29.1400
" />
<path d="M5.1170 26.6000
L4.0170 26.6000
" />
<path d="M12.7370 26.6000
L11.6370 26.6000
" />
<path d="M5.1170 24.0600
L4.0170 24.0600
" />
<path d="M12.7370 24.0600
L11.6370 24.0600
" />
<path d="M5.1170 21.5200
L4.0170 21.5200
" />
<path d="M12.7370 21.5200
L11.6370 21.5200
" />
<path d="M5.1170 18.9800
L4.0170 18.9800
" />
<path d="M12.7370 18.9800
L11.6370 18.9800
" />
<path d="M5.1170 11.3600
L4.0170 11.3600
" />
<path d="M12.7370 11.3600
L11.6370 11.3600
" />
<path d="M5.1170 8.8200
L4.0170 8.8200
" />
<path d="M12.7370 8.8200
L11.6370 8.8200
" />
</g>
<g style="fill:#000000; fill-opacity:1.0000; stroke:none;">
<circle cx="40.7620" cy="21.5200" r="0.8001" /> 
</g>
<g style="fill:#000000; fill-opacity:1.0000; stroke:none;">
<circle cx="42.6670" cy="21.5200" r="0.8001" /> 
</g>
<g style="fill:#000000; fill-opacity:1.0000; stroke:none;">
<circle cx="35.0470" cy="14.5350" r="0.8001" /> 
</g>
<g style="fill:#000000; fill-opacity:1.0000; stroke:none;">
<circle cx="40.7620" cy="24.6950" r="0.8001" /> 
</g>
<g style="fill:#000000; fill-opacity:1.0000; stroke:none;">
<circle cx="14.7270" cy="48.1900" r="0.8001" /> 
</g>
<g style="fill:#000000; fill-opacity:1.0000; stroke:none;">
<circle cx="14.7270" cy="52.0000" r="0.8001" /> 
</g>
<g style="fill:#000000; fill-opacity:1.0000; stroke:none;">
<circle cx="42.6670" cy="38.0300" r="0.8001" /> 
</g>
<g style="fill:#000000; fill-opacity:1.0000; stroke:none;">
<circle cx="42.6670" cy="40.5700" r="0.8001" /> 
</g>
<g style="fill:#000000; fill-opacity:1.0000; stroke:none;">
<circle cx="35.0470" cy="19.0450" r="0.8001" /> 
</g>
<g style="fill:#000000; fill-opacity:1.0000; stroke:none;">
<circle cx="12.8220" cy="35.4900" r="0.8001" /> 
</g>
<g style="fill:#000000; fill-opacity:1.0000; stroke:none;">
<circle cx="12.8220" cy="48.1900" r="0.8001" /> 
</g>
<g style="fill:#000000; fill-opacity:1.0000; stroke:none;">
<circle cx="42.6670" cy="54.5400" r="0.8001" /> 
</g>
<g style="fill:#000000; fill-opacity:1.0000; stroke:none;">
<circle cx="22.9820" cy="41.2050" r="0.8001" /> 
</g>
<g style="fill:#000000; fill-opacity:1.0000; stroke:none;">
<circle cx="22.9820" cy="31.9975" r="0.8001" /> 
</g>
<g style="fill:#000000; fill-opacity:1.0000; stroke:none;">
<circle cx="15.0445" cy="29.4575" r="0.8001" /> 
</g>
<g style="fill:#000000; fill-opacity:1.0000; stroke:none;">
<circle cx="15.0445" cy="32.9500" r="0.8001" /> 
</g>
<g style="fill:#000000; fill-opacity:1.0000; stroke:none;">
<circle cx="19.8070" cy="36.1250" r="0.8001" /> 
</g>
<g style="fill:#000000; fill-opacity:1.0000; stroke:none;">
<circle cx="19.8070" cy="26.6000" r="0.8001" /> 
</g>
<g style="fill:#000000; fill-opacity:1.0000; stroke:none;">
<circle cx="17.2670" cy="32.9500" r="0.8001" /> 
</g>
<g style="fill:#000000; fill-opacity:1.0000; stroke:none;">
<circle cx="17.2670" cy="25.9650" r="0.8001" /> 
</g>
<g style="fill:#000000; fill-opacity:1.0000; stroke:none;">
<circle cx="17.9020" cy="48.1900" r="0.8001" /> 
</g>
<g style="fill:#000000; fill-opacity:1.0000; stroke:none;">
<circle cx="17.9020" cy="38.6650" r="0.8001" /> 
</g>
<g style="fill:#000000; fill-opacity:1.0000; stroke:none;">
<circle cx="32.5070" cy="24.0600" r="0.8001" /> 
</g>
<g style="fill:#000000; fill-opacity:1.0000; stroke:none;">
<circle cx="32.5070" cy="20.2500" r="0.8001" /> 
</g>
<g style="fill:#000000; fill-opacity:1.0000; stroke:none;">
<circle cx="18.5370" cy="23.4250" r="0.8001" /> 
</g>
<g style="fill:#000000; fill-opacity:1.0000; stroke:none;">
<circle cx="18.5370" cy="15.8050" r="0.8001" /> 
</g>
<g style="fill:#000000; fill-opacity:1.0000; stroke:none;">
<circle cx="25.5220" cy="46.2850" r="0.8001" /> 
</g>
<g style="fill:#000000; fill-opacity:1.0000; stroke:none;">
<circle cx="25.5220" cy="31.0450" r="0.8001" /> 
</g>
<g style="fill:#000000; fill-opacity:1.0000; stroke:none;">
<circle cx="33.4270" cy="57.0150" r="0.8001" /> 
</g>
<g style="fill:#000000; fill-opacity:1.0000; stroke:none;">
<circle cx="33.4270" cy="52.5700" r="0.8001" /> 
</g>
<g style="fill:#000000; fill-opacity:1.0000; stroke:none;">
<circle cx="29.9670" cy="27.2350" r="0.8000" /> 
</g>
<g style="fill:#000000; fill-opacity:1.0000; stroke:none;">
<circle cx="15.9970" cy="44.3800" r="0.8001" /> 
</g>
<g style="fill:#000000; fill-opacity:1.0000; stroke:none;">
<circle cx="33.7770" cy="26.6000" r="0.8001" /> 
</g>
<g style="fill:#000000; fill-opacity:1.0000; stroke:none;">
<circle cx="15.9970" cy="41.2050" r="0.8001" /> 
</g>
<g style="fill:#000000; fill-opacity:1.0000; stroke:none;">
<circle cx="33.7770" cy="44.3800" r="0.8001" /> 
</g>
<g style="fill:#000000; fill-opacity:1.0000; stroke:none;">
<circle cx="22.9820" cy="27.2350" r="0.8000" /> 
</g>
<g style="fill:#000000; fill-opacity:1.0000; stroke:none;">
<circle cx="35.6820" cy="43.1100" r="0.8001" /> 
</g>
<g style="fill:#000000; fill-opacity:1.0000; stroke:none;">
<circle cx="35.6820" cy="28.5050" r="0.8001" /> 
</g>
<g style="fill:#000000; fill-opacity:1.0000; stroke:none;">
<circle cx="28.0620" cy="15.1700" r="0.8001" /> 
</g>
<g style="fill:#000000; fill-opacity:1.0000; stroke:none;">
<circle cx="28.0620" cy="25.3300" r="0.8000" /> 
</g>
<g style="fill:none; 
stroke:#000000; stroke-width:0.8128; stroke-opacity:1; 
stroke-linecap:round; stroke-linejoin:round;">
<path d="M7.9795 78.3525
L6.8801 77.2531
" />
<path d="M13.6795 78.3525
L7.9795 78.3525
" />
<path d="M14.5770 77.4550
L13.6795 78.3525
" />
<path d="M21.0770 77.4550
L14.5770 77.4550
" />
<path d="M21.0770 72.9550
L14.5770 72.9550
" />
</g>
<g style="fill:none; 
stroke:#000000; stroke-width:0.5080; stroke-opacity:1; 
stroke-linecap:round; stroke-linejoin:round;">
<path d="M5.8370 30.4100
L4.5670 29.1400
" />
<path d="M17.2670 31.0450
L14.7270 31.0450
" />
<path d="M44.5720 25.3300
L36.3170 33.5850
" />
<path d="M69.1920 54.5400
L71.8770 54.5400
" />
<path d="M73.1470 25.3300
L44.5720 25.3300
" />
<path d="M14.0920 30.4100
L5.8370 30.4100
" />
<path d="M19.8070 33.5850
L17.2670 31.0450
" />
<path d="M36.3170 33.5850
L19.8070 33.5850
" />
<path d="M71.8770 54.5400
L76.9570 49.4600
" />
<path d="M76.9570 29.1400
L73.1470 25.3300
" />
<path d="M76.9570 49.4600
L76.9570 29.1400
" />
<path d="M14.7270 31.0450
L14.0920 30.4100
" />
<path d="M17.2670 40.5700
L15.9970 39.3000
" />
<path d="M15.9970 39.3000
L15.9970 36.7600
" />
<path d="M5.8370 32.9500
L4.5670 31.6800
" />
<path d="M19.1720 40.5700
L17.2670 40.5700
" />
<path d="M15.9970 36.7600
L12.1870 32.9500
" />
<path d="M12.1870 32.9500
L5.8370 32.9500
" />
<path d="M45.8420 44.3800
L43.9370 44.3800
" />
<path d="M19.8070 39.9350
L19.1720 40.5700
" />
<path d="M39.4920 39.9350
L19.8070 39.9350
" />
<path d="M43.9370 44.3800
L39.4920 39.9350
" />
</g>
<g style="fill:none; 
stroke:#000000; stroke-width:0.6096; stroke-opacity:1; 
stroke-linecap:round; stroke-linejoin:round;">
<path d="M38.7245 25.6450
L39.8120 25.6450
" />
<path d="M12.8220 35.4900
L2.7370 35.4900
" />
<path d="M21.0770 53.5625
L21.0770 54.5400
" />
<path d="M34.3470 18.3450
L31.3020 18.3450
" />
</g>
<g style="fill:none; 
stroke:#000000; stroke-width:0.8128; stroke-opacity:1; 
stroke-linecap:round; stroke-linejoin:round;">
<path d="M48.9520 7.6150
L42.0320 14.5350
" />
</g>
<g style="fill:none; 
stroke:#000000; stroke-width:0.6096; stroke-opacity:1; 
stroke-linecap:round; stroke-linejoin:round;">
<path d="M39.8120 25.6450
L40.7620 24.6950
" />
<path d="M35.0470 19.0450
L34.3470 18.3450
" />
</g>
<g style="fill:none; 
stroke:#000000; stroke-width:0.8128; stroke-opacity:1; 
stroke-linecap:round; stroke-linejoin:round;">
<path d="M21.0770 54.5400
L15.5820 54.5400
" />
</g>
<g style="fill:none; 
stroke:#000000; stroke-width:0.6096; stroke-opacity:1; 
stroke-linecap:round; stroke-linejoin:round;">
<path d="M40.7620 21.5200
L35.0470 21.5200
" />
</g>
<g style="fill:none; 
stroke:#000000; stroke-width:0.8128; stroke-opacity:1; 
stroke-linecap:round; stroke-linejoin:round;">
<path d="M18.8220 10.0650
L30.5770 10.0650
" />
</g>
<g style="fill:none; 
stroke:#000000; stroke-width:0.5080; stroke-opacity:1; 
stroke-linecap:round; stroke-linejoin:round;">
<path d="M34.4120 24.0600
L35.0470 24.6950
" />
</g>
<g style="fill:none; 
stroke:#000000; stroke-width:0.6096; stroke-opacity:1; 
stroke-linecap:round; stroke-linejoin:round;">
<path d="M55.3909 7.6389
L55.3670 7.6150
" />
</g>
<g style="fill:none; 
stroke:#000000; stroke-width:0.8128; stroke-opacity:1; 
stroke-linecap:round; stroke-linejoin:round;">
<path d="M72.6745 7.6150
L74.4333 9.3738
" />
<path d="M55.3909 9.4251
L55.3909 7.6389
" />
</g>
<g style="fill:none; 
stroke:#000000; stroke-width:0.5080; stroke-opacity:1; 
stroke-linecap:round; stroke-linejoin:round;">
<path d="M35.0470 24.6950
L36.4495 24.6950
" />
</g>
<g style="fill:none; 
stroke:#000000; stroke-width:0.6096; stroke-opacity:1; 
stroke-linecap:round; stroke-linejoin:round;">
<path d="M24.2997 22.1550
L34.4120 22.1550
" />
<path d="M40.7620 21.5200
L42.6670 21.5200
" />
<path d="M12.8220 48.1900
L5.2020 48.1900
" />
</g>
<g style="fill:none; 
stroke:#000000; stroke-width:0.8128; stroke-opacity:1; 
stroke-linecap:round; stroke-linejoin:round;">
<path d="M14.7270 53.6850
L15.5820 54.5400
" />
</g>
<g style="fill:none; 
stroke:#000000; stroke-width:0.5080; stroke-opacity:1; 
stroke-linecap:round; stroke-linejoin:round;">
<path d="M34.4120 24.0600
L34.4120 22.1550
" />
</g>
<g style="fill:none; 
stroke:#000000; stroke-width:0.6096; stroke-opacity:1; 
stroke-linecap:round; stroke-linejoin:round;">
<path d="M30.9270 50.0300
L30.9270 54.5000
" />
</g>
<g style="fill:none; 
stroke:#000000; stroke-width:0.8128; stroke-opacity:1; 
stroke-linecap:round; stroke-linejoin:round;">
<path d="M48.9520 7.6150
L55.3670 7.6150
" />
<path d="M12.1870 8.8200
L17.5770 8.8200
" />
</g>
<g style="fill:none; 
stroke:#000000; stroke-width:0.6096; stroke-opacity:1; 
stroke-linecap:round; stroke-linejoin:round;">
<path d="M12.8220 48.1900
L14.7270 48.1900
" />
</g>
<g style="fill:none; 
stroke:#000000; stroke-width:0.8128; stroke-opacity:1; 
stroke-linecap:round; stroke-linejoin:round;">
<path d="M45.8420 54.5400
L42.6670 54.5400
" />
</g>
<g style="fill:none; 
stroke:#000000; stroke-width:0.6096; stroke-opacity:1; 
stroke-linecap:round; stroke-linejoin:round;">
<path d="M34.4120 22.1550
L35.0470 21.5200
" />
<path d="M42.6670 38.0300
L42.6670 40.5700
" />
<path d="M35.0470 19.0450
L35.0470 21.5200
" />
</g>
<g style="fill:none; 
stroke:#000000; stroke-width:0.8128; stroke-opacity:1; 
stroke-linecap:round; stroke-linejoin:round;">
<path d="M30.5770 10.0650
L35.0470 14.5350
" />
<path d="M4.5670 57.0800
L5.8370 55.8100
" />
</g>
<g style="fill:none; 
stroke:#000000; stroke-width:0.6096; stroke-opacity:1; 
stroke-linecap:round; stroke-linejoin:round;">
<path d="M19.4745 20.5650
L22.9545 20.5650
" />
</g>
<g style="fill:none; 
stroke:#000000; stroke-width:0.8128; stroke-opacity:1; 
stroke-linecap:round; stroke-linejoin:round;">
<path d="M35.0470 14.5350
L42.0320 14.5350
" />
</g>
<g style="fill:none; 
stroke:#000000; stroke-width:0.6096; stroke-opacity:1; 
stroke-linecap:round; stroke-linejoin:round;">
<path d="M30.9270 54.5000
L30.8870 54.5400
" />
</g>
<g style="fill:none; 
stroke:#000000; stroke-width:0.8128; stroke-opacity:1; 
stroke-linecap:round; stroke-linejoin:round;">
<path d="M30.8870 54.5400
L21.0770 54.5400
" />
</g>
<g style="fill:none; 
stroke:#000000; stroke-width:0.6096; stroke-opacity:1; 
stroke-linecap:round; stroke-linejoin:round;">
<path d="M5.8370 55.8100
L14.3120 55.8100
" />
</g>
<g style="fill:none; 
stroke:#000000; stroke-width:0.8128; stroke-opacity:1; 
stroke-linecap:round; stroke-linejoin:round;">
<path d="M17.5770 8.8200
L18.8220 10.0650
" />
<path d="M14.7270 52.0000
L14.7270 53.6850
" />
<path d="M55.3670 7.6150
L72.6745 7.6150
" />
</g>
<g style="fill:none; 
stroke:#000000; stroke-width:0.6096; stroke-opacity:1; 
stroke-linecap:round; stroke-linejoin:round;">
<path d="M31.3020 18.3450
L30.6020 19.0450
" />
</g>
<g style="fill:none; 
stroke:#000000; stroke-width:0.8128; stroke-opacity:1; 
stroke-linecap:round; stroke-linejoin:round;">
<path d="M14.3120 55.8100
L15.5820 54.5400
" />
<path d="M42.6670 54.5400
L30.8870 54.5400
" />
</g>
<g style="fill:none; 
stroke:#000000; stroke-width:0.6096; stroke-opacity:1; 
stroke-linecap:round; stroke-linejoin:round;">
<path d="M22.9545 20.5650
L24.2520 21.8625
" />
<path d="M5.2020 48.1900
L4.4970 47.4850
" />
</g>
<g style="fill:none; 
stroke:#000000; stroke-width:0.5080; stroke-opacity:1; 
stroke-linecap:round; stroke-linejoin:round;">
<path d="M45.8420 46.9200
L42.6670 46.9200
" />
<path d="M42.6670 46.9200
L36.9520 41.2050
" />
<path d="M5.8370 27.8700
L4.5670 26.6000
" />
<path d="M18.5370 27.8700
L5.8370 27.8700
" />
<path d="M22.9820 31.9975
L22.6645 31.9975
" />
<path d="M22.6645 31.9975
L18.5370 27.8700
" />
<path d="M36.9520 41.2050
L22.9820 41.2050
" />
<path d="M36.3170 37.3950
L44.5720 29.1400
" />
<path d="M18.5370 37.3950
L36.3170 37.3950
" />
<path d="M15.0445 32.9500
L15.0445 33.9025
" />
<path d="M44.5720 29.1400
L70.6070 29.1400
" />
<path d="M71.8770 46.9200
L69.1920 46.9200
" />
<path d="M15.0445 33.9025
L18.5370 37.3950
" />
<path d="M73.1470 31.6800
L73.1470 45.6500
" />
<path d="M73.1470 45.6500
L71.8770 46.9200
" />
<path d="M14.7270 29.1400
L15.3620 29.7750
" />
<path d="M12.1870 29.1400
L14.7270 29.1400
" />
<path d="M70.6070 29.1400
L73.1470 31.6800
" />
<path d="M19.8070 26.6000
L17.2670 24.0600
" />
<path d="M74.4170 31.0450
L71.2420 27.8700
" />
<path d="M44.5720 27.8700
L36.3170 36.1250
" />
<path d="M69.1920 49.4600
L71.8770 49.4600
" />
<path d="M74.4170 46.9200
L74.4170 31.0450
" />
<path d="M71.2420 27.8700
L44.5720 27.8700
" />
<path d="M36.3170 36.1250
L19.8070 36.1250
" />
<path d="M17.2670 24.0600
L12.1870 24.0600
" />
<path d="M71.8770 49.4600
L74.4170 46.9200
" />
<path d="M69.1920 52.0000
L71.8770 52.0000
" />
<path d="M72.5120 26.6000
L44.5720 26.6000
" />
<path d="M75.6870 29.7750
L72.5120 26.6000
" />
<path d="M16.6320 25.3300
L5.8370 25.3300
" />
<path d="M5.8370 25.3300
L4.5670 24.0600
" />
<path d="M44.5720 26.6000
L36.3170 34.8550
" />
<path d="M75.6870 48.1900
L75.6870 29.7750
" />
<path d="M36.3170 34.8550
L19.1720 34.8550
" />
<path d="M17.2670 25.9650
L16.6320 25.3300
" />
<path d="M71.8770 52.0000
L75.6870 48.1900
" />
<path d="M19.1720 34.8550
L16.9412 32.6242
" />
<path d="M15.3920 19.6150
L14.0920 19.6150
" />
<path d="M17.5995 19.6150
L15.4370 19.6150
" />
<path d="M13.4570 20.2500
L5.8370 20.2500
" />
<path d="M14.0920 19.6150
L13.4570 20.2500
" />
<path d="M5.8370 20.2500
L4.5670 21.5200
" />
<path d="M19.4745 18.6650
L21.1120 18.6650
" />
<path d="M11.5520 50.0950
L10.9170 50.7300
" />
<path d="M17.9020 48.1900
L18.1820 47.9100
" />
<path d="M71.8770 32.3150
L69.9720 30.4100
" />
<path d="M36.3170 38.6650
L17.9020 38.6650
" />
<path d="M71.2420 44.3800
L71.8770 43.7450
" />
<path d="M15.9970 50.0950
L11.5520 50.0950
" />
<path d="M71.8770 43.7450
L71.8770 32.3150
" />
<path d="M17.9020 48.1900
L15.9970 50.0950
" />
<path d="M69.1920 44.3800
L71.2420 44.3800
" />
<path d="M10.9170 50.7300
L5.8370 50.7300
" />
<path d="M69.9720 30.4100
L44.5720 30.4100
" />
<path d="M44.5720 30.4100
L36.3170 38.6650
" />
<path d="M18.1820 47.9100
L19.1720 47.9100
" />
<path d="M5.1320 50.0250
L2.6620 50.0250
" />
<path d="M5.8370 50.7300
L5.1320 50.0250
" />
<path d="M32.5070 20.2500
L31.8720 20.8850
" />
<path d="M30.6670 24.0600
L30.6020 23.9950
" />
<path d="M31.8720 20.8850
L26.1570 20.8850
" />
<path d="M26.1570 20.8850
L24.5320 19.2600
" />
<path d="M24.5320 19.2600
L24.5320 18.3450
" />
<path d="M32.5070 24.0600
L30.6670 24.0600
" />
<path d="M43.9370 24.0600
L42.7940 22.9170
" />
<path d="M21.0770 46.2850
L21.0770 50.4375
" />
<path d="M42.7940 22.9170
L39.5525 22.9170
" />
<path d="M25.5220 26.2575
L24.2520 24.9875
" />
<path d="M10.2820 43.1100
L2.7370 43.1100
" />
</g>
<g style="fill:none; 
stroke:#000000; stroke-width:0.6096; stroke-opacity:1; 
stroke-linecap:round; stroke-linejoin:round;">
<path d="M26.1570 31.6800
L32.5070 31.6800
" />
<path d="M25.5220 31.0450
L26.1570 31.6800
" />
</g>
<g style="fill:none; 
stroke:#000000; stroke-width:0.5080; stroke-opacity:1; 
stroke-linecap:round; stroke-linejoin:round;">
<path d="M26.7920 23.9950
L25.2445 23.9950
" />
</g>
<g style="fill:none; 
stroke:#000000; stroke-width:0.4064; stroke-opacity:1; 
stroke-linecap:round; stroke-linejoin:round;">
<path d="M18.1820 23.0700
L18.5370 23.4250
" />
</g>
<g style="fill:none; 
stroke:#000000; stroke-width:0.6096; stroke-opacity:1; 
stroke-linecap:round; stroke-linejoin:round;">
<path d="M13.4570 46.2850
L10.2820 43.1100
" />
<path d="M53.0810 19.8300
L53.0810 24.0600
" />
</g>
<g style="fill:none; 
stroke:#000000; stroke-width:0.5080; stroke-opacity:1; 
stroke-linecap:round; stroke-linejoin:round;">
<path d="M25.2445 23.9950
L24.2520 24.9875
" />
</g>
<g style="fill:none; 
stroke:#000000; stroke-width:0.6096; stroke-opacity:1; 
stroke-linecap:round; stroke-linejoin:round;">
<path d="M22.3470 29.1400
L25.5220 29.1400
" />
<path d="M28.0620 31.9600
L26.4370 31.9600
" />
<path d="M69.1920 57.0800
L72.5120 57.0800
" />
<path d="M72.5120 57.0800
L78.2270 51.3650
" />
<path d="M26.4370 31.9600
L25.5220 31.0450
" />
<path d="M32.5070 30.0550
L32.5070 31.6800
" />
<path d="M78.2270 28.5050
L73.7820 24.0600
" />
<path d="M35.9995 31.6800
L32.5070 31.6800
" />
<path d="M43.9370 24.0600
L43.6195 24.0600
" />
<path d="M18.5370 23.4250
L19.1720 23.4250
" />
<path d="M21.0770 27.8700
L22.3470 29.1400
" />
<path d="M72.1620 19.8300
L72.1620 24.0600
" />
<path d="M73.7820 24.0600
L72.1620 24.0600
" />
</g>
<g style="fill:none; 
stroke:#000000; stroke-width:0.5080; stroke-opacity:1; 
stroke-linecap:round; stroke-linejoin:round;">
<path d="M25.5220 31.0450
L25.5220 29.1400
" />
</g>
<g style="fill:none; 
stroke:#000000; stroke-width:0.6096; stroke-opacity:1; 
stroke-linecap:round; stroke-linejoin:round;">
<path d="M21.0770 46.2850
L13.4570 46.2850
" />
<path d="M43.9370 24.0600
L72.1620 24.0600
" />
<path d="M78.2270 51.3650
L78.2270 28.5050
" />
</g>
<g style="fill:none; 
stroke:#000000; stroke-width:0.5080; stroke-opacity:1; 
stroke-linecap:round; stroke-linejoin:round;">
<path d="M25.5220 29.1400
L25.5220 26.2575
" />
</g>
<g style="fill:none; 
stroke:#000000; stroke-width:0.6096; stroke-opacity:1; 
stroke-linecap:round; stroke-linejoin:round;">
<path d="M19.1720 23.4250
L21.0770 25.3300
" />
<path d="M25.5220 46.2850
L21.0770 46.2850
" />
<path d="M21.0770 25.3300
L21.0770 27.8700
" />
<path d="M43.6195 24.0600
L35.9995 31.6800
" />
</g>
<g style="fill:none; 
stroke:#000000; stroke-width:0.5080; stroke-opacity:1; 
stroke-linecap:round; stroke-linejoin:round;">
<path d="M39.5525 22.9170
L38.7245 23.7450
" />
<path d="M15.3620 23.0700
L18.1820 23.0700
" />
</g>
<g style="fill:none; 
stroke:#000000; stroke-width:0.6096; stroke-opacity:1; 
stroke-linecap:round; stroke-linejoin:round;">
<path d="M19.1720 50.3750
L20.1620 50.3750
" />
<path d="M18.5370 12.6300
L18.5370 15.8050
" />
<path d="M33.4270 50.0300
L33.4270 52.5700
" />
</g>
<g style="fill:none; 
stroke:#000000; stroke-width:0.8128; stroke-opacity:1; 
stroke-linecap:round; stroke-linejoin:round;">
<path d="M45.8420 57.0800
L12.1870 57.0800
" />
</g>
<g style="fill:none; 
stroke:#000000; stroke-width:0.4064; stroke-opacity:1; 
stroke-linecap:round; stroke-linejoin:round;">
<path d="M36.4495 25.6450
L36.4495 25.8325
" />
</g>
<g style="fill:none; 
stroke:#000000; stroke-width:0.5080; stroke-opacity:1; 
stroke-linecap:round; stroke-linejoin:round;">
<path d="M22.3470 26.6000
L22.9820 27.2350
" />
<path d="M34.4120 26.6000
L29.9670 26.6000
" />
<path d="M36.4495 25.8325
L35.6820 26.6000
" />
<path d="M15.9970 44.3800
L33.7770 44.3800
" />
<path d="M42.0320 52.0000
L34.4120 44.3800
" />
<path d="M19.1720 21.5200
L17.2670 21.5200
" />
<path d="M35.6820 26.6000
L34.4120 26.6000
" />
<path d="M29.3320 25.9650
L29.3320 23.9950
" />
<path d="M15.3620 41.2050
L15.9970 41.2050
" />
<path d="M29.9670 26.6000
L29.3320 25.9650
" />
<path d="M17.2670 21.5200
L16.6320 20.8850
" />
<path d="M16.6320 20.8850
L14.0920 20.8850
" />
<path d="M12.1770 37.9550
L2.6620 37.9550
" />
<path d="M45.8420 52.0000
L42.0320 52.0000
" />
<path d="M34.4120 44.3800
L33.7770 44.3800
" />
<path d="M14.0920 20.8850
L13.4570 21.5200
" />
<path d="M12.1770 38.0200
L15.3620 41.2050
" />
<path d="M13.4570 21.5200
L12.1870 21.5200
" />
<path d="M22.3470 26.6000
L22.3470 24.6950
" />
<path d="M22.3470 24.6950
L19.1720 21.5200
" />
<path d="M12.1770 37.9550
L12.1770 38.0200
" />
</g>
<g style="fill:none; 
stroke:#000000; stroke-width:0.4064; stroke-opacity:1; 
stroke-linecap:round; stroke-linejoin:round;">
<path d="M28.0620 25.3300
L28.0620 23.9950
" />
</g>
<g style="fill:none; 
stroke:#000000; stroke-width:0.5080; stroke-opacity:1; 
stroke-linecap:round; stroke-linejoin:round;">
<path d="M35.6820 43.1100
L36.3170 43.1100
" />
<path d="M28.0620 25.3300
L28.0620 28.5050
" />
<path d="M31.2370 28.5050
L35.6820 28.5050
" />
</g>
<g style="fill:none; 
stroke:#000000; stroke-width:0.4064; stroke-opacity:1; 
stroke-linecap:round; stroke-linejoin:round;">
<path d="M36.4495 23.7450
L37.2720 23.7450
" />
</g>
<g style="fill:none; 
stroke:#000000; stroke-width:0.5080; stroke-opacity:1; 
stroke-linecap:round; stroke-linejoin:round;">
<path d="M28.0620 15.1700
L21.0770 15.1700
" />
<path d="M42.6670 49.4600
L45.8420 49.4600
" />
</g>
<g style="fill:none; 
stroke:#000000; stroke-width:0.4064; stroke-opacity:1; 
stroke-linecap:round; stroke-linejoin:round;">
<path d="M37.5870 24.0600
L37.5870 26.6000
" />
</g>
<g style="fill:none; 
stroke:#000000; stroke-width:0.5080; stroke-opacity:1; 
stroke-linecap:round; stroke-linejoin:round;">
<path d="M14.0920 43.1100
L36.3170 43.1100
" />
<path d="M5.8370 17.7100
L18.5370 17.7100
" />
<path d="M28.0620 28.8600
L30.8820 28.8600
" />
<path d="M36.3170 43.1100
L42.6670 49.4600
" />
<path d="M4.5670 18.9800
L5.8370 17.7100
" />
</g>
<g style="fill:none; 
stroke:#000000; stroke-width:0.4064; stroke-opacity:1; 
stroke-linecap:round; stroke-linejoin:round;">
<path d="M37.2720 23.7450
L37.5870 24.0600
" />
<path d="M37.5870 26.6000
L35.6820 28.5050
" />
</g>
<g style="fill:none; 
stroke:#000000; stroke-width:0.5080; stroke-opacity:1; 
stroke-linecap:round; stroke-linejoin:round;">
<path d="M2.6620 40.4950
L11.4770 40.4950
" />
<path d="M21.0770 15.1700
L18.5370 17.7100
" />
<path d="M11.4770 40.4950
L14.0920 43.1100
" />
<path d="M30.8820 28.8600
L31.2370 28.5050
" />
<path d="M55.4320 18.2800
L56.9820 16.7300
" />
<path d="M29.3320 19.0450
L29.3320 17.2950
" />
<path d="M38.5070 18.2800
L55.4320 18.2800
" />
<path d="M56.9820 16.7300
L72.1620 16.7300
" />
<path d="M29.6170 17.0100
L37.2370 17.0100
" />
<path d="M72.1620 11.7052
L69.8820 9.4251
" />
<path d="M29.3320 17.2950
L29.6170 17.0100
" />
<path d="M72.1620 16.7300
L72.1620 11.7052
" />
<path d="M37.2370 17.0100
L38.5070 18.2800
" />
<path d="M53.0810 16.7300
L53.0810 11.6152
" />
<path d="M38.2220 15.8050
L29.3320 15.8050
" />
<path d="M29.3320 15.8050
L28.0620 17.0750
" />
<path d="M28.0620 17.0750
L28.0620 19.0450
" />
<path d="M53.0810 11.6152
L50.8909 9.4251
" />
<path d="M39.1470 16.7300
L38.2220 15.8050
" />
<path d="M53.0810 16.7300
L39.1470 16.7300
" />
<path style="fill:#000000; fill-opacity:1.0000; stroke:none;fill-rule:evenodd;"
d="M 36.0144,54.2531
36.0115,54.2607
36.0115,54.8335
36.0150,54.8417
36.0229,54.8452
36.7130,54.8677
36.7214,54.8645
36.7251,54.8564
36.7220,54.8480
36.7211,54.8471
36.0309,54.2519
36.0224,54.2491
Z" /> 
<path style="fill:#000000; fill-opacity:1.0000; stroke:none;fill-rule:evenodd;"
d="M 17.8953,8.5786
17.3334,9.1405
17.3300,9.1488
17.3307,9.1528
17.7938,10.4247
17.7998,10.4313
17.8088,10.4317
17.8092,10.4315
18.5356,10.1316
18.5394,10.1290
19.0937,9.5734
19.0971,9.5651
19.0936,9.5569
19.0929,9.5561
17.9111,8.5779
17.9025,8.5752
Z" /> 
<path style="fill:#000000; fill-opacity:1.0000; stroke:none;fill-rule:evenodd;"
d="M 18.8439,9.3945
18.8395,9.3998
18.5379,10.1255
18.5379,10.1345
18.5379,10.1345
18.5379,10.1345
18.8391,10.8593
18.8454,10.8656
18.8534,10.8659
20.1159,10.4740
20.1228,10.4682
20.1241,10.4628
20.1241,9.6681
20.1207,9.6598
20.1148,9.6567
18.8527,9.3929
Z" /> 
<path style="fill:#000000; fill-opacity:1.0000; stroke:none;fill-rule:evenodd;"
d="M 38.5322,54.1511
38.5294,54.1587
38.5294,54.9307
38.5329,54.9390
38.5411,54.9424
38.5445,54.9419
39.2253,54.7397
39.2322,54.7341
39.2332,54.7252
39.2294,54.7195
38.5487,54.1497
38.5401,54.1470
Z" /> 
<path style="fill:#000000; fill-opacity:1.0000; stroke:none;fill-rule:evenodd;"
d="M 30.1980,50.3320
30.1917,50.3383
30.1914,50.3465
30.6196,51.6220
30.6255,51.6288
30.6307,51.6300
31.2234,51.6300
31.2317,51.6266
31.2345,51.6220
31.6627,50.3465
31.6621,50.3376
31.6561,50.3320
30.9315,50.0309
30.9226,50.0309
Z" /> 
<path style="fill:#000000; fill-opacity:1.0000; stroke:none;fill-rule:evenodd;"
d="M 18.8444,54.1336
18.8444,54.9464
19.5612,54.7335
18.8210,54.4274
19.5612,54.7335
Z" /> 
<path style="fill:#000000; fill-opacity:1.0000; stroke:none;fill-rule:evenodd;"
d="M 33.4188,50.0373
32.6336,50.8234
32.6302,50.8317
32.6319,50.8379
33.1188,51.6245
33.1261,51.6297
33.1288,51.6300
33.7253,51.6300
33.7336,51.6266
33.7353,51.6245
34.2222,50.8379
34.2236,50.8290
34.2205,50.8235
33.4353,50.0373
33.4271,50.0339
Z" /> 
<path style="fill:#000000; fill-opacity:1.0000; stroke:none;fill-rule:evenodd;"
d="M 18.5288,12.6373
17.7436,13.4234
17.7402,13.4317
17.7419,13.4379
18.2288,14.2245
18.2361,14.2297
18.2388,14.2300
18.8353,14.2300
18.8436,14.2266
18.8453,14.2245
19.3322,13.4379
19.3336,13.4290
19.3305,13.4235
18.5453,12.6373
18.5371,12.6339
Z" /> 
</g>
<g style="fill:#FFFFFF; fill-opacity:1.0000; stroke:none;">
<circle cx="40.7620" cy="21.5200" r="0.1270" /> 
</g>
<g style="fill:#FFFFFF; fill-opacity:1.0000; stroke:none;">
<circle cx="42.6670" cy="21.5200" r="0.1270" /> 
</g>
<g style="fill:#FFFFFF; fill-opacity:1.0000; stroke:none;">
<circle cx="35.0470" cy="14.5350" r="0.1270" /> 
</g>
<g style="fill:#FFFFFF; fill-opacity:1.0000; stroke:none;">
<circle cx="40.7620" cy="24.6950" r="0.1270" /> 
</g>
<g style="fill:#FFFFFF; fill-opacity:1.0000; stroke:none;">
<circle cx="14.7270" cy="48.1900" r="0.1270" /> 
</g>
<g style="fill:#FFFFFF; fill-opacity:1.0000; stroke:none;">
<circle cx="14.7270" cy="52.0000" r="0.1270" /> 
</g>
<g style="fill:#FFFFFF; fill-opacity:1.0000; stroke:none;">
<circle cx="42.6670" cy="38.0300" r="0.1270" /> 
</g>
<g style="fill:#FFFFFF; fill-opacity:1.0000; stroke:none;">
<circle cx="42.6670" cy="40.5700" r="0.1270" /> 
</g>
<g style="fill:#FFFFFF; fill-opacity:1.0000; stroke:none;">
<circle cx="35.0470" cy="19.0450" r="0.1270" /> 
</g>
<g style="fill:#FFFFFF; fill-opacity:1.0000; stroke:none;">
<circle cx="12.8220" cy="35.4900" r="0.1270" /> 
</g>
<g style="fill:#FFFFFF; fill-opacity:1.0000; stroke:none;">
<circle cx="12.8220" cy="48.1900" r="0.1270" /> 
</g>
<g style="fill:#FFFFFF; fill-opacity:1.0000; stroke:none;">
<circle cx="42.6670" cy="54.5400" r="0.1270" /> 
</g>
<g style="fill:#FFFFFF; fill-opacity:1.0000; stroke:none;">
<circle cx="22.9820" cy="41.2050" r="0.1270" /> 
</g>
<g style="fill:#FFFFFF; fill-opacity:1.0000; stroke:none;">
<circle cx="22.9820" cy="31.9975" r="0.1270" /> 
</g>
<g style="fill:#FFFFFF; fill-opacity:1.0000; stroke:none;">
<circle cx="15.0445" cy="29.4575" r="0.1270" /> 
</g>
<g style="fill:#FFFFFF; fill-opacity:1.0000; stroke:none;">
<circle cx="15.0445" cy="32.9500" r="0.1270" /> 
</g>
<g style="fill:#FFFFFF; fill-opacity:1.0000; stroke:none;">
<circle cx="19.8070" cy="36.1250" r="0.1270" /> 
</g>
<g style="fill:#FFFFFF; fill-opacity:1.0000; stroke:none;">
<circle cx="19.8070" cy="26.6000" r="0.1270" /> 
</g>
<g style="fill:#FFFFFF; fill-opacity:1.0000; stroke:none;">
<circle cx="17.2670" cy="32.9500" r="0.1270" /> 
</g>
<g style="fill:#FFFFFF; fill-opacity:1.0000; stroke:none;">
<circle cx="17.2670" cy="25.9650" r="0.1270" /> 
</g>
<g style="fill:#FFFFFF; fill-opacity:1.0000; stroke:none;">
<circle cx="17.9020" cy="48.1900" r="0.1270" /> 
</g>
<g style="fill:#FFFFFF; fill-opacity:1.0000; stroke:none;">
<circle cx="17.9020" cy="38.6650" r="0.1270" /> 
</g>
<g style="fill:#FFFFFF; fill-opacity:1.0000; stroke:none;">
<circle cx="32.5070" cy="24.0600" r="0.1270" /> 
</g>
<g style="fill:#FFFFFF; fill-opacity:1.0000; stroke:none;">
<circle cx="32.5070" cy="20.2500" r="0.1270" /> 
</g>
<g style="fill:#FFFFFF; fill-opacity:1.0000; stroke:none;">
<circle cx="18.5370" cy="23.4250" r="0.1270" /> 
</g>
<g style="fill:#FFFFFF; fill-opacity:1.0000; stroke:none;">
<circle cx="18.5370" cy="15.8050" r="0.1270" /> 
</g>
<g style="fill:#FFFFFF; fill-opacity:1.0000; stroke:none;">
<circle cx="25.5220" cy="46.2850" r="0.1270" /> 
</g>
<g style="fill:#FFFFFF; fill-opacity:1.0000; stroke:none;">
<circle cx="25.5220" cy="31.0450" r="0.1270" /> 
</g>
<g style="fill:#FFFFFF; fill-opacity:1.0000; stroke:none;">
<circle cx="33.4270" cy="57.0150" r="0.1270" /> 
</g>
<g style="fill:#FFFFFF; fill-opacity:1.0000; stroke:none;">
<circle cx="33.4270" cy="52.5700" r="0.1270" /> 
</g>
<g style="fill:#FFFFFF; fill-opacity:1.0000; stroke:none;">
<circle cx="29.9670" cy="27.2350" r="0.1270" /> 
</g>
<g style="fill:#FFFFFF; fill-opacity:1.0000; stroke:none;">
<circle cx="15.9970" cy="44.3800" r="0.1270" /> 
</g>
<g style="fill:#FFFFFF; fill-opacity:1.0000; stroke:none;">
<circle cx="33.7770" cy="26.6000" r="0.1270" /> 
</g>
<g style="fill:#FFFFFF; fill-opacity:1.0000; stroke:none;">
<circle cx="15.9970" cy="41.2050" r="0.1270" /> 
</g>
<g style="fill:#FFFFFF; fill-opacity:1.0000; stroke:none;">
<circle cx="33.7770" cy="44.3800" r="0.1270" /> 
</g>
<g style="fill:#FFFFFF; fill-opacity:1.0000; stroke:none;">
<circle cx="22.9820" cy="27.2350" r="0.1270" /> 
</g>
<g style="fill:#FFFFFF; fill-opacity:1.0000; stroke:none;">
<circle cx="35.6820" cy="43.1100" r="0.1270" /> 
</g>
<g style="fill:#FFFFFF; fill-opacity:1.0000; stroke:none;">
<circle cx="35.6820" cy="28.5050" r="0.1270" /> 
</g>
<g style="fill:#FFFFFF; fill-opacity:1.0000; stroke:none;">
<circle cx="28.0620" cy="15.1700" r="0.1270" /> 
</g>
<g style="fill:#FFFFFF; fill-opacity:1.0000; stroke:none;">
<circle cx="28.0620" cy="25.3300" r="0.1270" /> 
</g>
<g style="fill:#FFFFFF; fill-opacity:1.0000; stroke:none;">
<circle cx="21.0770" cy="72.9550" r="0.2500" /> 
</g>
<g style="fill:#FFFFFF; fill-opacity:1.0000; stroke:none;">
<circle cx="14.5770" cy="72.9550" r="0.2500" /> 
</g>
<g style="fill:#FFFFFF; fill-opacity:1.0000; stroke:none;">
<circle cx="21.0770" cy="77.4550" r="0.2500" /> 
</g>
<g style="fill:#FFFFFF; fill-opacity:1.0000; stroke:none;">
<circle cx="14.5770" cy="77.4550" r="0.2500" /> 
</g>
<g style="fill:#FFFFFF; fill-opacity:1.0000; stroke:none;">
<circle cx="5.4232" cy="75.1725" r="0.2500" /> 
</g>
<g style="fill:#FFFFFF; fill-opacity:1.0000; stroke:none;">
<circle cx="6.8801" cy="77.2531" r="0.2500" /> 
</g>
<g style="fill:#FFFFFF; fill-opacity:1.0000; stroke:none;">
<circle cx="81.4020" cy="11.3600" r="1.6000" /> 
</g>
<g style="fill:#FFFFFF; fill-opacity:1.0000; stroke:none;">
<circle cx="81.4020" cy="54.5400" r="1.6000" /> 
</g>
<g style="fill:#FFFFFF; fill-opacity:1.0000; stroke:none;">
<circle cx="38.5070" cy="56.9274" r="0.2500" /> 
</g>
<g style="fill:#FFFFFF; fill-opacity:1.0000; stroke:none;">
<circle cx="38.5070" cy="54.4274" r="0.2500" /> 
</g>
<g style="fill:#FFFFFF; fill-opacity:1.0000; stroke:none;">
<circle cx="18.5370" cy="12.6300" r="0.2500" /> 
</g>
<g style="fill:#FFFFFF; fill-opacity:1.0000; stroke:none;">
<circle cx="18.5370" cy="10.1300" r="0.2500" /> 
</g>
<g style="fill:#FFFFFF; fill-opacity:1.0000; stroke:none;">
<circle cx="33.4270" cy="50.0300" r="0.2500" /> 
</g>
<g style="fill:#FFFFFF; fill-opacity:1.0000; stroke:none;">
<circle cx="30.9270" cy="50.0300" r="0.2500" /> 
</g>
<g style="fill:#FFFFFF; fill-opacity:1.0000; stroke:none;">
<circle cx="45.8420" cy="54.5400" r="0.3810" /> 
</g>
<g style="fill:#FFFFFF; fill-opacity:1.0000; stroke:none;">
<circle cx="45.8420" cy="39.3000" r="0.3810" /> 
</g>
<g style="fill:#FFFFFF; fill-opacity:1.0000; stroke:none;">
<circle cx="45.8420" cy="41.8400" r="0.3810" /> 
</g>
<g style="fill:#FFFFFF; fill-opacity:1.0000; stroke:none;">
<circle cx="69.1920" cy="54.5400" r="0.3810" /> 
</g>
<g style="fill:#FFFFFF; fill-opacity:1.0000; stroke:none;">
<circle cx="69.1920" cy="52.0000" r="0.3810" /> 
</g>
<g style="fill:#FFFFFF; fill-opacity:1.0000; stroke:none;">
<circle cx="69.1920" cy="49.4600" r="0.3810" /> 
</g>
<g style="fill:#FFFFFF; fill-opacity:1.0000; stroke:none;">
<circle cx="69.1920" cy="46.9200" r="0.3810" /> 
</g>
<g style="fill:#FFFFFF; fill-opacity:1.0000; stroke:none;">
<circle cx="45.8420" cy="52.0000" r="0.3810" /> 
</g>
<g style="fill:#FFFFFF; fill-opacity:1.0000; stroke:none;">
<circle cx="45.8420" cy="49.4600" r="0.3810" /> 
</g>
<g style="fill:#FFFFFF; fill-opacity:1.0000; stroke:none;">
<circle cx="45.8420" cy="46.9200" r="0.3810" /> 
</g>
<g style="fill:#FFFFFF; fill-opacity:1.0000; stroke:none;">
<circle cx="45.8420" cy="44.3800" r="0.3810" /> 
</g>
<g style="fill:#FFFFFF; fill-opacity:1.0000; stroke:none;">
<circle cx="69.1920" cy="44.3800" r="0.3810" /> 
</g>
<g style="fill:#FFFFFF; fill-opacity:1.0000; stroke:none;">
<circle cx="69.1920" cy="41.8400" r="0.3810" /> 
</g>
<g style="fill:#FFFFFF; fill-opacity:1.0000; stroke:none;">
<circle cx="69.1920" cy="57.0800" r="0.3810" /> 
</g>
<g style="fill:#FFFFFF; fill-opacity:1.0000; stroke:none;">
<circle cx="69.1920" cy="39.3000" r="0.3810" /> 
</g>
<g style="fill:#FFFFFF; fill-opacity:1.0000; stroke:none;">
<circle cx="45.8420" cy="57.0800" r="0.3810" /> 
</g>
<g style="fill:#FFFFFF; fill-opacity:1.0000; stroke:none;">
<circle cx="2.6620" cy="43.0350" r="0.2500" /> 
</g>
<g style="fill:#FFFFFF; fill-opacity:1.0000; stroke:none;">
<circle cx="2.6620" cy="40.4950" r="0.2500" /> 
</g>
<g style="fill:#FFFFFF; fill-opacity:1.0000; stroke:none;">
<circle cx="2.6620" cy="37.9550" r="0.2500" /> 
</g>
<g style="fill:#FFFFFF; fill-opacity:1.0000; stroke:none;">
<circle cx="2.6620" cy="35.4150" r="0.2500" /> 
</g>
<g style="fill:#FFFFFF; fill-opacity:1.0000; stroke:none;">
<circle cx="49.6409" cy="13.2351" r="0.2500" /> 
</g>
<g style="fill:#FFFFFF; fill-opacity:1.0000; stroke:none;">
<circle cx="56.6059" cy="13.2351" r="0.2500" /> 
</g>
<g style="fill:#FFFFFF; fill-opacity:1.0000; stroke:none;">
<circle cx="50.8909" cy="9.4251" r="0.2500" /> 
</g>
<g style="fill:#FFFFFF; fill-opacity:1.0000; stroke:none;">
<circle cx="55.3909" cy="9.4251" r="0.2500" /> 
</g>
<g style="fill:#FFFFFF; fill-opacity:1.0000; stroke:none;">
<circle cx="68.6320" cy="13.2351" r="0.2500" /> 
</g>
<g style="fill:#FFFFFF; fill-opacity:1.0000; stroke:none;">
<circle cx="75.5970" cy="13.2351" r="0.2500" /> 
</g>
<g style="fill:#FFFFFF; fill-opacity:1.0000; stroke:none;">
<circle cx="69.8820" cy="9.4251" r="0.2500" /> 
</g>
<g style="fill:#FFFFFF; fill-opacity:1.0000; stroke:none;">
<circle cx="74.3820" cy="9.4251" r="0.2500" /> 
</g>
<g style="fill:#FFFFFF; fill-opacity:1.0000; stroke:none;">
<circle cx="2.6620" cy="47.4850" r="0.2500" /> 
</g>
<g style="fill:#FFFFFF; fill-opacity:1.0000; stroke:none;">
<circle cx="2.6620" cy="50.0250" r="0.2500" /> 
</g>
<g style="fill:#FFFFFF; fill-opacity:1.0000; stroke:none;">
<circle cx="18.8220" cy="56.9274" r="0.2500" /> 
</g>
<g style="fill:#FFFFFF; fill-opacity:1.0000; stroke:none;">
<circle cx="18.8220" cy="54.4274" r="0.2500" /> 
</g>
<g style="fill:#FFFFFF; fill-opacity:1.0000; stroke:none;">
<circle cx="9.6470" cy="8.8200" r="0.2500" /> 
</g>
<g style="fill:#FFFFFF; fill-opacity:1.0000; stroke:none;">
<circle cx="9.6470" cy="11.3600" r="0.2500" /> 
</g>
<g style="fill:#FFFFFF; fill-opacity:1.0000; stroke:none;">
<circle cx="9.6470" cy="13.9000" r="0.2500" /> 
</g>
<g style="fill:#FFFFFF; fill-opacity:1.0000; stroke:none;">
<circle cx="9.6470" cy="16.4400" r="0.2500" /> 
</g>
<g style="fill:#FFFFFF; fill-opacity:1.0000; stroke:none;">
<circle cx="9.6470" cy="18.9800" r="0.2500" /> 
</g>
<g style="fill:#FFFFFF; fill-opacity:1.0000; stroke:none;">
<circle cx="9.6470" cy="21.5200" r="0.2500" /> 
</g>
<g style="fill:#FFFFFF; fill-opacity:1.0000; stroke:none;">
<circle cx="9.6470" cy="24.0600" r="0.2500" /> 
</g>
<g style="fill:#FFFFFF; fill-opacity:1.0000; stroke:none;">
<circle cx="9.6470" cy="26.6000" r="0.2500" /> 
</g>
<g style="fill:#FFFFFF; fill-opacity:1.0000; stroke:none;">
<circle cx="9.6470" cy="29.1400" r="0.2500" /> 
</g>
<g style="fill:#FFFFFF; fill-opacity:1.0000; stroke:none;">
<circle cx="9.6470" cy="31.6800" r="0.2500" /> 
</g>
<g style="fill:#FFFFFF; fill-opacity:1.0000; stroke:none;">
<circle cx="9.6470" cy="34.2200" r="0.2500" /> 
</g>
<g style="fill:#FFFFFF; fill-opacity:1.0000; stroke:none;">
<circle cx="9.6470" cy="36.7600" r="0.2500" /> 
</g>
<g style="fill:#FFFFFF; fill-opacity:1.0000; stroke:none;">
<circle cx="9.6470" cy="39.3000" r="0.2500" /> 
</g>
<g style="fill:#FFFFFF; fill-opacity:1.0000; stroke:none;">
<circle cx="9.6470" cy="41.8400" r="0.2500" /> 
</g>
<g style="fill:#FFFFFF; fill-opacity:1.0000; stroke:none;">
<circle cx="9.6470" cy="44.3800" r="0.2500" /> 
</g>
<g style="fill:#FFFFFF; fill-opacity:1.0000; stroke:none;">
<circle cx="9.6470" cy="46.9200" r="0.2500" /> 
</g>
<g style="fill:#FFFFFF; fill-opacity:1.0000; stroke:none;">
<circle cx="9.6470" cy="49.4600" r="0.2500" /> 
</g>
<g style="fill:#FFFFFF; fill-opacity:1.0000; stroke:none;">
<circle cx="9.6470" cy="52.0000" r="0.2500" /> 
</g>
<g style="fill:#FFFFFF; fill-opacity:1.0000; stroke:none;">
<circle cx="9.6470" cy="54.5400" r="0.2500" /> 
</g>
<g style="fill:#FFFFFF; fill-opacity:1.0000; stroke:none;">
<circle cx="9.6470" cy="57.0800" r="0.2500" /> 
</g>
<g style="fill:#FFFFFF; fill-opacity:1.0000; stroke:none;">
<circle cx="7.1070" cy="8.8200" r="0.2500" /> 
</g>
<g style="fill:#FFFFFF; fill-opacity:1.0000; stroke:none;">
<circle cx="7.1070" cy="11.3600" r="0.2500" /> 
</g>
<g style="fill:#FFFFFF; fill-opacity:1.0000; stroke:none;">
<circle cx="7.1070" cy="13.9000" r="0.2500" /> 
</g>
<g style="fill:#FFFFFF; fill-opacity:1.0000; stroke:none;">
<circle cx="7.1070" cy="16.4400" r="0.2500" /> 
</g>
<g style="fill:#FFFFFF; fill-opacity:1.0000; stroke:none;">
<circle cx="7.1070" cy="18.9800" r="0.2500" /> 
</g>
<g style="fill:#FFFFFF; fill-opacity:1.0000; stroke:none;">
<circle cx="7.1070" cy="21.5200" r="0.2500" /> 
</g>
<g style="fill:#FFFFFF; fill-opacity:1.0000; stroke:none;">
<circle cx="7.1070" cy="24.0600" r="0.2500" /> 
</g>
<g style="fill:#FFFFFF; fill-opacity:1.0000; stroke:none;">
<circle cx="7.1070" cy="26.6000" r="0.2500" /> 
</g>
<g style="fill:#FFFFFF; fill-opacity:1.0000; stroke:none;">
<circle cx="7.1070" cy="29.1400" r="0.2500" /> 
</g>
<g style="fill:#FFFFFF; fill-opacity:1.0000; stroke:none;">
<circle cx="7.1070" cy="31.6800" r="0.2500" /> 
</g>
<g style="fill:#FFFFFF; fill-opacity:1.0000; stroke:none;">
<circle cx="7.1070" cy="34.2200" r="0.2500" /> 
</g>
<g style="fill:#FFFFFF; fill-opacity:1.0000; stroke:none;">
<circle cx="7.1070" cy="36.7600" r="0.2500" /> 
</g>
<g style="fill:#FFFFFF; fill-opacity:1.0000; stroke:none;">
<circle cx="7.1070" cy="39.3000" r="0.2500" /> 
</g>
<g style="fill:#FFFFFF; fill-opacity:1.0000; stroke:none;">
<circle cx="7.1070" cy="41.8400" r="0.2500" /> 
</g>
<g style="fill:#FFFFFF; fill-opacity:1.0000; stroke:none;">
<circle cx="7.1070" cy="44.3800" r="0.2500" /> 
</g>
<g style="fill:#FFFFFF; fill-opacity:1.0000; stroke:none;">
<circle cx="7.1070" cy="46.9200" r="0.2500" /> 
</g>
<g style="fill:#FFFFFF; fill-opacity:1.0000; stroke:none;">
<circle cx="7.1070" cy="49.4600" r="0.2500" /> 
</g>
<g style="fill:#FFFFFF; fill-opacity:1.0000; stroke:none;">
<circle cx="7.1070" cy="52.0000" r="0.2500" /> 
</g>
<g style="fill:#FFFFFF; fill-opacity:1.0000; stroke:none;">
<circle cx="7.1070" cy="54.5400" r="0.2500" /> 
</g>
<g style="fill:#FFFFFF; fill-opacity:1.0000; stroke:none;">
<circle cx="7.1070" cy="57.0800" r="0.2500" /> 
</g>
<g style="fill:#FFFFFF; fill-opacity:1.0000; stroke:none;">
<circle cx="4.5670" cy="57.0800" r="0.2500" /> 
</g>
<g style="fill:#FFFFFF; fill-opacity:1.0000; stroke:none;">
<circle cx="12.1870" cy="57.0800" r="0.2500" /> 
</g>
<g style="fill:#FFFFFF; fill-opacity:1.0000; stroke:none;">
<circle cx="4.5670" cy="54.5400" r="0.2500" /> 
</g>
<g style="fill:#FFFFFF; fill-opacity:1.0000; stroke:none;">
<circle cx="12.1870" cy="54.5400" r="0.2500" /> 
</g>
<g style="fill:#FFFFFF; fill-opacity:1.0000; stroke:none;">
<circle cx="4.5670" cy="31.6800" r="0.2500" /> 
</g>
<g style="fill:#FFFFFF; fill-opacity:1.0000; stroke:none;">
<circle cx="12.1870" cy="31.6800" r="0.2500" /> 
</g>
<g style="fill:#FFFFFF; fill-opacity:1.0000; stroke:none;">
<circle cx="4.5670" cy="29.1400" r="0.2500" /> 
</g>
<g style="fill:#FFFFFF; fill-opacity:1.0000; stroke:none;">
<circle cx="12.1870" cy="29.1400" r="0.2500" /> 
</g>
<g style="fill:#FFFFFF; fill-opacity:1.0000; stroke:none;">
<circle cx="4.5670" cy="26.6000" r="0.2500" /> 
</g>
<g style="fill:#FFFFFF; fill-opacity:1.0000; stroke:none;">
<circle cx="12.1870" cy="26.6000" r="0.2500" /> 
</g>
<g style="fill:#FFFFFF; fill-opacity:1.0000; stroke:none;">
<circle cx="4.5670" cy="24.0600" r="0.2500" /> 
</g>
<g style="fill:#FFFFFF; fill-opacity:1.0000; stroke:none;">
<circle cx="12.1870" cy="24.0600" r="0.2500" /> 
</g>
<g style="fill:#FFFFFF; fill-opacity:1.0000; stroke:none;">
<circle cx="4.5670" cy="21.5200" r="0.2500" /> 
</g>
<g style="fill:#FFFFFF; fill-opacity:1.0000; stroke:none;">
<circle cx="12.1870" cy="21.5200" r="0.2500" /> 
</g>
<g style="fill:#FFFFFF; fill-opacity:1.0000; stroke:none;">
<circle cx="4.5670" cy="18.9800" r="0.2500" /> 
</g>
<g style="fill:#FFFFFF; fill-opacity:1.0000; stroke:none;">
<circle cx="12.1870" cy="18.9800" r="0.2500" /> 
</g>
<g style="fill:#FFFFFF; fill-opacity:1.0000; stroke:none;">
<circle cx="4.5670" cy="11.3600" r="0.2500" /> 
</g>
<g style="fill:#FFFFFF; fill-opacity:1.0000; stroke:none;">
<circle cx="12.1870" cy="11.3600" r="0.2500" /> 
</g>
<g style="fill:#FFFFFF; fill-opacity:1.0000; stroke:none;">
<circle cx="4.5670" cy="8.8200" r="0.2500" /> 
</g>
<g style="fill:#FFFFFF; fill-opacity:1.0000; stroke:none;">
<circle cx="12.1870" cy="8.8200" r="0.2500" /> 
</g> 
</svg>
