<?xml version="1.0" standalone="no"?>
 <!DOCTYPE svg PUBLIC "-//W3C//DTD SVG 1.1//EN" 
 "http://www.w3.org/Graphics/SVG/1.1/DTD/svg11.dtd"> 
<svg
  xmlns:svg="http://www.w3.org/2000/svg"
  xmlns="http://www.w3.org/2000/svg"
  xmlns:xlink="http://www.w3.org/1999/xlink"
  version="1.1"
  width="94.3610mm" height="70.4342mm" viewBox="0.0000 0.0000 94.3610 70.4342">
<title>SVG Image created as main_v2-F_Cu.svg date 2024/06/28 10:34:31 </title>
  <desc>Image generated by PCBNEW </desc>
<g style="fill:#000000; fill-opacity:1.0000;stroke:#000000; stroke-opacity:1.0000;
stroke-linecap:round; stroke-linejoin:round;"
 transform="translate(0 0) scale(1 1)">
<path style="fill:#000000; fill-opacity:1.0000; stroke:none;fill-rule:evenodd;"
d="M 80.9900,30.4642
80.8943,30.4452
80.8132,30.3910
80.7590,30.3099
80.7400,30.2142
80.7400,29.4142
80.7590,29.3186
80.8132,29.2375
80.8943,29.1833
80.9900,29.1642
82.2400,29.1642
82.3357,29.1833
82.4168,29.2375
82.4710,29.3186
82.4900,29.4142
82.4900,30.2142
82.4710,30.3099
82.4168,30.3910
82.3357,30.4452
82.2400,30.4642
Z" /> 
<path style="fill:#000000; fill-opacity:1.0000; stroke:none;fill-rule:evenodd;"
d="M 80.9900,33.5643
80.8943,33.5452
80.8132,33.4910
80.7590,33.4099
80.7400,33.3143
80.7400,32.5142
80.7590,32.4186
80.8132,32.3375
80.8943,32.2833
80.9900,32.2642
82.2400,32.2642
82.3357,32.2833
82.4168,32.3375
82.4710,32.4186
82.4900,32.5142
82.4900,33.3143
82.4710,33.4099
82.4168,33.4910
82.3357,33.5452
82.2400,33.5643
Z" /> 
</g>
<g style="fill:#000000; fill-opacity:1.0000; stroke:none;">
<circle cx="18.7475" cy="16.6333" r="1.0500" /> 
</g>
<g style="fill:#000000; fill-opacity:1.0000; stroke:none;">
<circle cx="25.7125" cy="16.6333" r="1.0500" /> 
</g>
<g style="fill:#000000; fill-opacity:1.0000; stroke:none;">
<circle cx="19.9975" cy="13.4583" r="0.8750" /> 
</g>
<g style="fill:#000000; fill-opacity:1.0000; stroke:none;">
<circle cx="24.4975" cy="13.4583" r="0.8750" /> 
</g>
<g style="fill:#000000; fill-opacity:1.0000; stroke:none;">
<circle cx="37.7475" cy="16.6333" r="1.0500" /> 
</g>
<g style="fill:#000000; fill-opacity:1.0000; stroke:none;">
<circle cx="44.7125" cy="16.6333" r="1.0500" /> 
</g>
<g style="fill:#000000; fill-opacity:1.0000; stroke:none;">
<circle cx="38.9975" cy="13.4583" r="0.8750" /> 
</g>
<g style="fill:#000000; fill-opacity:1.0000; stroke:none;">
<circle cx="43.4975" cy="13.4583" r="0.8750" /> 
<path style="fill:#000000; fill-opacity:1.0000; stroke:none;fill-rule:evenodd;"
d="M 21.6500,20.7832
21.5543,20.7642
21.4732,20.7100
21.4190,20.6289
21.4000,20.5332
21.4000,19.7332
21.4190,19.6376
21.4732,19.5565
21.5543,19.5023
21.6500,19.4832
22.9000,19.4832
22.9957,19.5023
23.0768,19.5565
23.1310,19.6376
23.1500,19.7332
23.1500,20.5332
23.1310,20.6289
23.0768,20.7100
22.9957,20.7642
22.9000,20.7832
Z" /> 
<path style="fill:#000000; fill-opacity:1.0000; stroke:none;fill-rule:evenodd;"
d="M 21.6500,23.8833
21.5543,23.8642
21.4732,23.8100
21.4190,23.7289
21.4000,23.6333
21.4000,22.8332
21.4190,22.7376
21.4732,22.6565
21.5543,22.6023
21.6500,22.5832
22.9000,22.5832
22.9957,22.6023
23.0768,22.6565
23.1310,22.7376
23.1500,22.8332
23.1500,23.6333
23.1310,23.7289
23.0768,23.8100
22.9957,23.8642
22.9000,23.8833
Z" /> 
<path style="fill:#000000; fill-opacity:1.0000; stroke:none;fill-rule:evenodd;"
d="M 39.4300,20.7832
39.3343,20.7642
39.2532,20.7100
39.1990,20.6289
39.1800,20.5332
39.1800,19.7332
39.1990,19.6376
39.2532,19.5565
39.3343,19.5023
39.4300,19.4832
40.6800,19.4832
40.7757,19.5023
40.8568,19.5565
40.9110,19.6376
40.9300,19.7332
40.9300,20.5332
40.9110,20.6289
40.8568,20.7100
40.7757,20.7642
40.6800,20.7832
Z" /> 
<path style="fill:#000000; fill-opacity:1.0000; stroke:none;fill-rule:evenodd;"
d="M 39.4300,23.8833
39.3343,23.8642
39.2532,23.8100
39.1990,23.7289
39.1800,23.6333
39.1800,22.8332
39.1990,22.7376
39.2532,22.6565
39.3343,22.6023
39.4300,22.5832
40.6800,22.5832
40.7757,22.6023
40.8568,22.6565
40.9110,22.7376
40.9300,22.8332
40.9300,23.6333
40.9110,23.7289
40.8568,23.8100
40.7757,23.8642
40.6800,23.8833
Z" /> 
<path style="fill:#000000; fill-opacity:1.0000; stroke:none;fill-rule:evenodd;"
d="M 69.5350,29.6883
69.4393,29.6692
69.3582,29.6150
69.3040,29.5339
69.2850,29.4383
69.2850,28.6132
69.3040,28.5176
69.3582,28.4365
69.4393,28.3823
69.5350,28.3632
70.8350,28.3632
70.9307,28.3823
71.0118,28.4365
71.0660,28.5176
71.0850,28.6132
71.0850,29.4383
71.0660,29.5339
71.0118,29.6150
70.9307,29.6692
70.8350,29.6883
Z" /> 
<path style="fill:#000000; fill-opacity:1.0000; stroke:none;fill-rule:evenodd;"
d="M 69.5350,26.5633
69.4393,26.5442
69.3582,26.4900
69.3040,26.4089
69.2850,26.3133
69.2850,25.4882
69.3040,25.3926
69.3582,25.3115
69.4393,25.2573
69.5350,25.2382
70.8350,25.2382
70.9307,25.2573
71.0118,25.3115
71.0660,25.3926
71.0850,25.4882
71.0850,26.3133
71.0660,26.4089
71.0118,26.4900
70.9307,26.5442
70.8350,26.5633
Z" /> 
<path style="fill:#000000; fill-opacity:1.0000; stroke:none;fill-rule:evenodd;"
d="M 73.0200,59.8382
73.0010,59.9339
72.9468,60.0150
72.8657,60.0692
72.7700,60.0882
71.9700,60.0882
71.8743,60.0692
71.7932,60.0150
71.7390,59.9339
71.7200,59.8382
71.7200,58.5882
71.7390,58.4926
71.7932,58.4115
71.8743,58.3573
71.9700,58.3382
72.7700,58.3382
72.8657,58.3573
72.9468,58.4115
73.0010,58.4926
73.0200,58.5882
Z" /> 
<path style="fill:#000000; fill-opacity:1.0000; stroke:none;fill-rule:evenodd;"
d="M 69.9200,59.8382
69.9010,59.9339
69.8468,60.0150
69.7657,60.0692
69.6700,60.0882
68.8700,60.0882
68.7743,60.0692
68.6932,60.0150
68.6390,59.9339
68.6200,59.8382
68.6200,58.5882
68.6390,58.4926
68.6932,58.4115
68.7743,58.3573
68.8700,58.3382
69.6700,58.3382
69.7657,58.3573
69.8468,58.4115
69.9010,58.4926
69.9200,58.5882
Z" /> 
<path style="fill:#000000; fill-opacity:1.0000; stroke:none;fill-rule:evenodd;"
d="M 73.1950,12.7809
74.7950,12.7809
74.7950,14.3809
73.1950,14.3809
Z" /> 
</g>
<g style="fill:#000000; fill-opacity:1.0000; stroke:none;">
<circle cx="73.9950" cy="16.0809" r="0.8000" /> 
<path style="fill:#000000; fill-opacity:1.0000; stroke:none;fill-rule:evenodd;"
d="M 67.7950,26.4232
67.8524,26.4347
67.9011,26.4672
67.9336,26.5158
67.9450,26.5732
67.9450,28.2233
67.9336,28.2807
67.9011,28.3293
67.8524,28.3618
67.7950,28.3732
67.4950,28.3732
67.4376,28.3618
67.3889,28.3293
67.3564,28.2807
67.3450,28.2233
67.3450,26.5732
67.3564,26.5158
67.3889,26.4672
67.4376,26.4347
67.4950,26.4232
Z" /> 
<path style="fill:#000000; fill-opacity:1.0000; stroke:none;fill-rule:evenodd;"
d="M 66.5250,26.4232
66.5824,26.4347
66.6311,26.4672
66.6636,26.5158
66.6750,26.5732
66.6750,28.2233
66.6636,28.2807
66.6311,28.3293
66.5824,28.3618
66.5250,28.3732
66.2250,28.3732
66.1676,28.3618
66.1189,28.3293
66.0864,28.2807
66.0750,28.2233
66.0750,26.5732
66.0864,26.5158
66.1189,26.4672
66.1676,26.4347
66.2250,26.4232
Z" /> 
<path style="fill:#000000; fill-opacity:1.0000; stroke:none;fill-rule:evenodd;"
d="M 65.2550,26.4232
65.3124,26.4347
65.3611,26.4672
65.3936,26.5158
65.4050,26.5732
65.4050,28.2233
65.3936,28.2807
65.3611,28.3293
65.3124,28.3618
65.2550,28.3732
64.9550,28.3732
64.8976,28.3618
64.8489,28.3293
64.8164,28.2807
64.8050,28.2233
64.8050,26.5732
64.8164,26.5158
64.8489,26.4672
64.8976,26.4347
64.9550,26.4232
Z" /> 
<path style="fill:#000000; fill-opacity:1.0000; stroke:none;fill-rule:evenodd;"
d="M 63.9850,26.4232
64.0424,26.4347
64.0911,26.4672
64.1236,26.5158
64.1350,26.5732
64.1350,28.2233
64.1236,28.2807
64.0911,28.3293
64.0424,28.3618
63.9850,28.3732
63.6850,28.3732
63.6276,28.3618
63.5789,28.3293
63.5464,28.2807
63.5350,28.2233
63.5350,26.5732
63.5464,26.5158
63.5789,26.4672
63.6276,26.4347
63.6850,26.4232
Z" /> 
<path style="fill:#000000; fill-opacity:1.0000; stroke:none;fill-rule:evenodd;"
d="M 63.9850,21.4733
64.0424,21.4847
64.0911,21.5172
64.1236,21.5658
64.1350,21.6232
64.1350,23.2732
64.1236,23.3307
64.0911,23.3793
64.0424,23.4118
63.9850,23.4232
63.6850,23.4232
63.6276,23.4118
63.5789,23.3793
63.5464,23.3307
63.5350,23.2732
63.5350,21.6232
63.5464,21.5658
63.5789,21.5172
63.6276,21.4847
63.6850,21.4733
Z" /> 
<path style="fill:#000000; fill-opacity:1.0000; stroke:none;fill-rule:evenodd;"
d="M 65.2550,21.4733
65.3124,21.4847
65.3611,21.5172
65.3936,21.5658
65.4050,21.6232
65.4050,23.2732
65.3936,23.3307
65.3611,23.3793
65.3124,23.4118
65.2550,23.4232
64.9550,23.4232
64.8976,23.4118
64.8489,23.3793
64.8164,23.3307
64.8050,23.2732
64.8050,21.6232
64.8164,21.5658
64.8489,21.5172
64.8976,21.4847
64.9550,21.4733
Z" /> 
<path style="fill:#000000; fill-opacity:1.0000; stroke:none;fill-rule:evenodd;"
d="M 66.5250,21.4733
66.5824,21.4847
66.6311,21.5172
66.6636,21.5658
66.6750,21.6232
66.6750,23.2732
66.6636,23.3307
66.6311,23.3793
66.5824,23.4118
66.5250,23.4232
66.2250,23.4232
66.1676,23.4118
66.1189,23.3793
66.0864,23.3307
66.0750,23.2732
66.0750,21.6232
66.0864,21.5658
66.1189,21.5172
66.1676,21.4847
66.2250,21.4733
Z" /> 
<path style="fill:#000000; fill-opacity:1.0000; stroke:none;fill-rule:evenodd;"
d="M 67.7950,21.4733
67.8524,21.4847
67.9011,21.5172
67.9336,21.5658
67.9450,21.6232
67.9450,23.2732
67.9336,23.3307
67.9011,23.3793
67.8524,23.4118
67.7950,23.4232
67.4950,23.4232
67.4376,23.4118
67.3889,23.3793
67.3564,23.3307
67.3450,23.2732
67.3450,21.6232
67.3564,21.5658
67.3889,21.5172
67.4376,21.4847
67.4950,21.4733
Z" /> 
<path style="fill:#000000; fill-opacity:1.0000; stroke:none;fill-rule:evenodd;"
d="M 68.6200,56.0482
68.6390,55.9526
68.6932,55.8715
68.7743,55.8173
68.8700,55.7982
69.6700,55.7982
69.7657,55.8173
69.8468,55.8715
69.9010,55.9526
69.9200,56.0482
69.9200,57.2982
69.9010,57.3939
69.8468,57.4750
69.7657,57.5292
69.6700,57.5482
68.8700,57.5482
68.7743,57.5292
68.6932,57.4750
68.6390,57.3939
68.6200,57.2982
Z" /> 
<path style="fill:#000000; fill-opacity:1.0000; stroke:none;fill-rule:evenodd;"
d="M 71.7200,56.0482
71.7390,55.9526
71.7932,55.8715
71.8743,55.8173
71.9700,55.7982
72.7700,55.7982
72.8657,55.8173
72.9468,55.8715
73.0010,55.9526
73.0200,56.0482
73.0200,57.2982
73.0010,57.3939
72.9468,57.4750
72.8657,57.5292
72.7700,57.5482
71.9700,57.5482
71.8743,57.5292
71.7932,57.4750
71.7390,57.3939
71.7200,57.2982
Z" /> 
<path style="fill:#000000; fill-opacity:1.0000; stroke:none;fill-rule:evenodd;"
d="M 58.1350,55.7832
58.2307,55.8023
58.3118,55.8565
58.3660,55.9376
58.3850,56.0332
58.3850,56.8582
58.3660,56.9539
58.3118,57.0350
58.2307,57.0892
58.1350,57.1082
56.8350,57.1082
56.7393,57.0892
56.6582,57.0350
56.6040,56.9539
56.5850,56.8582
56.5850,56.0332
56.6040,55.9376
56.6582,55.8565
56.7393,55.8023
56.8350,55.7832
Z" /> 
<path style="fill:#000000; fill-opacity:1.0000; stroke:none;fill-rule:evenodd;"
d="M 58.1350,58.9082
58.2307,58.9273
58.3118,58.9815
58.3660,59.0626
58.3850,59.1582
58.3850,59.9832
58.3660,60.0789
58.3118,60.1600
58.2307,60.2142
58.1350,60.2332
56.8350,60.2332
56.7393,60.2142
56.6582,60.1600
56.6040,60.0789
56.5850,59.9832
56.5850,59.1582
56.6040,59.0626
56.6582,58.9815
56.7393,58.9273
56.8350,58.9082
Z" /> 
<path style="fill:#000000; fill-opacity:1.0000; stroke:none;fill-rule:evenodd;"
d="M 65.0950,31.6132
65.1907,31.6323
65.2718,31.6865
65.3260,31.7676
65.3450,31.8632
65.3450,32.6632
65.3260,32.7589
65.2718,32.8400
65.1907,32.8942
65.0950,32.9132
63.8450,32.9132
63.7493,32.8942
63.6682,32.8400
63.6140,32.7589
63.5950,32.6632
63.5950,31.8632
63.6140,31.7676
63.6682,31.6865
63.7493,31.6323
63.8450,31.6132
Z" /> 
<path style="fill:#000000; fill-opacity:1.0000; stroke:none;fill-rule:evenodd;"
d="M 65.0950,34.7132
65.1907,34.7323
65.2718,34.7865
65.3260,34.8676
65.3450,34.9632
65.3450,35.7632
65.3260,35.8589
65.2718,35.9400
65.1907,35.9942
65.0950,36.0132
63.8450,36.0132
63.7493,35.9942
63.6682,35.9400
63.6140,35.8589
63.5950,35.7632
63.5950,34.9632
63.6140,34.8676
63.6682,34.7865
63.7493,34.7323
63.8450,34.7132
Z" /> 
<path style="fill:#000000; fill-opacity:1.0000; stroke:none;fill-rule:evenodd;"
d="M 62.5550,29.7082
62.6507,29.7273
62.7318,29.7815
62.7860,29.8626
62.8050,29.9582
62.8050,30.7583
62.7860,30.8539
62.7318,30.9350
62.6507,30.9892
62.5550,31.0083
61.3050,31.0083
61.2093,30.9892
61.1282,30.9350
61.0740,30.8539
61.0550,30.7583
61.0550,29.9582
61.0740,29.8626
61.1282,29.7815
61.2093,29.7273
61.3050,29.7082
Z" /> 
<path style="fill:#000000; fill-opacity:1.0000; stroke:none;fill-rule:evenodd;"
d="M 62.5550,32.8083
62.6507,32.8273
62.7318,32.8815
62.7860,32.9626
62.8050,33.0583
62.8050,33.8582
62.7860,33.9539
62.7318,34.0350
62.6507,34.0892
62.5550,34.1082
61.3050,34.1082
61.2093,34.0892
61.1282,34.0350
61.0740,33.9539
61.0550,33.8582
61.0550,33.0583
61.0740,32.9626
61.1282,32.8815
61.2093,32.8273
61.3050,32.8083
Z" /> 
<path style="fill:#000000; fill-opacity:1.0000; stroke:none;fill-rule:evenodd;"
d="M 94.0250,26.6082
94.0042,26.7396
93.9438,26.8581
93.8498,26.9521
93.7313,27.0124
93.6000,27.0332
89.9500,27.0332
89.8187,27.0124
89.7002,26.9521
89.6062,26.8581
89.5458,26.7396
89.5250,26.6082
89.5250,25.7583
89.5458,25.6269
89.6062,25.5084
89.7002,25.4144
89.8187,25.3541
89.9500,25.3332
93.6000,25.3332
93.7313,25.3541
93.8498,25.4144
93.9438,25.5084
94.0042,25.6269
94.0250,25.7583
Z" /> 
<path style="fill:#000000; fill-opacity:1.0000; stroke:none;fill-rule:evenodd;"
d="M 94.0250,24.0682
94.0042,24.1996
93.9438,24.3181
93.8498,24.4121
93.7313,24.4724
93.6000,24.4932
89.9500,24.4932
89.8187,24.4724
89.7002,24.4121
89.6062,24.3181
89.5458,24.1996
89.5250,24.0682
89.5250,23.2182
89.5458,23.0869
89.6062,22.9684
89.7002,22.8744
89.8187,22.8141
89.9500,22.7933
93.6000,22.7933
93.7313,22.8141
93.8498,22.8744
93.9438,22.9684
94.0042,23.0869
94.0250,23.2182
Z" /> 
<path style="fill:#000000; fill-opacity:1.0000; stroke:none;fill-rule:evenodd;"
d="M 94.0250,21.5282
94.0042,21.6596
93.9438,21.7781
93.8498,21.8721
93.7313,21.9324
93.6000,21.9533
89.9500,21.9533
89.8187,21.9324
89.7002,21.8721
89.6062,21.7781
89.5458,21.6596
89.5250,21.5282
89.5250,20.6782
89.5458,20.5469
89.6062,20.4284
89.7002,20.3344
89.8187,20.2741
89.9500,20.2532
93.6000,20.2532
93.7313,20.2741
93.8498,20.3344
93.9438,20.4284
94.0042,20.5469
94.0250,20.6782
Z" /> 
<path style="fill:#000000; fill-opacity:1.0000; stroke:none;fill-rule:evenodd;"
d="M 94.0250,18.9883
94.0042,19.1196
93.9438,19.2381
93.8498,19.3321
93.7313,19.3924
93.6000,19.4132
89.9500,19.4132
89.8187,19.3924
89.7002,19.3321
89.6062,19.2381
89.5458,19.1196
89.5250,18.9883
89.5250,18.1382
89.5458,18.0069
89.6062,17.8884
89.7002,17.7944
89.8187,17.7341
89.9500,17.7132
93.6000,17.7132
93.7313,17.7341
93.8498,17.7944
93.9438,17.8884
94.0042,18.0069
94.0250,18.1382
Z" /> 
<path style="fill:#000000; fill-opacity:1.0000; stroke:none;fill-rule:evenodd;"
d="M 58.6500,29.1982
58.6386,29.2557
58.6061,29.3043
58.5574,29.3368
58.5000,29.3483
57.4750,29.3483
57.4176,29.3368
57.3689,29.3043
57.3364,29.2557
57.3250,29.1982
57.3250,28.8982
57.3364,28.8408
57.3689,28.7922
57.4176,28.7597
57.4750,28.7482
58.5000,28.7482
58.5574,28.7597
58.6061,28.7922
58.6386,28.8408
58.6500,28.8982
Z" /> 
<path style="fill:#000000; fill-opacity:1.0000; stroke:none;fill-rule:evenodd;"
d="M 58.6500,28.2482
58.6386,28.3057
58.6061,28.3543
58.5574,28.3868
58.5000,28.3982
57.4750,28.3982
57.4176,28.3868
57.3689,28.3543
57.3364,28.3057
57.3250,28.2482
57.3250,27.9482
57.3364,27.8908
57.3689,27.8422
57.4176,27.8097
57.4750,27.7982
58.5000,27.7982
58.5574,27.8097
58.6061,27.8422
58.6386,27.8908
58.6500,27.9482
Z" /> 
<path style="fill:#000000; fill-opacity:1.0000; stroke:none;fill-rule:evenodd;"
d="M 58.6500,27.2982
58.6386,27.3557
58.6061,27.4043
58.5574,27.4368
58.5000,27.4482
57.4750,27.4482
57.4176,27.4368
57.3689,27.4043
57.3364,27.3557
57.3250,27.2982
57.3250,26.9982
57.3364,26.9408
57.3689,26.8922
57.4176,26.8597
57.4750,26.8483
58.5000,26.8483
58.5574,26.8597
58.6061,26.8922
58.6386,26.9408
58.6500,26.9982
Z" /> 
<path style="fill:#000000; fill-opacity:1.0000; stroke:none;fill-rule:evenodd;"
d="M 56.3750,27.2982
56.3636,27.3557
56.3311,27.4043
56.2824,27.4368
56.2250,27.4482
55.2000,27.4482
55.1426,27.4368
55.0939,27.4043
55.0614,27.3557
55.0500,27.2982
55.0500,26.9982
55.0614,26.9408
55.0939,26.8922
55.1426,26.8597
55.2000,26.8483
56.2250,26.8483
56.2824,26.8597
56.3311,26.8922
56.3636,26.9408
56.3750,26.9982
Z" /> 
<path style="fill:#000000; fill-opacity:1.0000; stroke:none;fill-rule:evenodd;"
d="M 56.3750,29.1982
56.3636,29.2557
56.3311,29.3043
56.2824,29.3368
56.2250,29.3483
55.2000,29.3483
55.1426,29.3368
55.0939,29.3043
55.0614,29.2557
55.0500,29.1982
55.0500,28.8982
55.0614,28.8408
55.0939,28.7922
55.1426,28.7597
55.2000,28.7482
56.2250,28.7482
56.2824,28.7597
56.3311,28.7922
56.3636,28.8408
56.3750,28.8982
Z" /> 
<path style="fill:#000000; fill-opacity:1.0000; stroke:none;fill-rule:evenodd;"
d="M 89.5250,30.2082
89.5458,30.0769
89.6062,29.9584
89.7002,29.8644
89.8187,29.8041
89.9500,29.7832
93.6000,29.7832
93.7313,29.8041
93.8498,29.8644
93.9438,29.9584
94.0042,30.0769
94.0250,30.2082
94.0250,31.0582
94.0042,31.1896
93.9438,31.3081
93.8498,31.4021
93.7313,31.4624
93.6000,31.4832
89.9500,31.4832
89.8187,31.4624
89.7002,31.4021
89.6062,31.3081
89.5458,31.1896
89.5250,31.0582
Z" /> 
<path style="fill:#000000; fill-opacity:1.0000; stroke:none;fill-rule:evenodd;"
d="M 89.5250,32.7482
89.5458,32.6169
89.6062,32.4984
89.7002,32.4044
89.8187,32.3441
89.9500,32.3233
93.6000,32.3233
93.7313,32.3441
93.8498,32.4044
93.9438,32.4984
94.0042,32.6169
94.0250,32.7482
94.0250,33.5983
94.0042,33.7296
93.9438,33.8481
93.8498,33.9421
93.7313,34.0024
93.6000,34.0232
89.9500,34.0232
89.8187,34.0024
89.7002,33.9421
89.6062,33.8481
89.5458,33.7296
89.5250,33.5983
Z" /> 
<path style="fill:#000000; fill-opacity:1.0000; stroke:none;fill-rule:evenodd;"
d="M 75.4950,57.4782
75.5064,57.4208
75.5389,57.3722
75.5876,57.3397
75.6450,57.3282
76.8200,57.3282
76.8774,57.3397
76.9261,57.3722
76.9586,57.4208
76.9700,57.4782
76.9700,57.7782
76.9586,57.8357
76.9261,57.8843
76.8774,57.9168
76.8200,57.9282
75.6450,57.9282
75.5876,57.9168
75.5389,57.8843
75.5064,57.8357
75.4950,57.7782
Z" /> 
<path style="fill:#000000; fill-opacity:1.0000; stroke:none;fill-rule:evenodd;"
d="M 75.4950,59.3782
75.5064,59.3208
75.5389,59.2722
75.5876,59.2397
75.6450,59.2282
76.8200,59.2282
76.8774,59.2397
76.9261,59.2722
76.9586,59.3208
76.9700,59.3782
76.9700,59.6782
76.9586,59.7357
76.9261,59.7843
76.8774,59.8168
76.8200,59.8282
75.6450,59.8282
75.5876,59.8168
75.5389,59.7843
75.5064,59.7357
75.4950,59.6782
Z" /> 
<path style="fill:#000000; fill-opacity:1.0000; stroke:none;fill-rule:evenodd;"
d="M 77.3700,58.4282
77.3814,58.3708
77.4139,58.3222
77.4626,58.2897
77.5200,58.2782
78.6950,58.2782
78.7524,58.2897
78.8011,58.3222
78.8336,58.3708
78.8450,58.4282
78.8450,58.7282
78.8336,58.7857
78.8011,58.8343
78.7524,58.8668
78.6950,58.8782
77.5200,58.8782
77.4626,58.8668
77.4139,58.8343
77.3814,58.7857
77.3700,58.7282
Z" /> 
<path style="fill:#000000; fill-opacity:1.0000; stroke:none;fill-rule:evenodd;"
d="M 73.1950,20.4009
74.7950,20.4009
74.7950,22.0009
73.1950,22.0009
Z" /> 
</g>
<g style="fill:#000000; fill-opacity:1.0000; stroke:none;">
<circle cx="73.9950" cy="23.7009" r="0.8000" /> 
</g>
<g style="fill:none; 
stroke:#000000; stroke-width:1.5240; stroke-opacity:1; 
stroke-linecap:round; stroke-linejoin:round;">
<path d="M82.0120 60.4832
L82.4880 60.4832
" />
<path d="M89.6320 60.4832
L90.1080 60.4832
" />
<path d="M82.0120 57.9432
L82.4880 57.9432
" />
<path d="M89.6320 57.9432
L90.1080 57.9432
" />
<path d="M82.0120 50.3232
L82.4880 50.3232
" />
<path d="M89.6320 50.3232
L90.1080 50.3232
" />
<path d="M82.0120 47.7832
L82.4880 47.7832
" />
<path d="M89.6320 47.7832
L90.1080 47.7832
" />
<path d="M82.0120 45.2432
L82.4880 45.2432
" />
<path d="M89.6320 45.2432
L90.1080 45.2432
" />
<path d="M82.0120 42.7032
L82.4880 42.7032
" />
<path d="M89.6320 42.7032
L90.1080 42.7032
" />
<path d="M82.0120 40.1632
L82.4880 40.1632
" />
<path d="M89.6320 40.1632
L90.1080 40.1632
" />
<path d="M82.0120 37.6232
L82.4880 37.6232
" />
<path d="M89.6320 37.6232
L90.1080 37.6232
" />
<path d="M82.0120 14.7632
L82.4880 14.7632
" />
<path d="M89.6320 14.7632
L90.1080 14.7632
" />
<path d="M82.0120 12.2233
L82.4880 12.2233
" />
<path d="M89.6320 12.2233
L90.1080 12.2233
" />
</g>
<g style="fill:#000000; fill-opacity:1.0000; stroke:none;">
<circle cx="87.3300" cy="60.4832" r="0.6477" /> 
<circle cx="87.3300" cy="57.9432" r="0.6477" /> 
<circle cx="87.3300" cy="55.4032" r="0.6477" /> 
<circle cx="87.3300" cy="52.8633" r="0.6477" /> 
<circle cx="87.3300" cy="50.3232" r="0.6477" /> 
<circle cx="87.3300" cy="47.7832" r="0.6477" /> 
<circle cx="87.3300" cy="45.2432" r="0.6477" /> 
<circle cx="87.3300" cy="42.7032" r="0.6477" /> 
<circle cx="87.3300" cy="40.1632" r="0.6477" /> 
<circle cx="87.3300" cy="37.6232" r="0.6477" /> 
<circle cx="87.3300" cy="35.0832" r="0.6477" /> 
<circle cx="87.3300" cy="32.5433" r="0.6477" /> 
<circle cx="87.3300" cy="30.0032" r="0.6477" /> 
<circle cx="87.3300" cy="27.4632" r="0.6477" /> 
<circle cx="87.3300" cy="24.9232" r="0.6477" /> 
<circle cx="87.3300" cy="22.3833" r="0.6477" /> 
<circle cx="87.3300" cy="19.8432" r="0.6477" /> 
<circle cx="87.3300" cy="17.3032" r="0.6477" /> 
<circle cx="87.3300" cy="14.7632" r="0.6477" /> 
<circle cx="87.3300" cy="12.2233" r="0.6477" /> 
<circle cx="84.7900" cy="60.4832" r="0.6477" /> 
<circle cx="84.7900" cy="57.9432" r="0.6477" /> 
<circle cx="84.7900" cy="55.4032" r="0.6477" /> 
<circle cx="84.7900" cy="52.8633" r="0.6477" /> 
<circle cx="84.7900" cy="50.3232" r="0.6477" /> 
<circle cx="84.7900" cy="47.7832" r="0.6477" /> 
<circle cx="84.7900" cy="45.2432" r="0.6477" /> 
<circle cx="84.7900" cy="42.7032" r="0.6477" /> 
<circle cx="84.7900" cy="40.1632" r="0.6477" /> 
<circle cx="84.7900" cy="37.6232" r="0.6477" /> 
<circle cx="84.7900" cy="35.0832" r="0.6477" /> 
<circle cx="84.7900" cy="32.5433" r="0.6477" /> 
<circle cx="84.7900" cy="30.0032" r="0.6477" /> 
<circle cx="84.7900" cy="27.4632" r="0.6477" /> 
<circle cx="84.7900" cy="24.9232" r="0.6477" /> 
<circle cx="84.7900" cy="22.3833" r="0.6477" /> 
<circle cx="84.7900" cy="19.8432" r="0.6477" /> 
<circle cx="84.7900" cy="17.3032" r="0.6477" /> 
<circle cx="84.7900" cy="14.7632" r="0.6477" /> 
<circle cx="84.7900" cy="12.2233" r="0.6477" /> 
<path style="fill:#000000; fill-opacity:1.0000; stroke:none;fill-rule:evenodd;"
d="M 59.8600,55.9609
61.4600,55.9609
61.4600,57.5609
59.8600,57.5609
Z" /> 
<circle cx="60.6600" cy="59.2609" r="0.8000" /> 
<path style="fill:#000000; fill-opacity:1.0000; stroke:none;fill-rule:evenodd;"
d="M 50.2460,60.9277
50.2383,61.0104
50.1945,61.1355
50.1158,61.2421
50.0092,61.3207
49.8841,61.3645
49.8015,61.3722
47.3885,61.3722
47.3059,61.3645
47.1808,61.3207
47.0742,61.2421
46.9955,61.1355
46.9517,61.0104
46.9440,60.9277
46.9440,60.0388
46.9517,59.9561
46.9955,59.8310
47.0742,59.7244
47.1808,59.6458
47.3059,59.6020
47.3885,59.5942
49.8015,59.5942
49.8841,59.6020
50.0092,59.6458
50.1158,59.7244
50.1945,59.8310
50.2383,59.9561
50.2460,60.0388
Z" /> 
<path style="fill:#000000; fill-opacity:1.0000; stroke:none;fill-rule:evenodd;"
d="M 26.8960,43.1477
26.8883,43.2304
26.8445,43.3555
26.7658,43.4621
26.6592,43.5407
26.5341,43.5845
26.4515,43.5922
24.0385,43.5922
23.9559,43.5845
23.8308,43.5407
23.7242,43.4621
23.6455,43.3555
23.6017,43.2304
23.5940,43.1477
23.5940,42.2587
23.6017,42.1761
23.6455,42.0510
23.7242,41.9444
23.8308,41.8658
23.9559,41.8220
24.0385,41.8143
26.4515,41.8143
26.5341,41.8220
26.6592,41.8658
26.7658,41.9444
26.8445,42.0510
26.8883,42.1761
26.8960,42.2587
Z" /> 
<path style="fill:#000000; fill-opacity:1.0000; stroke:none;fill-rule:evenodd;"
d="M 26.8960,60.9277
26.8883,61.0104
26.8445,61.1355
26.7658,61.2421
26.6592,61.3207
26.5341,61.3645
26.4515,61.3722
24.0385,61.3722
23.9559,61.3645
23.8308,61.3207
23.7242,61.2421
23.6455,61.1355
23.6017,61.0104
23.5940,60.9277
23.5940,60.0388
23.6017,59.9561
23.6455,59.8310
23.7242,59.7244
23.8308,59.6458
23.9559,59.6020
24.0385,59.5942
26.4515,59.5942
26.5341,59.6020
26.6592,59.6458
26.7658,59.7244
26.8445,59.8310
26.8883,59.9561
26.8960,60.0388
Z" /> 
<path style="fill:#000000; fill-opacity:1.0000; stroke:none;fill-rule:evenodd;"
d="M 26.8960,45.6878
26.8883,45.7704
26.8445,45.8955
26.7658,46.0021
26.6592,46.0807
26.5341,46.1245
26.4515,46.1322
24.0385,46.1322
23.9559,46.1245
23.8308,46.0807
23.7242,46.0021
23.6455,45.8955
23.6017,45.7704
23.5940,45.6878
23.5940,44.7987
23.6017,44.7161
23.6455,44.5910
23.7242,44.4844
23.8308,44.4058
23.9559,44.3620
24.0385,44.3543
26.4515,44.3543
26.5341,44.3620
26.6592,44.4058
26.7658,44.4844
26.8445,44.5910
26.8883,44.7161
26.8960,44.7987
Z" /> 
<path style="fill:#000000; fill-opacity:1.0000; stroke:none;fill-rule:evenodd;"
d="M 26.8960,48.2278
26.8883,48.3104
26.8445,48.4355
26.7658,48.5421
26.6592,48.6207
26.5341,48.6645
26.4515,48.6722
24.0385,48.6722
23.9559,48.6645
23.8308,48.6207
23.7242,48.5421
23.6455,48.4355
23.6017,48.3104
23.5940,48.2278
23.5940,47.3387
23.6017,47.2561
23.6455,47.1310
23.7242,47.0244
23.8308,46.9458
23.9559,46.9020
24.0385,46.8942
26.4515,46.8942
26.5341,46.9020
26.6592,46.9458
26.7658,47.0244
26.8445,47.1310
26.8883,47.2561
26.8960,47.3387
Z" /> 
<path style="fill:#000000; fill-opacity:1.0000; stroke:none;fill-rule:evenodd;"
d="M 50.2460,48.2278
50.2383,48.3104
50.1945,48.4355
50.1158,48.5421
50.0092,48.6207
49.8841,48.6645
49.8015,48.6722
47.3885,48.6722
47.3059,48.6645
47.1808,48.6207
47.0742,48.5421
46.9955,48.4355
46.9517,48.3104
46.9440,48.2278
46.9440,47.3387
46.9517,47.2561
46.9955,47.1310
47.0742,47.0244
47.1808,46.9458
47.3059,46.9020
47.3885,46.8942
49.8015,46.8942
49.8841,46.9020
50.0092,46.9458
50.1158,47.0244
50.1945,47.1310
50.2383,47.2561
50.2460,47.3387
Z" /> 
<path style="fill:#000000; fill-opacity:1.0000; stroke:none;fill-rule:evenodd;"
d="M 50.2460,50.7677
50.2383,50.8504
50.1945,50.9755
50.1158,51.0821
50.0092,51.1607
49.8841,51.2045
49.8015,51.2122
47.3885,51.2122
47.3059,51.2045
47.1808,51.1607
47.0742,51.0821
46.9955,50.9755
46.9517,50.8504
46.9440,50.7677
46.9440,49.8787
46.9517,49.7961
46.9955,49.6710
47.0742,49.5644
47.1808,49.4858
47.3059,49.4420
47.3885,49.4342
49.8015,49.4342
49.8841,49.4420
50.0092,49.4858
50.1158,49.5644
50.1945,49.6710
50.2383,49.7961
50.2460,49.8787
Z" /> 
<path style="fill:#000000; fill-opacity:1.0000; stroke:none;fill-rule:evenodd;"
d="M 50.2460,53.3077
50.2383,53.3904
50.1945,53.5155
50.1158,53.6221
50.0092,53.7007
49.8841,53.7445
49.8015,53.7522
47.3885,53.7522
47.3059,53.7445
47.1808,53.7007
47.0742,53.6221
46.9955,53.5155
46.9517,53.3904
46.9440,53.3077
46.9440,52.4187
46.9517,52.3361
46.9955,52.2110
47.0742,52.1044
47.1808,52.0258
47.3059,51.9820
47.3885,51.9742
49.8015,51.9742
49.8841,51.9820
50.0092,52.0258
50.1158,52.1044
50.1945,52.2110
50.2383,52.3361
50.2460,52.4187
Z" /> 
<path style="fill:#000000; fill-opacity:1.0000; stroke:none;fill-rule:evenodd;"
d="M 50.2460,55.8477
50.2383,55.9304
50.1945,56.0555
50.1158,56.1621
50.0092,56.2407
49.8841,56.2845
49.8015,56.2922
47.3885,56.2922
47.3059,56.2845
47.1808,56.2407
47.0742,56.1621
46.9955,56.0555
46.9517,55.9304
46.9440,55.8477
46.9440,54.9587
46.9517,54.8761
46.9955,54.7510
47.0742,54.6444
47.1808,54.5658
47.3059,54.5220
47.3885,54.5142
49.8015,54.5142
49.8841,54.5220
50.0092,54.5658
50.1158,54.6444
50.1945,54.7510
50.2383,54.8761
50.2460,54.9587
Z" /> 
<path style="fill:#000000; fill-opacity:1.0000; stroke:none;fill-rule:evenodd;"
d="M 26.8960,50.7677
26.8883,50.8504
26.8445,50.9755
26.7658,51.0821
26.6592,51.1607
26.5341,51.2045
26.4515,51.2122
24.0385,51.2122
23.9559,51.2045
23.8308,51.1607
23.7242,51.0821
23.6455,50.9755
23.6017,50.8504
23.5940,50.7677
23.5940,49.8787
23.6017,49.7961
23.6455,49.6710
23.7242,49.5644
23.8308,49.4858
23.9559,49.4420
24.0385,49.4342
26.4515,49.4342
26.5341,49.4420
26.6592,49.4858
26.7658,49.5644
26.8445,49.6710
26.8883,49.7961
26.8960,49.8787
Z" /> 
<path style="fill:#000000; fill-opacity:1.0000; stroke:none;fill-rule:evenodd;"
d="M 26.8960,53.3077
26.8883,53.3904
26.8445,53.5155
26.7658,53.6221
26.6592,53.7007
26.5341,53.7445
26.4515,53.7522
24.0385,53.7522
23.9559,53.7445
23.8308,53.7007
23.7242,53.6221
23.6455,53.5155
23.6017,53.3904
23.5940,53.3077
23.5940,52.4187
23.6017,52.3361
23.6455,52.2110
23.7242,52.1044
23.8308,52.0258
23.9559,51.9820
24.0385,51.9742
26.4515,51.9742
26.5341,51.9820
26.6592,52.0258
26.7658,52.1044
26.8445,52.2110
26.8883,52.3361
26.8960,52.4187
Z" /> 
<path style="fill:#000000; fill-opacity:1.0000; stroke:none;fill-rule:evenodd;"
d="M 26.8960,55.8477
26.8883,55.9304
26.8445,56.0555
26.7658,56.1621
26.6592,56.2407
26.5341,56.2845
26.4515,56.2922
24.0385,56.2922
23.9559,56.2845
23.8308,56.2407
23.7242,56.1621
23.6455,56.0555
23.6017,55.9304
23.5940,55.8477
23.5940,54.9587
23.6017,54.8761
23.6455,54.7510
23.7242,54.6444
23.8308,54.5658
23.9559,54.5220
24.0385,54.5142
26.4515,54.5142
26.5341,54.5220
26.6592,54.5658
26.7658,54.6444
26.8445,54.7510
26.8883,54.8761
26.8960,54.9587
Z" /> 
<path style="fill:#000000; fill-opacity:1.0000; stroke:none;fill-rule:evenodd;"
d="M 26.8960,58.3877
26.8883,58.4704
26.8445,58.5955
26.7658,58.7021
26.6592,58.7807
26.5341,58.8245
26.4515,58.8322
24.0385,58.8322
23.9559,58.8245
23.8308,58.7807
23.7242,58.7021
23.6455,58.5955
23.6017,58.4704
23.5940,58.3877
23.5940,57.4987
23.6017,57.4161
23.6455,57.2910
23.7242,57.1844
23.8308,57.1058
23.9559,57.0620
24.0385,57.0542
26.4515,57.0542
26.5341,57.0620
26.6592,57.1058
26.7658,57.1844
26.8445,57.2910
26.8883,57.4161
26.8960,57.4987
Z" /> 
<path style="fill:#000000; fill-opacity:1.0000; stroke:none;fill-rule:evenodd;"
d="M 50.2460,45.6878
50.2383,45.7704
50.1945,45.8955
50.1158,46.0021
50.0092,46.0807
49.8841,46.1245
49.8015,46.1322
47.3885,46.1322
47.3059,46.1245
47.1808,46.0807
47.0742,46.0021
46.9955,45.8955
46.9517,45.7704
46.9440,45.6878
46.9440,44.7987
46.9517,44.7161
46.9955,44.5910
47.0742,44.4844
47.1808,44.4058
47.3059,44.3620
47.3885,44.3543
49.8015,44.3543
49.8841,44.3620
50.0092,44.4058
50.1158,44.4844
50.1945,44.5910
50.2383,44.7161
50.2460,44.7987
Z" /> 
<path style="fill:#000000; fill-opacity:1.0000; stroke:none;fill-rule:evenodd;"
d="M 50.2460,43.1477
50.2383,43.2304
50.1945,43.3555
50.1158,43.4621
50.0092,43.5407
49.8841,43.5845
49.8015,43.5922
47.3885,43.5922
47.3059,43.5845
47.1808,43.5407
47.0742,43.4621
46.9955,43.3555
46.9517,43.2304
46.9440,43.1477
46.9440,42.2587
46.9517,42.1761
46.9955,42.0510
47.0742,41.9444
47.1808,41.8658
47.3059,41.8220
47.3885,41.8143
49.8015,41.8143
49.8841,41.8220
50.0092,41.8658
50.1158,41.9444
50.1945,42.0510
50.2383,42.1761
50.2460,42.2587
Z" /> 
<path style="fill:#000000; fill-opacity:1.0000; stroke:none;fill-rule:evenodd;"
d="M 50.2460,58.3877
50.2383,58.4704
50.1945,58.5955
50.1158,58.7021
50.0092,58.7807
49.8841,58.8245
49.8015,58.8322
47.3885,58.8322
47.3059,58.8245
47.1808,58.7807
47.0742,58.7021
46.9955,58.5955
46.9517,58.4704
46.9440,58.3877
46.9440,57.4987
46.9517,57.4161
46.9955,57.2910
47.0742,57.1844
47.1808,57.1058
47.3059,57.0620
47.3885,57.0542
49.8015,57.0542
49.8841,57.0620
50.0092,57.1058
50.1158,57.1844
50.1945,57.2910
50.2383,57.4161
50.2460,57.4987
Z" /> 
</g>
<g style="fill:#000000; fill-opacity:1.0000; stroke:none;">
<circle cx="59.3900" cy="17.3682" r="0.8001" /> 
</g>
<g style="fill:#000000; fill-opacity:1.0000; stroke:none;">
<circle cx="59.3900" cy="22.4482" r="0.8001" /> 
</g>
<g style="fill:#000000; fill-opacity:1.0000; stroke:none;">
<circle cx="67.6450" cy="42.7032" r="0.8000" /> 
</g>
<g style="fill:#000000; fill-opacity:1.0000; stroke:none;">
<circle cx="67.6450" cy="36.9883" r="0.8000" /> 
</g>
<g style="fill:#000000; fill-opacity:1.0000; stroke:none;">
<circle cx="60.0250" cy="27.4632" r="0.8000" /> 
</g>
<g style="fill:#000000; fill-opacity:1.0000; stroke:none;">
<circle cx="53.6750" cy="27.4632" r="0.8000" /> 
</g>
<g style="fill:#000000; fill-opacity:1.0000; stroke:none;">
<circle cx="70.8200" cy="34.4483" r="0.8000" /> 
</g>
<g style="fill:#000000; fill-opacity:1.0000; stroke:none;">
<circle cx="61.9300" cy="22.4482" r="0.8000" /> 
</g>
<g style="fill:#000000; fill-opacity:1.0000; stroke:none;">
<circle cx="53.0400" cy="56.6732" r="0.8000" /> 
</g>
<g style="fill:#000000; fill-opacity:1.0000; stroke:none;">
<circle cx="79.0750" cy="31.2732" r="0.8000" /> 
</g>
<g style="fill:#000000; fill-opacity:1.0000; stroke:none;">
<circle cx="70.8200" cy="52.8633" r="0.8000" /> 
</g>
<g style="fill:#000000; fill-opacity:1.0000; stroke:none;">
<circle cx="61.9300" cy="26.1932" r="0.8000" /> 
</g>
<g style="fill:#000000; fill-opacity:1.0000; stroke:none;">
<circle cx="79.0750" cy="18.5732" r="0.8000" /> 
</g>
<g style="fill:#000000; fill-opacity:1.0000; stroke:none;">
<circle cx="56.2150" cy="44.6082" r="0.8000" /> 
</g>
<g style="fill:#000000; fill-opacity:1.0000; stroke:none;">
<circle cx="56.2150" cy="40.7982" r="0.8000" /> 
</g>
<g style="fill:#000000; fill-opacity:1.0000; stroke:none;">
<circle cx="63.8350" cy="47.1482" r="0.8000" /> 
</g>
<g style="fill:#000000; fill-opacity:1.0000; stroke:none;">
<circle cx="63.8350" cy="39.5282" r="0.8000" /> 
</g>
<g style="fill:#000000; fill-opacity:1.0000; stroke:none;">
<circle cx="65.7400" cy="38.2582" r="0.8000" /> 
</g>
<g style="fill:#000000; fill-opacity:1.0000; stroke:none;">
<circle cx="65.7400" cy="48.4183" r="0.8000" /> 
</g>
<g style="fill:#000000; fill-opacity:1.0000; stroke:none;">
<circle cx="78.4400" cy="54.7682" r="0.8000" /> 
</g>
<g style="fill:#000000; fill-opacity:1.0000; stroke:none;">
<circle cx="78.4400" cy="52.2282" r="0.8000" /> 
</g>
<g style="fill:#000000; fill-opacity:1.0000; stroke:none;">
<circle cx="61.9300" cy="52.8633" r="0.8000" /> 
</g>
<g style="fill:#000000; fill-opacity:1.0000; stroke:none;">
<circle cx="61.9300" cy="28.0983" r="0.8000" /> 
</g>
<g style="fill:#000000; fill-opacity:1.0000; stroke:none;">
<circle cx="58.1200" cy="35.0832" r="0.8000" /> 
</g>
<g style="fill:#000000; fill-opacity:1.0000; stroke:none;">
<circle cx="58.1200" cy="52.8633" r="0.8000" /> 
</g>
<g style="fill:#000000; fill-opacity:1.0000; stroke:none;">
<circle cx="51.1350" cy="60.4832" r="0.8000" /> 
</g>
<g style="fill:#000000; fill-opacity:1.0000; stroke:none;">
<circle cx="51.1350" cy="24.9232" r="0.8000" /> 
</g>
<g style="fill:#000000; fill-opacity:1.0000; stroke:none;">
<circle cx="64.4700" cy="30.0032" r="0.8000" /> 
</g>
<g style="fill:#000000; fill-opacity:1.0000; stroke:none;">
<circle cx="77.1700" cy="50.3232" r="0.9000" /> 
</g>
<g style="fill:#000000; fill-opacity:1.0000; stroke:none;">
<circle cx="77.1700" cy="26.1932" r="0.8000" /> 
</g>
<g style="fill:#000000; fill-opacity:1.0000; stroke:none;">
<circle cx="72.0900" cy="30.0032" r="0.8000" /> 
</g>
<g style="fill:#000000; fill-opacity:1.0000; stroke:none;">
<circle cx="73.9950" cy="31.2732" r="0.8000" /> 
</g>
<g style="fill:#000000; fill-opacity:1.0000; stroke:none;">
<circle cx="73.3600" cy="49.6882" r="0.8000" /> 
</g>
<g style="fill:#000000; fill-opacity:1.0000; stroke:none;">
<circle cx="75.2650" cy="30.0032" r="0.8000" /> 
</g>
<g style="fill:#000000; fill-opacity:1.0000; stroke:none;">
<circle cx="66.3750" cy="31.2732" r="0.8000" /> 
</g>
<g style="fill:#000000; fill-opacity:1.0000; stroke:none;">
<circle cx="75.2650" cy="49.0532" r="0.8000" /> 
</g>
<g style="fill:#000000; fill-opacity:1.0000; stroke:none;">
<circle cx="73.3600" cy="52.8633" r="0.8000" /> 
</g>
<g style="fill:none; 
stroke:#000000; stroke-width:0.6096; stroke-opacity:1; 
stroke-linecap:round; stroke-linejoin:round;">
<path d="M79.0750 31.2732
L91.1350 31.2732
" />
<path d="M91.1350 31.2732
L91.7750 30.6333
" />
<path d="M81.6150 29.1792
L80.1220 27.6862
" />
<path d="M81.6150 29.8142
L81.6150 29.1792
" />
<path d="M80.1220 27.6862
L74.9475 32.8607
" />
<path d="M81.6250 26.1832
L80.1220 27.6862
" />
</g>
<g style="fill:none; 
stroke:#000000; stroke-width:0.4064; stroke-opacity:1; 
stroke-linecap:round; stroke-linejoin:round;">
<path d="M81.6150 32.9142
L81.6150 33.4958
" />
<path d="M81.6150 33.4958
L81.9325 33.8132
" />
</g>
<g style="fill:none; 
stroke:#000000; stroke-width:0.6096; stroke-opacity:1; 
stroke-linecap:round; stroke-linejoin:round;">
<path d="M57.4850 56.4457
L57.4850 56.1032
" />
</g>
<g style="fill:none; 
stroke:#000000; stroke-width:0.4064; stroke-opacity:1; 
stroke-linecap:round; stroke-linejoin:round;">
<path d="M58.1525 55.4357
L59.4776 56.7609
" />
</g>
<g style="fill:none; 
stroke:#000000; stroke-width:0.6096; stroke-opacity:1; 
stroke-linecap:round; stroke-linejoin:round;">
<path d="M57.4850 56.1032
L58.1525 55.4357
" />
</g>
<g style="fill:none; 
stroke:#000000; stroke-width:0.4064; stroke-opacity:1; 
stroke-linecap:round; stroke-linejoin:round;">
<path d="M58.1200 55.4032
L58.1525 55.4357
" />
</g>
<g style="fill:none; 
stroke:#000000; stroke-width:0.6096; stroke-opacity:1; 
stroke-linecap:round; stroke-linejoin:round;">
<path d="M55.9375 59.5707
L53.0400 56.6732
" />
<path d="M57.4850 59.5707
L55.9375 59.5707
" />
<path d="M57.4850 59.8483
L59.3900 61.7532
" />
<path d="M57.4850 59.5707
L57.4850 59.8483
" />
<path d="M60.6600 61.7532
L59.3900 61.7532
" />
</g>
<g style="fill:none; 
stroke:#000000; stroke-width:0.4064; stroke-opacity:1; 
stroke-linecap:round; stroke-linejoin:round;">
<path d="M63.2000 28.0983
L63.8350 27.4632
" />
<path d="M61.9300 28.0983
L63.2000 28.0983
" />
</g>
<g style="fill:none; 
stroke:#000000; stroke-width:0.6096; stroke-opacity:1; 
stroke-linecap:round; stroke-linejoin:round;">
<path d="M55.4801 13.4583
L43.4975 13.4583
" />
<path d="M59.3900 17.3682
L55.4801 13.4583
" />
<path d="M61.9300 22.4482
L59.3900 22.4482
" />
</g>
<g style="fill:none; 
stroke:#000000; stroke-width:0.4064; stroke-opacity:1; 
stroke-linecap:round; stroke-linejoin:round;">
<path d="M53.3900 19.1432
L52.4000 20.1333
" />
<path d="M66.3750 20.0633
L65.4550 19.1432
" />
<path d="M65.4550 19.1432
L53.3900 19.1432
" />
<path d="M52.4000 20.1333
L40.0550 20.1333
" />
<path d="M66.3750 22.4482
L66.3750 20.0633
" />
<path d="M57.2000 20.4132
L55.9300 21.6832
" />
<path d="M35.3300 20.1333
L22.2750 20.1333
" />
<path d="M64.8200 20.4132
L57.2000 20.4132
" />
<path d="M65.1050 20.6982
L64.8200 20.4132
" />
<path d="M55.9300 21.6832
L36.8800 21.6832
" />
<path d="M65.1050 22.4482
L65.1050 20.6982
" />
<path d="M36.8800 21.6832
L35.3300 20.1333
" />
</g>
<g style="fill:none; 
stroke:#000000; stroke-width:0.6096; stroke-opacity:1; 
stroke-linecap:round; stroke-linejoin:round;">
<path d="M40.0550 27.4632
L43.2300 27.4632
" />
<path d="M40.0550 23.2332
L40.0550 27.4632
" />
<path d="M25.1000 27.4632
L40.0550 27.4632
" />
<path d="M22.2750 23.2332
L22.2750 27.4632
" />
<path d="M22.2750 27.4632
L24.1800 27.4632
" />
<path d="M20.6550 27.4632
L22.2750 27.4632
" />
</g>
<g style="fill:none; 
stroke:#000000; stroke-width:0.4064; stroke-opacity:1; 
stroke-linecap:round; stroke-linejoin:round;">
<path d="M22.2750 15.3332
L22.2750 20.1333
" />
<path d="M20.4001 13.4583
L22.2750 15.3332
" />
</g>
<g style="fill:none; 
stroke:#000000; stroke-width:0.6096; stroke-opacity:1; 
stroke-linecap:round; stroke-linejoin:round;">
<path d="M24.1800 27.4632
L25.1000 27.4632
" />
<path d="M43.2300 27.4632
L51.1350 27.4632
" />
</g>
<g style="fill:none; 
stroke:#000000; stroke-width:0.4064; stroke-opacity:1; 
stroke-linecap:round; stroke-linejoin:round;">
<path d="M38.9975 13.4583
L38.9975 13.6786
" />
<path d="M38.9975 13.6786
L39.7750 14.4561
" />
<path d="M39.7750 14.4561
L39.7750 20.4132
" />
<path d="M19.9975 13.4583
L20.4001 13.4583
" />
</g>
<g style="fill:none; 
stroke:#000000; stroke-width:0.6096; stroke-opacity:1; 
stroke-linecap:round; stroke-linejoin:round;">
<path d="M41.5624 11.5232
L43.4975 13.4583
" />
<path d="M26.0850 11.5232
L41.5624 11.5232
" />
<path d="M24.4975 13.1107
L26.0850 11.5232
" />
<path d="M24.4975 13.4583
L24.4975 13.1107
" />
</g>
<g style="fill:none; 
stroke:#000000; stroke-width:0.4064; stroke-opacity:1; 
stroke-linecap:round; stroke-linejoin:round;">
<path d="M73.3600 40.1632
L70.8200 42.7032
" />
<path d="M79.0750 38.8932
L77.8050 40.1632
" />
<path d="M67.6450 36.9883
L57.4850 36.9883
" />
<path d="M49.8650 28.7332
L21.2900 28.7332
" />
<path d="M17.4800 32.5433
L17.4800 52.8633
" />
<path d="M57.4850 36.9883
L56.2150 35.7182
" />
<path d="M77.8050 40.1632
L73.3600 40.1632
" />
<path d="M49.8650 28.7332
L56.2150 35.0832
" />
<path d="M70.8200 42.7032
L67.6450 42.7032
" />
<path d="M88.6000 38.8932
L79.0750 38.8932
" />
<path d="M21.2900 28.7332
L17.4800 32.5433
" />
<path d="M22.5600 57.9432
L25.2450 57.9432
" />
<path d="M89.8700 40.1632
L88.6000 38.8932
" />
<path d="M56.2150 35.7182
L56.2150 35.0832
" />
<path d="M17.4800 52.8633
L22.5600 57.9432
" />
<path d="M79.7100 37.6232
L70.8200 37.6232
" />
<path d="M89.8700 37.6232
L88.6000 36.3532
" />
<path d="M88.6000 36.3532
L80.9800 36.3532
" />
<path d="M80.9800 36.3532
L79.7100 37.6232
" />
<path d="M70.8200 37.6232
L65.1050 43.3382
" />
<path d="M65.1050 43.3382
L54.9450 43.3382
" />
<path d="M50.5000 47.7832
L54.9450 43.3382
" />
<path d="M48.5950 47.7832
L50.5000 47.7832
" />
</g>
<g style="fill:none; 
stroke:#000000; stroke-width:0.6096; stroke-opacity:1; 
stroke-linecap:round; stroke-linejoin:round;">
<path d="M76.2325 61.4207
L75.9000 61.7532
" />
<path d="M60.0250 27.4632
L61.2950 26.1932
" />
<path d="M62.5650 25.5582
L70.1374 25.5582
" />
<path d="M60.6600 61.7532
L70.8200 61.7532
" />
<path d="M80.9800 13.4932
L78.4400 13.4932
" />
<path d="M78.4400 13.4932
L75.2650 16.6683
" />
</g>
<g style="fill:none; 
stroke:#000000; stroke-width:0.4064; stroke-opacity:1; 
stroke-linecap:round; stroke-linejoin:round;">
<path d="M60.0250 27.4632
L59.3900 28.0983
" />
</g>
<g style="fill:none; 
stroke:#000000; stroke-width:0.6096; stroke-opacity:1; 
stroke-linecap:round; stroke-linejoin:round;">
<path d="M75.9000 18.5732
L80.9800 18.5732
" />
<path d="M75.9000 17.3032
L75.2650 16.6683
" />
</g>
<g style="fill:none; 
stroke:#000000; stroke-width:0.4064; stroke-opacity:1; 
stroke-linecap:round; stroke-linejoin:round;">
<path d="M59.3900 28.0983
L57.9875 28.0983
" />
</g>
<g style="fill:none; 
stroke:#000000; stroke-width:0.6096; stroke-opacity:1; 
stroke-linecap:round; stroke-linejoin:round;">
<path d="M74.5824 23.7009
L75.9000 22.3833
" />
<path d="M75.2650 16.6683
L74.6776 16.0809
" />
<path d="M88.6000 13.4932
L83.5200 13.4932
" />
<path d="M80.9900 18.5633
L80.9800 18.5732
" />
<path d="M74.6776 16.0809
L73.9950 16.0809
" />
<path d="M63.8350 22.4482
L61.9300 22.4482
" />
</g>
<g style="fill:none; 
stroke:#000000; stroke-width:0.4064; stroke-opacity:1; 
stroke-linecap:round; stroke-linejoin:round;">
<path d="M55.2600 29.0482
L53.6750 27.4632
" />
</g>
<g style="fill:none; 
stroke:#000000; stroke-width:0.6096; stroke-opacity:1; 
stroke-linecap:round; stroke-linejoin:round;">
<path d="M75.9000 61.7532
L80.9800 61.7532
" />
<path d="M61.2950 26.1932
L61.9300 26.1932
" />
<path d="M89.8700 12.2233
L88.6000 13.4932
" />
<path d="M75.9000 34.4483
L79.0750 31.2732
" />
<path d="M75.9000 18.5732
L75.9000 17.3032
" />
<path d="M73.9950 23.7009
L74.5824 23.7009
" />
<path d="M75.9000 22.3833
L75.9000 18.5732
" />
<path d="M71.9948 23.7009
L73.3600 23.7009
" />
<path d="M70.1374 25.5582
L71.9948 23.7009
" />
<path d="M61.9300 26.1932
L62.5650 25.5582
" />
<path d="M70.8200 61.7532
L75.9000 61.7532
" />
<path d="M80.9800 61.7532
L82.2500 60.4832
" />
<path d="M60.6600 59.2609
L60.6600 61.7532
" />
</g>
<g style="fill:none; 
stroke:#000000; stroke-width:0.4064; stroke-opacity:1; 
stroke-linecap:round; stroke-linejoin:round;">
<path d="M83.5200 13.4932
L80.9800 13.4932
" />
</g>
<g style="fill:none; 
stroke:#000000; stroke-width:0.6096; stroke-opacity:1; 
stroke-linecap:round; stroke-linejoin:round;">
<path d="M91.7750 18.5633
L80.9900 18.5633
" />
<path d="M76.2325 59.5282
L76.2325 61.4207
" />
<path d="M70.8200 34.4483
L75.9000 34.4483
" />
<path d="M70.8200 52.8633
L70.8200 61.7532
" />
<path d="M48.5950 57.9432
L51.7700 57.9432
" />
<path d="M51.7700 57.9432
L53.0400 56.6732
" />
</g>
<g style="fill:none; 
stroke:#000000; stroke-width:0.4064; stroke-opacity:1; 
stroke-linecap:round; stroke-linejoin:round;">
<path d="M71.4550 45.8783
L73.3600 43.9733
" />
<path d="M54.3100 47.7832
L60.6600 47.7832
" />
<path d="M48.5950 50.3232
L51.7700 50.3232
" />
<path d="M51.7700 50.3232
L54.3100 47.7832
" />
<path d="M73.3600 43.9733
L88.6000 43.9733
" />
<path d="M88.6000 43.9733
L89.8700 42.7032
" />
<path d="M62.5650 45.8783
L71.4550 45.8783
" />
<path d="M60.6600 47.7832
L62.5650 45.8783
" />
<path d="M52.4050 37.6232
L55.5800 40.7982
" />
<path d="M73.9950 41.4333
L78.6080 41.4333
" />
<path d="M25.2450 50.3232
L22.5600 50.3232
" />
<path d="M21.2900 35.0832
L23.8300 32.5433
" />
<path d="M52.4050 35.0832
L52.4050 37.6232
" />
<path d="M56.2150 44.6082
L70.8200 44.6082
" />
<path d="M78.6080 41.4333
L79.8780 40.1632
" />
<path d="M55.5800 40.7982
L56.2150 40.7982
" />
<path d="M70.8200 44.6082
L73.9950 41.4333
" />
<path d="M21.2900 49.0532
L21.2900 35.0832
" />
<path d="M23.8300 32.5433
L49.8650 32.5433
" />
<path d="M79.8780 40.1632
L82.2500 40.1632
" />
<path d="M49.8650 32.5433
L52.4050 35.0832
" />
<path d="M22.5600 50.3232
L21.2900 49.0532
" />
<path d="M20.0200 50.3232
L20.0200 34.4483
" />
<path d="M72.0900 47.1482
L63.8350 47.1482
" />
<path d="M53.6750 36.9374
L53.6496 36.9628
" />
<path d="M53.6750 35.0832
L53.6750 36.9374
" />
<path d="M73.9950 45.2432
L72.0900 47.1482
" />
<path d="M20.0200 34.4483
L23.1950 31.2732
" />
<path d="M49.8650 31.2732
L53.6750 35.0832
" />
<path d="M22.5600 52.8633
L20.0200 50.3232
" />
<path d="M56.2150 39.5282
L63.8350 39.5282
" />
<path d="M53.6496 36.9628
L56.2150 39.5282
" />
<path d="M25.2450 52.8633
L22.5600 52.8633
" />
<path d="M23.1950 31.2732
L49.8650 31.2732
" />
<path d="M82.2500 45.2432
L73.9950 45.2432
" />
<path d="M22.5600 55.4032
L25.2450 55.4032
" />
<path d="M18.7500 51.5932
L22.5600 55.4032
" />
<path d="M56.8500 38.2582
L54.9450 36.3532
" />
<path d="M49.8650 30.0032
L54.9450 35.0832
" />
<path d="M65.7400 38.2582
L56.8500 38.2582
" />
<path d="M54.9450 36.3532
L54.9450 35.0832
" />
<path d="M88.6000 46.5132
L74.6300 46.5132
" />
<path d="M21.9250 30.0032
L18.7500 33.1782
" />
<path d="M89.8700 45.2432
L88.6000 46.5132
" />
<path d="M72.7250 48.4183
L65.7400 48.4183
" />
<path d="M74.6300 46.5132
L72.7250 48.4183
" />
<path d="M18.7500 33.1782
L18.7500 51.5932
" />
<path d="M49.8650 30.0032
L21.9250 30.0032
" />
<path d="M73.9950 58.5782
L78.1075 58.5782
" />
<path d="M78.4400 54.7682
L78.4400 58.2457
" />
<path d="M78.4400 51.5932
L80.9656 49.0676
" />
<path d="M78.4400 52.2282
L78.4400 51.5932
" />
<path d="M80.9656 49.0676
L88.5856 49.0676
" />
<path d="M78.4400 58.2457
L78.1075 58.5782
" />
<path d="M88.5856 49.0676
L89.8700 47.7832
" />
<path d="M73.3600 59.2132
L73.9950 58.5782
" />
<path d="M72.3700 59.2132
L73.3600 59.2132
" />
<path d="M72.3700 56.6732
L75.2775 56.6732
" />
<path d="M75.2775 56.6732
L76.2325 57.6282
" />
<path d="M70.1850 36.3532
L64.4700 42.0682
" />
<path d="M81.9325 33.8132
L79.3925 36.3532
" />
<path d="M23.1950 47.7832
L25.2450 47.7832
" />
<path d="M91.1350 33.8132
L81.9325 33.8132
" />
<path d="M49.8650 33.8132
L51.1350 35.0832
" />
<path d="M24.4650 33.8132
L22.5600 35.7182
" />
<path d="M49.8650 33.8132
L24.4650 33.8132
" />
<path d="M22.5600 47.1482
L23.1950 47.7832
" />
<path d="M51.1350 38.2582
L51.1350 35.0832
" />
<path d="M22.5600 35.7182
L22.5600 47.1482
" />
<path d="M64.4700 42.0682
L54.9450 42.0682
" />
<path d="M79.3925 36.3532
L70.1850 36.3532
" />
<path d="M91.7750 33.1732
L91.1350 33.8132
" />
<path d="M54.9450 42.0682
L51.1350 38.2582
" />
<path d="M61.9300 52.8633
L65.7400 56.6732
" />
<path d="M65.7400 56.6732
L69.2700 56.6732
" />
<path d="M58.1200 52.8633
L58.1200 55.4032
" />
</g>
<g style="fill:none; 
stroke:#000000; stroke-width:0.6096; stroke-opacity:1; 
stroke-linecap:round; stroke-linejoin:round;">
<path d="M58.1200 35.0832
L58.1200 34.4483
" />
</g>
<g style="fill:none; 
stroke:#000000; stroke-width:0.4064; stroke-opacity:1; 
stroke-linecap:round; stroke-linejoin:round;">
<path d="M59.4776 56.7609
L60.6600 56.7609
" />
</g>
<g style="fill:none; 
stroke:#000000; stroke-width:0.6096; stroke-opacity:1; 
stroke-linecap:round; stroke-linejoin:round;">
<path d="M91.7750 26.1832
L81.6250 26.1832
" />
<path d="M69.2325 32.8607
L67.0100 35.0832
" />
</g>
<g style="fill:none; 
stroke:#000000; stroke-width:0.4064; stroke-opacity:1; 
stroke-linecap:round; stroke-linejoin:round;">
<path d="M64.1275 59.2132
L69.2700 59.2132
" />
<path d="M61.9300 57.0157
L64.1275 59.2132
" />
</g>
<g style="fill:none; 
stroke:#000000; stroke-width:0.6096; stroke-opacity:1; 
stroke-linecap:round; stroke-linejoin:round;">
<path d="M70.1850 29.0257
L70.1850 32.8607
" />
</g>
<g style="fill:none; 
stroke:#000000; stroke-width:0.4064; stroke-opacity:1; 
stroke-linecap:round; stroke-linejoin:round;">
<path d="M54.7575 26.1932
L55.7125 27.1482
" />
</g>
<g style="fill:none; 
stroke:#000000; stroke-width:0.6096; stroke-opacity:1; 
stroke-linecap:round; stroke-linejoin:round;">
<path d="M61.9300 35.0832
L58.1200 35.0832
" />
<path d="M25.2450 60.4832
L21.9250 60.4832
" />
<path d="M21.9250 60.4832
L16.2100 54.7682
" />
<path d="M61.9300 33.4582
L61.9300 35.0832
" />
<path d="M16.2100 31.9082
L20.6550 27.4632
" />
<path d="M74.9475 32.8607
L70.1850 32.8607
" />
<path d="M51.1350 27.4632
L58.1200 34.4483
" />
</g>
<g style="fill:none; 
stroke:#000000; stroke-width:0.4064; stroke-opacity:1; 
stroke-linecap:round; stroke-linejoin:round;">
<path d="M52.4050 26.1932
L54.7575 26.1932
" />
<path d="M68.5575 27.3982
L67.6450 27.3982
" />
<path d="M61.9300 57.0157
L60.6600 57.0157
" />
</g>
<g style="fill:none; 
stroke:#000000; stroke-width:0.6096; stroke-opacity:1; 
stroke-linecap:round; stroke-linejoin:round;">
<path d="M16.2100 54.7682
L16.2100 31.9082
" />
</g>
<g style="fill:none; 
stroke:#000000; stroke-width:0.4064; stroke-opacity:1; 
stroke-linecap:round; stroke-linejoin:round;">
<path d="M51.1350 27.4632
L52.4050 26.1932
" />
<path d="M70.1850 29.0257
L68.5575 27.3982
" />
</g>
<g style="fill:none; 
stroke:#000000; stroke-width:0.6096; stroke-opacity:1; 
stroke-linecap:round; stroke-linejoin:round;">
<path d="M61.9300 35.0832
L67.0100 35.0832
" />
<path d="M70.1850 32.8607
L69.2325 32.8607
" />
<path d="M48.5950 60.4832
L51.1350 60.4832
" />
<path d="M74.0826 13.4932
L76.5350 13.4932
" />
<path d="M73.9950 21.2009
L70.7324 21.2009
" />
<path d="M70.8200 21.2885
L70.7324 21.2009
" />
<path d="M51.1350 24.9232
L60.0250 24.9232
" />
<path d="M60.6600 24.2882
L68.9150 24.2882
" />
<path d="M70.8200 22.3833
L70.8200 21.2885
" />
<path d="M70.7324 21.2009
L70.8200 21.1133
" />
<path d="M60.0250 24.9232
L60.6600 24.2882
" />
<path d="M68.9150 24.2882
L70.8200 22.3833
" />
<path d="M71.3674 13.5809
L73.9950 13.5809
" />
<path d="M77.8050 12.2233
L82.2500 12.2233
" />
<path d="M70.8200 14.1282
L71.3674 13.5809
" />
<path d="M76.5350 13.4932
L77.8050 12.2233
" />
<path d="M70.8200 21.1133
L70.8200 14.1282
" />
</g>
<g style="fill:none; 
stroke:#000000; stroke-width:0.4064; stroke-opacity:1; 
stroke-linecap:round; stroke-linejoin:round;">
<path d="M57.9875 29.0482
L57.9875 29.2357
" />
<path d="M57.9875 29.2357
L58.7550 30.0032
" />
<path d="M76.5350 50.9582
L79.7100 47.7832
" />
<path d="M58.7550 30.0032
L64.4700 30.0032
" />
<path d="M64.4700 30.0032
L65.1050 29.3682
" />
<path d="M55.5800 50.9582
L76.5350 50.9582
" />
<path d="M82.2600 21.1032
L91.7750 21.1032
" />
<path d="M48.5950 55.4032
L51.1350 55.4032
" />
<path d="M73.3600 30.0032
L82.2600 21.1032
" />
<path d="M72.0900 30.0032
L73.3600 30.0032
" />
<path d="M51.1350 55.4032
L55.5800 50.9582
" />
<path d="M65.1050 29.3682
L65.1050 27.3982
" />
<path d="M82.2500 47.7832
L79.7100 47.7832
" />
<path d="M74.6300 49.6882
L73.3600 49.6882
" />
<path d="M79.7100 53.4982
L81.6150 51.5932
" />
</g>
<g style="fill:none; 
stroke:#000000; stroke-width:0.3048; stroke-opacity:1; 
stroke-linecap:round; stroke-linejoin:round;">
<path d="M57.9875 27.1482
L57.1650 27.1482
" />
</g>
<g style="fill:none; 
stroke:#000000; stroke-width:0.4064; stroke-opacity:1; 
stroke-linecap:round; stroke-linejoin:round;">
<path d="M51.7700 52.8633
L54.9450 49.6882
" />
<path d="M81.6150 51.5932
L88.6000 51.5932
" />
<path d="M73.3600 52.8633
L76.5350 52.8633
" />
<path d="M66.3750 31.2732
L65.4600 31.2732
" />
</g>
<g style="fill:none; 
stroke:#000000; stroke-width:0.3048; stroke-opacity:1; 
stroke-linecap:round; stroke-linejoin:round;">
<path d="M56.8500 27.4632
L56.8500 30.0032
" />
</g>
<g style="fill:none; 
stroke:#000000; stroke-width:0.4064; stroke-opacity:1; 
stroke-linecap:round; stroke-linejoin:round;">
<path d="M75.2650 49.0532
L74.6300 49.6882
" />
<path d="M73.3600 49.6882
L54.9450 49.6882
" />
<path d="M77.1700 53.4982
L79.7100 53.4982
" />
<path d="M73.9950 31.2732
L81.6250 23.6432
" />
</g>
<g style="fill:none; 
stroke:#000000; stroke-width:0.3048; stroke-opacity:1; 
stroke-linecap:round; stroke-linejoin:round;">
<path d="M57.1650 27.1482
L56.8500 27.4632
" />
</g>
<g style="fill:none; 
stroke:#000000; stroke-width:0.4064; stroke-opacity:1; 
stroke-linecap:round; stroke-linejoin:round;">
<path d="M56.8500 30.0032
L58.7550 31.9082
" />
<path d="M88.6000 51.5932
L89.8700 50.3232
" />
<path d="M65.4600 31.2732
L64.4700 32.2632
" />
<path d="M58.7550 31.9082
L64.1150 31.9082
" />
<path d="M48.5950 52.8633
L51.7700 52.8633
" />
<path d="M76.5350 52.8633
L77.1700 53.4982
" />
<path d="M66.3750 31.2732
L66.3750 27.3982
" />
<path d="M81.6250 23.6432
L91.7750 23.6432
" />
<path style="fill:#000000; fill-opacity:1.0000; stroke:none;fill-rule:evenodd;"
d="M 75.5409,23.1734
75.1099,22.7423
73.9950,22.9009
73.9943,23.7016
74.5607,24.2666
Z" /> 
<path style="fill:#000000; fill-opacity:1.0000; stroke:none;fill-rule:evenodd;"
d="M 75.5567,16.8076
75.1257,16.3765
74.5607,15.5152
73.9943,16.0816
73.9950,16.8809
Z" /> 
<path style="fill:#000000; fill-opacity:1.0000; stroke:none;fill-rule:evenodd;"
d="M 72.3950,23.3961
72.3950,24.0057
73.6889,24.4400
73.9960,23.7009
73.6889,22.9618
Z" /> 
<path style="fill:#000000; fill-opacity:1.0000; stroke:none;fill-rule:evenodd;"
d="M 60.3552,60.8609
60.9648,60.8609
61.3991,59.5670
60.6600,59.2599
59.9209,59.5670
Z" /> 
<path style="fill:#000000; fill-opacity:1.0000; stroke:none;fill-rule:evenodd;"
d="M 59.3260,56.3219
59.0386,56.6093
59.8600,57.4171
60.6607,56.7616
59.8600,55.9609
Z" /> 
<path style="fill:#000000; fill-opacity:1.0000; stroke:none;fill-rule:evenodd;"
d="M 62.0197,57.3928
62.3070,57.1054
61.4600,56.1792
60.6593,56.7602
61.4600,57.5609
Z" /> 
<path style="fill:#000000; fill-opacity:1.0000; stroke:none;fill-rule:evenodd;"
d="M 75.5950,13.7980
75.5950,13.1884
74.7950,12.7809
73.9940,13.5809
74.7950,14.3382
Z" /> 
<path style="fill:#000000; fill-opacity:1.0000; stroke:none;fill-rule:evenodd;"
d="M 72.3950,20.8961
72.3950,21.5057
73.1950,22.0009
73.9960,21.2009
73.1950,20.4009
Z" /> 
<path style="fill:#000000; fill-opacity:1.0000; stroke:none;fill-rule:evenodd;"
d="M 72.3950,13.2761
72.3950,13.8857
73.1950,14.3809
73.9960,13.5809
73.1950,12.7809
Z" /> 
<path style="fill:#000000; fill-opacity:1.0000; stroke:none;fill-rule:evenodd;"
d="M 75.5409,23.1734
75.1099,22.7423
73.9950,22.9009
73.9943,23.7016
74.5607,24.2666
Z" /> 
<path style="fill:#000000; fill-opacity:1.0000; stroke:none;fill-rule:evenodd;"
d="M 75.5567,16.8076
75.1257,16.3765
74.5607,15.5152
73.9943,16.0816
73.9950,16.8809
Z" /> 
<path style="fill:#000000; fill-opacity:1.0000; stroke:none;fill-rule:evenodd;"
d="M 72.3950,23.3961
72.3950,24.0057
73.6889,24.4400
73.9960,23.7009
73.6889,22.9618
Z" /> 
<path style="fill:#000000; fill-opacity:1.0000; stroke:none;fill-rule:evenodd;"
d="M 60.3552,60.8609
60.9648,60.8609
61.3991,59.5670
60.6600,59.2599
59.9209,59.5670
Z" /> 
<path style="fill:#000000; fill-opacity:1.0000; stroke:none;fill-rule:evenodd;"
d="M 59.3260,56.3219
59.0386,56.6093
59.8600,57.4171
60.6607,56.7616
59.8600,55.9609
Z" /> 
<path style="fill:#000000; fill-opacity:1.0000; stroke:none;fill-rule:evenodd;"
d="M 62.0197,57.3928
62.3070,57.1054
61.4600,56.1792
60.6593,56.7602
61.4600,57.5609
Z" /> 
<path style="fill:#000000; fill-opacity:1.0000; stroke:none;fill-rule:evenodd;"
d="M 75.5950,13.7980
75.5950,13.1884
74.7950,12.7809
73.9940,13.5809
74.7950,14.3382
Z" /> 
<path style="fill:#000000; fill-opacity:1.0000; stroke:none;fill-rule:evenodd;"
d="M 72.3950,20.8961
72.3950,21.5057
73.1950,22.0009
73.9960,21.2009
73.1950,20.4009
Z" /> 
<path style="fill:#000000; fill-opacity:1.0000; stroke:none;fill-rule:evenodd;"
d="M 72.3950,13.2761
72.3950,13.8857
73.1950,14.3809
73.9960,13.5809
73.1950,12.7809
Z" /> 
</g>
<g style="fill:#FFFFFF; fill-opacity:1.0000; stroke:none;">
<circle cx="59.3900" cy="17.3682" r="0.1270" /> 
</g>
<g style="fill:#FFFFFF; fill-opacity:1.0000; stroke:none;">
<circle cx="59.3900" cy="22.4482" r="0.1270" /> 
</g>
<g style="fill:#FFFFFF; fill-opacity:1.0000; stroke:none;">
<circle cx="67.6450" cy="42.7032" r="0.1270" /> 
</g>
<g style="fill:#FFFFFF; fill-opacity:1.0000; stroke:none;">
<circle cx="67.6450" cy="36.9883" r="0.1270" /> 
</g>
<g style="fill:#FFFFFF; fill-opacity:1.0000; stroke:none;">
<circle cx="60.0250" cy="27.4632" r="0.1270" /> 
</g>
<g style="fill:#FFFFFF; fill-opacity:1.0000; stroke:none;">
<circle cx="53.6750" cy="27.4632" r="0.1270" /> 
</g>
<g style="fill:#FFFFFF; fill-opacity:1.0000; stroke:none;">
<circle cx="70.8200" cy="34.4483" r="0.1270" /> 
</g>
<g style="fill:#FFFFFF; fill-opacity:1.0000; stroke:none;">
<circle cx="61.9300" cy="22.4482" r="0.1270" /> 
</g>
<g style="fill:#FFFFFF; fill-opacity:1.0000; stroke:none;">
<circle cx="53.0400" cy="56.6732" r="0.1270" /> 
</g>
<g style="fill:#FFFFFF; fill-opacity:1.0000; stroke:none;">
<circle cx="79.0750" cy="31.2732" r="0.1270" /> 
</g>
<g style="fill:#FFFFFF; fill-opacity:1.0000; stroke:none;">
<circle cx="70.8200" cy="52.8633" r="0.1270" /> 
</g>
<g style="fill:#FFFFFF; fill-opacity:1.0000; stroke:none;">
<circle cx="61.9300" cy="26.1932" r="0.1270" /> 
</g>
<g style="fill:#FFFFFF; fill-opacity:1.0000; stroke:none;">
<circle cx="79.0750" cy="18.5732" r="0.1270" /> 
</g>
<g style="fill:#FFFFFF; fill-opacity:1.0000; stroke:none;">
<circle cx="56.2150" cy="44.6082" r="0.1270" /> 
</g>
<g style="fill:#FFFFFF; fill-opacity:1.0000; stroke:none;">
<circle cx="56.2150" cy="40.7982" r="0.1270" /> 
</g>
<g style="fill:#FFFFFF; fill-opacity:1.0000; stroke:none;">
<circle cx="63.8350" cy="47.1482" r="0.1270" /> 
</g>
<g style="fill:#FFFFFF; fill-opacity:1.0000; stroke:none;">
<circle cx="63.8350" cy="39.5282" r="0.1270" /> 
</g>
<g style="fill:#FFFFFF; fill-opacity:1.0000; stroke:none;">
<circle cx="65.7400" cy="38.2582" r="0.1270" /> 
</g>
<g style="fill:#FFFFFF; fill-opacity:1.0000; stroke:none;">
<circle cx="65.7400" cy="48.4183" r="0.1270" /> 
</g>
<g style="fill:#FFFFFF; fill-opacity:1.0000; stroke:none;">
<circle cx="78.4400" cy="54.7682" r="0.1270" /> 
</g>
<g style="fill:#FFFFFF; fill-opacity:1.0000; stroke:none;">
<circle cx="78.4400" cy="52.2282" r="0.1270" /> 
</g>
<g style="fill:#FFFFFF; fill-opacity:1.0000; stroke:none;">
<circle cx="61.9300" cy="52.8633" r="0.1270" /> 
</g>
<g style="fill:#FFFFFF; fill-opacity:1.0000; stroke:none;">
<circle cx="61.9300" cy="28.0983" r="0.1270" /> 
</g>
<g style="fill:#FFFFFF; fill-opacity:1.0000; stroke:none;">
<circle cx="58.1200" cy="35.0832" r="0.1270" /> 
</g>
<g style="fill:#FFFFFF; fill-opacity:1.0000; stroke:none;">
<circle cx="58.1200" cy="52.8633" r="0.1270" /> 
</g>
<g style="fill:#FFFFFF; fill-opacity:1.0000; stroke:none;">
<circle cx="51.1350" cy="60.4832" r="0.1270" /> 
</g>
<g style="fill:#FFFFFF; fill-opacity:1.0000; stroke:none;">
<circle cx="51.1350" cy="24.9232" r="0.1270" /> 
</g>
<g style="fill:#FFFFFF; fill-opacity:1.0000; stroke:none;">
<circle cx="64.4700" cy="30.0032" r="0.1270" /> 
</g>
<g style="fill:#FFFFFF; fill-opacity:1.0000; stroke:none;">
<circle cx="77.1700" cy="50.3232" r="0.1270" /> 
</g>
<g style="fill:#FFFFFF; fill-opacity:1.0000; stroke:none;">
<circle cx="77.1700" cy="26.1932" r="0.1270" /> 
</g>
<g style="fill:#FFFFFF; fill-opacity:1.0000; stroke:none;">
<circle cx="72.0900" cy="30.0032" r="0.1270" /> 
</g>
<g style="fill:#FFFFFF; fill-opacity:1.0000; stroke:none;">
<circle cx="73.9950" cy="31.2732" r="0.1270" /> 
</g>
<g style="fill:#FFFFFF; fill-opacity:1.0000; stroke:none;">
<circle cx="73.3600" cy="49.6882" r="0.1270" /> 
</g>
<g style="fill:#FFFFFF; fill-opacity:1.0000; stroke:none;">
<circle cx="75.2650" cy="30.0032" r="0.1270" /> 
</g>
<g style="fill:#FFFFFF; fill-opacity:1.0000; stroke:none;">
<circle cx="66.3750" cy="31.2732" r="0.1270" /> 
</g>
<g style="fill:#FFFFFF; fill-opacity:1.0000; stroke:none;">
<circle cx="75.2650" cy="49.0532" r="0.1270" /> 
</g>
<g style="fill:#FFFFFF; fill-opacity:1.0000; stroke:none;">
<circle cx="73.3600" cy="52.8633" r="0.1270" /> 
</g>
<g style="fill:#FFFFFF; fill-opacity:1.0000; stroke:none;">
<circle cx="18.7475" cy="16.6333" r="0.2500" /> 
</g>
<g style="fill:#FFFFFF; fill-opacity:1.0000; stroke:none;">
<circle cx="25.7125" cy="16.6333" r="0.2500" /> 
</g>
<g style="fill:#FFFFFF; fill-opacity:1.0000; stroke:none;">
<circle cx="19.9975" cy="13.4583" r="0.2500" /> 
</g>
<g style="fill:#FFFFFF; fill-opacity:1.0000; stroke:none;">
<circle cx="24.4975" cy="13.4583" r="0.2500" /> 
</g>
<g style="fill:#FFFFFF; fill-opacity:1.0000; stroke:none;">
<circle cx="37.7475" cy="16.6333" r="0.2500" /> 
</g>
<g style="fill:#FFFFFF; fill-opacity:1.0000; stroke:none;">
<circle cx="44.7125" cy="16.6333" r="0.2500" /> 
</g>
<g style="fill:#FFFFFF; fill-opacity:1.0000; stroke:none;">
<circle cx="38.9975" cy="13.4583" r="0.2500" /> 
</g>
<g style="fill:#FFFFFF; fill-opacity:1.0000; stroke:none;">
<circle cx="43.4975" cy="13.4583" r="0.2500" /> 
</g>
<g style="fill:#FFFFFF; fill-opacity:1.0000; stroke:none;">
<circle cx="73.9950" cy="13.5809" r="0.2500" /> 
</g>
<g style="fill:#FFFFFF; fill-opacity:1.0000; stroke:none;">
<circle cx="73.9950" cy="16.0809" r="0.2500" /> 
</g>
<g style="fill:#FFFFFF; fill-opacity:1.0000; stroke:none;">
<circle cx="91.7750" cy="26.1832" r="0.2500" /> 
</g>
<g style="fill:#FFFFFF; fill-opacity:1.0000; stroke:none;">
<circle cx="91.7750" cy="23.6432" r="0.2500" /> 
</g>
<g style="fill:#FFFFFF; fill-opacity:1.0000; stroke:none;">
<circle cx="91.7750" cy="21.1032" r="0.2500" /> 
</g>
<g style="fill:#FFFFFF; fill-opacity:1.0000; stroke:none;">
<circle cx="91.7750" cy="18.5633" r="0.2500" /> 
</g>
<g style="fill:#FFFFFF; fill-opacity:1.0000; stroke:none;">
<circle cx="91.7750" cy="30.6333" r="0.2500" /> 
</g>
<g style="fill:#FFFFFF; fill-opacity:1.0000; stroke:none;">
<circle cx="91.7750" cy="33.1732" r="0.2500" /> 
</g>
<g style="fill:#FFFFFF; fill-opacity:1.0000; stroke:none;">
<circle cx="73.9950" cy="21.2009" r="0.2500" /> 
</g>
<g style="fill:#FFFFFF; fill-opacity:1.0000; stroke:none;">
<circle cx="73.9950" cy="23.7009" r="0.2500" /> 
</g>
<g style="fill:#FFFFFF; fill-opacity:1.0000; stroke:none;">
<circle cx="82.2500" cy="60.4832" r="0.2500" /> 
</g>
<g style="fill:#FFFFFF; fill-opacity:1.0000; stroke:none;">
<circle cx="89.8700" cy="60.4832" r="0.2500" /> 
</g>
<g style="fill:#FFFFFF; fill-opacity:1.0000; stroke:none;">
<circle cx="82.2500" cy="57.9432" r="0.2500" /> 
</g>
<g style="fill:#FFFFFF; fill-opacity:1.0000; stroke:none;">
<circle cx="89.8700" cy="57.9432" r="0.2500" /> 
</g>
<g style="fill:#FFFFFF; fill-opacity:1.0000; stroke:none;">
<circle cx="82.2500" cy="50.3232" r="0.2500" /> 
</g>
<g style="fill:#FFFFFF; fill-opacity:1.0000; stroke:none;">
<circle cx="89.8700" cy="50.3232" r="0.2500" /> 
</g>
<g style="fill:#FFFFFF; fill-opacity:1.0000; stroke:none;">
<circle cx="82.2500" cy="47.7832" r="0.2500" /> 
</g>
<g style="fill:#FFFFFF; fill-opacity:1.0000; stroke:none;">
<circle cx="89.8700" cy="47.7832" r="0.2500" /> 
</g>
<g style="fill:#FFFFFF; fill-opacity:1.0000; stroke:none;">
<circle cx="82.2500" cy="45.2432" r="0.2500" /> 
</g>
<g style="fill:#FFFFFF; fill-opacity:1.0000; stroke:none;">
<circle cx="89.8700" cy="45.2432" r="0.2500" /> 
</g>
<g style="fill:#FFFFFF; fill-opacity:1.0000; stroke:none;">
<circle cx="82.2500" cy="42.7032" r="0.2500" /> 
</g>
<g style="fill:#FFFFFF; fill-opacity:1.0000; stroke:none;">
<circle cx="89.8700" cy="42.7032" r="0.2500" /> 
</g>
<g style="fill:#FFFFFF; fill-opacity:1.0000; stroke:none;">
<circle cx="82.2500" cy="40.1632" r="0.2500" /> 
</g>
<g style="fill:#FFFFFF; fill-opacity:1.0000; stroke:none;">
<circle cx="89.8700" cy="40.1632" r="0.2500" /> 
</g>
<g style="fill:#FFFFFF; fill-opacity:1.0000; stroke:none;">
<circle cx="82.2500" cy="37.6232" r="0.2500" /> 
</g>
<g style="fill:#FFFFFF; fill-opacity:1.0000; stroke:none;">
<circle cx="89.8700" cy="37.6232" r="0.2500" /> 
</g>
<g style="fill:#FFFFFF; fill-opacity:1.0000; stroke:none;">
<circle cx="82.2500" cy="14.7632" r="0.2500" /> 
</g>
<g style="fill:#FFFFFF; fill-opacity:1.0000; stroke:none;">
<circle cx="89.8700" cy="14.7632" r="0.2500" /> 
</g>
<g style="fill:#FFFFFF; fill-opacity:1.0000; stroke:none;">
<circle cx="82.2500" cy="12.2233" r="0.2500" /> 
</g>
<g style="fill:#FFFFFF; fill-opacity:1.0000; stroke:none;">
<circle cx="89.8700" cy="12.2233" r="0.2500" /> 
</g>
<g style="fill:#FFFFFF; fill-opacity:1.0000; stroke:none;">
<circle cx="87.3300" cy="60.4832" r="0.1651" /> 
</g>
<g style="fill:#FFFFFF; fill-opacity:1.0000; stroke:none;">
<circle cx="87.3300" cy="57.9432" r="0.1651" /> 
</g>
<g style="fill:#FFFFFF; fill-opacity:1.0000; stroke:none;">
<circle cx="87.3300" cy="55.4032" r="0.1651" /> 
</g>
<g style="fill:#FFFFFF; fill-opacity:1.0000; stroke:none;">
<circle cx="87.3300" cy="52.8633" r="0.1651" /> 
</g>
<g style="fill:#FFFFFF; fill-opacity:1.0000; stroke:none;">
<circle cx="87.3300" cy="50.3232" r="0.1651" /> 
</g>
<g style="fill:#FFFFFF; fill-opacity:1.0000; stroke:none;">
<circle cx="87.3300" cy="47.7832" r="0.1651" /> 
</g>
<g style="fill:#FFFFFF; fill-opacity:1.0000; stroke:none;">
<circle cx="87.3300" cy="45.2432" r="0.1651" /> 
</g>
<g style="fill:#FFFFFF; fill-opacity:1.0000; stroke:none;">
<circle cx="87.3300" cy="42.7032" r="0.1651" /> 
</g>
<g style="fill:#FFFFFF; fill-opacity:1.0000; stroke:none;">
<circle cx="87.3300" cy="40.1632" r="0.1651" /> 
</g>
<g style="fill:#FFFFFF; fill-opacity:1.0000; stroke:none;">
<circle cx="87.3300" cy="37.6232" r="0.1651" /> 
</g>
<g style="fill:#FFFFFF; fill-opacity:1.0000; stroke:none;">
<circle cx="87.3300" cy="35.0832" r="0.1651" /> 
</g>
<g style="fill:#FFFFFF; fill-opacity:1.0000; stroke:none;">
<circle cx="87.3300" cy="32.5433" r="0.1651" /> 
</g>
<g style="fill:#FFFFFF; fill-opacity:1.0000; stroke:none;">
<circle cx="87.3300" cy="30.0032" r="0.1651" /> 
</g>
<g style="fill:#FFFFFF; fill-opacity:1.0000; stroke:none;">
<circle cx="87.3300" cy="27.4632" r="0.1651" /> 
</g>
<g style="fill:#FFFFFF; fill-opacity:1.0000; stroke:none;">
<circle cx="87.3300" cy="24.9232" r="0.1651" /> 
</g>
<g style="fill:#FFFFFF; fill-opacity:1.0000; stroke:none;">
<circle cx="87.3300" cy="22.3833" r="0.1651" /> 
</g>
<g style="fill:#FFFFFF; fill-opacity:1.0000; stroke:none;">
<circle cx="87.3300" cy="19.8432" r="0.1651" /> 
</g>
<g style="fill:#FFFFFF; fill-opacity:1.0000; stroke:none;">
<circle cx="87.3300" cy="17.3032" r="0.1651" /> 
</g>
<g style="fill:#FFFFFF; fill-opacity:1.0000; stroke:none;">
<circle cx="87.3300" cy="14.7632" r="0.1651" /> 
</g>
<g style="fill:#FFFFFF; fill-opacity:1.0000; stroke:none;">
<circle cx="87.3300" cy="12.2233" r="0.1651" /> 
</g>
<g style="fill:#FFFFFF; fill-opacity:1.0000; stroke:none;">
<circle cx="84.7900" cy="60.4832" r="0.1651" /> 
</g>
<g style="fill:#FFFFFF; fill-opacity:1.0000; stroke:none;">
<circle cx="84.7900" cy="57.9432" r="0.1651" /> 
</g>
<g style="fill:#FFFFFF; fill-opacity:1.0000; stroke:none;">
<circle cx="84.7900" cy="55.4032" r="0.1651" /> 
</g>
<g style="fill:#FFFFFF; fill-opacity:1.0000; stroke:none;">
<circle cx="84.7900" cy="52.8633" r="0.1651" /> 
</g>
<g style="fill:#FFFFFF; fill-opacity:1.0000; stroke:none;">
<circle cx="84.7900" cy="50.3232" r="0.1651" /> 
</g>
<g style="fill:#FFFFFF; fill-opacity:1.0000; stroke:none;">
<circle cx="84.7900" cy="47.7832" r="0.1651" /> 
</g>
<g style="fill:#FFFFFF; fill-opacity:1.0000; stroke:none;">
<circle cx="84.7900" cy="45.2432" r="0.1651" /> 
</g>
<g style="fill:#FFFFFF; fill-opacity:1.0000; stroke:none;">
<circle cx="84.7900" cy="42.7032" r="0.1651" /> 
</g>
<g style="fill:#FFFFFF; fill-opacity:1.0000; stroke:none;">
<circle cx="84.7900" cy="40.1632" r="0.1651" /> 
</g>
<g style="fill:#FFFFFF; fill-opacity:1.0000; stroke:none;">
<circle cx="84.7900" cy="37.6232" r="0.1651" /> 
</g>
<g style="fill:#FFFFFF; fill-opacity:1.0000; stroke:none;">
<circle cx="84.7900" cy="35.0832" r="0.1651" /> 
</g>
<g style="fill:#FFFFFF; fill-opacity:1.0000; stroke:none;">
<circle cx="84.7900" cy="32.5433" r="0.1651" /> 
</g>
<g style="fill:#FFFFFF; fill-opacity:1.0000; stroke:none;">
<circle cx="84.7900" cy="30.0032" r="0.1651" /> 
</g>
<g style="fill:#FFFFFF; fill-opacity:1.0000; stroke:none;">
<circle cx="84.7900" cy="27.4632" r="0.1651" /> 
</g>
<g style="fill:#FFFFFF; fill-opacity:1.0000; stroke:none;">
<circle cx="84.7900" cy="24.9232" r="0.1651" /> 
</g>
<g style="fill:#FFFFFF; fill-opacity:1.0000; stroke:none;">
<circle cx="84.7900" cy="22.3833" r="0.1651" /> 
</g>
<g style="fill:#FFFFFF; fill-opacity:1.0000; stroke:none;">
<circle cx="84.7900" cy="19.8432" r="0.1651" /> 
</g>
<g style="fill:#FFFFFF; fill-opacity:1.0000; stroke:none;">
<circle cx="84.7900" cy="17.3032" r="0.1651" /> 
</g>
<g style="fill:#FFFFFF; fill-opacity:1.0000; stroke:none;">
<circle cx="84.7900" cy="14.7632" r="0.1651" /> 
</g>
<g style="fill:#FFFFFF; fill-opacity:1.0000; stroke:none;">
<circle cx="84.7900" cy="12.2233" r="0.1651" /> 
</g>
<g style="fill:#FFFFFF; fill-opacity:1.0000; stroke:none;">
<circle cx="60.6600" cy="56.7609" r="0.2500" /> 
</g>
<g style="fill:#FFFFFF; fill-opacity:1.0000; stroke:none;">
<circle cx="60.6600" cy="59.2609" r="0.2500" /> 
</g>
<g style="fill:#FFFFFF; fill-opacity:1.0000; stroke:none;">
<circle cx="48.5950" cy="60.4832" r="0.3810" /> 
</g>
<g style="fill:#FFFFFF; fill-opacity:1.0000; stroke:none;">
<circle cx="25.2450" cy="42.7032" r="0.3810" /> 
</g>
<g style="fill:#FFFFFF; fill-opacity:1.0000; stroke:none;">
<circle cx="25.2450" cy="60.4832" r="0.3810" /> 
</g>
<g style="fill:#FFFFFF; fill-opacity:1.0000; stroke:none;">
<circle cx="25.2450" cy="45.2432" r="0.3810" /> 
</g>
<g style="fill:#FFFFFF; fill-opacity:1.0000; stroke:none;">
<circle cx="25.2450" cy="47.7832" r="0.3810" /> 
</g>
<g style="fill:#FFFFFF; fill-opacity:1.0000; stroke:none;">
<circle cx="48.5950" cy="47.7832" r="0.3810" /> 
</g>
<g style="fill:#FFFFFF; fill-opacity:1.0000; stroke:none;">
<circle cx="48.5950" cy="50.3232" r="0.3810" /> 
</g>
<g style="fill:#FFFFFF; fill-opacity:1.0000; stroke:none;">
<circle cx="48.5950" cy="52.8633" r="0.3810" /> 
</g>
<g style="fill:#FFFFFF; fill-opacity:1.0000; stroke:none;">
<circle cx="48.5950" cy="55.4032" r="0.3810" /> 
</g>
<g style="fill:#FFFFFF; fill-opacity:1.0000; stroke:none;">
<circle cx="25.2450" cy="50.3232" r="0.3810" /> 
</g>
<g style="fill:#FFFFFF; fill-opacity:1.0000; stroke:none;">
<circle cx="25.2450" cy="52.8633" r="0.3810" /> 
</g>
<g style="fill:#FFFFFF; fill-opacity:1.0000; stroke:none;">
<circle cx="25.2450" cy="55.4032" r="0.3810" /> 
</g>
<g style="fill:#FFFFFF; fill-opacity:1.0000; stroke:none;">
<circle cx="25.2450" cy="57.9432" r="0.3810" /> 
</g>
<g style="fill:#FFFFFF; fill-opacity:1.0000; stroke:none;">
<circle cx="48.5950" cy="45.2432" r="0.3810" /> 
</g>
<g style="fill:#FFFFFF; fill-opacity:1.0000; stroke:none;">
<circle cx="48.5950" cy="42.7032" r="0.3810" /> 
</g>
<g style="fill:#FFFFFF; fill-opacity:1.0000; stroke:none;">
<circle cx="48.5950" cy="57.9432" r="0.3810" /> 
<path style="fill:none; 
stroke:#000000; stroke-width:0.0500; stroke-opacity:1; 
stroke-linecap:round; stroke-linejoin:round;fill:none"
d="M 94.3404,63.0232
48.5950,63.0232
48.5950,35.7182
25.7350,35.7182
25.7350,63.0232
14.9400,63.0232
14.9400,9.6832
94.3404,9.6832
Z" /> 
</g> 
</svg>
