<?xml version="1.0" standalone="no"?>
 <!DOCTYPE svg PUBLIC "-//W3C//DTD SVG 1.1//EN" 
 "http://www.w3.org/Graphics/SVG/1.1/DTD/svg11.dtd"> 
<svg
  xmlns:svg="http://www.w3.org/2000/svg"
  xmlns="http://www.w3.org/2000/svg"
  xmlns:xlink="http://www.w3.org/1999/xlink"
  version="1.1"
  width="96.3930mm" height="79.7814mm" viewBox="0.0000 0.0000 96.3930 79.7814">
<title>SVG Image created as main_v2-Edge_Cuts.svg date 2024/08/05 17:30:54 </title>
  <desc>Image generated by PCBNEW </desc>
<g style="fill:#000000; fill-opacity:1.0000;stroke:#000000; stroke-opacity:1.0000;
stroke-linecap:round; stroke-linejoin:round;"
 transform="translate(0 0) scale(1 1)">
</g>
<g style="fill:none; 
stroke:#000000; stroke-width:0.2000; stroke-opacity:1; 
stroke-linecap:round; stroke-linejoin:round;">
<path d="M28.0169 72.4064 A25.8902 25.8902 0.0 0 0 22.1873 70.6843" />
<path d="M22.1873 70.6843 A25.9348 25.9348 0.0 0 0 13.4297 70.6850" />
<path d="M13.4297 70.6850 A25.7971 25.7971 0.0 0 0 7.6032 72.4117" />
<path d="M7.6032 72.4117 A25.8918 25.8918 0.0 0 0 2.6808 75.1974" />
<path d="M11.1906 79.2130
L5.5745 79.2130
" />
<path d="M2.0961 74.3861
L5.5745 79.2130
" />
<path d="M22.9560 79.2130
L12.6606 79.2130
" />
</g>
<g style="fill:none; 
stroke:#000000; stroke-width:0.1000; stroke-opacity:1; 
stroke-linecap:round; stroke-linejoin:round;">
<circle cx="11.2583" cy="75.2202" r="1.3000" /> 
<circle cx="24.3583" cy="75.2202" r="1.3000" /> 
</g>
<g style="fill:none; 
stroke:#000000; stroke-width:0.2000; stroke-opacity:1; 
stroke-linecap:round; stroke-linejoin:round;">
<path d="M24.4261 79.2130 A0.5999 0.5999 0.0 0 0 24.9698 78.8665" />
<path d="M24.4261 79.2130
L22.9560 79.2130
" />
<path d="M11.1906 79.2130
L12.6606 79.2130
" />
<path d="M28.4109 71.4872
L24.9699 78.8665
" />
<path style="fill:none; 
stroke:#000000; stroke-width:0.2000; stroke-opacity:1; 
stroke-linecap:round; stroke-linejoin:round;fill:none"
d="M 0.0966,59.6200
46.0960,59.6200
46.0960,31.0450
68.9560,31.0450
68.9560,59.6200
79.4970,59.6200
79.4970,6.2800
0.0966,6.2800
Z" /> 
<path d="M28.0169 72.4064 A25.8902 25.8902 0.0 0 0 22.1873 70.6843" />
<path d="M22.1873 70.6843 A25.9348 25.9348 0.0 0 0 13.4297 70.6850" />
<path d="M13.4297 70.6850 A25.7971 25.7971 0.0 0 0 7.6032 72.4117" />
<path d="M7.6032 72.4117 A25.8918 25.8918 0.0 0 0 2.6808 75.1974" />
<path d="M11.1906 79.2130
L5.5745 79.2130
" />
<path d="M2.0961 74.3861
L5.5745 79.2130
" />
<path d="M22.9560 79.2130
L12.6606 79.2130
" />
</g>
<g style="fill:none; 
stroke:#000000; stroke-width:0.1000; stroke-opacity:1; 
stroke-linecap:round; stroke-linejoin:round;">
<circle cx="11.2583" cy="75.2202" r="1.3000" /> 
<circle cx="24.3583" cy="75.2202" r="1.3000" /> 
</g>
<g style="fill:none; 
stroke:#000000; stroke-width:0.2000; stroke-opacity:1; 
stroke-linecap:round; stroke-linejoin:round;">
<path d="M24.4261 79.2130 A0.5999 0.5999 0.0 0 0 24.9698 78.8665" />
<path d="M24.4261 79.2130
L22.9560 79.2130
" />
<path d="M11.1906 79.2130
L12.6606 79.2130
" />
<path d="M28.4109 71.4872
L24.9699 78.8665
" />
<path style="fill:none; 
stroke:#000000; stroke-width:0.2000; stroke-opacity:1; 
stroke-linecap:round; stroke-linejoin:round;fill:none"
d="M 0.0966,59.6200
46.0960,59.6200
46.0960,31.0450
68.9560,31.0450
68.9560,59.6200
79.4970,59.6200
79.4970,6.2800
0.0966,6.2800
Z" /> 
</g> 
</svg>
