<?xml version="1.0" standalone="no"?>
 <!DOCTYPE svg PUBLIC "-//W3C//DTD SVG 1.1//EN" 
 "http://www.w3.org/Graphics/SVG/1.1/DTD/svg11.dtd"> 
<svg
  xmlns:svg="http://www.w3.org/2000/svg"
  xmlns="http://www.w3.org/2000/svg"
  xmlns:xlink="http://www.w3.org/1999/xlink"
  version="1.1"
  width="94.3610mm" height="70.4342mm" viewBox="0.0000 0.0000 94.3610 70.4342">
<title>SVG Image created as main_v2-B_Cu.svg date 2024/06/28 10:34:31 </title>
  <desc>Image generated by PCBNEW </desc>
<g style="fill:#000000; fill-opacity:1.0000;stroke:#000000; stroke-opacity:1.0000;
stroke-linecap:round; stroke-linejoin:round;"
 transform="translate(0 0) scale(1 1)">
</g>
<g style="fill:#000000; fill-opacity:1.0000; stroke:none;">
<circle cx="18.7475" cy="16.6333" r="1.0500" /> 
</g>
<g style="fill:#000000; fill-opacity:1.0000; stroke:none;">
<circle cx="25.7125" cy="16.6333" r="1.0500" /> 
</g>
<g style="fill:#000000; fill-opacity:1.0000; stroke:none;">
<circle cx="19.9975" cy="13.4583" r="0.8750" /> 
</g>
<g style="fill:#000000; fill-opacity:1.0000; stroke:none;">
<circle cx="24.4975" cy="13.4583" r="0.8750" /> 
</g>
<g style="fill:#000000; fill-opacity:1.0000; stroke:none;">
<circle cx="37.7475" cy="16.6333" r="1.0500" /> 
</g>
<g style="fill:#000000; fill-opacity:1.0000; stroke:none;">
<circle cx="44.7125" cy="16.6333" r="1.0500" /> 
</g>
<g style="fill:#000000; fill-opacity:1.0000; stroke:none;">
<circle cx="38.9975" cy="13.4583" r="0.8750" /> 
</g>
<g style="fill:#000000; fill-opacity:1.0000; stroke:none;">
<circle cx="43.4975" cy="13.4583" r="0.8750" /> 
<path style="fill:#000000; fill-opacity:1.0000; stroke:none;fill-rule:evenodd;"
d="M 73.1950,12.7809
74.7950,12.7809
74.7950,14.3809
73.1950,14.3809
Z" /> 
</g>
<g style="fill:#000000; fill-opacity:1.0000; stroke:none;">
<circle cx="73.9950" cy="16.0809" r="0.8000" /> 
<path style="fill:#000000; fill-opacity:1.0000; stroke:none;fill-rule:evenodd;"
d="M 94.0250,26.6082
94.0042,26.7396
93.9438,26.8581
93.8498,26.9521
93.7313,27.0124
93.6000,27.0332
89.9500,27.0332
89.8187,27.0124
89.7002,26.9521
89.6062,26.8581
89.5458,26.7396
89.5250,26.6082
89.5250,25.7583
89.5458,25.6269
89.6062,25.5084
89.7002,25.4144
89.8187,25.3541
89.9500,25.3332
93.6000,25.3332
93.7313,25.3541
93.8498,25.4144
93.9438,25.5084
94.0042,25.6269
94.0250,25.7583
Z" /> 
<path style="fill:#000000; fill-opacity:1.0000; stroke:none;fill-rule:evenodd;"
d="M 94.0250,24.0682
94.0042,24.1996
93.9438,24.3181
93.8498,24.4121
93.7313,24.4724
93.6000,24.4932
89.9500,24.4932
89.8187,24.4724
89.7002,24.4121
89.6062,24.3181
89.5458,24.1996
89.5250,24.0682
89.5250,23.2182
89.5458,23.0869
89.6062,22.9684
89.7002,22.8744
89.8187,22.8141
89.9500,22.7933
93.6000,22.7933
93.7313,22.8141
93.8498,22.8744
93.9438,22.9684
94.0042,23.0869
94.0250,23.2182
Z" /> 
<path style="fill:#000000; fill-opacity:1.0000; stroke:none;fill-rule:evenodd;"
d="M 94.0250,21.5282
94.0042,21.6596
93.9438,21.7781
93.8498,21.8721
93.7313,21.9324
93.6000,21.9533
89.9500,21.9533
89.8187,21.9324
89.7002,21.8721
89.6062,21.7781
89.5458,21.6596
89.5250,21.5282
89.5250,20.6782
89.5458,20.5469
89.6062,20.4284
89.7002,20.3344
89.8187,20.2741
89.9500,20.2532
93.6000,20.2532
93.7313,20.2741
93.8498,20.3344
93.9438,20.4284
94.0042,20.5469
94.0250,20.6782
Z" /> 
<path style="fill:#000000; fill-opacity:1.0000; stroke:none;fill-rule:evenodd;"
d="M 94.0250,18.9883
94.0042,19.1196
93.9438,19.2381
93.8498,19.3321
93.7313,19.3924
93.6000,19.4132
89.9500,19.4132
89.8187,19.3924
89.7002,19.3321
89.6062,19.2381
89.5458,19.1196
89.5250,18.9883
89.5250,18.1382
89.5458,18.0069
89.6062,17.8884
89.7002,17.7944
89.8187,17.7341
89.9500,17.7132
93.6000,17.7132
93.7313,17.7341
93.8498,17.7944
93.9438,17.8884
94.0042,18.0069
94.0250,18.1382
Z" /> 
<path style="fill:#000000; fill-opacity:1.0000; stroke:none;fill-rule:evenodd;"
d="M 89.5250,30.2082
89.5458,30.0769
89.6062,29.9584
89.7002,29.8644
89.8187,29.8041
89.9500,29.7832
93.6000,29.7832
93.7313,29.8041
93.8498,29.8644
93.9438,29.9584
94.0042,30.0769
94.0250,30.2082
94.0250,31.0582
94.0042,31.1896
93.9438,31.3081
93.8498,31.4021
93.7313,31.4624
93.6000,31.4832
89.9500,31.4832
89.8187,31.4624
89.7002,31.4021
89.6062,31.3081
89.5458,31.1896
89.5250,31.0582
Z" /> 
<path style="fill:#000000; fill-opacity:1.0000; stroke:none;fill-rule:evenodd;"
d="M 89.5250,32.7482
89.5458,32.6169
89.6062,32.4984
89.7002,32.4044
89.8187,32.3441
89.9500,32.3233
93.6000,32.3233
93.7313,32.3441
93.8498,32.4044
93.9438,32.4984
94.0042,32.6169
94.0250,32.7482
94.0250,33.5983
94.0042,33.7296
93.9438,33.8481
93.8498,33.9421
93.7313,34.0024
93.6000,34.0232
89.9500,34.0232
89.8187,34.0024
89.7002,33.9421
89.6062,33.8481
89.5458,33.7296
89.5250,33.5983
Z" /> 
<path style="fill:#000000; fill-opacity:1.0000; stroke:none;fill-rule:evenodd;"
d="M 73.1950,20.4009
74.7950,20.4009
74.7950,22.0009
73.1950,22.0009
Z" /> 
</g>
<g style="fill:#000000; fill-opacity:1.0000; stroke:none;">
<circle cx="73.9950" cy="23.7009" r="0.8000" /> 
</g>
<g style="fill:none; 
stroke:#000000; stroke-width:1.5240; stroke-opacity:1; 
stroke-linecap:round; stroke-linejoin:round;">
<path d="M82.0120 60.4832
L82.4880 60.4832
" />
<path d="M89.6320 60.4832
L90.1080 60.4832
" />
<path d="M82.0120 57.9432
L82.4880 57.9432
" />
<path d="M89.6320 57.9432
L90.1080 57.9432
" />
<path d="M82.0120 50.3232
L82.4880 50.3232
" />
<path d="M89.6320 50.3232
L90.1080 50.3232
" />
<path d="M82.0120 47.7832
L82.4880 47.7832
" />
<path d="M89.6320 47.7832
L90.1080 47.7832
" />
<path d="M82.0120 45.2432
L82.4880 45.2432
" />
<path d="M89.6320 45.2432
L90.1080 45.2432
" />
<path d="M82.0120 42.7032
L82.4880 42.7032
" />
<path d="M89.6320 42.7032
L90.1080 42.7032
" />
<path d="M82.0120 40.1632
L82.4880 40.1632
" />
<path d="M89.6320 40.1632
L90.1080 40.1632
" />
<path d="M82.0120 37.6232
L82.4880 37.6232
" />
<path d="M89.6320 37.6232
L90.1080 37.6232
" />
<path d="M82.0120 14.7632
L82.4880 14.7632
" />
<path d="M89.6320 14.7632
L90.1080 14.7632
" />
<path d="M82.0120 12.2233
L82.4880 12.2233
" />
<path d="M89.6320 12.2233
L90.1080 12.2233
" />
</g>
<g style="fill:#000000; fill-opacity:1.0000; stroke:none;">
<circle cx="87.3300" cy="60.4832" r="0.6477" /> 
<circle cx="87.3300" cy="57.9432" r="0.6477" /> 
<circle cx="87.3300" cy="55.4032" r="0.6477" /> 
<circle cx="87.3300" cy="52.8633" r="0.6477" /> 
<circle cx="87.3300" cy="50.3232" r="0.6477" /> 
<circle cx="87.3300" cy="47.7832" r="0.6477" /> 
<circle cx="87.3300" cy="45.2432" r="0.6477" /> 
<circle cx="87.3300" cy="42.7032" r="0.6477" /> 
<circle cx="87.3300" cy="40.1632" r="0.6477" /> 
<circle cx="87.3300" cy="37.6232" r="0.6477" /> 
<circle cx="87.3300" cy="35.0832" r="0.6477" /> 
<circle cx="87.3300" cy="32.5433" r="0.6477" /> 
<circle cx="87.3300" cy="30.0032" r="0.6477" /> 
<circle cx="87.3300" cy="27.4632" r="0.6477" /> 
<circle cx="87.3300" cy="24.9232" r="0.6477" /> 
<circle cx="87.3300" cy="22.3833" r="0.6477" /> 
<circle cx="87.3300" cy="19.8432" r="0.6477" /> 
<circle cx="87.3300" cy="17.3032" r="0.6477" /> 
<circle cx="87.3300" cy="14.7632" r="0.6477" /> 
<circle cx="87.3300" cy="12.2233" r="0.6477" /> 
<circle cx="84.7900" cy="60.4832" r="0.6477" /> 
<circle cx="84.7900" cy="57.9432" r="0.6477" /> 
<circle cx="84.7900" cy="55.4032" r="0.6477" /> 
<circle cx="84.7900" cy="52.8633" r="0.6477" /> 
<circle cx="84.7900" cy="50.3232" r="0.6477" /> 
<circle cx="84.7900" cy="47.7832" r="0.6477" /> 
<circle cx="84.7900" cy="45.2432" r="0.6477" /> 
<circle cx="84.7900" cy="42.7032" r="0.6477" /> 
<circle cx="84.7900" cy="40.1632" r="0.6477" /> 
<circle cx="84.7900" cy="37.6232" r="0.6477" /> 
<circle cx="84.7900" cy="35.0832" r="0.6477" /> 
<circle cx="84.7900" cy="32.5433" r="0.6477" /> 
<circle cx="84.7900" cy="30.0032" r="0.6477" /> 
<circle cx="84.7900" cy="27.4632" r="0.6477" /> 
<circle cx="84.7900" cy="24.9232" r="0.6477" /> 
<circle cx="84.7900" cy="22.3833" r="0.6477" /> 
<circle cx="84.7900" cy="19.8432" r="0.6477" /> 
<circle cx="84.7900" cy="17.3032" r="0.6477" /> 
<circle cx="84.7900" cy="14.7632" r="0.6477" /> 
<circle cx="84.7900" cy="12.2233" r="0.6477" /> 
<path style="fill:#000000; fill-opacity:1.0000; stroke:none;fill-rule:evenodd;"
d="M 59.8600,55.9609
61.4600,55.9609
61.4600,57.5609
59.8600,57.5609
Z" /> 
<circle cx="60.6600" cy="59.2609" r="0.8000" /> 
<path style="fill:#000000; fill-opacity:1.0000; stroke:none;fill-rule:evenodd;"
d="M 50.2460,60.9277
50.2383,61.0104
50.1945,61.1355
50.1158,61.2421
50.0092,61.3207
49.8841,61.3645
49.8015,61.3722
47.3885,61.3722
47.3059,61.3645
47.1808,61.3207
47.0742,61.2421
46.9955,61.1355
46.9517,61.0104
46.9440,60.9277
46.9440,60.0388
46.9517,59.9561
46.9955,59.8310
47.0742,59.7244
47.1808,59.6458
47.3059,59.6020
47.3885,59.5942
49.8015,59.5942
49.8841,59.6020
50.0092,59.6458
50.1158,59.7244
50.1945,59.8310
50.2383,59.9561
50.2460,60.0388
Z" /> 
<path style="fill:#000000; fill-opacity:1.0000; stroke:none;fill-rule:evenodd;"
d="M 26.8960,43.1477
26.8883,43.2304
26.8445,43.3555
26.7658,43.4621
26.6592,43.5407
26.5341,43.5845
26.4515,43.5922
24.0385,43.5922
23.9559,43.5845
23.8308,43.5407
23.7242,43.4621
23.6455,43.3555
23.6017,43.2304
23.5940,43.1477
23.5940,42.2587
23.6017,42.1761
23.6455,42.0510
23.7242,41.9444
23.8308,41.8658
23.9559,41.8220
24.0385,41.8143
26.4515,41.8143
26.5341,41.8220
26.6592,41.8658
26.7658,41.9444
26.8445,42.0510
26.8883,42.1761
26.8960,42.2587
Z" /> 
<path style="fill:#000000; fill-opacity:1.0000; stroke:none;fill-rule:evenodd;"
d="M 26.8960,60.9277
26.8883,61.0104
26.8445,61.1355
26.7658,61.2421
26.6592,61.3207
26.5341,61.3645
26.4515,61.3722
24.0385,61.3722
23.9559,61.3645
23.8308,61.3207
23.7242,61.2421
23.6455,61.1355
23.6017,61.0104
23.5940,60.9277
23.5940,60.0388
23.6017,59.9561
23.6455,59.8310
23.7242,59.7244
23.8308,59.6458
23.9559,59.6020
24.0385,59.5942
26.4515,59.5942
26.5341,59.6020
26.6592,59.6458
26.7658,59.7244
26.8445,59.8310
26.8883,59.9561
26.8960,60.0388
Z" /> 
<path style="fill:#000000; fill-opacity:1.0000; stroke:none;fill-rule:evenodd;"
d="M 26.8960,45.6878
26.8883,45.7704
26.8445,45.8955
26.7658,46.0021
26.6592,46.0807
26.5341,46.1245
26.4515,46.1322
24.0385,46.1322
23.9559,46.1245
23.8308,46.0807
23.7242,46.0021
23.6455,45.8955
23.6017,45.7704
23.5940,45.6878
23.5940,44.7987
23.6017,44.7161
23.6455,44.5910
23.7242,44.4844
23.8308,44.4058
23.9559,44.3620
24.0385,44.3543
26.4515,44.3543
26.5341,44.3620
26.6592,44.4058
26.7658,44.4844
26.8445,44.5910
26.8883,44.7161
26.8960,44.7987
Z" /> 
<path style="fill:#000000; fill-opacity:1.0000; stroke:none;fill-rule:evenodd;"
d="M 26.8960,48.2278
26.8883,48.3104
26.8445,48.4355
26.7658,48.5421
26.6592,48.6207
26.5341,48.6645
26.4515,48.6722
24.0385,48.6722
23.9559,48.6645
23.8308,48.6207
23.7242,48.5421
23.6455,48.4355
23.6017,48.3104
23.5940,48.2278
23.5940,47.3387
23.6017,47.2561
23.6455,47.1310
23.7242,47.0244
23.8308,46.9458
23.9559,46.9020
24.0385,46.8942
26.4515,46.8942
26.5341,46.9020
26.6592,46.9458
26.7658,47.0244
26.8445,47.1310
26.8883,47.2561
26.8960,47.3387
Z" /> 
<path style="fill:#000000; fill-opacity:1.0000; stroke:none;fill-rule:evenodd;"
d="M 50.2460,48.2278
50.2383,48.3104
50.1945,48.4355
50.1158,48.5421
50.0092,48.6207
49.8841,48.6645
49.8015,48.6722
47.3885,48.6722
47.3059,48.6645
47.1808,48.6207
47.0742,48.5421
46.9955,48.4355
46.9517,48.3104
46.9440,48.2278
46.9440,47.3387
46.9517,47.2561
46.9955,47.1310
47.0742,47.0244
47.1808,46.9458
47.3059,46.9020
47.3885,46.8942
49.8015,46.8942
49.8841,46.9020
50.0092,46.9458
50.1158,47.0244
50.1945,47.1310
50.2383,47.2561
50.2460,47.3387
Z" /> 
<path style="fill:#000000; fill-opacity:1.0000; stroke:none;fill-rule:evenodd;"
d="M 50.2460,50.7677
50.2383,50.8504
50.1945,50.9755
50.1158,51.0821
50.0092,51.1607
49.8841,51.2045
49.8015,51.2122
47.3885,51.2122
47.3059,51.2045
47.1808,51.1607
47.0742,51.0821
46.9955,50.9755
46.9517,50.8504
46.9440,50.7677
46.9440,49.8787
46.9517,49.7961
46.9955,49.6710
47.0742,49.5644
47.1808,49.4858
47.3059,49.4420
47.3885,49.4342
49.8015,49.4342
49.8841,49.4420
50.0092,49.4858
50.1158,49.5644
50.1945,49.6710
50.2383,49.7961
50.2460,49.8787
Z" /> 
<path style="fill:#000000; fill-opacity:1.0000; stroke:none;fill-rule:evenodd;"
d="M 50.2460,53.3077
50.2383,53.3904
50.1945,53.5155
50.1158,53.6221
50.0092,53.7007
49.8841,53.7445
49.8015,53.7522
47.3885,53.7522
47.3059,53.7445
47.1808,53.7007
47.0742,53.6221
46.9955,53.5155
46.9517,53.3904
46.9440,53.3077
46.9440,52.4187
46.9517,52.3361
46.9955,52.2110
47.0742,52.1044
47.1808,52.0258
47.3059,51.9820
47.3885,51.9742
49.8015,51.9742
49.8841,51.9820
50.0092,52.0258
50.1158,52.1044
50.1945,52.2110
50.2383,52.3361
50.2460,52.4187
Z" /> 
<path style="fill:#000000; fill-opacity:1.0000; stroke:none;fill-rule:evenodd;"
d="M 50.2460,55.8477
50.2383,55.9304
50.1945,56.0555
50.1158,56.1621
50.0092,56.2407
49.8841,56.2845
49.8015,56.2922
47.3885,56.2922
47.3059,56.2845
47.1808,56.2407
47.0742,56.1621
46.9955,56.0555
46.9517,55.9304
46.9440,55.8477
46.9440,54.9587
46.9517,54.8761
46.9955,54.7510
47.0742,54.6444
47.1808,54.5658
47.3059,54.5220
47.3885,54.5142
49.8015,54.5142
49.8841,54.5220
50.0092,54.5658
50.1158,54.6444
50.1945,54.7510
50.2383,54.8761
50.2460,54.9587
Z" /> 
<path style="fill:#000000; fill-opacity:1.0000; stroke:none;fill-rule:evenodd;"
d="M 26.8960,50.7677
26.8883,50.8504
26.8445,50.9755
26.7658,51.0821
26.6592,51.1607
26.5341,51.2045
26.4515,51.2122
24.0385,51.2122
23.9559,51.2045
23.8308,51.1607
23.7242,51.0821
23.6455,50.9755
23.6017,50.8504
23.5940,50.7677
23.5940,49.8787
23.6017,49.7961
23.6455,49.6710
23.7242,49.5644
23.8308,49.4858
23.9559,49.4420
24.0385,49.4342
26.4515,49.4342
26.5341,49.4420
26.6592,49.4858
26.7658,49.5644
26.8445,49.6710
26.8883,49.7961
26.8960,49.8787
Z" /> 
<path style="fill:#000000; fill-opacity:1.0000; stroke:none;fill-rule:evenodd;"
d="M 26.8960,53.3077
26.8883,53.3904
26.8445,53.5155
26.7658,53.6221
26.6592,53.7007
26.5341,53.7445
26.4515,53.7522
24.0385,53.7522
23.9559,53.7445
23.8308,53.7007
23.7242,53.6221
23.6455,53.5155
23.6017,53.3904
23.5940,53.3077
23.5940,52.4187
23.6017,52.3361
23.6455,52.2110
23.7242,52.1044
23.8308,52.0258
23.9559,51.9820
24.0385,51.9742
26.4515,51.9742
26.5341,51.9820
26.6592,52.0258
26.7658,52.1044
26.8445,52.2110
26.8883,52.3361
26.8960,52.4187
Z" /> 
<path style="fill:#000000; fill-opacity:1.0000; stroke:none;fill-rule:evenodd;"
d="M 26.8960,55.8477
26.8883,55.9304
26.8445,56.0555
26.7658,56.1621
26.6592,56.2407
26.5341,56.2845
26.4515,56.2922
24.0385,56.2922
23.9559,56.2845
23.8308,56.2407
23.7242,56.1621
23.6455,56.0555
23.6017,55.9304
23.5940,55.8477
23.5940,54.9587
23.6017,54.8761
23.6455,54.7510
23.7242,54.6444
23.8308,54.5658
23.9559,54.5220
24.0385,54.5142
26.4515,54.5142
26.5341,54.5220
26.6592,54.5658
26.7658,54.6444
26.8445,54.7510
26.8883,54.8761
26.8960,54.9587
Z" /> 
<path style="fill:#000000; fill-opacity:1.0000; stroke:none;fill-rule:evenodd;"
d="M 26.8960,58.3877
26.8883,58.4704
26.8445,58.5955
26.7658,58.7021
26.6592,58.7807
26.5341,58.8245
26.4515,58.8322
24.0385,58.8322
23.9559,58.8245
23.8308,58.7807
23.7242,58.7021
23.6455,58.5955
23.6017,58.4704
23.5940,58.3877
23.5940,57.4987
23.6017,57.4161
23.6455,57.2910
23.7242,57.1844
23.8308,57.1058
23.9559,57.0620
24.0385,57.0542
26.4515,57.0542
26.5341,57.0620
26.6592,57.1058
26.7658,57.1844
26.8445,57.2910
26.8883,57.4161
26.8960,57.4987
Z" /> 
<path style="fill:#000000; fill-opacity:1.0000; stroke:none;fill-rule:evenodd;"
d="M 50.2460,45.6878
50.2383,45.7704
50.1945,45.8955
50.1158,46.0021
50.0092,46.0807
49.8841,46.1245
49.8015,46.1322
47.3885,46.1322
47.3059,46.1245
47.1808,46.0807
47.0742,46.0021
46.9955,45.8955
46.9517,45.7704
46.9440,45.6878
46.9440,44.7987
46.9517,44.7161
46.9955,44.5910
47.0742,44.4844
47.1808,44.4058
47.3059,44.3620
47.3885,44.3543
49.8015,44.3543
49.8841,44.3620
50.0092,44.4058
50.1158,44.4844
50.1945,44.5910
50.2383,44.7161
50.2460,44.7987
Z" /> 
<path style="fill:#000000; fill-opacity:1.0000; stroke:none;fill-rule:evenodd;"
d="M 50.2460,43.1477
50.2383,43.2304
50.1945,43.3555
50.1158,43.4621
50.0092,43.5407
49.8841,43.5845
49.8015,43.5922
47.3885,43.5922
47.3059,43.5845
47.1808,43.5407
47.0742,43.4621
46.9955,43.3555
46.9517,43.2304
46.9440,43.1477
46.9440,42.2587
46.9517,42.1761
46.9955,42.0510
47.0742,41.9444
47.1808,41.8658
47.3059,41.8220
47.3885,41.8143
49.8015,41.8143
49.8841,41.8220
50.0092,41.8658
50.1158,41.9444
50.1945,42.0510
50.2383,42.1761
50.2460,42.2587
Z" /> 
<path style="fill:#000000; fill-opacity:1.0000; stroke:none;fill-rule:evenodd;"
d="M 50.2460,58.3877
50.2383,58.4704
50.1945,58.5955
50.1158,58.7021
50.0092,58.7807
49.8841,58.8245
49.8015,58.8322
47.3885,58.8322
47.3059,58.8245
47.1808,58.7807
47.0742,58.7021
46.9955,58.5955
46.9517,58.4704
46.9440,58.3877
46.9440,57.4987
46.9517,57.4161
46.9955,57.2910
47.0742,57.1844
47.1808,57.1058
47.3059,57.0620
47.3885,57.0542
49.8015,57.0542
49.8841,57.0620
50.0092,57.1058
50.1158,57.1844
50.1945,57.2910
50.2383,57.4161
50.2460,57.4987
Z" /> 
</g>
<g style="fill:#000000; fill-opacity:1.0000; stroke:none;">
<circle cx="59.3900" cy="17.3682" r="0.8001" /> 
</g>
<g style="fill:#000000; fill-opacity:1.0000; stroke:none;">
<circle cx="59.3900" cy="22.4482" r="0.8001" /> 
</g>
<g style="fill:#000000; fill-opacity:1.0000; stroke:none;">
<circle cx="67.6450" cy="42.7032" r="0.8000" /> 
</g>
<g style="fill:#000000; fill-opacity:1.0000; stroke:none;">
<circle cx="67.6450" cy="36.9883" r="0.8000" /> 
</g>
<g style="fill:#000000; fill-opacity:1.0000; stroke:none;">
<circle cx="60.0250" cy="27.4632" r="0.8000" /> 
</g>
<g style="fill:#000000; fill-opacity:1.0000; stroke:none;">
<circle cx="53.6750" cy="27.4632" r="0.8000" /> 
</g>
<g style="fill:#000000; fill-opacity:1.0000; stroke:none;">
<circle cx="70.8200" cy="34.4483" r="0.8000" /> 
</g>
<g style="fill:#000000; fill-opacity:1.0000; stroke:none;">
<circle cx="61.9300" cy="22.4482" r="0.8000" /> 
</g>
<g style="fill:#000000; fill-opacity:1.0000; stroke:none;">
<circle cx="53.0400" cy="56.6732" r="0.8000" /> 
</g>
<g style="fill:#000000; fill-opacity:1.0000; stroke:none;">
<circle cx="79.0750" cy="31.2732" r="0.8000" /> 
</g>
<g style="fill:#000000; fill-opacity:1.0000; stroke:none;">
<circle cx="70.8200" cy="52.8633" r="0.8000" /> 
</g>
<g style="fill:#000000; fill-opacity:1.0000; stroke:none;">
<circle cx="61.9300" cy="26.1932" r="0.8000" /> 
</g>
<g style="fill:#000000; fill-opacity:1.0000; stroke:none;">
<circle cx="79.0750" cy="18.5732" r="0.8000" /> 
</g>
<g style="fill:#000000; fill-opacity:1.0000; stroke:none;">
<circle cx="56.2150" cy="44.6082" r="0.8000" /> 
</g>
<g style="fill:#000000; fill-opacity:1.0000; stroke:none;">
<circle cx="56.2150" cy="40.7982" r="0.8000" /> 
</g>
<g style="fill:#000000; fill-opacity:1.0000; stroke:none;">
<circle cx="63.8350" cy="47.1482" r="0.8000" /> 
</g>
<g style="fill:#000000; fill-opacity:1.0000; stroke:none;">
<circle cx="63.8350" cy="39.5282" r="0.8000" /> 
</g>
<g style="fill:#000000; fill-opacity:1.0000; stroke:none;">
<circle cx="65.7400" cy="38.2582" r="0.8000" /> 
</g>
<g style="fill:#000000; fill-opacity:1.0000; stroke:none;">
<circle cx="65.7400" cy="48.4183" r="0.8000" /> 
</g>
<g style="fill:#000000; fill-opacity:1.0000; stroke:none;">
<circle cx="78.4400" cy="54.7682" r="0.8000" /> 
</g>
<g style="fill:#000000; fill-opacity:1.0000; stroke:none;">
<circle cx="78.4400" cy="52.2282" r="0.8000" /> 
</g>
<g style="fill:#000000; fill-opacity:1.0000; stroke:none;">
<circle cx="61.9300" cy="52.8633" r="0.8000" /> 
</g>
<g style="fill:#000000; fill-opacity:1.0000; stroke:none;">
<circle cx="61.9300" cy="28.0983" r="0.8000" /> 
</g>
<g style="fill:#000000; fill-opacity:1.0000; stroke:none;">
<circle cx="58.1200" cy="35.0832" r="0.8000" /> 
</g>
<g style="fill:#000000; fill-opacity:1.0000; stroke:none;">
<circle cx="58.1200" cy="52.8633" r="0.8000" /> 
</g>
<g style="fill:#000000; fill-opacity:1.0000; stroke:none;">
<circle cx="51.1350" cy="60.4832" r="0.8000" /> 
</g>
<g style="fill:#000000; fill-opacity:1.0000; stroke:none;">
<circle cx="51.1350" cy="24.9232" r="0.8000" /> 
</g>
<g style="fill:#000000; fill-opacity:1.0000; stroke:none;">
<circle cx="64.4700" cy="30.0032" r="0.8000" /> 
</g>
<g style="fill:#000000; fill-opacity:1.0000; stroke:none;">
<circle cx="77.1700" cy="50.3232" r="0.9000" /> 
</g>
<g style="fill:#000000; fill-opacity:1.0000; stroke:none;">
<circle cx="77.1700" cy="26.1932" r="0.8000" /> 
</g>
<g style="fill:#000000; fill-opacity:1.0000; stroke:none;">
<circle cx="72.0900" cy="30.0032" r="0.8000" /> 
</g>
<g style="fill:#000000; fill-opacity:1.0000; stroke:none;">
<circle cx="73.9950" cy="31.2732" r="0.8000" /> 
</g>
<g style="fill:#000000; fill-opacity:1.0000; stroke:none;">
<circle cx="73.3600" cy="49.6882" r="0.8000" /> 
</g>
<g style="fill:#000000; fill-opacity:1.0000; stroke:none;">
<circle cx="75.2650" cy="30.0032" r="0.8000" /> 
</g>
<g style="fill:#000000; fill-opacity:1.0000; stroke:none;">
<circle cx="66.3750" cy="31.2732" r="0.8000" /> 
</g>
<g style="fill:#000000; fill-opacity:1.0000; stroke:none;">
<circle cx="75.2650" cy="49.0532" r="0.8000" /> 
</g>
<g style="fill:#000000; fill-opacity:1.0000; stroke:none;">
<circle cx="73.3600" cy="52.8633" r="0.8000" /> 
</g>
<g style="fill:none; 
stroke:#000000; stroke-width:0.4064; stroke-opacity:1; 
stroke-linecap:round; stroke-linejoin:round;">
<path d="M61.9300 28.0983
L61.9300 52.2282
" />
</g>
<g style="fill:none; 
stroke:#000000; stroke-width:0.6096; stroke-opacity:1; 
stroke-linecap:round; stroke-linejoin:round;">
<path d="M59.3900 22.4482
L59.3900 17.3682
" />
</g>
<g style="fill:none; 
stroke:#000000; stroke-width:0.4064; stroke-opacity:1; 
stroke-linecap:round; stroke-linejoin:round;">
<path d="M67.6450 36.9883
L67.6450 42.7032
" />
</g>
<g style="fill:none; 
stroke:#000000; stroke-width:0.6096; stroke-opacity:1; 
stroke-linecap:round; stroke-linejoin:round;">
<path d="M70.8200 52.8633
L70.8200 34.4483
" />
<path d="M53.6750 56.0382
L53.6750 27.4632
" />
<path d="M61.9300 22.4482
L61.9300 26.1932
" />
<path d="M79.0750 18.5732
L79.0750 31.2732
" />
<path d="M53.0400 56.6732
L53.6750 56.0382
" />
<path d="M60.0250 27.4632
L53.6750 27.4632
" />
</g>
<g style="fill:none; 
stroke:#000000; stroke-width:0.4064; stroke-opacity:1; 
stroke-linecap:round; stroke-linejoin:round;">
<path d="M56.2150 40.7982
L56.2150 44.6082
" />
<path d="M63.8350 39.5282
L63.8350 47.1482
" />
<path d="M65.7400 38.2582
L65.7400 48.4183
" />
<path d="M78.4400 54.7682
L78.4400 52.2282
" />
</g>
<g style="fill:none; 
stroke:#000000; stroke-width:0.6096; stroke-opacity:1; 
stroke-linecap:round; stroke-linejoin:round;">
<path d="M58.1200 52.8633
L58.1200 35.0832
" />
<path d="M51.1350 24.9232
L51.1350 60.4832
" />
</g>
<g style="fill:none; 
stroke:#000000; stroke-width:0.4064; stroke-opacity:1; 
stroke-linecap:round; stroke-linejoin:round;">
<path d="M77.1700 26.1932
L77.1700 50.3232
" />
<path d="M64.4700 30.0032
L72.0900 30.0032
" />
<path d="M75.2650 49.0532
L75.2650 30.0032
" />
<path d="M73.3600 49.6882
L73.3600 52.8633
" />
<path d="M66.3750 31.2732
L73.9950 31.2732
" />
</g>
<g style="fill:#FFFFFF; fill-opacity:1.0000; stroke:none;">
<circle cx="59.3900" cy="17.3682" r="0.1270" /> 
</g>
<g style="fill:#FFFFFF; fill-opacity:1.0000; stroke:none;">
<circle cx="59.3900" cy="22.4482" r="0.1270" /> 
</g>
<g style="fill:#FFFFFF; fill-opacity:1.0000; stroke:none;">
<circle cx="67.6450" cy="42.7032" r="0.1270" /> 
</g>
<g style="fill:#FFFFFF; fill-opacity:1.0000; stroke:none;">
<circle cx="67.6450" cy="36.9883" r="0.1270" /> 
</g>
<g style="fill:#FFFFFF; fill-opacity:1.0000; stroke:none;">
<circle cx="60.0250" cy="27.4632" r="0.1270" /> 
</g>
<g style="fill:#FFFFFF; fill-opacity:1.0000; stroke:none;">
<circle cx="53.6750" cy="27.4632" r="0.1270" /> 
</g>
<g style="fill:#FFFFFF; fill-opacity:1.0000; stroke:none;">
<circle cx="70.8200" cy="34.4483" r="0.1270" /> 
</g>
<g style="fill:#FFFFFF; fill-opacity:1.0000; stroke:none;">
<circle cx="61.9300" cy="22.4482" r="0.1270" /> 
</g>
<g style="fill:#FFFFFF; fill-opacity:1.0000; stroke:none;">
<circle cx="53.0400" cy="56.6732" r="0.1270" /> 
</g>
<g style="fill:#FFFFFF; fill-opacity:1.0000; stroke:none;">
<circle cx="79.0750" cy="31.2732" r="0.1270" /> 
</g>
<g style="fill:#FFFFFF; fill-opacity:1.0000; stroke:none;">
<circle cx="70.8200" cy="52.8633" r="0.1270" /> 
</g>
<g style="fill:#FFFFFF; fill-opacity:1.0000; stroke:none;">
<circle cx="61.9300" cy="26.1932" r="0.1270" /> 
</g>
<g style="fill:#FFFFFF; fill-opacity:1.0000; stroke:none;">
<circle cx="79.0750" cy="18.5732" r="0.1270" /> 
</g>
<g style="fill:#FFFFFF; fill-opacity:1.0000; stroke:none;">
<circle cx="56.2150" cy="44.6082" r="0.1270" /> 
</g>
<g style="fill:#FFFFFF; fill-opacity:1.0000; stroke:none;">
<circle cx="56.2150" cy="40.7982" r="0.1270" /> 
</g>
<g style="fill:#FFFFFF; fill-opacity:1.0000; stroke:none;">
<circle cx="63.8350" cy="47.1482" r="0.1270" /> 
</g>
<g style="fill:#FFFFFF; fill-opacity:1.0000; stroke:none;">
<circle cx="63.8350" cy="39.5282" r="0.1270" /> 
</g>
<g style="fill:#FFFFFF; fill-opacity:1.0000; stroke:none;">
<circle cx="65.7400" cy="38.2582" r="0.1270" /> 
</g>
<g style="fill:#FFFFFF; fill-opacity:1.0000; stroke:none;">
<circle cx="65.7400" cy="48.4183" r="0.1270" /> 
</g>
<g style="fill:#FFFFFF; fill-opacity:1.0000; stroke:none;">
<circle cx="78.4400" cy="54.7682" r="0.1270" /> 
</g>
<g style="fill:#FFFFFF; fill-opacity:1.0000; stroke:none;">
<circle cx="78.4400" cy="52.2282" r="0.1270" /> 
</g>
<g style="fill:#FFFFFF; fill-opacity:1.0000; stroke:none;">
<circle cx="61.9300" cy="52.8633" r="0.1270" /> 
</g>
<g style="fill:#FFFFFF; fill-opacity:1.0000; stroke:none;">
<circle cx="61.9300" cy="28.0983" r="0.1270" /> 
</g>
<g style="fill:#FFFFFF; fill-opacity:1.0000; stroke:none;">
<circle cx="58.1200" cy="35.0832" r="0.1270" /> 
</g>
<g style="fill:#FFFFFF; fill-opacity:1.0000; stroke:none;">
<circle cx="58.1200" cy="52.8633" r="0.1270" /> 
</g>
<g style="fill:#FFFFFF; fill-opacity:1.0000; stroke:none;">
<circle cx="51.1350" cy="60.4832" r="0.1270" /> 
</g>
<g style="fill:#FFFFFF; fill-opacity:1.0000; stroke:none;">
<circle cx="51.1350" cy="24.9232" r="0.1270" /> 
</g>
<g style="fill:#FFFFFF; fill-opacity:1.0000; stroke:none;">
<circle cx="64.4700" cy="30.0032" r="0.1270" /> 
</g>
<g style="fill:#FFFFFF; fill-opacity:1.0000; stroke:none;">
<circle cx="77.1700" cy="50.3232" r="0.1270" /> 
</g>
<g style="fill:#FFFFFF; fill-opacity:1.0000; stroke:none;">
<circle cx="77.1700" cy="26.1932" r="0.1270" /> 
</g>
<g style="fill:#FFFFFF; fill-opacity:1.0000; stroke:none;">
<circle cx="72.0900" cy="30.0032" r="0.1270" /> 
</g>
<g style="fill:#FFFFFF; fill-opacity:1.0000; stroke:none;">
<circle cx="73.9950" cy="31.2732" r="0.1270" /> 
</g>
<g style="fill:#FFFFFF; fill-opacity:1.0000; stroke:none;">
<circle cx="73.3600" cy="49.6882" r="0.1270" /> 
</g>
<g style="fill:#FFFFFF; fill-opacity:1.0000; stroke:none;">
<circle cx="75.2650" cy="30.0032" r="0.1270" /> 
</g>
<g style="fill:#FFFFFF; fill-opacity:1.0000; stroke:none;">
<circle cx="66.3750" cy="31.2732" r="0.1270" /> 
</g>
<g style="fill:#FFFFFF; fill-opacity:1.0000; stroke:none;">
<circle cx="75.2650" cy="49.0532" r="0.1270" /> 
</g>
<g style="fill:#FFFFFF; fill-opacity:1.0000; stroke:none;">
<circle cx="73.3600" cy="52.8633" r="0.1270" /> 
</g>
<g style="fill:#FFFFFF; fill-opacity:1.0000; stroke:none;">
<circle cx="18.7475" cy="16.6333" r="0.2500" /> 
</g>
<g style="fill:#FFFFFF; fill-opacity:1.0000; stroke:none;">
<circle cx="25.7125" cy="16.6333" r="0.2500" /> 
</g>
<g style="fill:#FFFFFF; fill-opacity:1.0000; stroke:none;">
<circle cx="19.9975" cy="13.4583" r="0.2500" /> 
</g>
<g style="fill:#FFFFFF; fill-opacity:1.0000; stroke:none;">
<circle cx="24.4975" cy="13.4583" r="0.2500" /> 
</g>
<g style="fill:#FFFFFF; fill-opacity:1.0000; stroke:none;">
<circle cx="37.7475" cy="16.6333" r="0.2500" /> 
</g>
<g style="fill:#FFFFFF; fill-opacity:1.0000; stroke:none;">
<circle cx="44.7125" cy="16.6333" r="0.2500" /> 
</g>
<g style="fill:#FFFFFF; fill-opacity:1.0000; stroke:none;">
<circle cx="38.9975" cy="13.4583" r="0.2500" /> 
</g>
<g style="fill:#FFFFFF; fill-opacity:1.0000; stroke:none;">
<circle cx="43.4975" cy="13.4583" r="0.2500" /> 
</g>
<g style="fill:#FFFFFF; fill-opacity:1.0000; stroke:none;">
<circle cx="73.9950" cy="13.5809" r="0.2500" /> 
</g>
<g style="fill:#FFFFFF; fill-opacity:1.0000; stroke:none;">
<circle cx="73.9950" cy="16.0809" r="0.2500" /> 
</g>
<g style="fill:#FFFFFF; fill-opacity:1.0000; stroke:none;">
<circle cx="91.7750" cy="26.1832" r="0.2500" /> 
</g>
<g style="fill:#FFFFFF; fill-opacity:1.0000; stroke:none;">
<circle cx="91.7750" cy="23.6432" r="0.2500" /> 
</g>
<g style="fill:#FFFFFF; fill-opacity:1.0000; stroke:none;">
<circle cx="91.7750" cy="21.1032" r="0.2500" /> 
</g>
<g style="fill:#FFFFFF; fill-opacity:1.0000; stroke:none;">
<circle cx="91.7750" cy="18.5633" r="0.2500" /> 
</g>
<g style="fill:#FFFFFF; fill-opacity:1.0000; stroke:none;">
<circle cx="91.7750" cy="30.6333" r="0.2500" /> 
</g>
<g style="fill:#FFFFFF; fill-opacity:1.0000; stroke:none;">
<circle cx="91.7750" cy="33.1732" r="0.2500" /> 
</g>
<g style="fill:#FFFFFF; fill-opacity:1.0000; stroke:none;">
<circle cx="73.9950" cy="21.2009" r="0.2500" /> 
</g>
<g style="fill:#FFFFFF; fill-opacity:1.0000; stroke:none;">
<circle cx="73.9950" cy="23.7009" r="0.2500" /> 
</g>
<g style="fill:#FFFFFF; fill-opacity:1.0000; stroke:none;">
<circle cx="82.2500" cy="60.4832" r="0.2500" /> 
</g>
<g style="fill:#FFFFFF; fill-opacity:1.0000; stroke:none;">
<circle cx="89.8700" cy="60.4832" r="0.2500" /> 
</g>
<g style="fill:#FFFFFF; fill-opacity:1.0000; stroke:none;">
<circle cx="82.2500" cy="57.9432" r="0.2500" /> 
</g>
<g style="fill:#FFFFFF; fill-opacity:1.0000; stroke:none;">
<circle cx="89.8700" cy="57.9432" r="0.2500" /> 
</g>
<g style="fill:#FFFFFF; fill-opacity:1.0000; stroke:none;">
<circle cx="82.2500" cy="50.3232" r="0.2500" /> 
</g>
<g style="fill:#FFFFFF; fill-opacity:1.0000; stroke:none;">
<circle cx="89.8700" cy="50.3232" r="0.2500" /> 
</g>
<g style="fill:#FFFFFF; fill-opacity:1.0000; stroke:none;">
<circle cx="82.2500" cy="47.7832" r="0.2500" /> 
</g>
<g style="fill:#FFFFFF; fill-opacity:1.0000; stroke:none;">
<circle cx="89.8700" cy="47.7832" r="0.2500" /> 
</g>
<g style="fill:#FFFFFF; fill-opacity:1.0000; stroke:none;">
<circle cx="82.2500" cy="45.2432" r="0.2500" /> 
</g>
<g style="fill:#FFFFFF; fill-opacity:1.0000; stroke:none;">
<circle cx="89.8700" cy="45.2432" r="0.2500" /> 
</g>
<g style="fill:#FFFFFF; fill-opacity:1.0000; stroke:none;">
<circle cx="82.2500" cy="42.7032" r="0.2500" /> 
</g>
<g style="fill:#FFFFFF; fill-opacity:1.0000; stroke:none;">
<circle cx="89.8700" cy="42.7032" r="0.2500" /> 
</g>
<g style="fill:#FFFFFF; fill-opacity:1.0000; stroke:none;">
<circle cx="82.2500" cy="40.1632" r="0.2500" /> 
</g>
<g style="fill:#FFFFFF; fill-opacity:1.0000; stroke:none;">
<circle cx="89.8700" cy="40.1632" r="0.2500" /> 
</g>
<g style="fill:#FFFFFF; fill-opacity:1.0000; stroke:none;">
<circle cx="82.2500" cy="37.6232" r="0.2500" /> 
</g>
<g style="fill:#FFFFFF; fill-opacity:1.0000; stroke:none;">
<circle cx="89.8700" cy="37.6232" r="0.2500" /> 
</g>
<g style="fill:#FFFFFF; fill-opacity:1.0000; stroke:none;">
<circle cx="82.2500" cy="14.7632" r="0.2500" /> 
</g>
<g style="fill:#FFFFFF; fill-opacity:1.0000; stroke:none;">
<circle cx="89.8700" cy="14.7632" r="0.2500" /> 
</g>
<g style="fill:#FFFFFF; fill-opacity:1.0000; stroke:none;">
<circle cx="82.2500" cy="12.2233" r="0.2500" /> 
</g>
<g style="fill:#FFFFFF; fill-opacity:1.0000; stroke:none;">
<circle cx="89.8700" cy="12.2233" r="0.2500" /> 
</g>
<g style="fill:#FFFFFF; fill-opacity:1.0000; stroke:none;">
<circle cx="87.3300" cy="60.4832" r="0.1651" /> 
</g>
<g style="fill:#FFFFFF; fill-opacity:1.0000; stroke:none;">
<circle cx="87.3300" cy="57.9432" r="0.1651" /> 
</g>
<g style="fill:#FFFFFF; fill-opacity:1.0000; stroke:none;">
<circle cx="87.3300" cy="55.4032" r="0.1651" /> 
</g>
<g style="fill:#FFFFFF; fill-opacity:1.0000; stroke:none;">
<circle cx="87.3300" cy="52.8633" r="0.1651" /> 
</g>
<g style="fill:#FFFFFF; fill-opacity:1.0000; stroke:none;">
<circle cx="87.3300" cy="50.3232" r="0.1651" /> 
</g>
<g style="fill:#FFFFFF; fill-opacity:1.0000; stroke:none;">
<circle cx="87.3300" cy="47.7832" r="0.1651" /> 
</g>
<g style="fill:#FFFFFF; fill-opacity:1.0000; stroke:none;">
<circle cx="87.3300" cy="45.2432" r="0.1651" /> 
</g>
<g style="fill:#FFFFFF; fill-opacity:1.0000; stroke:none;">
<circle cx="87.3300" cy="42.7032" r="0.1651" /> 
</g>
<g style="fill:#FFFFFF; fill-opacity:1.0000; stroke:none;">
<circle cx="87.3300" cy="40.1632" r="0.1651" /> 
</g>
<g style="fill:#FFFFFF; fill-opacity:1.0000; stroke:none;">
<circle cx="87.3300" cy="37.6232" r="0.1651" /> 
</g>
<g style="fill:#FFFFFF; fill-opacity:1.0000; stroke:none;">
<circle cx="87.3300" cy="35.0832" r="0.1651" /> 
</g>
<g style="fill:#FFFFFF; fill-opacity:1.0000; stroke:none;">
<circle cx="87.3300" cy="32.5433" r="0.1651" /> 
</g>
<g style="fill:#FFFFFF; fill-opacity:1.0000; stroke:none;">
<circle cx="87.3300" cy="30.0032" r="0.1651" /> 
</g>
<g style="fill:#FFFFFF; fill-opacity:1.0000; stroke:none;">
<circle cx="87.3300" cy="27.4632" r="0.1651" /> 
</g>
<g style="fill:#FFFFFF; fill-opacity:1.0000; stroke:none;">
<circle cx="87.3300" cy="24.9232" r="0.1651" /> 
</g>
<g style="fill:#FFFFFF; fill-opacity:1.0000; stroke:none;">
<circle cx="87.3300" cy="22.3833" r="0.1651" /> 
</g>
<g style="fill:#FFFFFF; fill-opacity:1.0000; stroke:none;">
<circle cx="87.3300" cy="19.8432" r="0.1651" /> 
</g>
<g style="fill:#FFFFFF; fill-opacity:1.0000; stroke:none;">
<circle cx="87.3300" cy="17.3032" r="0.1651" /> 
</g>
<g style="fill:#FFFFFF; fill-opacity:1.0000; stroke:none;">
<circle cx="87.3300" cy="14.7632" r="0.1651" /> 
</g>
<g style="fill:#FFFFFF; fill-opacity:1.0000; stroke:none;">
<circle cx="87.3300" cy="12.2233" r="0.1651" /> 
</g>
<g style="fill:#FFFFFF; fill-opacity:1.0000; stroke:none;">
<circle cx="84.7900" cy="60.4832" r="0.1651" /> 
</g>
<g style="fill:#FFFFFF; fill-opacity:1.0000; stroke:none;">
<circle cx="84.7900" cy="57.9432" r="0.1651" /> 
</g>
<g style="fill:#FFFFFF; fill-opacity:1.0000; stroke:none;">
<circle cx="84.7900" cy="55.4032" r="0.1651" /> 
</g>
<g style="fill:#FFFFFF; fill-opacity:1.0000; stroke:none;">
<circle cx="84.7900" cy="52.8633" r="0.1651" /> 
</g>
<g style="fill:#FFFFFF; fill-opacity:1.0000; stroke:none;">
<circle cx="84.7900" cy="50.3232" r="0.1651" /> 
</g>
<g style="fill:#FFFFFF; fill-opacity:1.0000; stroke:none;">
<circle cx="84.7900" cy="47.7832" r="0.1651" /> 
</g>
<g style="fill:#FFFFFF; fill-opacity:1.0000; stroke:none;">
<circle cx="84.7900" cy="45.2432" r="0.1651" /> 
</g>
<g style="fill:#FFFFFF; fill-opacity:1.0000; stroke:none;">
<circle cx="84.7900" cy="42.7032" r="0.1651" /> 
</g>
<g style="fill:#FFFFFF; fill-opacity:1.0000; stroke:none;">
<circle cx="84.7900" cy="40.1632" r="0.1651" /> 
</g>
<g style="fill:#FFFFFF; fill-opacity:1.0000; stroke:none;">
<circle cx="84.7900" cy="37.6232" r="0.1651" /> 
</g>
<g style="fill:#FFFFFF; fill-opacity:1.0000; stroke:none;">
<circle cx="84.7900" cy="35.0832" r="0.1651" /> 
</g>
<g style="fill:#FFFFFF; fill-opacity:1.0000; stroke:none;">
<circle cx="84.7900" cy="32.5433" r="0.1651" /> 
</g>
<g style="fill:#FFFFFF; fill-opacity:1.0000; stroke:none;">
<circle cx="84.7900" cy="30.0032" r="0.1651" /> 
</g>
<g style="fill:#FFFFFF; fill-opacity:1.0000; stroke:none;">
<circle cx="84.7900" cy="27.4632" r="0.1651" /> 
</g>
<g style="fill:#FFFFFF; fill-opacity:1.0000; stroke:none;">
<circle cx="84.7900" cy="24.9232" r="0.1651" /> 
</g>
<g style="fill:#FFFFFF; fill-opacity:1.0000; stroke:none;">
<circle cx="84.7900" cy="22.3833" r="0.1651" /> 
</g>
<g style="fill:#FFFFFF; fill-opacity:1.0000; stroke:none;">
<circle cx="84.7900" cy="19.8432" r="0.1651" /> 
</g>
<g style="fill:#FFFFFF; fill-opacity:1.0000; stroke:none;">
<circle cx="84.7900" cy="17.3032" r="0.1651" /> 
</g>
<g style="fill:#FFFFFF; fill-opacity:1.0000; stroke:none;">
<circle cx="84.7900" cy="14.7632" r="0.1651" /> 
</g>
<g style="fill:#FFFFFF; fill-opacity:1.0000; stroke:none;">
<circle cx="84.7900" cy="12.2233" r="0.1651" /> 
</g>
<g style="fill:#FFFFFF; fill-opacity:1.0000; stroke:none;">
<circle cx="60.6600" cy="56.7609" r="0.2500" /> 
</g>
<g style="fill:#FFFFFF; fill-opacity:1.0000; stroke:none;">
<circle cx="60.6600" cy="59.2609" r="0.2500" /> 
</g>
<g style="fill:#FFFFFF; fill-opacity:1.0000; stroke:none;">
<circle cx="48.5950" cy="60.4832" r="0.3810" /> 
</g>
<g style="fill:#FFFFFF; fill-opacity:1.0000; stroke:none;">
<circle cx="25.2450" cy="42.7032" r="0.3810" /> 
</g>
<g style="fill:#FFFFFF; fill-opacity:1.0000; stroke:none;">
<circle cx="25.2450" cy="60.4832" r="0.3810" /> 
</g>
<g style="fill:#FFFFFF; fill-opacity:1.0000; stroke:none;">
<circle cx="25.2450" cy="45.2432" r="0.3810" /> 
</g>
<g style="fill:#FFFFFF; fill-opacity:1.0000; stroke:none;">
<circle cx="25.2450" cy="47.7832" r="0.3810" /> 
</g>
<g style="fill:#FFFFFF; fill-opacity:1.0000; stroke:none;">
<circle cx="48.5950" cy="47.7832" r="0.3810" /> 
</g>
<g style="fill:#FFFFFF; fill-opacity:1.0000; stroke:none;">
<circle cx="48.5950" cy="50.3232" r="0.3810" /> 
</g>
<g style="fill:#FFFFFF; fill-opacity:1.0000; stroke:none;">
<circle cx="48.5950" cy="52.8633" r="0.3810" /> 
</g>
<g style="fill:#FFFFFF; fill-opacity:1.0000; stroke:none;">
<circle cx="48.5950" cy="55.4032" r="0.3810" /> 
</g>
<g style="fill:#FFFFFF; fill-opacity:1.0000; stroke:none;">
<circle cx="25.2450" cy="50.3232" r="0.3810" /> 
</g>
<g style="fill:#FFFFFF; fill-opacity:1.0000; stroke:none;">
<circle cx="25.2450" cy="52.8633" r="0.3810" /> 
</g>
<g style="fill:#FFFFFF; fill-opacity:1.0000; stroke:none;">
<circle cx="25.2450" cy="55.4032" r="0.3810" /> 
</g>
<g style="fill:#FFFFFF; fill-opacity:1.0000; stroke:none;">
<circle cx="25.2450" cy="57.9432" r="0.3810" /> 
</g>
<g style="fill:#FFFFFF; fill-opacity:1.0000; stroke:none;">
<circle cx="48.5950" cy="45.2432" r="0.3810" /> 
</g>
<g style="fill:#FFFFFF; fill-opacity:1.0000; stroke:none;">
<circle cx="48.5950" cy="42.7032" r="0.3810" /> 
</g>
<g style="fill:#FFFFFF; fill-opacity:1.0000; stroke:none;">
<circle cx="48.5950" cy="57.9432" r="0.3810" /> 
<path style="fill:none; 
stroke:#000000; stroke-width:0.0500; stroke-opacity:1; 
stroke-linecap:round; stroke-linejoin:round;fill:none"
d="M 94.3404,63.0232
48.5950,63.0232
48.5950,35.7182
25.7350,35.7182
25.7350,63.0232
14.9400,63.0232
14.9400,9.6832
94.3404,9.6832
Z" /> 
</g> 
</svg>
