<?xml version="1.0" standalone="no"?>
 <!DOCTYPE svg PUBLIC "-//W3C//DTD SVG 1.1//EN" 
 "http://www.w3.org/Graphics/SVG/1.1/DTD/svg11.dtd"> 
<svg
  xmlns:svg="http://www.w3.org/2000/svg"
  xmlns="http://www.w3.org/2000/svg"
  xmlns:xlink="http://www.w3.org/1999/xlink"
  version="1.1"
  width="139.2936mm" height="73.0758mm" viewBox="0.0000 0.0000 139.2936 73.0758">
<title>SVG Image created as main-B_Cu.svg date 2024/06/08 11:14:05 </title>
  <desc>Image generated by PCBNEW </desc>
<g style="fill:#000000; fill-opacity:1.0000;stroke:#000000; stroke-opacity:1.0000;
stroke-linecap:round; stroke-linejoin:round;"
 transform="translate(0 0) scale(1 1)">
</g>
<g style="fill:none; 
stroke:#000000; stroke-width:1.6000; stroke-opacity:1; 
stroke-linecap:round; stroke-linejoin:round;">
<path d="M102.1959 16.6508
L102.7959 16.6508
" />
<path d="M102.1959 19.1908
L102.7959 19.1908
" />
<path d="M102.1959 21.7308
L102.7959 21.7308
" />
<path d="M102.1959 24.2708
L102.7959 24.2708
" />
<path d="M102.1959 26.8108
L102.7959 26.8108
" />
<path d="M102.1959 29.3508
L102.7959 29.3508
" />
<path d="M102.1959 31.8908
L102.7959 31.8908
" />
<path d="M102.1959 34.4308
L102.7959 34.4308
" />
<path d="M102.1959 36.9708
L102.7959 36.9708
" />
<path d="M102.1959 39.5108
L102.7959 39.5108
" />
<path d="M102.1959 42.0508
L102.7959 42.0508
" />
<path d="M102.1959 44.5908
L102.7959 44.5908
" />
<path d="M102.1959 47.1308
L102.7959 47.1308
" />
<path d="M102.1959 49.6708
L102.7959 49.6708
" />
<path d="M102.1959 52.2108
L102.7959 52.2108
" />
<path d="M130.1359 52.2108
L130.7359 52.2108
" />
<path d="M130.1359 49.6708
L130.7359 49.6708
" />
<path d="M130.1359 47.1308
L130.7359 47.1308
" />
<path d="M130.1359 44.5908
L130.7359 44.5908
" />
<path d="M130.1359 42.0508
L130.7359 42.0508
" />
<path d="M130.1359 39.5108
L130.7359 39.5108
" />
<path d="M130.1359 36.9708
L130.7359 36.9708
" />
<path d="M130.1359 34.4308
L130.7359 34.4308
" />
<path d="M130.1359 31.8908
L130.7359 31.8908
" />
<path d="M130.1359 29.3508
L130.7359 29.3508
" />
<path d="M130.1359 26.8108
L130.7359 26.8108
" />
<path d="M130.1359 24.2708
L130.7359 24.2708
" />
<path d="M130.1359 21.7308
L130.7359 21.7308
" />
<path d="M130.1359 19.1908
L130.7359 19.1908
" />
<path d="M130.1359 16.6508
L130.7359 16.6508
" />
<path style="fill:#000000; fill-opacity:1.0000; stroke:none;fill-rule:evenodd;"
d="M 115.6008,37.8739
115.5818,37.9695
115.5276,38.0507
115.4465,38.1048
115.3508,38.1239
114.5258,38.1239
114.4302,38.1048
114.3491,38.0507
114.2949,37.9695
114.2758,37.8739
114.2758,36.5739
114.2949,36.4782
114.3491,36.3971
114.4302,36.3429
114.5258,36.3239
115.3508,36.3239
115.4465,36.3429
115.5276,36.3971
115.5818,36.4782
115.6008,36.5739
Z" /> 
<path style="fill:#000000; fill-opacity:1.0000; stroke:none;fill-rule:evenodd;"
d="M 112.4758,37.8739
112.4568,37.9695
112.4026,38.0507
112.3215,38.1048
112.2258,38.1239
111.4008,38.1239
111.3052,38.1048
111.2241,38.0507
111.1699,37.9695
111.1508,37.8739
111.1508,36.5739
111.1699,36.4782
111.2241,36.3971
111.3052,36.3429
111.4008,36.3239
112.2258,36.3239
112.3215,36.3429
112.4026,36.3971
112.4568,36.4782
112.4758,36.5739
Z" /> 
<path style="fill:#000000; fill-opacity:1.0000; stroke:none;fill-rule:evenodd;"
d="M 116.2200,48.9300
116.2390,48.8343
116.2932,48.7532
116.3743,48.6990
116.4700,48.6800
117.2950,48.6800
117.3907,48.6990
117.4718,48.7532
117.5260,48.8343
117.5450,48.9300
117.5450,50.2300
117.5260,50.3257
117.4718,50.4068
117.3907,50.4610
117.2950,50.4800
116.4700,50.4800
116.3743,50.4610
116.2932,50.4068
116.2390,50.3257
116.2200,50.2300
Z" /> 
<path style="fill:#000000; fill-opacity:1.0000; stroke:none;fill-rule:evenodd;"
d="M 119.3450,48.9300
119.3640,48.8343
119.4182,48.7532
119.4993,48.6990
119.5950,48.6800
120.4200,48.6800
120.5157,48.6990
120.5968,48.7532
120.6510,48.8343
120.6700,48.9300
120.6700,50.2300
120.6510,50.3257
120.5968,50.4068
120.5157,50.4610
120.4200,50.4800
119.5950,50.4800
119.4993,50.4610
119.4182,50.4068
119.3640,50.3257
119.3450,50.2300
Z" /> 
<path style="fill:#000000; fill-opacity:1.0000; stroke:none;fill-rule:evenodd;"
d="M 107.0250,50.5100
106.9293,50.4910
106.8482,50.4368
106.7940,50.3557
106.7750,50.2600
106.7750,49.4600
106.7940,49.3643
106.8482,49.2832
106.9293,49.2290
107.0250,49.2100
108.2750,49.2100
108.3707,49.2290
108.4518,49.2832
108.5060,49.3643
108.5250,49.4600
108.5250,50.2600
108.5060,50.3557
108.4518,50.4368
108.3707,50.4910
108.2750,50.5100
Z" /> 
<path style="fill:#000000; fill-opacity:1.0000; stroke:none;fill-rule:evenodd;"
d="M 107.0250,47.4100
106.9293,47.3910
106.8482,47.3368
106.7940,47.2557
106.7750,47.1600
106.7750,46.3600
106.7940,46.2643
106.8482,46.1832
106.9293,46.1290
107.0250,46.1100
108.2750,46.1100
108.3707,46.1290
108.4518,46.1832
108.5060,46.2643
108.5250,46.3600
108.5250,47.1600
108.5060,47.2557
108.4518,47.3368
108.3707,47.3910
108.2750,47.4100
Z" /> 
<path style="fill:#000000; fill-opacity:1.0000; stroke:none;fill-rule:evenodd;"
d="M 109.5650,50.5100
109.4693,50.4910
109.3882,50.4368
109.3340,50.3557
109.3150,50.2600
109.3150,49.4600
109.3340,49.3643
109.3882,49.2832
109.4693,49.2290
109.5650,49.2100
110.8150,49.2100
110.9107,49.2290
110.9918,49.2832
111.0460,49.3643
111.0650,49.4600
111.0650,50.2600
111.0460,50.3557
110.9918,50.4368
110.9107,50.4910
110.8150,50.5100
Z" /> 
<path style="fill:#000000; fill-opacity:1.0000; stroke:none;fill-rule:evenodd;"
d="M 109.5650,47.4100
109.4693,47.3910
109.3882,47.3368
109.3340,47.2557
109.3150,47.1600
109.3150,46.3600
109.3340,46.2643
109.3882,46.1832
109.4693,46.1290
109.5650,46.1100
110.8150,46.1100
110.9107,46.1290
110.9918,46.1832
111.0460,46.2643
111.0650,46.3600
111.0650,47.1600
111.0460,47.2557
110.9918,47.3368
110.9107,47.3910
110.8150,47.4100
Z" /> 
<path style="fill:#000000; fill-opacity:1.0000; stroke:none;fill-rule:evenodd;"
d="M 93.9761,2.9132
95.9761,2.9132
95.9761,4.9132
93.9761,4.9132
Z" /> 
</g>
<g style="fill:#000000; fill-opacity:1.0000; stroke:none;">
<circle cx="94.9761" cy="7.4132" r="1.0000" /> 
<path style="fill:#000000; fill-opacity:1.0000; stroke:none;fill-rule:evenodd;"
d="M 93.9231,11.8927
95.9231,11.8927
95.9231,13.8927
93.9231,13.8927
Z" /> 
</g>
<g style="fill:#000000; fill-opacity:1.0000; stroke:none;">
<circle cx="94.9231" cy="16.3927" r="1.0000" /> 
<path style="fill:#000000; fill-opacity:1.0000; stroke:none;fill-rule:evenodd;"
d="M 116.2400,52.3450
116.2286,52.4024
116.1961,52.4511
116.1474,52.4836
116.0900,52.4950
114.4400,52.4950
114.3826,52.4836
114.3339,52.4511
114.3014,52.4024
114.2900,52.3450
114.2900,52.0450
114.3014,51.9876
114.3339,51.9389
114.3826,51.9064
114.4400,51.8950
116.0900,51.8950
116.1474,51.9064
116.1961,51.9389
116.2286,51.9876
116.2400,52.0450
Z" /> 
<path style="fill:#000000; fill-opacity:1.0000; stroke:none;fill-rule:evenodd;"
d="M 116.2400,53.6150
116.2286,53.6724
116.1961,53.7211
116.1474,53.7536
116.0900,53.7650
114.4400,53.7650
114.3826,53.7536
114.3339,53.7211
114.3014,53.6724
114.2900,53.6150
114.2900,53.3150
114.3014,53.2576
114.3339,53.2089
114.3826,53.1764
114.4400,53.1650
116.0900,53.1650
116.1474,53.1764
116.1961,53.2089
116.2286,53.2576
116.2400,53.3150
Z" /> 
<path style="fill:#000000; fill-opacity:1.0000; stroke:none;fill-rule:evenodd;"
d="M 116.2400,54.8850
116.2286,54.9424
116.1961,54.9911
116.1474,55.0236
116.0900,55.0350
114.4400,55.0350
114.3826,55.0236
114.3339,54.9911
114.3014,54.9424
114.2900,54.8850
114.2900,54.5850
114.3014,54.5276
114.3339,54.4789
114.3826,54.4464
114.4400,54.4350
116.0900,54.4350
116.1474,54.4464
116.1961,54.4789
116.2286,54.5276
116.2400,54.5850
Z" /> 
<path style="fill:#000000; fill-opacity:1.0000; stroke:none;fill-rule:evenodd;"
d="M 116.2400,56.1550
116.2286,56.2124
116.1961,56.2611
116.1474,56.2936
116.0900,56.3050
114.4400,56.3050
114.3826,56.2936
114.3339,56.2611
114.3014,56.2124
114.2900,56.1550
114.2900,55.8550
114.3014,55.7976
114.3339,55.7489
114.3826,55.7164
114.4400,55.7050
116.0900,55.7050
116.1474,55.7164
116.1961,55.7489
116.2286,55.7976
116.2400,55.8550
Z" /> 
<path style="fill:#000000; fill-opacity:1.0000; stroke:none;fill-rule:evenodd;"
d="M 111.2900,56.1550
111.2786,56.2124
111.2461,56.2611
111.1974,56.2936
111.1400,56.3050
109.4900,56.3050
109.4326,56.2936
109.3839,56.2611
109.3514,56.2124
109.3400,56.1550
109.3400,55.8550
109.3514,55.7976
109.3839,55.7489
109.4326,55.7164
109.4900,55.7050
111.1400,55.7050
111.1974,55.7164
111.2461,55.7489
111.2786,55.7976
111.2900,55.8550
Z" /> 
<path style="fill:#000000; fill-opacity:1.0000; stroke:none;fill-rule:evenodd;"
d="M 111.2900,54.8850
111.2786,54.9424
111.2461,54.9911
111.1974,55.0236
111.1400,55.0350
109.4900,55.0350
109.4326,55.0236
109.3839,54.9911
109.3514,54.9424
109.3400,54.8850
109.3400,54.5850
109.3514,54.5276
109.3839,54.4789
109.4326,54.4464
109.4900,54.4350
111.1400,54.4350
111.1974,54.4464
111.2461,54.4789
111.2786,54.5276
111.2900,54.5850
Z" /> 
<path style="fill:#000000; fill-opacity:1.0000; stroke:none;fill-rule:evenodd;"
d="M 111.2900,53.6150
111.2786,53.6724
111.2461,53.7211
111.1974,53.7536
111.1400,53.7650
109.4900,53.7650
109.4326,53.7536
109.3839,53.7211
109.3514,53.6724
109.3400,53.6150
109.3400,53.3150
109.3514,53.2576
109.3839,53.2089
109.4326,53.1764
109.4900,53.1650
111.1400,53.1650
111.1974,53.1764
111.2461,53.2089
111.2786,53.2576
111.2900,53.3150
Z" /> 
<path style="fill:#000000; fill-opacity:1.0000; stroke:none;fill-rule:evenodd;"
d="M 111.2900,52.3450
111.2786,52.4024
111.2461,52.4511
111.1974,52.4836
111.1400,52.4950
109.4900,52.4950
109.4326,52.4836
109.3839,52.4511
109.3514,52.4024
109.3400,52.3450
109.3400,52.0450
109.3514,51.9876
109.3839,51.9389
109.4326,51.9064
109.4900,51.8950
111.1400,51.8950
111.1974,51.9064
111.2461,51.9389
111.2786,51.9876
111.2900,52.0450
Z" /> 
</g>
<g style="fill:none; 
stroke:#000000; stroke-width:1.7000; stroke-opacity:1; 
stroke-linecap:round; stroke-linejoin:round;">
<path d="M107.8430 63.8456
L107.8430 63.0456
" />
<path d="M110.3830 63.8456
L110.3830 63.0456
" />
<path d="M112.9230 63.8456
L112.9230 63.0456
" />
<path d="M115.4630 63.8456
L115.4630 63.0456
" />
<path d="M118.0030 63.8456
L118.0030 63.0456
" />
<path d="M96.8900 55.8000
L97.6900 55.8000
" />
<path d="M96.8900 58.3400
L97.6900 58.3400
" />
<path d="M96.8900 60.8800
L97.6900 60.8800
" />
<path d="M96.8900 63.4200
L97.6900 63.4200
" />
<path d="M92.3900 55.8000
L93.1900 55.8000
" />
<path d="M92.3900 58.3400
L93.1900 58.3400
" />
<path d="M92.3900 60.8800
L93.1900 60.8800
" />
<path d="M92.3900 63.4200
L93.1900 63.4200
" />
<path style="fill:#000000; fill-opacity:1.0000; stroke:none;fill-rule:evenodd;"
d="M 107.1200,42.7600
107.1314,42.7026
107.1639,42.6539
107.2126,42.6214
107.2700,42.6100
108.2950,42.6100
108.3524,42.6214
108.4011,42.6539
108.4336,42.7026
108.4450,42.7600
108.4450,43.0600
108.4336,43.1174
108.4011,43.1661
108.3524,43.1986
108.2950,43.2100
107.2700,43.2100
107.2126,43.1986
107.1639,43.1661
107.1314,43.1174
107.1200,43.0600
Z" /> 
<path style="fill:#000000; fill-opacity:1.0000; stroke:none;fill-rule:evenodd;"
d="M 107.1200,41.8100
107.1314,41.7526
107.1639,41.7039
107.2126,41.6714
107.2700,41.6600
108.2950,41.6600
108.3524,41.6714
108.4011,41.7039
108.4336,41.7526
108.4450,41.8100
108.4450,42.1100
108.4336,42.1674
108.4011,42.2161
108.3524,42.2486
108.2950,42.2600
107.2700,42.2600
107.2126,42.2486
107.1639,42.2161
107.1314,42.1674
107.1200,42.1100
Z" /> 
<path style="fill:#000000; fill-opacity:1.0000; stroke:none;fill-rule:evenodd;"
d="M 107.1200,40.8600
107.1314,40.8026
107.1639,40.7539
107.2126,40.7214
107.2700,40.7100
108.2950,40.7100
108.3524,40.7214
108.4011,40.7539
108.4336,40.8026
108.4450,40.8600
108.4450,41.1600
108.4336,41.2174
108.4011,41.2661
108.3524,41.2986
108.2950,41.3100
107.2700,41.3100
107.2126,41.2986
107.1639,41.2661
107.1314,41.2174
107.1200,41.1600
Z" /> 
<path style="fill:#000000; fill-opacity:1.0000; stroke:none;fill-rule:evenodd;"
d="M 109.3950,40.8600
109.4064,40.8026
109.4389,40.7539
109.4876,40.7214
109.5450,40.7100
110.5700,40.7100
110.6274,40.7214
110.6761,40.7539
110.7086,40.8026
110.7200,40.8600
110.7200,41.1600
110.7086,41.2174
110.6761,41.2661
110.6274,41.2986
110.5700,41.3100
109.5450,41.3100
109.4876,41.2986
109.4389,41.2661
109.4064,41.2174
109.3950,41.1600
Z" /> 
<path style="fill:#000000; fill-opacity:1.0000; stroke:none;fill-rule:evenodd;"
d="M 109.3950,42.7600
109.4064,42.7026
109.4389,42.6539
109.4876,42.6214
109.5450,42.6100
110.5700,42.6100
110.6274,42.6214
110.6761,42.6539
110.7086,42.7026
110.7200,42.7600
110.7200,43.0600
110.7086,43.1174
110.6761,43.1661
110.6274,43.1986
110.5700,43.2100
109.5450,43.2100
109.4876,43.1986
109.4389,43.1661
109.4064,43.1174
109.3950,43.0600
Z" /> 
</g>
<g style="fill:none; 
stroke:#000000; stroke-width:1.5240; stroke-opacity:1; 
stroke-linecap:round; stroke-linejoin:round;">
<path d="M87.0920 8.9400
L87.5680 8.9400
" />
<path d="M84.5520 8.9400
L85.0280 8.9400
" />
<path d="M87.0920 11.4800
L87.5680 11.4800
" />
<path d="M84.5520 11.4800
L85.0280 11.4800
" />
<path d="M87.0920 14.0200
L87.5680 14.0200
" />
<path d="M84.5520 14.0200
L85.0280 14.0200
" />
<path d="M87.0920 16.5600
L87.5680 16.5600
" />
<path d="M84.5520 16.5600
L85.0280 16.5600
" />
<path d="M87.0920 19.1000
L87.5680 19.1000
" />
<path d="M84.5520 19.1000
L85.0280 19.1000
" />
<path d="M87.0920 21.6400
L87.5680 21.6400
" />
<path d="M84.5520 21.6400
L85.0280 21.6400
" />
<path d="M87.0920 24.1800
L87.5680 24.1800
" />
<path d="M84.5520 24.1800
L85.0280 24.1800
" />
<path d="M87.0920 26.7200
L87.5680 26.7200
" />
<path d="M84.5520 26.7200
L85.0280 26.7200
" />
<path d="M87.0920 29.2600
L87.5680 29.2600
" />
<path d="M84.5520 29.2600
L85.0280 29.2600
" />
<path d="M87.0920 31.8000
L87.5680 31.8000
" />
<path d="M84.5520 31.8000
L85.0280 31.8000
" />
<path d="M87.0920 34.3400
L87.5680 34.3400
" />
<path d="M84.5520 34.3400
L85.0280 34.3400
" />
<path d="M87.0920 36.8800
L87.5680 36.8800
" />
<path d="M84.5520 36.8800
L85.0280 36.8800
" />
<path d="M87.0920 39.4200
L87.5680 39.4200
" />
<path d="M84.5520 39.4200
L85.0280 39.4200
" />
<path d="M87.0920 41.9600
L87.5680 41.9600
" />
<path d="M84.5520 41.9600
L85.0280 41.9600
" />
<path d="M87.0920 44.5000
L87.5680 44.5000
" />
<path d="M84.5520 44.5000
L85.0280 44.5000
" />
<path d="M87.0920 47.0400
L87.5680 47.0400
" />
<path d="M84.5520 47.0400
L85.0280 47.0400
" />
<path d="M87.0920 49.5800
L87.5680 49.5800
" />
<path d="M84.5520 49.5800
L85.0280 49.5800
" />
<path d="M87.0920 52.1200
L87.5680 52.1200
" />
<path d="M84.5520 52.1200
L85.0280 52.1200
" />
<path d="M87.0920 54.6600
L87.5680 54.6600
" />
<path d="M84.5520 54.6600
L85.0280 54.6600
" />
<path d="M87.0920 57.2000
L87.5680 57.2000
" />
<path d="M84.5520 57.2000
L85.0280 57.2000
" />
</g>
<g style="fill:#000000; fill-opacity:1.0000; stroke:none;">
<circle cx="118.4450" cy="26.8235" r="1.0000" /> 
</g>
<g style="fill:#000000; fill-opacity:1.0000; stroke:none;">
<circle cx="124.1600" cy="26.8235" r="1.0000" /> 
</g>
<g style="fill:#000000; fill-opacity:1.0000; stroke:none;">
<circle cx="99.3950" cy="17.5760" r="1.0000" /> 
</g>
<g style="fill:#000000; fill-opacity:1.0000; stroke:none;">
<circle cx="99.3950" cy="21.6400" r="1.0000" /> 
</g>
<g style="fill:#000000; fill-opacity:1.0000; stroke:none;">
<circle cx="92.4100" cy="53.3900" r="1.0000" /> 
</g>
<g style="fill:#000000; fill-opacity:1.0000; stroke:none;">
<circle cx="92.4100" cy="31.8000" r="1.0000" /> 
</g>
<g style="fill:#000000; fill-opacity:1.0000; stroke:none;">
<circle cx="100.0300" cy="61.0100" r="1.0000" /> 
</g>
<g style="fill:#000000; fill-opacity:1.0000; stroke:none;">
<circle cx="100.0300" cy="43.8650" r="1.0000" /> 
</g>
<g style="fill:#000000; fill-opacity:1.0000; stroke:none;">
<circle cx="118.4450" cy="52.1200" r="1.0000" /> 
</g>
<g style="fill:#000000; fill-opacity:1.0000; stroke:none;">
<circle cx="106.3800" cy="52.1200" r="1.0000" /> 
</g>
<g style="fill:#000000; fill-opacity:1.0000; stroke:none;">
<circle cx="105.1100" cy="43.8650" r="1.0000" /> 
</g>
<g style="fill:#000000; fill-opacity:1.0000; stroke:none;">
<circle cx="105.4113" cy="40.0550" r="1.0000" /> 
</g>
<g style="fill:#000000; fill-opacity:1.0000; stroke:none;">
<circle cx="119.7150" cy="59.7400" r="1.0000" /> 
</g>
<g style="fill:#000000; fill-opacity:1.0000; stroke:none;">
<circle cx="114.0000" cy="59.7400" r="1.0000" /> 
</g>
<g style="fill:#000000; fill-opacity:1.0000; stroke:none;">
<circle cx="112.0950" cy="38.7850" r="1.0000" /> 
</g>
<g style="fill:#000000; fill-opacity:1.0000; stroke:none;">
<circle cx="112.0950" cy="43.2300" r="1.0000" /> 
</g>
<g style="fill:#000000; fill-opacity:1.0000; stroke:none;">
<circle cx="94.3150" cy="45.1350" r="1.0000" /> 
</g>
<g style="fill:#000000; fill-opacity:1.0000; stroke:none;">
<circle cx="94.3150" cy="38.7850" r="1.0000" /> 
</g>
<g style="fill:#000000; fill-opacity:1.0000; stroke:none;">
<circle cx="96.8550" cy="39.4200" r="1.0000" /> 
</g>
<g style="fill:#000000; fill-opacity:1.0000; stroke:none;">
<circle cx="96.8550" cy="33.7050" r="1.0000" /> 
</g>
<g style="fill:#000000; fill-opacity:1.0000; stroke:none;">
<circle cx="98.7600" cy="31.8000" r="1.0000" /> 
</g>
<g style="fill:#000000; fill-opacity:1.0000; stroke:none;">
<circle cx="98.7600" cy="37.5150" r="1.0000" /> 
</g>
<g style="fill:#000000; fill-opacity:1.0000; stroke:none;">
<circle cx="90.5050" cy="34.3400" r="1.0000" /> 
</g>
<g style="fill:#000000; fill-opacity:1.0000; stroke:none;">
<circle cx="90.3780" cy="45.0080" r="1.0000" /> 
</g>
<g style="fill:#000000; fill-opacity:1.0000; stroke:none;">
<circle cx="108.2850" cy="58.4700" r="1.0000" /> 
</g>
<g style="fill:#000000; fill-opacity:1.0000; stroke:none;">
<circle cx="114.0000" cy="58.4700" r="1.0000" /> 
</g>
<g style="fill:none; 
stroke:#000000; stroke-width:0.6096; stroke-opacity:1; 
stroke-linecap:round; stroke-linejoin:round;">
<path d="M94.9231 16.5331
L94.9231 16.3927
" />
<path d="M97.9980 19.6080
L94.9231 16.5331
" />
<path d="M102.4959 19.1908
L102.0787 19.6080
" />
<path d="M102.0787 19.6080
L97.9980 19.6080
" />
<path d="M99.3950 15.9250
L100.5825 14.7375
" />
<path d="M99.3950 17.5760
L99.3950 15.9250
" />
</g>
<g style="fill:none; 
stroke:#000000; stroke-width:0.4064; stroke-opacity:1; 
stroke-linecap:round; stroke-linejoin:round;">
<path d="M95.6758 49.6708
L102.4959 49.6708
" />
<path d="M91.0130 45.0080
L95.6758 49.6708
" />
<path d="M90.3780 45.0080
L91.0130 45.0080
" />
<path d="M104.4750 54.0250
L106.3800 52.1200
" />
<path d="M101.3000 54.0250
L104.4750 54.0250
" />
<path d="M95.5850 52.7550
L100.0300 52.7550
" />
<path d="M100.0300 52.7550
L101.3000 54.0250
" />
<path d="M87.3300 44.5000
L95.5850 52.7550
" />
<path d="M99.3950 54.6600
L99.3950 58.3400
" />
<path d="M94.9500 54.0250
L98.7600 54.0250
" />
<path d="M92.9925 51.9836
L93.8164 52.8074
" />
<path d="M98.7600 54.0250
L99.3950 54.6600
" />
<path d="M93.8164 52.8074
L93.8164 52.8914
" />
<path d="M92.9086 51.9836
L92.9925 51.9836
" />
<path d="M87.9650 47.0400
L92.9086 51.9836
" />
<path d="M87.3300 47.0400
L87.9650 47.0400
" />
<path d="M93.8164 52.8914
L94.9500 54.0250
" />
<path d="M96.2200 40.6900
L86.0600 40.6900
" />
<path d="M86.0600 40.6900
L84.7900 41.9600
" />
<path d="M96.8550 40.0550
L96.2200 40.6900
" />
<path d="M96.8550 39.4200
L96.8550 40.0550
" />
<path d="M97.4900 41.9600
L87.3300 41.9600
" />
<path d="M98.7600 40.6900
L97.4900 41.9600
" />
<path d="M98.7600 37.5150
L98.7600 40.6900
" />
</g>
<g style="fill:none; 
stroke:#000000; stroke-width:0.6096; stroke-opacity:1; 
stroke-linecap:round; stroke-linejoin:round;">
<path d="M124.1600 26.8235
L124.1727 26.8108
" />
<path d="M124.1727 26.8108
L130.4359 26.8108
" />
<path d="M115.3735 26.8235
L115.2700 26.7200
" />
<path d="M118.4450 26.8235
L115.3735 26.8235
" />
<path d="M95.2329 7.6700
L109.5550 7.6700
" />
<path d="M109.5550 7.6700
L120.9850 19.1000
" />
<path d="M94.9761 7.4132
L95.2329 7.6700
" />
<path d="M120.9850 19.1000
L120.9850 19.1908
" />
<path d="M105.2008 16.6508
L102.4959 16.6508
" />
<path d="M115.2700 26.7200
L105.2008 16.6508
" />
<path d="M114.0000 58.4700
L114.0000 59.7400
" />
<path d="M115.2700 43.2300
L115.2700 26.7200
" />
<path d="M120.9850 26.7200
L120.9850 19.1908
" />
<path d="M126.0650 31.8000
L120.9850 26.7200
" />
<path d="M120.9850 19.1908
L130.4359 19.1908
" />
<path d="M130.4359 29.3508
L128.5142 29.3508
" />
<path d="M130.4359 49.6708
L126.0650 49.6708
" />
<path d="M126.0650 49.6708
L124.0692 49.6708
" />
<path d="M128.5142 29.3508
L126.0650 31.8000
" />
<path d="M126.0650 31.8000
L126.0650 49.6708
" />
<path d="M124.0692 49.6708
L122.5725 51.1675
" />
<path d="M125.2494 16.6508
L130.4359 16.6508
" />
<path d="M112.5119 3.9132
L125.2494 16.6508
" />
</g>
<g style="fill:none; 
stroke:#000000; stroke-width:0.4064; stroke-opacity:1; 
stroke-linecap:round; stroke-linejoin:round;">
<path d="M112.0950 43.2300
L110.3775 43.2300
" />
<path d="M110.3775 43.2300
L110.0575 42.9100
" />
<path d="M105.1100 43.8650
L104.5658 43.8650
" />
<path d="M104.5658 43.8650
L103.8400 44.5908
" />
<path d="M106.6997 42.9100
L107.7825 42.9100
" />
<path d="M105.8405 42.0508
L106.6997 42.9100
" />
<path d="M102.4959 42.0508
L105.8405 42.0508
" />
<path d="M107.6500 43.8650
L107.6500 43.0425
" />
<path d="M106.3800 48.3100
L105.7450 47.6750
" />
<path d="M105.7450 45.7700
L107.6500 43.8650
" />
<path d="M107.6500 43.0425
L107.7825 42.9100
" />
<path d="M109.5550 48.3100
L106.3800 48.3100
" />
<path d="M110.1900 48.9450
L109.5550 48.3100
" />
<path d="M105.7450 47.6750
L105.7450 45.7700
" />
<path d="M110.1900 49.8600
L110.1900 48.9450
" />
<path d="M106.8275 40.0550
L107.7825 41.0100
" />
<path d="M105.4113 40.0550
L106.8275 40.0550
" />
<path d="M107.1975 38.1500
L110.0575 41.0100
" />
<path d="M103.8567 38.1500
L107.1975 38.1500
" />
<path d="M102.4959 39.5108
L103.8567 38.1500
" />
<path d="M93.6800 39.4200
L87.3300 39.4200
" />
<path d="M94.3150 38.7850
L93.6800 39.4200
" />
</g>
<g style="fill:none; 
stroke:#000000; stroke-width:0.6096; stroke-opacity:1; 
stroke-linecap:round; stroke-linejoin:round;">
<path d="M100.5825 14.7375
L102.4959 16.6508
" />
<path d="M98.7378 12.8927
L100.5825 14.7375
" />
<path d="M92.4100 55.4200
L92.7900 55.8000
" />
<path d="M92.4100 53.3900
L92.4100 55.4200
" />
<path d="M94.1103 26.9247
L99.3950 21.6400
" />
<path d="M94.1103 30.0997
L94.1103 26.9247
" />
<path d="M92.4100 31.8000
L94.1103 30.0997
" />
</g>
<g style="fill:none; 
stroke:#000000; stroke-width:0.4064; stroke-opacity:1; 
stroke-linecap:round; stroke-linejoin:round;">
<path d="M87.3300 34.3400
L90.5050 34.3400
" />
</g>
<g style="fill:none; 
stroke:#000000; stroke-width:0.6096; stroke-opacity:1; 
stroke-linecap:round; stroke-linejoin:round;">
<path d="M87.2768 3.9132
L84.7900 6.4000
" />
<path d="M95.5850 3.9132
L87.2768 3.9132
" />
<path d="M95.5850 3.9132
L94.9761 3.9132
" />
<path d="M84.7900 6.4000
L84.7900 8.9400
" />
<path d="M112.5119 3.9132
L95.5850 3.9132
" />
</g>
<g style="fill:none; 
stroke:#000000; stroke-width:0.4064; stroke-opacity:1; 
stroke-linecap:round; stroke-linejoin:round;">
<path d="M104.4750 48.9450
L104.4750 45.2258
" />
<path d="M104.4750 45.2258
L103.8400 44.5908
" />
<path d="M105.3900 49.8600
L104.4750 48.9450
" />
<path d="M107.6500 49.8600
L105.3900 49.8600
" />
<path d="M118.4450 57.8350
L118.4450 52.1200
" />
<path d="M117.8100 58.4700
L118.4450 57.8350
" />
<path d="M117.8100 63.2527
L117.8100 58.4700
" />
<path d="M118.0030 63.4456
L117.8100 63.2527
" />
<path d="M115.4630 58.9120
L115.4630 63.4456
" />
<path d="M117.1750 57.2000
L115.4630 58.9120
" />
<path d="M117.1750 54.0250
L117.1750 57.2000
" />
<path d="M116.6150 53.4650
L117.1750 54.0250
" />
<path d="M115.2650 53.4650
L116.6150 53.4650
" />
</g>
<g style="fill:none; 
stroke:#000000; stroke-width:0.6096; stroke-opacity:1; 
stroke-linecap:round; stroke-linejoin:round;">
<path d="M107.8430 58.9120
L107.8430 63.4456
" />
</g>
<g style="fill:none; 
stroke:#000000; stroke-width:0.4064; stroke-opacity:1; 
stroke-linecap:round; stroke-linejoin:round;">
<path d="M108.2850 58.4700
L107.8430 58.9120
" />
<path d="M114.0000 58.4700
L114.0000 57.2700
" />
<path d="M114.0000 57.2700
L115.2650 56.0050
" />
</g>
<g style="fill:none; 
stroke:#000000; stroke-width:0.6096; stroke-opacity:1; 
stroke-linecap:round; stroke-linejoin:round;">
<path d="M92.6600 63.5500
L92.7900 63.4200
" />
<path d="M87.3300 63.5500
L92.6600 63.5500
" />
<path d="M84.7900 61.0100
L87.3300 63.5500
" />
<path d="M84.7900 57.2000
L84.7900 61.0100
" />
</g>
<g style="fill:none; 
stroke:#000000; stroke-width:0.4064; stroke-opacity:1; 
stroke-linecap:round; stroke-linejoin:round;">
<path d="M88.6000 43.2300
L99.3950 43.2300
" />
<path d="M86.0600 43.2300
L88.6000 43.2300
" />
<path d="M86.0600 38.1500
L88.6000 38.1500
" />
<path d="M88.6000 38.1500
L92.4100 38.1500
" />
<path d="M101.3167 35.6100
L102.4959 34.4308
" />
<path d="M94.9500 35.6100
L101.3167 35.6100
" />
<path d="M92.4100 38.1500
L94.9500 35.6100
" />
<path d="M84.7900 36.8800
L86.0600 38.1500
" />
<path d="M102.4051 26.7200
L102.4959 26.8108
" />
<path d="M101.3000 26.7200
L102.4051 26.7200
" />
<path d="M91.1400 36.8800
L101.3000 26.7200
" />
<path d="M87.3300 36.8800
L91.1400 36.8800
" />
<path d="M100.6650 43.2300
L101.3167 43.2300
" />
<path d="M100.0300 43.8650
L100.6650 43.2300
" />
<path d="M99.3950 43.2300
L100.0300 43.8650
" />
<path d="M120.9850 49.5800
L122.5725 51.1675
" />
</g>
<g style="fill:none; 
stroke:#000000; stroke-width:0.6096; stroke-opacity:1; 
stroke-linecap:round; stroke-linejoin:round;">
<path d="M122.5725 51.1675
L119.7150 54.0250
" />
</g>
<g style="fill:none; 
stroke:#000000; stroke-width:0.4064; stroke-opacity:1; 
stroke-linecap:round; stroke-linejoin:round;">
<path d="M120.0075 49.5800
L120.9850 49.5800
" />
<path d="M112.7300 49.5800
L112.7300 50.8500
" />
</g>
<g style="fill:none; 
stroke:#000000; stroke-width:0.6096; stroke-opacity:1; 
stroke-linecap:round; stroke-linejoin:round;">
<path d="M116.8825 49.5800
L112.7300 49.5800
" />
<path d="M112.7300 47.6750
L112.7300 49.5800
" />
</g>
<g style="fill:none; 
stroke:#000000; stroke-width:0.4064; stroke-opacity:1; 
stroke-linecap:round; stroke-linejoin:round;">
<path d="M112.7300 50.8500
L111.3850 52.1950
" />
</g>
<g style="fill:none; 
stroke:#000000; stroke-width:0.6096; stroke-opacity:1; 
stroke-linecap:round; stroke-linejoin:round;">
<path d="M111.8150 46.7600
L112.7300 47.6750
" />
</g>
<g style="fill:none; 
stroke:#000000; stroke-width:0.4064; stroke-opacity:1; 
stroke-linecap:round; stroke-linejoin:round;">
<path d="M111.7400 46.7600
L111.8150 46.7600
" />
<path d="M111.3850 52.1950
L110.3150 52.1950
" />
<path d="M118.4450 52.1200
L117.1750 52.1200
" />
<path d="M107.6500 53.3900
L102.7000 58.3400
" />
<path d="M97.2900 58.3400
L99.3950 58.3400
" />
<path d="M99.3950 58.3400
L102.7000 58.3400
" />
<path d="M110.2400 54.6600
L110.3150 54.7350
" />
<path d="M108.2850 54.6600
L110.2400 54.6600
" />
<path d="M102.0650 60.8800
L108.2850 54.6600
" />
<path d="M97.2900 60.8800
L102.0650 60.8800
" />
<path d="M108.2596 52.7804
L107.6500 53.3900
" />
<path d="M108.2596 50.4696
L108.2596 52.7804
" />
<path d="M107.6500 49.8600
L108.2596 50.4696
" />
<path d="M103.8400 44.5908
L103.9308 44.5908
" />
<path d="M102.4959 44.5908
L103.8400 44.5908
" />
</g>
<g style="fill:none; 
stroke:#000000; stroke-width:0.6096; stroke-opacity:1; 
stroke-linecap:round; stroke-linejoin:round;">
<path d="M119.7150 54.0250
L119.7150 59.7400
" />
<path d="M108.9200 35.6100
L112.0950 38.7850
" />
<path d="M105.1100 35.6100
L108.9200 35.6100
" />
</g>
<g style="fill:none; 
stroke:#000000; stroke-width:0.4064; stroke-opacity:1; 
stroke-linecap:round; stroke-linejoin:round;">
<path d="M92.6600 55.9300
L92.7900 55.8000
" />
<path d="M102.4959 47.1308
L96.3108 47.1308
" />
<path d="M96.3108 47.1308
L94.3150 45.1350
" />
<path d="M100.0300 33.7050
L96.8550 33.7050
" />
<path d="M101.8442 31.8908
L100.0300 33.7050
" />
<path d="M102.4959 31.8908
L101.8442 31.8908
" />
<path d="M101.3000 29.2600
L98.7600 31.8000
" />
<path d="M102.4051 29.2600
L101.3000 29.2600
" />
<path d="M102.4959 29.3508
L102.4051 29.2600
" />
<path d="M101.3167 43.2300
L102.4959 42.0508
" />
<path d="M84.7900 44.5000
L86.0600 43.2300
" />
</g>
<g style="fill:none; 
stroke:#000000; stroke-width:0.6096; stroke-opacity:1; 
stroke-linecap:round; stroke-linejoin:round;">
<path d="M111.7400 46.7600
L115.2700 43.2300
" />
<path d="M110.1900 46.7600
L111.7400 46.7600
" />
</g>
<g style="fill:none; 
stroke:#000000; stroke-width:0.4064; stroke-opacity:1; 
stroke-linecap:round; stroke-linejoin:round;">
<path d="M107.6500 46.7600
L110.1900 46.7600
" />
<path d="M107.6500 53.3900
L110.2400 53.3900
" />
<path d="M102.4051 34.3400
L102.4959 34.4308
" />
<path d="M109.1075 41.9600
L110.0575 42.9100
" />
<path d="M107.7825 41.9600
L109.1075 41.9600
" />
<path d="M113.0500 41.0100
L115.2700 43.2300
" />
<path d="M110.0575 41.0100
L113.0500 41.0100
" />
</g>
<g style="fill:none; 
stroke:#000000; stroke-width:0.6096; stroke-opacity:1; 
stroke-linecap:round; stroke-linejoin:round;">
<path d="M105.1100 35.6100
L103.7492 36.9708
" />
<path d="M105.1100 20.3700
L105.1100 35.6100
" />
<path d="M103.7492 36.9708
L102.4959 36.9708
" />
<path d="M103.8400 19.1000
L105.1100 20.3700
" />
</g>
<g style="fill:none; 
stroke:#000000; stroke-width:0.4064; stroke-opacity:1; 
stroke-linecap:round; stroke-linejoin:round;">
<path d="M102.4959 19.1908
L102.5867 19.1000
" />
</g>
<g style="fill:none; 
stroke:#000000; stroke-width:0.6096; stroke-opacity:1; 
stroke-linecap:round; stroke-linejoin:round;">
<path d="M102.5867 19.1000
L103.8400 19.1000
" />
</g>
<g style="fill:none; 
stroke:#000000; stroke-width:0.4064; stroke-opacity:1; 
stroke-linecap:round; stroke-linejoin:round;">
<path d="M110.3830 63.4456
L110.3830 56.0730
" />
<path d="M110.3830 56.0730
L110.3150 56.0050
" />
<path d="M113.9250 54.7350
L115.2650 54.7350
" />
<path d="M112.0950 62.6177
L112.0950 56.5650
" />
<path d="M112.0950 56.5650
L113.9250 54.7350
" />
<path d="M112.9230 63.4456
L112.0950 62.6177
" />
<path d="M110.2400 53.3900
L110.3150 53.4650
" />
<path d="M117.1000 52.1950
L115.2650 52.1950
" />
<path d="M117.1750 52.1200
L117.1000 52.1950
" />
</g>
<g style="fill:none; 
stroke:#000000; stroke-width:0.6096; stroke-opacity:1; 
stroke-linecap:round; stroke-linejoin:round;">
<path d="M94.9231 12.8927
L98.7378 12.8927
" />
<path d="M92.4100 15.2900
L92.4100 7.6700
" />
<path d="M88.6000 7.6700
L92.4100 7.6700
" />
<path d="M92.4100 7.6700
L94.7194 7.6700
" />
<path d="M93.5127 16.3927
L92.4100 15.2900
" />
<path d="M94.9231 16.3927
L93.5127 16.3927
" />
<path d="M94.7194 7.6700
L94.9761 7.4132
" />
<path d="M87.3300 8.9400
L88.6000 7.6700
" />
<path d="M94.9761 3.9132
L95.0294 3.8600
" />
<path d="M94.9229 3.8600
L94.9761 3.9132
" />
</g>
<g style="fill:none; 
stroke:#000000; stroke-width:0.4064; stroke-opacity:1; 
stroke-linecap:round; stroke-linejoin:round;">
<path d="M107.4400 63.4200
L107.7900 63.0700
" />
</g>
<g style="fill:none; 
stroke:#000000; stroke-width:0.6096; stroke-opacity:1; 
stroke-linecap:round; stroke-linejoin:round;">
<path d="M97.2900 63.4200
L107.4400 63.4200
" />
<path d="M92.7900 55.8000
L97.2900 55.8000
" />
</g>
<g style="fill:none; 
stroke:#000000; stroke-width:0.4064; stroke-opacity:1; 
stroke-linecap:round; stroke-linejoin:round;">
<path d="M92.7900 58.3400
L97.2900 58.3400
" />
<path d="M92.7900 60.8800
L97.2900 60.8800
" />
</g>
<g style="fill:none; 
stroke:#000000; stroke-width:0.6096; stroke-opacity:1; 
stroke-linecap:round; stroke-linejoin:round;">
<path d="M92.7900 63.4200
L97.2900 63.4200
" />
</g>
<g style="fill:#FFFFFF; fill-opacity:1.0000; stroke:none;">
<circle cx="118.4450" cy="26.8235" r="0.2500" /> 
</g>
<g style="fill:#FFFFFF; fill-opacity:1.0000; stroke:none;">
<circle cx="124.1600" cy="26.8235" r="0.2500" /> 
</g>
<g style="fill:#FFFFFF; fill-opacity:1.0000; stroke:none;">
<circle cx="99.3950" cy="17.5760" r="0.2500" /> 
</g>
<g style="fill:#FFFFFF; fill-opacity:1.0000; stroke:none;">
<circle cx="99.3950" cy="21.6400" r="0.2500" /> 
</g>
<g style="fill:#FFFFFF; fill-opacity:1.0000; stroke:none;">
<circle cx="92.4100" cy="53.3900" r="0.2500" /> 
</g>
<g style="fill:#FFFFFF; fill-opacity:1.0000; stroke:none;">
<circle cx="92.4100" cy="31.8000" r="0.2500" /> 
</g>
<g style="fill:#FFFFFF; fill-opacity:1.0000; stroke:none;">
<circle cx="100.0300" cy="61.0100" r="0.2500" /> 
</g>
<g style="fill:#FFFFFF; fill-opacity:1.0000; stroke:none;">
<circle cx="100.0300" cy="43.8650" r="0.2500" /> 
</g>
<g style="fill:#FFFFFF; fill-opacity:1.0000; stroke:none;">
<circle cx="118.4450" cy="52.1200" r="0.2500" /> 
</g>
<g style="fill:#FFFFFF; fill-opacity:1.0000; stroke:none;">
<circle cx="106.3800" cy="52.1200" r="0.2500" /> 
</g>
<g style="fill:#FFFFFF; fill-opacity:1.0000; stroke:none;">
<circle cx="105.1100" cy="43.8650" r="0.2500" /> 
</g>
<g style="fill:#FFFFFF; fill-opacity:1.0000; stroke:none;">
<circle cx="105.4113" cy="40.0550" r="0.2500" /> 
</g>
<g style="fill:#FFFFFF; fill-opacity:1.0000; stroke:none;">
<circle cx="119.7150" cy="59.7400" r="0.2500" /> 
</g>
<g style="fill:#FFFFFF; fill-opacity:1.0000; stroke:none;">
<circle cx="114.0000" cy="59.7400" r="0.2500" /> 
</g>
<g style="fill:#FFFFFF; fill-opacity:1.0000; stroke:none;">
<circle cx="112.0950" cy="38.7850" r="0.2500" /> 
</g>
<g style="fill:#FFFFFF; fill-opacity:1.0000; stroke:none;">
<circle cx="112.0950" cy="43.2300" r="0.2500" /> 
</g>
<g style="fill:#FFFFFF; fill-opacity:1.0000; stroke:none;">
<circle cx="94.3150" cy="45.1350" r="0.2500" /> 
</g>
<g style="fill:#FFFFFF; fill-opacity:1.0000; stroke:none;">
<circle cx="94.3150" cy="38.7850" r="0.2500" /> 
</g>
<g style="fill:#FFFFFF; fill-opacity:1.0000; stroke:none;">
<circle cx="96.8550" cy="39.4200" r="0.2500" /> 
</g>
<g style="fill:#FFFFFF; fill-opacity:1.0000; stroke:none;">
<circle cx="96.8550" cy="33.7050" r="0.2500" /> 
</g>
<g style="fill:#FFFFFF; fill-opacity:1.0000; stroke:none;">
<circle cx="98.7600" cy="31.8000" r="0.2500" /> 
</g>
<g style="fill:#FFFFFF; fill-opacity:1.0000; stroke:none;">
<circle cx="98.7600" cy="37.5150" r="0.2500" /> 
</g>
<g style="fill:#FFFFFF; fill-opacity:1.0000; stroke:none;">
<circle cx="90.5050" cy="34.3400" r="0.2500" /> 
</g>
<g style="fill:#FFFFFF; fill-opacity:1.0000; stroke:none;">
<circle cx="90.3780" cy="45.0080" r="0.2500" /> 
</g>
<g style="fill:#FFFFFF; fill-opacity:1.0000; stroke:none;">
<circle cx="108.2850" cy="58.4700" r="0.2500" /> 
</g>
<g style="fill:#FFFFFF; fill-opacity:1.0000; stroke:none;">
<circle cx="114.0000" cy="58.4700" r="0.2500" /> 
</g>
<g style="fill:#FFFFFF; fill-opacity:1.0000; stroke:none;">
<circle cx="102.4959" cy="16.6508" r="0.2500" /> 
</g>
<g style="fill:#FFFFFF; fill-opacity:1.0000; stroke:none;">
<circle cx="102.4959" cy="19.1908" r="0.2500" /> 
</g>
<g style="fill:#FFFFFF; fill-opacity:1.0000; stroke:none;">
<circle cx="102.4959" cy="21.7308" r="0.2500" /> 
</g>
<g style="fill:#FFFFFF; fill-opacity:1.0000; stroke:none;">
<circle cx="102.4959" cy="24.2708" r="0.2500" /> 
</g>
<g style="fill:#FFFFFF; fill-opacity:1.0000; stroke:none;">
<circle cx="102.4959" cy="26.8108" r="0.2500" /> 
</g>
<g style="fill:#FFFFFF; fill-opacity:1.0000; stroke:none;">
<circle cx="102.4959" cy="29.3508" r="0.2500" /> 
</g>
<g style="fill:#FFFFFF; fill-opacity:1.0000; stroke:none;">
<circle cx="102.4959" cy="31.8908" r="0.2500" /> 
</g>
<g style="fill:#FFFFFF; fill-opacity:1.0000; stroke:none;">
<circle cx="102.4959" cy="34.4308" r="0.2500" /> 
</g>
<g style="fill:#FFFFFF; fill-opacity:1.0000; stroke:none;">
<circle cx="102.4959" cy="36.9708" r="0.2500" /> 
</g>
<g style="fill:#FFFFFF; fill-opacity:1.0000; stroke:none;">
<circle cx="102.4959" cy="39.5108" r="0.2500" /> 
</g>
<g style="fill:#FFFFFF; fill-opacity:1.0000; stroke:none;">
<circle cx="102.4959" cy="42.0508" r="0.2500" /> 
</g>
<g style="fill:#FFFFFF; fill-opacity:1.0000; stroke:none;">
<circle cx="102.4959" cy="44.5908" r="0.2500" /> 
</g>
<g style="fill:#FFFFFF; fill-opacity:1.0000; stroke:none;">
<circle cx="102.4959" cy="47.1308" r="0.2500" /> 
</g>
<g style="fill:#FFFFFF; fill-opacity:1.0000; stroke:none;">
<circle cx="102.4959" cy="49.6708" r="0.2500" /> 
</g>
<g style="fill:#FFFFFF; fill-opacity:1.0000; stroke:none;">
<circle cx="102.4959" cy="52.2108" r="0.2500" /> 
</g>
<g style="fill:#FFFFFF; fill-opacity:1.0000; stroke:none;">
<circle cx="130.4359" cy="52.2108" r="0.2500" /> 
</g>
<g style="fill:#FFFFFF; fill-opacity:1.0000; stroke:none;">
<circle cx="130.4359" cy="49.6708" r="0.2500" /> 
</g>
<g style="fill:#FFFFFF; fill-opacity:1.0000; stroke:none;">
<circle cx="130.4359" cy="47.1308" r="0.2500" /> 
</g>
<g style="fill:#FFFFFF; fill-opacity:1.0000; stroke:none;">
<circle cx="130.4359" cy="44.5908" r="0.2500" /> 
</g>
<g style="fill:#FFFFFF; fill-opacity:1.0000; stroke:none;">
<circle cx="130.4359" cy="42.0508" r="0.2500" /> 
</g>
<g style="fill:#FFFFFF; fill-opacity:1.0000; stroke:none;">
<circle cx="130.4359" cy="39.5108" r="0.2500" /> 
</g>
<g style="fill:#FFFFFF; fill-opacity:1.0000; stroke:none;">
<circle cx="130.4359" cy="36.9708" r="0.2500" /> 
</g>
<g style="fill:#FFFFFF; fill-opacity:1.0000; stroke:none;">
<circle cx="130.4359" cy="34.4308" r="0.2500" /> 
</g>
<g style="fill:#FFFFFF; fill-opacity:1.0000; stroke:none;">
<circle cx="130.4359" cy="31.8908" r="0.2500" /> 
</g>
<g style="fill:#FFFFFF; fill-opacity:1.0000; stroke:none;">
<circle cx="130.4359" cy="29.3508" r="0.2500" /> 
</g>
<g style="fill:#FFFFFF; fill-opacity:1.0000; stroke:none;">
<circle cx="130.4359" cy="26.8108" r="0.2500" /> 
</g>
<g style="fill:#FFFFFF; fill-opacity:1.0000; stroke:none;">
<circle cx="130.4359" cy="24.2708" r="0.2500" /> 
</g>
<g style="fill:#FFFFFF; fill-opacity:1.0000; stroke:none;">
<circle cx="130.4359" cy="21.7308" r="0.2500" /> 
</g>
<g style="fill:#FFFFFF; fill-opacity:1.0000; stroke:none;">
<circle cx="130.4359" cy="19.1908" r="0.2500" /> 
</g>
<g style="fill:#FFFFFF; fill-opacity:1.0000; stroke:none;">
<circle cx="130.4359" cy="16.6508" r="0.2500" /> 
</g>
<g style="fill:#FFFFFF; fill-opacity:1.0000; stroke:none;">
<circle cx="94.9761" cy="3.9132" r="0.2540" /> 
</g>
<g style="fill:#FFFFFF; fill-opacity:1.0000; stroke:none;">
<circle cx="94.9761" cy="7.4132" r="0.2540" /> 
</g>
<g style="fill:#FFFFFF; fill-opacity:1.0000; stroke:none;">
<circle cx="94.9231" cy="12.8927" r="0.2540" /> 
</g>
<g style="fill:#FFFFFF; fill-opacity:1.0000; stroke:none;">
<circle cx="94.9231" cy="16.3927" r="0.2540" /> 
</g>
<g style="fill:#FFFFFF; fill-opacity:1.0000; stroke:none;">
<circle cx="107.8430" cy="63.4456" r="0.2500" /> 
</g>
<g style="fill:#FFFFFF; fill-opacity:1.0000; stroke:none;">
<circle cx="110.3830" cy="63.4456" r="0.2500" /> 
</g>
<g style="fill:#FFFFFF; fill-opacity:1.0000; stroke:none;">
<circle cx="112.9230" cy="63.4456" r="0.2500" /> 
</g>
<g style="fill:#FFFFFF; fill-opacity:1.0000; stroke:none;">
<circle cx="115.4630" cy="63.4456" r="0.2500" /> 
</g>
<g style="fill:#FFFFFF; fill-opacity:1.0000; stroke:none;">
<circle cx="118.0030" cy="63.4456" r="0.2500" /> 
</g>
<g style="fill:#FFFFFF; fill-opacity:1.0000; stroke:none;">
<circle cx="97.2900" cy="55.8000" r="0.2500" /> 
</g>
<g style="fill:#FFFFFF; fill-opacity:1.0000; stroke:none;">
<circle cx="97.2900" cy="58.3400" r="0.2500" /> 
</g>
<g style="fill:#FFFFFF; fill-opacity:1.0000; stroke:none;">
<circle cx="97.2900" cy="60.8800" r="0.2500" /> 
</g>
<g style="fill:#FFFFFF; fill-opacity:1.0000; stroke:none;">
<circle cx="97.2900" cy="63.4200" r="0.2500" /> 
</g>
<g style="fill:#FFFFFF; fill-opacity:1.0000; stroke:none;">
<circle cx="92.7900" cy="55.8000" r="0.2500" /> 
</g>
<g style="fill:#FFFFFF; fill-opacity:1.0000; stroke:none;">
<circle cx="92.7900" cy="58.3400" r="0.2500" /> 
</g>
<g style="fill:#FFFFFF; fill-opacity:1.0000; stroke:none;">
<circle cx="92.7900" cy="60.8800" r="0.2500" /> 
</g>
<g style="fill:#FFFFFF; fill-opacity:1.0000; stroke:none;">
<circle cx="92.7900" cy="63.4200" r="0.2500" /> 
</g>
<g style="fill:#FFFFFF; fill-opacity:1.0000; stroke:none;">
<circle cx="87.3300" cy="8.9400" r="0.2500" /> 
</g>
<g style="fill:#FFFFFF; fill-opacity:1.0000; stroke:none;">
<circle cx="84.7900" cy="8.9400" r="0.2500" /> 
</g>
<g style="fill:#FFFFFF; fill-opacity:1.0000; stroke:none;">
<circle cx="87.3300" cy="11.4800" r="0.2500" /> 
</g>
<g style="fill:#FFFFFF; fill-opacity:1.0000; stroke:none;">
<circle cx="84.7900" cy="11.4800" r="0.2500" /> 
</g>
<g style="fill:#FFFFFF; fill-opacity:1.0000; stroke:none;">
<circle cx="87.3300" cy="14.0200" r="0.2500" /> 
</g>
<g style="fill:#FFFFFF; fill-opacity:1.0000; stroke:none;">
<circle cx="84.7900" cy="14.0200" r="0.2500" /> 
</g>
<g style="fill:#FFFFFF; fill-opacity:1.0000; stroke:none;">
<circle cx="87.3300" cy="16.5600" r="0.2500" /> 
</g>
<g style="fill:#FFFFFF; fill-opacity:1.0000; stroke:none;">
<circle cx="84.7900" cy="16.5600" r="0.2500" /> 
</g>
<g style="fill:#FFFFFF; fill-opacity:1.0000; stroke:none;">
<circle cx="87.3300" cy="19.1000" r="0.2500" /> 
</g>
<g style="fill:#FFFFFF; fill-opacity:1.0000; stroke:none;">
<circle cx="84.7900" cy="19.1000" r="0.2500" /> 
</g>
<g style="fill:#FFFFFF; fill-opacity:1.0000; stroke:none;">
<circle cx="87.3300" cy="21.6400" r="0.2500" /> 
</g>
<g style="fill:#FFFFFF; fill-opacity:1.0000; stroke:none;">
<circle cx="84.7900" cy="21.6400" r="0.2500" /> 
</g>
<g style="fill:#FFFFFF; fill-opacity:1.0000; stroke:none;">
<circle cx="87.3300" cy="24.1800" r="0.2500" /> 
</g>
<g style="fill:#FFFFFF; fill-opacity:1.0000; stroke:none;">
<circle cx="84.7900" cy="24.1800" r="0.2500" /> 
</g>
<g style="fill:#FFFFFF; fill-opacity:1.0000; stroke:none;">
<circle cx="87.3300" cy="26.7200" r="0.2500" /> 
</g>
<g style="fill:#FFFFFF; fill-opacity:1.0000; stroke:none;">
<circle cx="84.7900" cy="26.7200" r="0.2500" /> 
</g>
<g style="fill:#FFFFFF; fill-opacity:1.0000; stroke:none;">
<circle cx="87.3300" cy="29.2600" r="0.2500" /> 
</g>
<g style="fill:#FFFFFF; fill-opacity:1.0000; stroke:none;">
<circle cx="84.7900" cy="29.2600" r="0.2500" /> 
</g>
<g style="fill:#FFFFFF; fill-opacity:1.0000; stroke:none;">
<circle cx="87.3300" cy="31.8000" r="0.2500" /> 
</g>
<g style="fill:#FFFFFF; fill-opacity:1.0000; stroke:none;">
<circle cx="84.7900" cy="31.8000" r="0.2500" /> 
</g>
<g style="fill:#FFFFFF; fill-opacity:1.0000; stroke:none;">
<circle cx="87.3300" cy="34.3400" r="0.2500" /> 
</g>
<g style="fill:#FFFFFF; fill-opacity:1.0000; stroke:none;">
<circle cx="84.7900" cy="34.3400" r="0.2500" /> 
</g>
<g style="fill:#FFFFFF; fill-opacity:1.0000; stroke:none;">
<circle cx="87.3300" cy="36.8800" r="0.2500" /> 
</g>
<g style="fill:#FFFFFF; fill-opacity:1.0000; stroke:none;">
<circle cx="84.7900" cy="36.8800" r="0.2500" /> 
</g>
<g style="fill:#FFFFFF; fill-opacity:1.0000; stroke:none;">
<circle cx="87.3300" cy="39.4200" r="0.2500" /> 
</g>
<g style="fill:#FFFFFF; fill-opacity:1.0000; stroke:none;">
<circle cx="84.7900" cy="39.4200" r="0.2500" /> 
</g>
<g style="fill:#FFFFFF; fill-opacity:1.0000; stroke:none;">
<circle cx="87.3300" cy="41.9600" r="0.2500" /> 
</g>
<g style="fill:#FFFFFF; fill-opacity:1.0000; stroke:none;">
<circle cx="84.7900" cy="41.9600" r="0.2500" /> 
</g>
<g style="fill:#FFFFFF; fill-opacity:1.0000; stroke:none;">
<circle cx="87.3300" cy="44.5000" r="0.2500" /> 
</g>
<g style="fill:#FFFFFF; fill-opacity:1.0000; stroke:none;">
<circle cx="84.7900" cy="44.5000" r="0.2500" /> 
</g>
<g style="fill:#FFFFFF; fill-opacity:1.0000; stroke:none;">
<circle cx="87.3300" cy="47.0400" r="0.2500" /> 
</g>
<g style="fill:#FFFFFF; fill-opacity:1.0000; stroke:none;">
<circle cx="84.7900" cy="47.0400" r="0.2500" /> 
</g>
<g style="fill:#FFFFFF; fill-opacity:1.0000; stroke:none;">
<circle cx="87.3300" cy="49.5800" r="0.2500" /> 
</g>
<g style="fill:#FFFFFF; fill-opacity:1.0000; stroke:none;">
<circle cx="84.7900" cy="49.5800" r="0.2500" /> 
</g>
<g style="fill:#FFFFFF; fill-opacity:1.0000; stroke:none;">
<circle cx="87.3300" cy="52.1200" r="0.2500" /> 
</g>
<g style="fill:#FFFFFF; fill-opacity:1.0000; stroke:none;">
<circle cx="84.7900" cy="52.1200" r="0.2500" /> 
</g>
<g style="fill:#FFFFFF; fill-opacity:1.0000; stroke:none;">
<circle cx="87.3300" cy="54.6600" r="0.2500" /> 
</g>
<g style="fill:#FFFFFF; fill-opacity:1.0000; stroke:none;">
<circle cx="84.7900" cy="54.6600" r="0.2500" /> 
</g>
<g style="fill:#FFFFFF; fill-opacity:1.0000; stroke:none;">
<circle cx="87.3300" cy="57.2000" r="0.2500" /> 
</g>
<g style="fill:#FFFFFF; fill-opacity:1.0000; stroke:none;">
<circle cx="84.7900" cy="57.2000" r="0.2500" /> 
<path style="fill:none; 
stroke:#000000; stroke-width:0.1000; stroke-opacity:1; 
stroke-linecap:round; stroke-linejoin:round;fill:none"
d="M 81.6150,0.0500
133.0500,0.0500
133.0500,66.7250
81.6150,66.7250
Z" /> 
</g> 
</svg>
