<?xml version="1.0" standalone="no"?>
 <!DOCTYPE svg PUBLIC "-//W3C//DTD SVG 1.1//EN" 
 "http://www.w3.org/Graphics/SVG/1.1/DTD/svg11.dtd"> 
<svg
  xmlns:svg="http://www.w3.org/2000/svg"
  xmlns="http://www.w3.org/2000/svg"
  xmlns:xlink="http://www.w3.org/1999/xlink"
  version="1.1"
  width="94.3864mm" height="66.0654mm" viewBox="0.0000 0.0000 94.3864 66.0654">
<title>SVG Image created as main-F_Cu.svg date 2024/06/27 14:57:18 </title>
  <desc>Image generated by PCBNEW </desc>
<g style="fill:#000000; fill-opacity:1.0000;stroke:#000000; stroke-opacity:1.0000;
stroke-linecap:round; stroke-linejoin:round;"
 transform="translate(0 0) scale(1 1)">
<path style="fill:#000000; fill-opacity:1.0000; stroke:none;fill-rule:evenodd;"
d="M 72.5600,17.6256
74.1600,17.6256
74.1600,19.2256
72.5600,19.2256
Z" /> 
</g>
<g style="fill:#000000; fill-opacity:1.0000; stroke:none;">
<circle cx="73.3600" cy="20.9256" r="0.8000" /> 
<path style="fill:#000000; fill-opacity:1.0000; stroke:none;fill-rule:evenodd;"
d="M 72.5600,9.9180
74.1600,9.9180
74.1600,11.5180
72.5600,11.5180
Z" /> 
</g>
<g style="fill:#000000; fill-opacity:1.0000; stroke:none;">
<circle cx="73.3600" cy="13.2180" r="0.8000" /> 
</g>
<g style="fill:#000000; fill-opacity:1.0000; stroke:none;">
<circle cx="60.6600" cy="56.4856" r="0.8000" /> 
<path style="fill:#000000; fill-opacity:1.0000; stroke:none;fill-rule:evenodd;"
d="M 59.8600,53.1856
61.4600,53.1856
61.4600,54.7856
59.8600,54.7856
Z" /> 
</g>
<g style="fill:none; 
stroke:#000000; stroke-width:1.7000; stroke-opacity:1; 
stroke-linecap:round; stroke-linejoin:round;">
<path d="M55.6100 14.9030
L55.6100 14.1030
" />
<path d="M58.1500 14.9030
L58.1500 14.1030
" />
<path d="M60.6900 14.9030
L60.6900 14.1030
" />
<path d="M63.2300 14.9030
L63.2300 14.1030
" />
<path d="M65.7700 14.9030
L65.7700 14.1030
" />
</g>
<g style="fill:none; 
stroke:#000000; stroke-width:1.5240; stroke-opacity:1; 
stroke-linecap:round; stroke-linejoin:round;">
<path d="M25.1930 52.6280
L25.7690 52.6280
" />
<path d="M25.1930 37.3880
L25.7690 37.3880
" />
<path d="M25.1930 39.9280
L25.7690 39.9280
" />
<path d="M48.5430 52.6280
L49.1190 52.6280
" />
<path d="M48.5430 50.0880
L49.1190 50.0880
" />
<path d="M48.5430 47.5480
L49.1190 47.5480
" />
<path d="M48.5430 45.0080
L49.1190 45.0080
" />
<path d="M25.1930 50.0880
L25.7690 50.0880
" />
<path d="M25.1930 47.5480
L25.7690 47.5480
" />
<path d="M25.1930 45.0080
L25.7690 45.0080
" />
<path d="M25.1930 42.4680
L25.7690 42.4680
" />
<path d="M48.5430 42.4680
L49.1190 42.4680
" />
<path d="M48.5430 39.9280
L49.1190 39.9280
" />
<path d="M48.5430 55.1680
L49.1190 55.1680
" />
<path d="M48.5430 37.3880
L49.1190 37.3880
" />
<path d="M25.1930 55.1680
L25.7690 55.1680
" />
</g>
<g style="fill:none; 
stroke:#000000; stroke-width:1.7000; stroke-opacity:1; 
stroke-linecap:round; stroke-linejoin:round;">
<path d="M92.1750 23.4080
L91.3750 23.4080
" />
<path d="M92.1750 20.8680
L91.3750 20.8680
" />
<path d="M92.1750 18.3280
L91.3750 18.3280
" />
<path d="M92.1750 15.7880
L91.3750 15.7880
" />
<path style="fill:#000000; fill-opacity:1.0000; stroke:none;fill-rule:evenodd;"
d="M 90.9250,28.7080
90.9250,27.0080
92.6250,27.0080
92.6250,28.7080
Z" /> 
</g>
<g style="fill:#000000; fill-opacity:1.0000; stroke:none;">
<circle cx="91.7750" cy="30.3980" r="0.8500" /> 
<path style="fill:#000000; fill-opacity:1.0000; stroke:none;fill-rule:evenodd;"
d="M 68.2650,26.9130
68.1693,26.8940
68.0882,26.8398
68.0340,26.7587
68.0150,26.6630
68.0150,25.8380
68.0340,25.7423
68.0882,25.6612
68.1693,25.6070
68.2650,25.5880
69.5650,25.5880
69.6607,25.6070
69.7418,25.6612
69.7960,25.7423
69.8150,25.8380
69.8150,26.6630
69.7960,26.7587
69.7418,26.8398
69.6607,26.8940
69.5650,26.9130
Z" /> 
<path style="fill:#000000; fill-opacity:1.0000; stroke:none;fill-rule:evenodd;"
d="M 68.2650,23.7880
68.1693,23.7690
68.0882,23.7148
68.0340,23.6337
68.0150,23.5380
68.0150,22.7130
68.0340,22.6173
68.0882,22.5362
68.1693,22.4820
68.2650,22.4630
69.5650,22.4630
69.6607,22.4820
69.7418,22.5362
69.7960,22.6173
69.8150,22.7130
69.8150,23.5380
69.7960,23.6337
69.7418,23.7148
69.6607,23.7690
69.5650,23.7880
Z" /> 
<path style="fill:#000000; fill-opacity:1.0000; stroke:none;fill-rule:evenodd;"
d="M 69.9200,57.0630
69.9010,57.1587
69.8468,57.2398
69.7657,57.2940
69.6700,57.3130
68.8700,57.3130
68.7743,57.2940
68.6932,57.2398
68.6390,57.1587
68.6200,57.0630
68.6200,55.8130
68.6390,55.7173
68.6932,55.6362
68.7743,55.5820
68.8700,55.5630
69.6700,55.5630
69.7657,55.5820
69.8468,55.6362
69.9010,55.7173
69.9200,55.8130
Z" /> 
<path style="fill:#000000; fill-opacity:1.0000; stroke:none;fill-rule:evenodd;"
d="M 73.0200,57.0630
73.0010,57.1587
72.9468,57.2398
72.8657,57.2940
72.7700,57.3130
71.9700,57.3130
71.8743,57.2940
71.7932,57.2398
71.7390,57.1587
71.7200,57.0630
71.7200,55.8130
71.7390,55.7173
71.7932,55.6362
71.8743,55.5820
71.9700,55.5630
72.7700,55.5630
72.8657,55.5820
72.9468,55.6362
73.0010,55.7173
73.0200,55.8130
Z" /> 
<path style="fill:#000000; fill-opacity:1.0000; stroke:none;fill-rule:evenodd;"
d="M 65.2550,18.6980
65.3124,18.7094
65.3611,18.7419
65.3936,18.7906
65.4050,18.8480
65.4050,20.4980
65.3936,20.5554
65.3611,20.6041
65.3124,20.6366
65.2550,20.6480
64.9550,20.6480
64.8976,20.6366
64.8489,20.6041
64.8164,20.5554
64.8050,20.4980
64.8050,18.8480
64.8164,18.7906
64.8489,18.7419
64.8976,18.7094
64.9550,18.6980
Z" /> 
<path style="fill:#000000; fill-opacity:1.0000; stroke:none;fill-rule:evenodd;"
d="M 63.9850,18.6980
64.0424,18.7094
64.0911,18.7419
64.1236,18.7906
64.1350,18.8480
64.1350,20.4980
64.1236,20.5554
64.0911,20.6041
64.0424,20.6366
63.9850,20.6480
63.6850,20.6480
63.6276,20.6366
63.5789,20.6041
63.5464,20.5554
63.5350,20.4980
63.5350,18.8480
63.5464,18.7906
63.5789,18.7419
63.6276,18.7094
63.6850,18.6980
Z" /> 
<path style="fill:#000000; fill-opacity:1.0000; stroke:none;fill-rule:evenodd;"
d="M 62.7150,18.6980
62.7724,18.7094
62.8211,18.7419
62.8536,18.7906
62.8650,18.8480
62.8650,20.4980
62.8536,20.5554
62.8211,20.6041
62.7724,20.6366
62.7150,20.6480
62.4150,20.6480
62.3576,20.6366
62.3089,20.6041
62.2764,20.5554
62.2650,20.4980
62.2650,18.8480
62.2764,18.7906
62.3089,18.7419
62.3576,18.7094
62.4150,18.6980
Z" /> 
<path style="fill:#000000; fill-opacity:1.0000; stroke:none;fill-rule:evenodd;"
d="M 61.4450,18.6980
61.5024,18.7094
61.5511,18.7419
61.5836,18.7906
61.5950,18.8480
61.5950,20.4980
61.5836,20.5554
61.5511,20.6041
61.5024,20.6366
61.4450,20.6480
61.1450,20.6480
61.0876,20.6366
61.0389,20.6041
61.0064,20.5554
60.9950,20.4980
60.9950,18.8480
61.0064,18.7906
61.0389,18.7419
61.0876,18.7094
61.1450,18.6980
Z" /> 
<path style="fill:#000000; fill-opacity:1.0000; stroke:none;fill-rule:evenodd;"
d="M 61.4450,23.6480
61.5024,23.6594
61.5511,23.6919
61.5836,23.7406
61.5950,23.7980
61.5950,25.4480
61.5836,25.5054
61.5511,25.5541
61.5024,25.5866
61.4450,25.5980
61.1450,25.5980
61.0876,25.5866
61.0389,25.5541
61.0064,25.5054
60.9950,25.4480
60.9950,23.7980
61.0064,23.7406
61.0389,23.6919
61.0876,23.6594
61.1450,23.6480
Z" /> 
<path style="fill:#000000; fill-opacity:1.0000; stroke:none;fill-rule:evenodd;"
d="M 62.7150,23.6480
62.7724,23.6594
62.8211,23.6919
62.8536,23.7406
62.8650,23.7980
62.8650,25.4480
62.8536,25.5054
62.8211,25.5541
62.7724,25.5866
62.7150,25.5980
62.4150,25.5980
62.3576,25.5866
62.3089,25.5541
62.2764,25.5054
62.2650,25.4480
62.2650,23.7980
62.2764,23.7406
62.3089,23.6919
62.3576,23.6594
62.4150,23.6480
Z" /> 
<path style="fill:#000000; fill-opacity:1.0000; stroke:none;fill-rule:evenodd;"
d="M 63.9850,23.6480
64.0424,23.6594
64.0911,23.6919
64.1236,23.7406
64.1350,23.7980
64.1350,25.4480
64.1236,25.5054
64.0911,25.5541
64.0424,25.5866
63.9850,25.5980
63.6850,25.5980
63.6276,25.5866
63.5789,25.5541
63.5464,25.5054
63.5350,25.4480
63.5350,23.7980
63.5464,23.7406
63.5789,23.6919
63.6276,23.6594
63.6850,23.6480
Z" /> 
<path style="fill:#000000; fill-opacity:1.0000; stroke:none;fill-rule:evenodd;"
d="M 65.2550,23.6480
65.3124,23.6594
65.3611,23.6919
65.3936,23.7406
65.4050,23.7980
65.4050,25.4480
65.3936,25.5054
65.3611,25.5541
65.3124,25.5866
65.2550,25.5980
64.9550,25.5980
64.8976,25.5866
64.8489,25.5541
64.8164,25.5054
64.8050,25.4480
64.8050,23.7980
64.8164,23.7406
64.8489,23.6919
64.8976,23.6594
64.9550,23.6480
Z" /> 
<path style="fill:#000000; fill-opacity:1.0000; stroke:none;fill-rule:evenodd;"
d="M 71.7200,53.2730
71.7390,53.1773
71.7932,53.0962
71.8743,53.0420
71.9700,53.0230
72.7700,53.0230
72.8657,53.0420
72.9468,53.0962
73.0010,53.1773
73.0200,53.2730
73.0200,54.5230
73.0010,54.6187
72.9468,54.6998
72.8657,54.7540
72.7700,54.7730
71.9700,54.7730
71.8743,54.7540
71.7932,54.6998
71.7390,54.6187
71.7200,54.5230
Z" /> 
<path style="fill:#000000; fill-opacity:1.0000; stroke:none;fill-rule:evenodd;"
d="M 68.6200,53.2730
68.6390,53.1773
68.6932,53.0962
68.7743,53.0420
68.8700,53.0230
69.6700,53.0230
69.7657,53.0420
69.8468,53.0962
69.9010,53.1773
69.9200,53.2730
69.9200,54.5230
69.9010,54.6187
69.8468,54.6998
69.7657,54.7540
69.6700,54.7730
68.8700,54.7730
68.7743,54.7540
68.6932,54.6998
68.6390,54.6187
68.6200,54.5230
Z" /> 
<path style="fill:#000000; fill-opacity:1.0000; stroke:none;fill-rule:evenodd;"
d="M 56.2300,54.2130
56.3257,54.2320
56.4068,54.2862
56.4610,54.3673
56.4800,54.4630
56.4800,55.2880
56.4610,55.3837
56.4068,55.4648
56.3257,55.5190
56.2300,55.5380
54.9300,55.5380
54.8343,55.5190
54.7532,55.4648
54.6990,55.3837
54.6800,55.2880
54.6800,54.4630
54.6990,54.3673
54.7532,54.2862
54.8343,54.2320
54.9300,54.2130
Z" /> 
<path style="fill:#000000; fill-opacity:1.0000; stroke:none;fill-rule:evenodd;"
d="M 56.2300,57.3380
56.3257,57.3570
56.4068,57.4112
56.4610,57.4923
56.4800,57.5880
56.4800,58.4130
56.4610,58.5087
56.4068,58.5898
56.3257,58.6440
56.2300,58.6630
54.9300,58.6630
54.8343,58.6440
54.7532,58.5898
54.6990,58.5087
54.6800,58.4130
54.6800,57.5880
54.6990,57.4923
54.7532,57.4112
54.8343,57.3570
54.9300,57.3380
Z" /> 
<path style="fill:#000000; fill-opacity:1.0000; stroke:none;fill-rule:evenodd;"
d="M 61.2850,31.3030
61.3807,31.3220
61.4618,31.3762
61.5160,31.4573
61.5350,31.5530
61.5350,32.3530
61.5160,32.4487
61.4618,32.5298
61.3807,32.5840
61.2850,32.6030
60.0350,32.6030
59.9393,32.5840
59.8582,32.5298
59.8040,32.4487
59.7850,32.3530
59.7850,31.5530
59.8040,31.4573
59.8582,31.3762
59.9393,31.3220
60.0350,31.3030
Z" /> 
<path style="fill:#000000; fill-opacity:1.0000; stroke:none;fill-rule:evenodd;"
d="M 61.2850,28.2030
61.3807,28.2220
61.4618,28.2762
61.5160,28.3573
61.5350,28.4530
61.5350,29.2530
61.5160,29.3487
61.4618,29.4298
61.3807,29.4840
61.2850,29.5030
60.0350,29.5030
59.9393,29.4840
59.8582,29.4298
59.8040,29.3487
59.7850,29.2530
59.7850,28.4530
59.8040,28.3573
59.8582,28.2762
59.9393,28.2220
60.0350,28.2030
Z" /> 
<path style="fill:#000000; fill-opacity:1.0000; stroke:none;fill-rule:evenodd;"
d="M 58.7450,28.2030
58.8407,28.2220
58.9218,28.2762
58.9760,28.3573
58.9950,28.4530
58.9950,29.2530
58.9760,29.3487
58.9218,29.4298
58.8407,29.4840
58.7450,29.5030
57.4950,29.5030
57.3993,29.4840
57.3182,29.4298
57.2640,29.3487
57.2450,29.2530
57.2450,28.4530
57.2640,28.3573
57.3182,28.2762
57.3993,28.2220
57.4950,28.2030
Z" /> 
<path style="fill:#000000; fill-opacity:1.0000; stroke:none;fill-rule:evenodd;"
d="M 58.7450,31.3030
58.8407,31.3220
58.9218,31.3762
58.9760,31.4573
58.9950,31.5530
58.9950,32.3530
58.9760,32.4487
58.9218,32.5298
58.8407,32.5840
58.7450,32.6030
57.4950,32.6030
57.3993,32.5840
57.3182,32.5298
57.2640,32.4487
57.2450,32.3530
57.2450,31.5530
57.2640,31.4573
57.3182,31.3762
57.3993,31.3220
57.4950,31.3030
Z" /> 
<path style="fill:#000000; fill-opacity:1.0000; stroke:none;fill-rule:evenodd;"
d="M 54.7850,23.8883
54.7964,23.8309
54.8289,23.7822
54.8776,23.7497
54.9350,23.7383
55.9600,23.7383
56.0174,23.7497
56.0661,23.7822
56.0986,23.8309
56.1100,23.8883
56.1100,24.1883
56.0986,24.2457
56.0661,24.2944
56.0174,24.3269
55.9600,24.3383
54.9350,24.3383
54.8776,24.3269
54.8289,24.2944
54.7964,24.2457
54.7850,24.1883
Z" /> 
<path style="fill:#000000; fill-opacity:1.0000; stroke:none;fill-rule:evenodd;"
d="M 54.7850,25.7883
54.7964,25.7309
54.8289,25.6822
54.8776,25.6497
54.9350,25.6383
55.9600,25.6383
56.0174,25.6497
56.0661,25.6822
56.0986,25.7309
56.1100,25.7883
56.1100,26.0883
56.0986,26.1457
56.0661,26.1944
56.0174,26.2269
55.9600,26.2383
54.9350,26.2383
54.8776,26.2269
54.8289,26.1944
54.7964,26.1457
54.7850,26.0883
Z" /> 
<path style="fill:#000000; fill-opacity:1.0000; stroke:none;fill-rule:evenodd;"
d="M 52.5100,25.7883
52.5214,25.7309
52.5539,25.6822
52.6026,25.6497
52.6600,25.6383
53.6850,25.6383
53.7424,25.6497
53.7911,25.6822
53.8236,25.7309
53.8350,25.7883
53.8350,26.0883
53.8236,26.1457
53.7911,26.1944
53.7424,26.2269
53.6850,26.2383
52.6600,26.2383
52.6026,26.2269
52.5539,26.1944
52.5214,26.1457
52.5100,26.0883
Z" /> 
<path style="fill:#000000; fill-opacity:1.0000; stroke:none;fill-rule:evenodd;"
d="M 52.5100,24.8383
52.5214,24.7809
52.5539,24.7322
52.6026,24.6997
52.6600,24.6883
53.6850,24.6883
53.7424,24.6997
53.7911,24.7322
53.8236,24.7809
53.8350,24.8383
53.8350,25.1383
53.8236,25.1957
53.7911,25.2444
53.7424,25.2769
53.6850,25.2883
52.6600,25.2883
52.6026,25.2769
52.5539,25.2444
52.5214,25.1957
52.5100,25.1383
Z" /> 
<path style="fill:#000000; fill-opacity:1.0000; stroke:none;fill-rule:evenodd;"
d="M 52.5100,23.8883
52.5214,23.8309
52.5539,23.7822
52.6026,23.7497
52.6600,23.7383
53.6850,23.7383
53.7424,23.7497
53.7911,23.7822
53.8236,23.8309
53.8350,23.8883
53.8350,24.1883
53.8236,24.2457
53.7911,24.2944
53.7424,24.3269
53.6850,24.3383
52.6600,24.3383
52.6026,24.3269
52.5539,24.2944
52.5214,24.2457
52.5100,24.1883
Z" /> 
<path style="fill:#000000; fill-opacity:1.0000; stroke:none;fill-rule:evenodd;"
d="M 75.4950,54.7030
75.5064,54.6456
75.5389,54.5969
75.5876,54.5644
75.6450,54.5530
76.8200,54.5530
76.8774,54.5644
76.9261,54.5969
76.9586,54.6456
76.9700,54.7030
76.9700,55.0030
76.9586,55.0604
76.9261,55.1091
76.8774,55.1416
76.8200,55.1530
75.6450,55.1530
75.5876,55.1416
75.5389,55.1091
75.5064,55.0604
75.4950,55.0030
Z" /> 
<path style="fill:#000000; fill-opacity:1.0000; stroke:none;fill-rule:evenodd;"
d="M 75.4950,56.6030
75.5064,56.5456
75.5389,56.4969
75.5876,56.4644
75.6450,56.4530
76.8200,56.4530
76.8774,56.4644
76.9261,56.4969
76.9586,56.5456
76.9700,56.6030
76.9700,56.9030
76.9586,56.9604
76.9261,57.0091
76.8774,57.0416
76.8200,57.0530
75.6450,57.0530
75.5876,57.0416
75.5389,57.0091
75.5064,56.9604
75.4950,56.9030
Z" /> 
<path style="fill:#000000; fill-opacity:1.0000; stroke:none;fill-rule:evenodd;"
d="M 77.3700,55.6530
77.3814,55.5956
77.4139,55.5469
77.4626,55.5144
77.5200,55.5030
78.6950,55.5030
78.7524,55.5144
78.8011,55.5469
78.8336,55.5956
78.8450,55.6530
78.8450,55.9530
78.8336,56.0104
78.8011,56.0591
78.7524,56.0916
78.6950,56.1030
77.5200,56.1030
77.4626,56.0916
77.4139,56.0591
77.3814,56.0104
77.3700,55.9530
Z" /> 
</g>
<g style="fill:none; 
stroke:#000000; stroke-width:1.5240; stroke-opacity:1; 
stroke-linecap:round; stroke-linejoin:round;">
<path d="M82.0120 57.7080
L82.4880 57.7080
" />
<path d="M89.6320 57.7080
L90.1080 57.7080
" />
<path d="M82.0120 55.1680
L82.4880 55.1680
" />
<path d="M89.6320 55.1680
L90.1080 55.1680
" />
<path d="M82.0120 47.5480
L82.4880 47.5480
" />
<path d="M89.6320 47.5480
L90.1080 47.5480
" />
<path d="M82.0120 45.0080
L82.4880 45.0080
" />
<path d="M89.6320 45.0080
L90.1080 45.0080
" />
<path d="M82.0120 42.4680
L82.4880 42.4680
" />
<path d="M89.6320 42.4680
L90.1080 42.4680
" />
<path d="M82.0120 39.9280
L82.4880 39.9280
" />
<path d="M89.6320 39.9280
L90.1080 39.9280
" />
<path d="M82.0120 37.3880
L82.4880 37.3880
" />
<path d="M89.6320 37.3880
L90.1080 37.3880
" />
<path d="M82.0120 34.8480
L82.4880 34.8480
" />
<path d="M89.6320 34.8480
L90.1080 34.8480
" />
<path d="M82.0120 11.9880
L82.4880 11.9880
" />
<path d="M89.6320 11.9880
L90.1080 11.9880
" />
<path d="M82.0120 9.4480
L82.4880 9.4480
" />
<path d="M89.6320 9.4480
L90.1080 9.4480
" />
</g>
<g style="fill:#000000; fill-opacity:1.0000; stroke:none;">
<circle cx="84.7900" cy="9.4480" r="0.6500" /> 
<circle cx="84.7900" cy="11.9880" r="0.6500" /> 
<circle cx="87.3300" cy="9.4480" r="0.6500" /> 
<circle cx="87.3300" cy="11.9880" r="0.6500" /> 
<circle cx="84.7900" cy="14.5280" r="0.6500" /> 
<circle cx="84.7900" cy="17.0680" r="0.6500" /> 
<circle cx="87.3300" cy="14.5280" r="0.6500" /> 
<circle cx="87.3300" cy="17.0680" r="0.6500" /> 
<circle cx="84.7900" cy="19.6080" r="0.6500" /> 
<circle cx="84.7900" cy="22.1480" r="0.6500" /> 
<circle cx="87.3300" cy="19.6080" r="0.6500" /> 
<circle cx="87.3300" cy="22.1480" r="0.6500" /> 
<circle cx="84.7900" cy="24.6880" r="0.6500" /> 
<circle cx="84.7900" cy="27.2280" r="0.6500" /> 
<circle cx="87.3300" cy="24.6880" r="0.6500" /> 
<circle cx="87.3300" cy="27.2280" r="0.6500" /> 
<circle cx="84.7900" cy="29.7680" r="0.6500" /> 
<circle cx="84.7900" cy="32.3080" r="0.6500" /> 
<circle cx="87.3300" cy="29.7680" r="0.6500" /> 
<circle cx="87.3300" cy="32.3080" r="0.6500" /> 
<circle cx="84.7900" cy="34.8480" r="0.6500" /> 
<circle cx="84.7900" cy="37.3880" r="0.6500" /> 
<circle cx="87.3300" cy="34.8480" r="0.6500" /> 
<circle cx="87.3300" cy="37.3880" r="0.6500" /> 
<circle cx="84.7900" cy="39.9280" r="0.6500" /> 
<circle cx="84.7900" cy="42.4680" r="0.6500" /> 
<circle cx="87.3300" cy="39.9280" r="0.6500" /> 
<circle cx="87.3300" cy="42.4680" r="0.6500" /> 
<circle cx="84.7900" cy="45.0080" r="0.6500" /> 
<circle cx="84.7900" cy="47.5480" r="0.6500" /> 
<circle cx="87.3300" cy="45.0080" r="0.6500" /> 
<circle cx="87.3300" cy="47.5480" r="0.6500" /> 
<circle cx="84.7900" cy="50.0880" r="0.6500" /> 
<circle cx="84.7900" cy="52.6280" r="0.6500" /> 
<circle cx="87.3300" cy="50.0880" r="0.6500" /> 
<circle cx="87.3300" cy="52.6280" r="0.6500" /> 
<circle cx="84.7900" cy="55.1680" r="0.6500" /> 
<circle cx="84.7900" cy="57.7080" r="0.6500" /> 
<circle cx="87.3300" cy="55.1680" r="0.6500" /> 
<circle cx="87.3300" cy="57.7080" r="0.6500" /> 
<circle cx="75.2650" cy="25.9580" r="0.8000" /> 
</g>
<g style="fill:#000000; fill-opacity:1.0000; stroke:none;">
<circle cx="79.0750" cy="18.9730" r="0.8000" /> 
</g>
<g style="fill:#000000; fill-opacity:1.0000; stroke:none;">
<circle cx="75.2650" cy="48.1830" r="0.8000" /> 
</g>
<g style="fill:#000000; fill-opacity:1.0000; stroke:none;">
<circle cx="70.8200" cy="27.2280" r="0.8000" /> 
</g>
<g style="fill:#000000; fill-opacity:1.0000; stroke:none;">
<circle cx="79.0750" cy="32.3080" r="0.8000" /> 
</g>
<g style="fill:#000000; fill-opacity:1.0000; stroke:none;">
<circle cx="72.7250" cy="28.4980" r="0.8000" /> 
</g>
<g style="fill:#000000; fill-opacity:1.0000; stroke:none;">
<circle cx="65.7400" cy="28.4980" r="0.8000" /> 
</g>
<g style="fill:#000000; fill-opacity:1.0000; stroke:none;">
<circle cx="78.4400" cy="48.8180" r="0.8000" /> 
</g>
<g style="fill:#000000; fill-opacity:1.0000; stroke:none;">
<circle cx="78.4400" cy="52.6280" r="0.8000" /> 
</g>
<g style="fill:#000000; fill-opacity:1.0000; stroke:none;">
<circle cx="80.9800" cy="15.7980" r="0.8000" /> 
</g>
<g style="fill:#000000; fill-opacity:1.0000; stroke:none;">
<circle cx="55.5800" cy="27.8630" r="0.8000" /> 
</g>
<g style="fill:#000000; fill-opacity:1.0000; stroke:none;">
<circle cx="55.5800" cy="31.6730" r="0.8000" /> 
</g>
<g style="fill:#000000; fill-opacity:1.0000; stroke:none;">
<circle cx="60.0663" cy="37.3880" r="0.8000" /> 
</g>
<g style="fill:#000000; fill-opacity:1.0000; stroke:none;">
<circle cx="60.0250" cy="25.3230" r="0.8000" /> 
</g>
<g style="fill:#000000; fill-opacity:1.0000; stroke:none;">
<circle cx="51.1350" cy="24.0530" r="0.8000" /> 
</g>
<g style="fill:#000000; fill-opacity:1.0000; stroke:none;">
<circle cx="57.4850" cy="24.0530" r="0.8000" /> 
</g>
<g style="fill:#000000; fill-opacity:1.0000; stroke:none;">
<circle cx="70.8200" cy="51.3580" r="0.8000" /> 
</g>
<g style="fill:#000000; fill-opacity:1.0000; stroke:none;">
<circle cx="70.8200" cy="31.6730" r="0.8000" /> 
</g>
<g style="fill:#000000; fill-opacity:1.0000; stroke:none;">
<circle cx="79.0750" cy="31.0380" r="0.8000" /> 
</g>
<g style="fill:#000000; fill-opacity:1.0000; stroke:none;">
<circle cx="58.1200" cy="34.3401" r="0.8000" /> 
</g>
<g style="fill:#000000; fill-opacity:1.0000; stroke:none;">
<circle cx="58.1200" cy="49.4530" r="0.8000" /> 
</g>
<g style="fill:#000000; fill-opacity:1.0000; stroke:none;">
<circle cx="59.3900" cy="19.6080" r="0.8000" /> 
</g>
<g style="fill:#000000; fill-opacity:1.0000; stroke:none;">
<circle cx="59.3900" cy="23.4180" r="0.8000" /> 
</g>
<g style="fill:#000000; fill-opacity:1.0000; stroke:none;">
<circle cx="77.1700" cy="33.5780" r="0.8000" /> 
</g>
<g style="fill:#000000; fill-opacity:1.0000; stroke:none;">
<circle cx="77.1700" cy="37.3880" r="0.8000" /> 
</g>
<g style="fill:#000000; fill-opacity:1.0000; stroke:none;">
<circle cx="63.8350" cy="37.3880" r="0.8000" /> 
</g>
<g style="fill:#000000; fill-opacity:1.0000; stroke:none;">
<circle cx="63.8350" cy="49.4530" r="0.8000" /> 
</g>
<g style="fill:#000000; fill-opacity:1.0000; stroke:none;">
<circle cx="55.5800" cy="41.8330" r="0.8000" /> 
</g>
<g style="fill:#000000; fill-opacity:1.0000; stroke:none;">
<circle cx="55.5800" cy="49.4530" r="0.8000" /> 
</g>
<g style="fill:#000000; fill-opacity:1.0000; stroke:none;">
<circle cx="73.3600" cy="33.5780" r="0.8000" /> 
</g>
<g style="fill:#000000; fill-opacity:1.0000; stroke:none;">
<circle cx="73.3600" cy="41.1980" r="0.8000" /> 
</g>
<g style="fill:#000000; fill-opacity:1.0000; stroke:none;">
<circle cx="79.0750" cy="45.6430" r="0.9000" /> 
</g>
<g style="fill:#000000; fill-opacity:1.0000; stroke:none;">
<circle cx="80.9800" cy="28.4980" r="0.8000" /> 
</g>
<g style="fill:#000000; fill-opacity:1.0000; stroke:none;">
<circle cx="62.5650" cy="27.2280" r="0.8000" /> 
</g>
<g style="fill:none; 
stroke:#000000; stroke-width:0.4064; stroke-opacity:1; 
stroke-linecap:round; stroke-linejoin:round;">
<path d="M61.9300 30.4030
L60.6600 30.4030
" />
<path d="M63.8350 28.4980
L61.9300 30.4030
" />
</g>
<g style="fill:none; 
stroke:#000000; stroke-width:0.6096; stroke-opacity:1; 
stroke-linecap:round; stroke-linejoin:round;">
<path d="M70.1374 22.7830
L71.9948 20.9256
" />
<path d="M71.9948 20.9256
L73.3600 20.9256
" />
<path d="M59.3900 22.7830
L70.1374 22.7830
" />
<path d="M59.3900 22.7830
L59.3900 23.4180
" />
</g>
<g style="fill:none; 
stroke:#000000; stroke-width:0.4064; stroke-opacity:1; 
stroke-linecap:round; stroke-linejoin:round;">
<path d="M88.6000 38.6580
L89.8700 39.9280
" />
<path d="M79.0750 39.9280
L80.3450 38.6580
" />
<path d="M74.6300 39.9280
L79.0750 39.9280
" />
<path d="M80.3450 38.6580
L88.6000 38.6580
" />
<path d="M73.3600 41.1980
L74.6300 39.9280
" />
<path d="M21.9250 41.8330
L25.1000 45.0080
" />
<path d="M21.9250 28.4980
L21.9250 41.8330
" />
<path d="M23.8300 26.5930
L21.9250 28.4980
" />
<path d="M53.6750 33.5536
L53.6750 29.7680
" />
<path d="M59.4144 39.2930
L53.6750 33.5536
" />
<path d="M53.6750 29.7680
L50.5000 26.5930
" />
<path d="M64.4700 39.2930
L59.4144 39.2930
" />
<path d="M50.5000 26.5930
L23.8300 26.5930
" />
<path d="M73.3600 33.5780
L70.1850 33.5780
" />
<path d="M70.1850 33.5780
L64.4700 39.2930
" />
<path d="M83.5200 48.8180
L88.6000 48.8180
" />
<path d="M81.6150 50.7230
L83.5200 48.8180
" />
<path d="M77.8050 50.7230
L81.6150 50.7230
" />
<path d="M75.2650 48.1830
L77.8050 50.7230
" />
<path d="M88.6000 48.8180
L89.8700 47.5480
" />
</g>
<g style="fill:none; 
stroke:#000000; stroke-width:0.6096; stroke-opacity:1; 
stroke-linecap:round; stroke-linejoin:round;">
<path d="M79.0750 28.4980
L80.9800 28.4980
" />
<path d="M75.9000 31.6730
L79.0750 28.4980
" />
<path d="M70.8200 31.6730
L75.9000 31.6730
" />
<path d="M81.6250 23.4080
L74.9475 30.0855
" />
<path d="M91.7750 23.4080
L81.6250 23.4080
" />
<path d="M66.6925 30.0855
L64.8250 31.9530
" />
<path d="M68.9150 27.8630
L66.6925 30.0855
" />
<path d="M74.9475 30.0855
L66.6925 30.0855
" />
</g>
<g style="fill:none; 
stroke:#000000; stroke-width:0.4064; stroke-opacity:1; 
stroke-linecap:round; stroke-linejoin:round;">
<path d="M79.0750 31.0380
L79.0750 32.3080
" />
<path d="M80.3550 20.8680
L91.7750 20.8680
" />
<path d="M72.7250 28.4980
L80.3550 20.8680
" />
<path d="M72.0900 27.2280
L80.9900 18.3280
" />
<path d="M70.8200 27.2280
L72.0900 27.2280
" />
<path d="M80.9900 18.3280
L91.7750 18.3280
" />
</g>
<g style="fill:none; 
stroke:#000000; stroke-width:0.6096; stroke-opacity:1; 
stroke-linecap:round; stroke-linejoin:round;">
<path d="M60.6600 31.9530
L58.1200 31.9530
" />
<path d="M64.8250 31.9530
L60.6600 31.9530
" />
<path d="M68.9150 25.9580
L68.9150 27.8630
" />
</g>
<g style="fill:none; 
stroke:#000000; stroke-width:0.4064; stroke-opacity:1; 
stroke-linecap:round; stroke-linejoin:round;">
<path d="M67.6450 24.6880
L68.9150 25.9580
" />
<path d="M65.1700 24.6880
L67.6450 24.6880
" />
<path d="M65.7400 28.4980
L63.8350 28.4980
" />
<path d="M63.8350 24.6230
L63.8350 28.4980
" />
<path d="M62.5650 27.2280
L61.9300 26.5930
" />
<path d="M67.6450 53.8980
L69.2700 53.8980
" />
<path d="M63.8350 50.0880
L67.6450 53.8980
" />
<path d="M58.1200 49.4530
L58.1200 54.2405
" />
<path d="M58.1200 49.4530
L58.1200 51.9930
" />
<path d="M52.4050 52.6280
L48.8310 52.6280
" />
<path d="M55.5800 49.4530
L52.4050 52.6280
" />
<path d="M88.6000 43.7380
L89.8700 42.4680
" />
<path d="M77.8050 43.7380
L88.6000 43.7380
" />
<path d="M73.9950 47.5480
L77.8050 43.7380
" />
<path d="M52.2055 47.5480
L73.9950 47.5480
" />
<path d="M49.6655 50.0880
L52.2055 47.5480
" />
<path d="M77.1700 42.4680
L82.2500 42.4680
" />
<path d="M73.3600 46.2780
L77.1700 42.4680
" />
<path d="M49.8650 47.5480
L51.1350 46.2780
" />
<path d="M51.1350 46.2780
L73.3600 46.2780
" />
<path d="M48.8310 47.5480
L49.8650 47.5480
" />
</g>
<g style="fill:none; 
stroke:#000000; stroke-width:0.6096; stroke-opacity:1; 
stroke-linecap:round; stroke-linejoin:round;">
<path d="M70.8200 51.3580
L70.8200 58.9780
" />
</g>
<g style="fill:none; 
stroke:#000000; stroke-width:0.4064; stroke-opacity:1; 
stroke-linecap:round; stroke-linejoin:round;">
<path d="M66.0575 43.7380
L72.4075 37.3880
" />
<path d="M72.4075 37.3880
L77.1700 37.3880
" />
<path d="M50.9355 43.7380
L66.0575 43.7380
" />
<path d="M49.6655 42.4680
L50.9355 43.7380
" />
<path d="M64.1275 56.4380
L69.2700 56.4380
" />
<path d="M61.9300 54.2405
L64.1275 56.4380
" />
</g>
<g style="fill:none; 
stroke:#000000; stroke-width:0.6096; stroke-opacity:1; 
stroke-linecap:round; stroke-linejoin:round;">
<path d="M76.2325 58.6455
L75.9000 58.9780
" />
<path d="M76.2325 56.7530
L76.2325 58.6455
" />
<path d="M75.9000 58.9780
L80.9800 58.9780
" />
<path d="M70.8200 58.9780
L75.9000 58.9780
" />
</g>
<g style="fill:none; 
stroke:#000000; stroke-width:0.4064; stroke-opacity:1; 
stroke-linecap:round; stroke-linejoin:round;">
<path d="M78.4400 55.4705
L78.4400 52.6280
" />
<path d="M78.1075 55.8030
L78.4400 55.4705
" />
<path d="M73.9950 55.8030
L78.1075 55.8030
" />
<path d="M73.3600 56.4380
L73.9950 55.8030
" />
<path d="M72.3700 56.4380
L73.3600 56.4380
" />
<path d="M75.2775 53.8980
L76.2325 54.8530
" />
<path d="M72.3700 53.8980
L75.2775 53.8980
" />
<path d="M83.5200 10.7180
L80.9800 10.7180
" />
</g>
<g style="fill:none; 
stroke:#000000; stroke-width:0.6096; stroke-opacity:1; 
stroke-linecap:round; stroke-linejoin:round;">
<path d="M88.6000 10.7180
L83.5200 10.7180
" />
<path d="M80.9800 10.7180
L78.4400 10.7180
" />
<path d="M56.5575 58.9780
L55.5800 58.0005
" />
<path d="M60.6600 58.9780
L56.5575 58.9780
" />
<path d="M80.9900 15.7880
L80.9800 15.7980
" />
<path d="M91.7750 15.7880
L80.9900 15.7880
" />
<path d="M70.8200 18.3380
L70.7324 18.4256
" />
<path d="M70.8200 11.3530
L70.8200 18.3380
" />
<path d="M71.4550 10.7180
L70.8200 11.3530
" />
<path d="M73.3600 10.7180
L71.4550 10.7180
" />
<path d="M70.7324 18.4256
L67.6450 21.5130
" />
<path d="M73.3600 18.4256
L70.7324 18.4256
" />
<path d="M60.6600 58.9780
L70.8200 58.9780
" />
<path d="M60.6600 56.4856
L60.6600 58.9780
" />
</g>
<g style="fill:none; 
stroke:#000000; stroke-width:0.4064; stroke-opacity:1; 
stroke-linecap:round; stroke-linejoin:round;">
<path d="M60.6600 54.2405
L58.1200 54.2405
" />
<path d="M61.9300 54.2405
L60.6600 54.2405
" />
<path d="M80.9656 46.2924
L78.4400 48.8180
" />
<path d="M88.5856 46.2924
L80.9656 46.2924
" />
<path d="M89.8700 45.0080
L88.5856 46.2924
" />
</g>
<g style="fill:none; 
stroke:#000000; stroke-width:0.6096; stroke-opacity:1; 
stroke-linecap:round; stroke-linejoin:round;">
<path d="M58.1200 31.9530
L58.1200 34.3401
" />
</g>
<g style="fill:none; 
stroke:#000000; stroke-width:0.4064; stroke-opacity:1; 
stroke-linecap:round; stroke-linejoin:round;">
<path d="M60.0663 37.3880
L64.4700 37.3880
" />
</g>
<g style="fill:none; 
stroke:#000000; stroke-width:0.6096; stroke-opacity:1; 
stroke-linecap:round; stroke-linejoin:round;">
<path d="M21.2900 21.5130
L67.6450 21.5130
" />
<path d="M25.1000 55.1680
L16.8450 46.9130
" />
<path d="M16.8450 46.9130
L16.8450 25.9580
" />
<path d="M16.8450 25.9580
L21.2900 21.5130
" />
<path d="M18.1150 45.5500
L25.1930 52.6280
" />
<path d="M18.1150 26.5930
L18.1150 45.5500
" />
<path d="M22.0138 22.6942
L18.1150 26.5930
" />
<path d="M59.3012 22.6942
L22.0138 22.6942
" />
<path d="M59.3900 22.7830
L59.3012 22.6942
" />
<path d="M91.1350 28.4980
L80.9800 28.4980
" />
<path d="M75.9000 15.7980
L80.9800 15.7980
" />
<path d="M75.9000 15.7980
L75.9000 14.5280
" />
<path d="M75.9000 19.6080
L75.9000 15.7980
" />
</g>
<g style="fill:none; 
stroke:#000000; stroke-width:0.4064; stroke-opacity:1; 
stroke-linecap:round; stroke-linejoin:round;">
<path d="M82.2500 45.0080
L79.7100 45.0080
" />
<path d="M79.7100 45.0080
L79.0750 45.6430
" />
<path d="M78.6080 38.6580
L79.8780 37.3880
" />
<path d="M73.3600 38.6580
L78.6080 38.6580
" />
<path d="M79.8780 37.3880
L82.2500 37.3880
" />
<path d="M48.8310 45.0080
L67.0100 45.0080
" />
<path d="M67.0100 45.0080
L73.3600 38.6580
" />
<path d="M88.6000 33.5780
L89.8700 34.8480
" />
<path d="M79.7100 34.8480
L80.9800 33.5780
" />
<path d="M70.8200 34.8480
L79.7100 34.8480
" />
<path d="M65.1050 40.5630
L70.8200 34.8480
" />
<path d="M80.9800 33.5780
L88.6000 33.5780
" />
<path d="M52.4050 34.2130
L58.7550 40.5630
" />
<path d="M49.8650 27.8630
L52.4050 30.4030
" />
<path d="M58.7550 40.5630
L65.1050 40.5630
" />
<path d="M24.4650 27.8630
L49.8650 27.8630
" />
<path d="M52.4050 30.4030
L52.4050 34.2130
" />
<path d="M23.1950 41.1980
L23.1950 29.1330
" />
<path d="M24.4650 42.4680
L23.1950 41.1980
" />
<path d="M23.1950 29.1330
L24.4650 27.8630
" />
<path d="M25.4810 42.4680
L24.4650 42.4680
" />
</g>
<g style="fill:none; 
stroke:#000000; stroke-width:0.6096; stroke-opacity:1; 
stroke-linecap:round; stroke-linejoin:round;">
<path d="M55.4475 25.9383
L55.4475 27.7305
" />
</g>
<g style="fill:none; 
stroke:#000000; stroke-width:0.4064; stroke-opacity:1; 
stroke-linecap:round; stroke-linejoin:round;">
<path d="M55.4475 27.7305
L55.5800 27.8630
" />
<path d="M56.2150 30.4030
L60.6600 30.4030
" />
<path d="M53.1725 27.3605
L56.2150 30.4030
" />
<path d="M53.1725 25.9383
L53.1725 27.3605
" />
<path d="M55.8600 31.9530
L55.5800 31.6730
" />
</g>
<g style="fill:none; 
stroke:#000000; stroke-width:0.6096; stroke-opacity:1; 
stroke-linecap:round; stroke-linejoin:round;">
<path d="M58.1200 31.9530
L55.8600 31.9530
" />
</g>
<g style="fill:none; 
stroke:#000000; stroke-width:0.4064; stroke-opacity:1; 
stroke-linecap:round; stroke-linejoin:round;">
<path d="M61.2950 24.6230
L60.5950 25.3230
" />
<path d="M60.5950 25.3230
L60.0250 25.3230
" />
<path d="M58.1200 26.5930
L61.9300 26.5930
" />
<path d="M58.1200 25.6780
L58.1200 26.5930
" />
<path d="M65.7400 41.8330
L55.5800 41.8330
" />
<path d="M71.4550 36.1180
L65.7400 41.8330
" />
<path d="M88.6000 36.1180
L71.4550 36.1180
" />
<path d="M89.8700 37.3880
L88.6000 36.1180
" />
<path d="M58.1200 28.8530
L58.1200 25.6780
" />
<path d="M60.6600 28.8530
L60.6600 30.4030
" />
<path d="M58.1200 24.6880
L57.4850 24.0530
" />
<path d="M58.1200 25.6780
L58.1200 24.6880
" />
<path d="M55.4475 24.0383
L55.4475 22.9155
" />
<path d="M54.4975 24.9883
L55.4475 24.0383
" />
<path d="M53.1725 24.9883
L54.4975 24.9883
" />
<path d="M52.3853 25.9383
L53.1725 25.9383
" />
<path d="M51.7700 25.3230
L52.3853 25.9383
" />
<path d="M19.3850 27.2280
L22.5600 24.0530
" />
<path d="M22.5600 24.0530
L53.1578 24.0530
" />
<path d="M24.9730 50.0880
L19.3850 44.5000
" />
<path d="M19.3850 44.5000
L19.3850 27.2280
" />
<path d="M20.6550 43.2300
L24.9730 47.5480
" />
<path d="M20.6550 27.8630
L20.6550 43.2300
" />
<path d="M23.1950 25.3230
L20.6550 27.8630
" />
<path d="M51.7700 25.3230
L23.1950 25.3230
" />
</g>
<g style="fill:none; 
stroke:#000000; stroke-width:0.6096; stroke-opacity:1; 
stroke-linecap:round; stroke-linejoin:round;">
<path d="M48.8310 55.1680
L57.1925 55.1680
" />
<path d="M57.1925 55.1680
L58.1200 54.2405
" />
</g>
<g style="fill:none; 
stroke:#000000; stroke-width:0.4064; stroke-opacity:1; 
stroke-linecap:round; stroke-linejoin:round;">
<path d="M79.7100 33.5780
L77.1700 33.5780
" />
<path d="M82.2500 31.0380
L79.7100 33.5780
" />
<path d="M91.1350 31.0380
L82.2500 31.0380
" />
<path d="M91.7750 30.3980
L91.1350 31.0380
" />
<path d="M55.6100 15.8280
L59.3900 19.6080
" />
<path d="M55.6100 14.5030
L55.6100 15.8280
" />
<path d="M62.5650 16.3780
L60.6900 14.5030
" />
<path d="M62.5650 19.6730
L62.5650 16.3780
" />
<path d="M63.8350 19.6730
L63.8350 15.1080
" />
<path d="M65.1050 15.1680
L65.7700 14.5030
" />
<path d="M65.1050 19.6730
L65.1050 15.1680
" />
<path d="M59.4550 19.6730
L59.3900 19.6080
" />
<path d="M61.2950 19.6730
L59.4550 19.6730
" />
<path d="M62.5650 25.9580
L61.9300 26.5930
" />
<path d="M62.5650 24.6230
L62.5650 25.9580
" />
</g>
<g style="fill:none; 
stroke:#000000; stroke-width:0.6096; stroke-opacity:1; 
stroke-linecap:round; stroke-linejoin:round;">
<path d="M80.9800 58.9780
L82.2500 57.7080
" />
<path d="M78.4400 10.7180
L75.2650 13.8930
" />
<path d="M89.8700 9.4480
L88.6000 10.7180
" />
<path d="M75.9000 14.5280
L75.2650 13.8930
" />
<path d="M75.2650 13.8930
L74.5900 13.2180
" />
<path d="M74.5900 13.2180
L73.3600 13.2180
" />
<path d="M74.6300 20.8780
L75.9000 19.6080
" />
<path d="M73.4076 20.8780
L74.6300 20.8780
" />
<path d="M77.8050 9.4480
L82.2500 9.4480
" />
<path d="M76.5350 10.7180
L77.8050 9.4480
" />
<path d="M73.3600 10.7180
L76.5350 10.7180
" />
<path style="fill:#000000; fill-opacity:1.0000; stroke:none;fill-rule:evenodd;"
d="M 73.0583,20.1973
73.0586,20.1979
73.3588,20.9204
73.3589,20.9294
73.3588,20.9294
73.0581,21.6545
73.0518,21.6608
73.0434,21.6610
72.0468,21.3080
72.0424,21.3053
71.6249,20.8878
71.6215,20.8795
71.6249,20.8712
71.6281,20.8690
73.0427,20.1918
73.0517,20.1914
Z" /> 
<path style="fill:#000000; fill-opacity:1.0000; stroke:none;fill-rule:evenodd;"
d="M 72.5665,9.9245
73.0046,10.3621
73.3527,10.7097
73.3561,10.7180
73.3527,10.7263
73.3527,10.7263
72.5666,11.5115
72.5583,11.5149
72.5521,11.5131
71.7655,11.0262
71.7603,11.0190
71.7600,11.0163
71.7600,10.4197
71.7634,10.4114
71.7655,10.4098
72.5521,9.9229
72.5610,9.9214
Z" /> 
<path style="fill:#000000; fill-opacity:1.0000; stroke:none;fill-rule:evenodd;"
d="M 72.5665,17.6322
73.0046,18.0697
73.3527,18.4173
73.3561,18.4256
73.3527,18.4339
73.3527,18.4339
72.5666,19.2191
72.5583,19.2225
72.5521,19.2207
71.7655,18.7339
71.7603,18.7266
71.7600,18.7239
71.7600,18.1273
71.7634,18.1191
71.7655,18.1174
72.5521,17.6305
72.5610,17.6291
Z" /> 
<path style="fill:#000000; fill-opacity:1.0000; stroke:none;fill-rule:evenodd;"
d="M 61.3890,56.7876
61.3954,56.7939
61.3956,56.8021
60.9675,58.0776
60.9616,58.0844
60.9564,58.0856
60.3636,58.0856
60.3553,58.0822
60.3525,58.0776
59.9244,56.8021
59.9250,56.7932
59.9310,56.7876
60.6555,56.4865
60.6645,56.4865
Z" /> 
<path style="fill:#000000; fill-opacity:1.0000; stroke:none;fill-rule:evenodd;"
d="M 59.8679,53.3098
60.6513,53.9774
60.6554,53.9854
60.6527,53.9939
60.6520,53.9946
59.8656,54.7800
59.8573,54.7835
59.8527,54.7825
59.0671,54.4467
59.0608,54.4403
59.0600,54.4360
59.0600,54.0424
59.0634,54.0342
59.0638,54.0338
59.8524,53.3101
59.8608,53.3070
Z" /> 
<path style="fill:#000000; fill-opacity:1.0000; stroke:none;fill-rule:evenodd;"
d="M 61.4670,53.4117
62.2995,54.3219
62.3025,54.3303
62.2991,54.3381
62.0217,54.6154
62.0168,54.6184
61.4667,54.7836
61.4578,54.7827
61.4551,54.7807
60.6690,53.9946
60.6656,53.9863
60.6690,53.9781
60.6704,53.9769
61.4515,53.4101
61.4603,53.4080
Z" /> 
<path style="fill:#000000; fill-opacity:1.0000; stroke:none;fill-rule:evenodd;"
d="M 73.6764,12.4847
73.6776,12.4853
74.2057,12.7813
75.0537,13.2565
75.0592,13.2636
75.0582,13.2725
75.0562,13.2750
74.6383,13.6929
74.6331,13.6960
73.6761,13.9544
73.6672,13.9533
73.6622,13.9476
73.3822,13.2725
73.3612,13.2218
73.3611,13.2128
73.6611,12.4910
73.6674,12.4847
Z" /> 
<path style="fill:#000000; fill-opacity:1.0000; stroke:none;fill-rule:evenodd;"
d="M 74.6380,20.4350
74.6434,20.4381
75.0613,20.8560
75.0647,20.8643
75.0613,20.8726
75.0588,20.8745
73.6776,21.6582
73.6688,21.6593
73.6617,21.6538
73.6611,21.6525
73.3612,20.9308
73.3611,20.9219
73.6623,20.1959
73.6686,20.1896
73.6760,20.1890
Z" /> 
<path style="fill:#000000; fill-opacity:1.0000; stroke:none;fill-rule:evenodd;"
d="M 74.1679,9.9229
74.9545,10.4098
74.9597,10.4170
74.9600,10.4197
74.9600,11.0163
74.9566,11.0246
74.9545,11.0262
74.1679,11.5131
74.1590,11.5146
74.1534,11.5115
73.3673,10.7263
73.3639,10.7180
73.3673,10.7097
73.3673,10.7097
74.1534,9.9245
74.1617,9.9211
Z" /> 
</g>
<g style="fill:#FFFFFF; fill-opacity:1.0000; stroke:none;">
<circle cx="75.2650" cy="25.9580" r="0.1270" /> 
</g>
<g style="fill:#FFFFFF; fill-opacity:1.0000; stroke:none;">
<circle cx="79.0750" cy="18.9730" r="0.1270" /> 
</g>
<g style="fill:#FFFFFF; fill-opacity:1.0000; stroke:none;">
<circle cx="75.2650" cy="48.1830" r="0.1270" /> 
</g>
<g style="fill:#FFFFFF; fill-opacity:1.0000; stroke:none;">
<circle cx="70.8200" cy="27.2280" r="0.1270" /> 
</g>
<g style="fill:#FFFFFF; fill-opacity:1.0000; stroke:none;">
<circle cx="79.0750" cy="32.3080" r="0.1270" /> 
</g>
<g style="fill:#FFFFFF; fill-opacity:1.0000; stroke:none;">
<circle cx="72.7250" cy="28.4980" r="0.1270" /> 
</g>
<g style="fill:#FFFFFF; fill-opacity:1.0000; stroke:none;">
<circle cx="65.7400" cy="28.4980" r="0.1270" /> 
</g>
<g style="fill:#FFFFFF; fill-opacity:1.0000; stroke:none;">
<circle cx="78.4400" cy="48.8180" r="0.1270" /> 
</g>
<g style="fill:#FFFFFF; fill-opacity:1.0000; stroke:none;">
<circle cx="78.4400" cy="52.6280" r="0.1270" /> 
</g>
<g style="fill:#FFFFFF; fill-opacity:1.0000; stroke:none;">
<circle cx="80.9800" cy="15.7980" r="0.1270" /> 
</g>
<g style="fill:#FFFFFF; fill-opacity:1.0000; stroke:none;">
<circle cx="55.5800" cy="27.8630" r="0.1270" /> 
</g>
<g style="fill:#FFFFFF; fill-opacity:1.0000; stroke:none;">
<circle cx="55.5800" cy="31.6730" r="0.1270" /> 
</g>
<g style="fill:#FFFFFF; fill-opacity:1.0000; stroke:none;">
<circle cx="60.0663" cy="37.3880" r="0.1270" /> 
</g>
<g style="fill:#FFFFFF; fill-opacity:1.0000; stroke:none;">
<circle cx="60.0250" cy="25.3230" r="0.1270" /> 
</g>
<g style="fill:#FFFFFF; fill-opacity:1.0000; stroke:none;">
<circle cx="51.1350" cy="24.0530" r="0.1270" /> 
</g>
<g style="fill:#FFFFFF; fill-opacity:1.0000; stroke:none;">
<circle cx="57.4850" cy="24.0530" r="0.1270" /> 
</g>
<g style="fill:#FFFFFF; fill-opacity:1.0000; stroke:none;">
<circle cx="70.8200" cy="51.3580" r="0.1270" /> 
</g>
<g style="fill:#FFFFFF; fill-opacity:1.0000; stroke:none;">
<circle cx="70.8200" cy="31.6730" r="0.1270" /> 
</g>
<g style="fill:#FFFFFF; fill-opacity:1.0000; stroke:none;">
<circle cx="79.0750" cy="31.0380" r="0.1270" /> 
</g>
<g style="fill:#FFFFFF; fill-opacity:1.0000; stroke:none;">
<circle cx="58.1200" cy="34.3401" r="0.1270" /> 
</g>
<g style="fill:#FFFFFF; fill-opacity:1.0000; stroke:none;">
<circle cx="58.1200" cy="49.4530" r="0.1270" /> 
</g>
<g style="fill:#FFFFFF; fill-opacity:1.0000; stroke:none;">
<circle cx="59.3900" cy="19.6080" r="0.1270" /> 
</g>
<g style="fill:#FFFFFF; fill-opacity:1.0000; stroke:none;">
<circle cx="59.3900" cy="23.4180" r="0.1270" /> 
</g>
<g style="fill:#FFFFFF; fill-opacity:1.0000; stroke:none;">
<circle cx="77.1700" cy="33.5780" r="0.1270" /> 
</g>
<g style="fill:#FFFFFF; fill-opacity:1.0000; stroke:none;">
<circle cx="77.1700" cy="37.3880" r="0.1270" /> 
</g>
<g style="fill:#FFFFFF; fill-opacity:1.0000; stroke:none;">
<circle cx="63.8350" cy="37.3880" r="0.1270" /> 
</g>
<g style="fill:#FFFFFF; fill-opacity:1.0000; stroke:none;">
<circle cx="63.8350" cy="49.4530" r="0.1270" /> 
</g>
<g style="fill:#FFFFFF; fill-opacity:1.0000; stroke:none;">
<circle cx="55.5800" cy="41.8330" r="0.1270" /> 
</g>
<g style="fill:#FFFFFF; fill-opacity:1.0000; stroke:none;">
<circle cx="55.5800" cy="49.4530" r="0.1270" /> 
</g>
<g style="fill:#FFFFFF; fill-opacity:1.0000; stroke:none;">
<circle cx="73.3600" cy="33.5780" r="0.1270" /> 
</g>
<g style="fill:#FFFFFF; fill-opacity:1.0000; stroke:none;">
<circle cx="73.3600" cy="41.1980" r="0.1270" /> 
</g>
<g style="fill:#FFFFFF; fill-opacity:1.0000; stroke:none;">
<circle cx="79.0750" cy="45.6430" r="0.2500" /> 
</g>
<g style="fill:#FFFFFF; fill-opacity:1.0000; stroke:none;">
<circle cx="80.9800" cy="28.4980" r="0.1270" /> 
</g>
<g style="fill:#FFFFFF; fill-opacity:1.0000; stroke:none;">
<circle cx="62.5650" cy="27.2280" r="0.1270" /> 
</g>
<g style="fill:#FFFFFF; fill-opacity:1.0000; stroke:none;">
<circle cx="73.3600" cy="18.4256" r="0.4000" /> 
</g>
<g style="fill:#FFFFFF; fill-opacity:1.0000; stroke:none;">
<circle cx="73.3600" cy="20.9256" r="0.4000" /> 
</g>
<g style="fill:#FFFFFF; fill-opacity:1.0000; stroke:none;">
<circle cx="73.3600" cy="10.7180" r="0.4000" /> 
</g>
<g style="fill:#FFFFFF; fill-opacity:1.0000; stroke:none;">
<circle cx="73.3600" cy="13.2180" r="0.4000" /> 
</g>
<g style="fill:#FFFFFF; fill-opacity:1.0000; stroke:none;">
<circle cx="60.6600" cy="56.4856" r="0.4000" /> 
</g>
<g style="fill:#FFFFFF; fill-opacity:1.0000; stroke:none;">
<circle cx="60.6600" cy="53.9856" r="0.4000" /> 
</g>
<g style="fill:#FFFFFF; fill-opacity:1.0000; stroke:none;">
<circle cx="55.6100" cy="14.5030" r="0.2500" /> 
</g>
<g style="fill:#FFFFFF; fill-opacity:1.0000; stroke:none;">
<circle cx="58.1500" cy="14.5030" r="0.2500" /> 
</g>
<g style="fill:#FFFFFF; fill-opacity:1.0000; stroke:none;">
<circle cx="60.6900" cy="14.5030" r="0.2500" /> 
</g>
<g style="fill:#FFFFFF; fill-opacity:1.0000; stroke:none;">
<circle cx="63.2300" cy="14.5030" r="0.2500" /> 
</g>
<g style="fill:#FFFFFF; fill-opacity:1.0000; stroke:none;">
<circle cx="65.7700" cy="14.5030" r="0.2500" /> 
</g>
<g style="fill:#FFFFFF; fill-opacity:1.0000; stroke:none;">
<circle cx="25.4810" cy="52.6280" r="0.3810" /> 
</g>
<g style="fill:#FFFFFF; fill-opacity:1.0000; stroke:none;">
<circle cx="25.4810" cy="37.3880" r="0.3810" /> 
</g>
<g style="fill:#FFFFFF; fill-opacity:1.0000; stroke:none;">
<circle cx="25.4810" cy="39.9280" r="0.3810" /> 
</g>
<g style="fill:#FFFFFF; fill-opacity:1.0000; stroke:none;">
<circle cx="48.8310" cy="52.6280" r="0.3810" /> 
</g>
<g style="fill:#FFFFFF; fill-opacity:1.0000; stroke:none;">
<circle cx="48.8310" cy="50.0880" r="0.3810" /> 
</g>
<g style="fill:#FFFFFF; fill-opacity:1.0000; stroke:none;">
<circle cx="48.8310" cy="47.5480" r="0.3810" /> 
</g>
<g style="fill:#FFFFFF; fill-opacity:1.0000; stroke:none;">
<circle cx="48.8310" cy="45.0080" r="0.3810" /> 
</g>
<g style="fill:#FFFFFF; fill-opacity:1.0000; stroke:none;">
<circle cx="25.4810" cy="50.0880" r="0.3810" /> 
</g>
<g style="fill:#FFFFFF; fill-opacity:1.0000; stroke:none;">
<circle cx="25.4810" cy="47.5480" r="0.3810" /> 
</g>
<g style="fill:#FFFFFF; fill-opacity:1.0000; stroke:none;">
<circle cx="25.4810" cy="45.0080" r="0.3810" /> 
</g>
<g style="fill:#FFFFFF; fill-opacity:1.0000; stroke:none;">
<circle cx="25.4810" cy="42.4680" r="0.3810" /> 
</g>
<g style="fill:#FFFFFF; fill-opacity:1.0000; stroke:none;">
<circle cx="48.8310" cy="42.4680" r="0.3810" /> 
</g>
<g style="fill:#FFFFFF; fill-opacity:1.0000; stroke:none;">
<circle cx="48.8310" cy="39.9280" r="0.3810" /> 
</g>
<g style="fill:#FFFFFF; fill-opacity:1.0000; stroke:none;">
<circle cx="48.8310" cy="55.1680" r="0.3810" /> 
</g>
<g style="fill:#FFFFFF; fill-opacity:1.0000; stroke:none;">
<circle cx="48.8310" cy="37.3880" r="0.3810" /> 
</g>
<g style="fill:#FFFFFF; fill-opacity:1.0000; stroke:none;">
<circle cx="25.4810" cy="55.1680" r="0.3810" /> 
</g>
<g style="fill:#FFFFFF; fill-opacity:1.0000; stroke:none;">
<circle cx="91.7750" cy="23.4080" r="0.2500" /> 
</g>
<g style="fill:#FFFFFF; fill-opacity:1.0000; stroke:none;">
<circle cx="91.7750" cy="20.8680" r="0.2500" /> 
</g>
<g style="fill:#FFFFFF; fill-opacity:1.0000; stroke:none;">
<circle cx="91.7750" cy="18.3280" r="0.2500" /> 
</g>
<g style="fill:#FFFFFF; fill-opacity:1.0000; stroke:none;">
<circle cx="91.7750" cy="15.7880" r="0.2500" /> 
</g>
<g style="fill:#FFFFFF; fill-opacity:1.0000; stroke:none;">
<circle cx="91.7750" cy="27.8580" r="0.5000" /> 
</g>
<g style="fill:#FFFFFF; fill-opacity:1.0000; stroke:none;">
<circle cx="91.7750" cy="30.3980" r="0.5000" /> 
</g>
<g style="fill:#FFFFFF; fill-opacity:1.0000; stroke:none;">
<circle cx="82.2500" cy="57.7080" r="0.2500" /> 
</g>
<g style="fill:#FFFFFF; fill-opacity:1.0000; stroke:none;">
<circle cx="89.8700" cy="57.7080" r="0.2500" /> 
</g>
<g style="fill:#FFFFFF; fill-opacity:1.0000; stroke:none;">
<circle cx="82.2500" cy="55.1680" r="0.2500" /> 
</g>
<g style="fill:#FFFFFF; fill-opacity:1.0000; stroke:none;">
<circle cx="89.8700" cy="55.1680" r="0.2500" /> 
</g>
<g style="fill:#FFFFFF; fill-opacity:1.0000; stroke:none;">
<circle cx="82.2500" cy="47.5480" r="0.2500" /> 
</g>
<g style="fill:#FFFFFF; fill-opacity:1.0000; stroke:none;">
<circle cx="89.8700" cy="47.5480" r="0.2500" /> 
</g>
<g style="fill:#FFFFFF; fill-opacity:1.0000; stroke:none;">
<circle cx="82.2500" cy="45.0080" r="0.2500" /> 
</g>
<g style="fill:#FFFFFF; fill-opacity:1.0000; stroke:none;">
<circle cx="89.8700" cy="45.0080" r="0.2500" /> 
</g>
<g style="fill:#FFFFFF; fill-opacity:1.0000; stroke:none;">
<circle cx="82.2500" cy="42.4680" r="0.2500" /> 
</g>
<g style="fill:#FFFFFF; fill-opacity:1.0000; stroke:none;">
<circle cx="89.8700" cy="42.4680" r="0.2500" /> 
</g>
<g style="fill:#FFFFFF; fill-opacity:1.0000; stroke:none;">
<circle cx="82.2500" cy="39.9280" r="0.2500" /> 
</g>
<g style="fill:#FFFFFF; fill-opacity:1.0000; stroke:none;">
<circle cx="89.8700" cy="39.9280" r="0.2500" /> 
</g>
<g style="fill:#FFFFFF; fill-opacity:1.0000; stroke:none;">
<circle cx="82.2500" cy="37.3880" r="0.2500" /> 
</g>
<g style="fill:#FFFFFF; fill-opacity:1.0000; stroke:none;">
<circle cx="89.8700" cy="37.3880" r="0.2500" /> 
</g>
<g style="fill:#FFFFFF; fill-opacity:1.0000; stroke:none;">
<circle cx="82.2500" cy="34.8480" r="0.2500" /> 
</g>
<g style="fill:#FFFFFF; fill-opacity:1.0000; stroke:none;">
<circle cx="89.8700" cy="34.8480" r="0.2500" /> 
</g>
<g style="fill:#FFFFFF; fill-opacity:1.0000; stroke:none;">
<circle cx="82.2500" cy="11.9880" r="0.2500" /> 
</g>
<g style="fill:#FFFFFF; fill-opacity:1.0000; stroke:none;">
<circle cx="89.8700" cy="11.9880" r="0.2500" /> 
</g>
<g style="fill:#FFFFFF; fill-opacity:1.0000; stroke:none;">
<circle cx="82.2500" cy="9.4480" r="0.2500" /> 
</g>
<g style="fill:#FFFFFF; fill-opacity:1.0000; stroke:none;">
<circle cx="89.8700" cy="9.4480" r="0.2500" /> 
</g>
<g style="fill:#FFFFFF; fill-opacity:1.0000; stroke:none;">
<circle cx="84.7900" cy="9.4480" r="0.5000" /> 
</g>
<g style="fill:#FFFFFF; fill-opacity:1.0000; stroke:none;">
<circle cx="84.7900" cy="11.9880" r="0.5000" /> 
</g>
<g style="fill:#FFFFFF; fill-opacity:1.0000; stroke:none;">
<circle cx="87.3300" cy="9.4480" r="0.5000" /> 
</g>
<g style="fill:#FFFFFF; fill-opacity:1.0000; stroke:none;">
<circle cx="87.3300" cy="11.9880" r="0.5000" /> 
</g>
<g style="fill:#FFFFFF; fill-opacity:1.0000; stroke:none;">
<circle cx="84.7900" cy="14.5280" r="0.5000" /> 
</g>
<g style="fill:#FFFFFF; fill-opacity:1.0000; stroke:none;">
<circle cx="84.7900" cy="17.0680" r="0.5000" /> 
</g>
<g style="fill:#FFFFFF; fill-opacity:1.0000; stroke:none;">
<circle cx="87.3300" cy="14.5280" r="0.5000" /> 
</g>
<g style="fill:#FFFFFF; fill-opacity:1.0000; stroke:none;">
<circle cx="87.3300" cy="17.0680" r="0.5000" /> 
</g>
<g style="fill:#FFFFFF; fill-opacity:1.0000; stroke:none;">
<circle cx="84.7900" cy="19.6080" r="0.5000" /> 
</g>
<g style="fill:#FFFFFF; fill-opacity:1.0000; stroke:none;">
<circle cx="84.7900" cy="22.1480" r="0.5000" /> 
</g>
<g style="fill:#FFFFFF; fill-opacity:1.0000; stroke:none;">
<circle cx="87.3300" cy="19.6080" r="0.5000" /> 
</g>
<g style="fill:#FFFFFF; fill-opacity:1.0000; stroke:none;">
<circle cx="87.3300" cy="22.1480" r="0.5000" /> 
</g>
<g style="fill:#FFFFFF; fill-opacity:1.0000; stroke:none;">
<circle cx="84.7900" cy="24.6880" r="0.5000" /> 
</g>
<g style="fill:#FFFFFF; fill-opacity:1.0000; stroke:none;">
<circle cx="84.7900" cy="27.2280" r="0.5000" /> 
</g>
<g style="fill:#FFFFFF; fill-opacity:1.0000; stroke:none;">
<circle cx="87.3300" cy="24.6880" r="0.5000" /> 
</g>
<g style="fill:#FFFFFF; fill-opacity:1.0000; stroke:none;">
<circle cx="87.3300" cy="27.2280" r="0.5000" /> 
</g>
<g style="fill:#FFFFFF; fill-opacity:1.0000; stroke:none;">
<circle cx="84.7900" cy="29.7680" r="0.5000" /> 
</g>
<g style="fill:#FFFFFF; fill-opacity:1.0000; stroke:none;">
<circle cx="84.7900" cy="32.3080" r="0.5000" /> 
</g>
<g style="fill:#FFFFFF; fill-opacity:1.0000; stroke:none;">
<circle cx="87.3300" cy="29.7680" r="0.5000" /> 
</g>
<g style="fill:#FFFFFF; fill-opacity:1.0000; stroke:none;">
<circle cx="87.3300" cy="32.3080" r="0.5000" /> 
</g>
<g style="fill:#FFFFFF; fill-opacity:1.0000; stroke:none;">
<circle cx="84.7900" cy="34.8480" r="0.5000" /> 
</g>
<g style="fill:#FFFFFF; fill-opacity:1.0000; stroke:none;">
<circle cx="84.7900" cy="37.3880" r="0.5000" /> 
</g>
<g style="fill:#FFFFFF; fill-opacity:1.0000; stroke:none;">
<circle cx="87.3300" cy="34.8480" r="0.5000" /> 
</g>
<g style="fill:#FFFFFF; fill-opacity:1.0000; stroke:none;">
<circle cx="87.3300" cy="37.3880" r="0.5000" /> 
</g>
<g style="fill:#FFFFFF; fill-opacity:1.0000; stroke:none;">
<circle cx="84.7900" cy="39.9280" r="0.5000" /> 
</g>
<g style="fill:#FFFFFF; fill-opacity:1.0000; stroke:none;">
<circle cx="84.7900" cy="42.4680" r="0.5000" /> 
</g>
<g style="fill:#FFFFFF; fill-opacity:1.0000; stroke:none;">
<circle cx="87.3300" cy="39.9280" r="0.5000" /> 
</g>
<g style="fill:#FFFFFF; fill-opacity:1.0000; stroke:none;">
<circle cx="87.3300" cy="42.4680" r="0.5000" /> 
</g>
<g style="fill:#FFFFFF; fill-opacity:1.0000; stroke:none;">
<circle cx="84.7900" cy="45.0080" r="0.5000" /> 
</g>
<g style="fill:#FFFFFF; fill-opacity:1.0000; stroke:none;">
<circle cx="84.7900" cy="47.5480" r="0.5000" /> 
</g>
<g style="fill:#FFFFFF; fill-opacity:1.0000; stroke:none;">
<circle cx="87.3300" cy="45.0080" r="0.5000" /> 
</g>
<g style="fill:#FFFFFF; fill-opacity:1.0000; stroke:none;">
<circle cx="87.3300" cy="47.5480" r="0.5000" /> 
</g>
<g style="fill:#FFFFFF; fill-opacity:1.0000; stroke:none;">
<circle cx="84.7900" cy="50.0880" r="0.5000" /> 
</g>
<g style="fill:#FFFFFF; fill-opacity:1.0000; stroke:none;">
<circle cx="84.7900" cy="52.6280" r="0.5000" /> 
</g>
<g style="fill:#FFFFFF; fill-opacity:1.0000; stroke:none;">
<circle cx="87.3300" cy="50.0880" r="0.5000" /> 
</g>
<g style="fill:#FFFFFF; fill-opacity:1.0000; stroke:none;">
<circle cx="87.3300" cy="52.6280" r="0.5000" /> 
</g>
<g style="fill:#FFFFFF; fill-opacity:1.0000; stroke:none;">
<circle cx="84.7900" cy="55.1680" r="0.5000" /> 
</g>
<g style="fill:#FFFFFF; fill-opacity:1.0000; stroke:none;">
<circle cx="84.7900" cy="57.7080" r="0.5000" /> 
</g>
<g style="fill:#FFFFFF; fill-opacity:1.0000; stroke:none;">
<circle cx="87.3300" cy="55.1680" r="0.5000" /> 
</g>
<g style="fill:#FFFFFF; fill-opacity:1.0000; stroke:none;">
<circle cx="87.3300" cy="57.7080" r="0.5000" /> 
<path style="fill:none; 
stroke:#000000; stroke-width:0.1000; stroke-opacity:1; 
stroke-linecap:round; stroke-linejoin:round;fill:none"
d="M 15.5750,6.9080
94.3404,6.9080
94.3404,60.2480
15.5750,60.2480
Z" /> 
</g> 
</svg>
